<?xml version="1.0" encoding="utf-8"?>
<!-- Generator: Adobe Illustrator 22.0.1, SVG Export Plug-In . SVG Version: 6.00 Build 0)  -->
<svg version="1.0" id="Layer_1" xmlns="http://www.w3.org/2000/svg" xmlns:xlink="http://www.w3.org/1999/xlink" x="0px" y="0px"
	 viewBox="0 0 300 300" enable-background="new 0 0 300 300" xml:space="preserve">
<g id="bhi">
	<g id="Layer_1_copy">
		<circle fill="#48605C" cx="150" cy="150.2" r="137.5"/>
	</g>
	<circle fill="#2B3A37" cx="150" cy="150.2" r="123.5"/>
	<g>
		<path fill="#FFFFFF" d="M95.1,113.8c-0.4-0.1-0.9-0.3-1.3-0.4c-0.1,0.2-0.2,0.3-0.3,0.5c-0.1,0-0.2,0.1-0.4,0.1
			c-0.1-0.6-0.4-1.2-0.4-1.9c0-0.7,0.2-1.4,0.4-2.3c0,0,0.3,0.1,0.6,0.1c0-0.6,0-1.1,0-1.8c-0.9,0.8-1.4,1.6-1.4,2.8
			c0,1.1-0.1,2.3-0.9,3.2c0-2,0-4,0-6.1c-2.4,1.7-3.5,4-3.6,6.8c-0.8-0.9-0.7-2.4-2.5-2.4c1.3,1,1.9,2,0.3,3.1c-1.1-1.2-2.4-1.4-4-1
			c1.1,0.5,2.9,0,3.4,1.9c-1.1-0.4-2-0.8-3-0.9s-2,0.2-3.1,0.3c1.8,0.7,4-0.2,5.5,1.6c-0.6,1.4-1.3,2.9-2,4.5c-2,4.7-2,9.4,0.2,14
			c0.8,1.6,1.7,2.1,3,1.6c1.2-0.5,1.5-1.5,1-3.1c-0.3-0.9-0.5-1.8,0.3-2.4c0.5,0.7,0.9,1.3,1.3,1.9c0.4,0.6,0.7,1.2,1.1,1.8
			c0.2,0.2,0.6,0.5,0.8,0.5c2-0.4,3.8,0.2,5.5,0.9c-0.9,0.7-1.8,1.4-2.6,2.2c5.5-0.1,7.7,2.4,7.2,5c-1.3-0.2-2.6-0.5-3.8-0.5
			c-0.9,0-1.7,0.6-2.6,0.8c-1.1,0.2-2.2,0.3-3.3,0.5c0.7,0.8,1.7,0.7,2.6,0.5c0.8-0.2,1.7-0.4,2.4,0.8c-2.3,0.9-4.4,1.7-6.6,2.5
			c-0.4,0.2-0.7,0.7-0.8,1.1c-0.2,0.5-0.2,1.1-0.4,1.7c-0.2,0-0.3,0-0.5,0c0-0.6-0.1-1.1,0-1.7c0.2-0.9,0-1.4-1-1.7
			c-0.7-0.2-1.4-0.5-2.3-0.6c0.2,0.4,0.5,0.7,0.8,1.2c-1,0.1-1.7-0.1-2.5-0.7c-2.8-2.1-3.4-5.2-4-8.5c-0.6,1-1.1,1.8-1.6,2.7
			c-0.1,0-0.2-0.1-0.3-0.1c-0.3-1.7-0.9-3.4-0.9-5.1c-0.1-1.7,0.3-3.4,0.4-5c-1.2,0.2-2.4,0.5-4,0.7c1.6-3.1,3.1-5.8,4.6-8.5
			c-1.4,0-2.7-0.4-3.6-1.4c1.1-0.8,2.3-1.5,3.2-2.4c0.9-0.9,1.6-2.1,2.5-3.3c-0.8-0.9-2-1.7-1.6-3c1.9-0.6,3.7-1.2,5.5-1.9
			c0.2-0.1,0.4-0.5,0.4-0.8c0-0.7-0.2-1.4-0.3-2.1c1.1,0.1,2.1,0.2,3,0.3c0.3,0,0.8-0.2,0.8-0.4c0.1-1.5,1.1-1,1.9-0.9
			c0.4,0,0.8-0.1,1.1-0.3c0.8-0.6,1.6-1.3,2.5-2.1c0.1,0.6,0.1,1.1,0.2,1.6c0.1,0.1,0.3,0.2,0.4,0.3c0.4-0.6,0.9-1.3,1.3-1.9
			c0.1,0.1,0.2,0.1,0.3,0.2c0,1.2,0,2.4,0,3.7c0.1,0.1,0.2,0.1,0.3,0.2c0.4-0.4,0.9-0.7,1.2-1.2c1.5-2.2,3-4.4,4.5-6.6
			c1.3-1.9,2.7-3.8,4-5.6c0.4-0.6,1-1,1.7-1.4c-0.4,1.1-0.6,2.4-1.2,3.4c-2.1,4-4.4,8-6.6,12c-0.3,0.6-1.1,1.2-0.4,2
			s1.3,1.6,2.5,1.3c0,0.1,0.1,0.2,0.1,0.3c-0.6,0.3-1.2,0.7-1.9,1.1c0.1,0.2,0.2,0.5,0.4,0.7c2.5,2.5,5.1,4.8,8.1,6.6
			c0.8,0.5,1.4,1.3,2,2c0.2,0.2,0.1,0.7,0.1,1c0,0.7-0.1,1.4,0,2c0.4,1.8-0.2,2.9-2,3.4c-0.5,0.1-1.2,0.5-1.3,0.9
			c-0.2,0.8-0.7,1.7,0.4,2.4c0.6,0.3,1.2,0.7,1.7,1.1c0.9,0.7,1.9,1.3,2.7,2.1c1.1,1,2.4,1.1,3.7,1.1c2.4-0.1,4.8-0.7,7.2-0.9
			c3-0.2,6-0.8,9,0.4c0.8,0.3,1.6,0.9,2.2,1.6c1.4,1.7,3.2,1.8,5.1,1.5c1.3-0.2,2.8-3.1,2.3-4.4c-0.3-0.8-0.7-1.6-1.2-2.5
			c-1.7,1.4-3.3,2.9-5.3,2.9c-0.2-1-0.4-1.8-0.6-2.6c-0.4-1.9-0.9-3.7,0.3-5.5c0.2-0.3,0.2-0.7,0.2-1.1c-0.1-0.1-0.3-0.2-0.4-0.3
			c-0.6,0.7-1.3,1.4-1.8,2.2c-2,2.7-4.8,3.6-7.9,3.7c0.8-2.4,1.6-4.8,2.4-7.2c-0.1-0.1-0.2-0.2-0.4-0.4c-2.5,4.1-6.8,3.7-10.7,4.6
			c0-0.2-0.2-0.4-0.1-0.6c0.2-1,0.6-2.1,0.6-3.1c-0.2-2.6,2.2-5,4.7-5.5c0.6-0.1,1.1-0.3,1.7-0.5c0-0.1,0-0.2,0-0.4
			c-0.7,0-1.3-0.1-2-0.1c-2.9,0.1-5.6-0.3-8.3-2c-2.5-1.6-4.3-3.6-5.6-6c-1.2-2.4-1.7-5-0.7-7.8c0.8-2.2,1.8-4.1,3.7-5.5
			c0.6-0.5,1.1-1.3,1.5-2.1c0.9-2.1,2-3.9,4.5-4.5c1.6-0.4,2.4-1.8,2.7-3.2c0.3-1.5,1.2-2.5,2.5-3c1.6-0.7,2.7-1.9,3.8-3.3
			c-0.5,2.2,0.8,4,1.2,5.9c0.2,1-0.1,1.9-1.1,2.5c-0.5,0.3-0.9,0.8-1.3,1.5c1,0,2-0.1,3-0.2c2.3-0.2,4.1,0.6,5.7,2.2
			c0.9,0.9,2.1,1.3,3.3,2c-0.4,0.3-0.9,0.7-1.5,1c-1.8,0.9-3.6,1.8-5.4,2.7c-2.1,1-4.2,1.5-6.4,0.5c-0.9-0.4-1.2,0-1.1,1.2
			c0.2,1.7-0.5,3-2,3.9c-1.4,0.9-3,1.2-4.4,0.1c0.2-0.9,0.4-1.7,0.6-2.5c-1.6,1.3-1.8,3.6-1.1,5.3c1.8,4.5,5.5,5.9,9.8,6.4
			c0.3,0,0.6-0.1,1.3-0.2c-0.6-0.5-0.9-0.8-1.2-1c-0.9-0.6-1.8-1.2-2.6-1.9c-1.8-1.5-1.9-3.4-0.7-5.4c0.5-0.8,0.9-1.6,1.5-2.5
			c1.4,0.8,3,1.5,4.3,2.6c0.7,0.6,0.8,1.9,1.1,2.9c0.2,0.7,1.8,2.9,2.5,3.1c0.3,0.1,0.6-0.1,0.8-0.2c0.7-0.5,1.3-1.2,2-1.7
			c0.7-0.6,0.7-1.1,0.2-1.8c-1.2-1.7-1.1-3.3,0.4-4.7c0.7-0.6,1.9-0.7,2.8-0.9c1.7-0.4,3.5-0.5,5-1.2c0.8-0.4,1.5-1.8,1.6-2.8
			c0.2-1.7-0.2-3.5-0.2-5.2c0-1.3,0.1-2.6,0.2-3.9c0.1,0,0.2,0,0.3,0c0.1,0.5,0.2,1.1,0.2,1.6c0,0.3-0.2,0.6-0.2,0.9
			c0.1,0.5,0.2,1,0.4,1.5c0.1,0.1,0.8,0.1,0.8,0c0.2-0.4,0.3-1,0.3-1.4c0-0.7-0.1-1.4-0.2-2.1c0-0.2,0.1-0.3,0.2-0.5
			c0.4,2,2.1,2.9,3.8,4.2c0.3-1.8,0.6-3.3,0.8-4.8c0-0.2-0.7-0.7-1-0.7c-1.3,0.2-2.6,0.5-4,0.8c-0.2,0-0.4,0.1-0.6,0.2
			c0-0.1-0.1-0.3-0.1-0.4c1.6-0.5,3.2-1,5.1-1.7c-0.5-0.3-0.8-0.7-1-0.6c-1.8,0.4-3.7,0.7-5.2,2.5c0-0.5-0.1-1.1,0.1-1.3
			c1.3-1.1,1.9-3.1,4-3.4c0.3-0.1,0.5-0.9,0.7-1.5c-0.4-0.1-0.8-0.3-1.2-0.4s-0.8,0-1,0c0.2-1.5,0.4-2.9,0.6-4.3
			c0.2-1.2-0.3-1.8-1.4-2.1c-0.3-0.1-0.6-0.3-1-0.5c0.2-0.2,0.4-0.4,0.6-0.6c-0.5-0.2-0.9-0.4-1.4-0.6c0-0.1,0-0.2,0.1-0.3
			c0.4,0.1,0.7,0.1,1.1,0.2c0.2,0,0.4-0.1,0.6-0.1c0.3,0.2,0.7,0.5,1.1,0.7c0-0.8,0-1.4,0-2.2c-0.7,0.4-1,0.6-1.4,0.9
			c0.1,0.3,0.2,0.5,0.3,0.7c-0.6-0.3-1.1-0.6-1.9-0.9c0.9-0.8,1.7-1.5,2.3-2c0.7,0.7,1.3,1.4,1.9,2c0.2,0.2,0.6,0.1,0.9,0.1
			c0.2,0.1,0.4,0.2,0.8,0.3c0.5-0.4,1.4-0.6,1.4-1.9c0-0.7,1.4-1.4,2.1-2.1c0.1,0.1,0.2,0.2,0.3,0.3c-0.4,0.5-0.8,1-1.2,1.4l0.1,0.1
			c1.3-1.1,2.6-2.2,4.1-3.4c-0.4-0.1-0.6-0.1-1.1-0.2c1-0.9,1.9-1.8,2.8-2.4c0.4-0.3,1.2,0.1,1.8,0c0.3,0,0.6-0.4,0.8-0.7
			c0.4-0.5,0.7-1.1,1.1-1.7c-0.3,0.2-0.6,0.3-1,0.5c0-0.2-0.1-0.3,0-0.4c1-1,2-1.9,3-2.9c0.4-0.4,0.8-0.9,1-1.5c0.2-0.5,0-1.1,0-1.6
			c-0.7-0.1-1.3-0.3-2.1-0.4c0.5-0.5,1.1-1,1.6-1.5c0.9-0.9,2.3-1.4,2.7-2.8c0,0,0.4,0.1,0.6,0.1l0,0c-0.3,1.2-0.7,2.3-0.7,3.5
			c0,1.3-1.1,1.8-1.6,2.7c-0.6,1.2-1.2,2.4-1.8,3.6c0.1,0.1,0.2,0.1,0.3,0.2c0.3-0.2,0.6-0.3,0.9-0.5c0.1,0.1,0.1,0.1,0.2,0.2
			c-0.6,0.7-1.2,1.5-1.8,2.2l0.1-0.1c-1.2,0.9-2.7,1.4-3,3.2c-0.1,0.6-0.8,1-1.2,1.6c0.4-0.2,0.7-0.5,1.1-0.8
			c-0.3,1.2-0.9,1.5-2,1.4c-0.7-0.1-1.6,0-2.2,0.3c-0.5,0.2-0.7,1-1,1.5h0.1c-0.6,0.4-1.2,0.7-1.8,1.1c-0.4,0.2-0.8,0.5-1.3,0.6
			c0.6-0.6,1.2-1.2,1.7-1.8l-0.1-0.1c-1.2,1-2.3,2-3.6,3c0.4,0,0.6,0,1,0c-0.2,0.4-0.4,0.6-0.6,0.8c0.6,0.6,0.8,1.8,2.1,1.3
			c0-0.2,0.1-0.6,0.2-1.3c0.1,0.4,0.2,0.5,0.2,0.6c0.1,0.5,0.2,1,0.4,1.5c0.2,0.4,0.5,0.6,0.7,0.9c0.1,0.2,0.1,0.5,0.2,0.8
			c0.7-0.6,1.3-1.2,2-1.7c-0.1-0.1-0.2-0.1-0.3-0.2c0.1-0.3,0-0.6,0.2-0.8c0.6-0.7,1.3-1.3,1.9-1.9l0,0c0.3-0.1,0.6-0.2,1.1-0.3
			c-0.3,0.4-0.5,0.7-0.8,1.2c0.5-0.3,0.8-0.5,1.1-0.7c0.1,0.1,0.1,0.1,0.2,0.2c-0.3,0.4-0.6,0.8-1,1.4c0.4-0.1,0.6-0.2,0.6-0.2
			c0.1,0.9,0.2,1.9,0.3,2.7c0.5,0,1-0.1,1.1,0.1c0.6,0.8,1.3,0.5,2.1,0.4c0.6-0.1,1.1-0.2,0.9-1c-0.1-0.3,0.2-0.6,0.4-1
			c-0.1-0.1-0.3-0.2-0.3-0.2c0.2-0.8,0.3-1.5,0.5-2.4c-0.5-0.1-1.1-0.3-1.7-0.4c0,0,0-0.1,0.1-0.4c-0.4,0.2-0.8,0.3-1.3,0.6
			c0.1-0.4,0.2-0.6,0.3-0.9c-0.4,0.3-0.8,0.5-1.1,0.7l-0.1-0.1c0.2-0.3,0.4-0.6,0.7-1c-0.4,0.2-0.7,0.3-0.9,0.5
			c-0.1-1-0.1-1.9-0.2-2.9c0.1,0,0.3,0,0.4-0.1c0.1,0.2,0.1,0.4,0.1,0.4c1.1,0,2.1,0.1,3.1,0.1c0-0.1,0.1-0.2,0.1-0.3
			c-0.5-0.3-1-0.7-1.6-1.1c1.1-0.4,2.2,1.4,3.1-0.3c-0.2,0-0.3,0-0.4,0c0.1-0.5,0.1-1,0.2-1.6c-0.1,0-0.2-0.1-0.3-0.1
			c0.5-0.4,1-0.7,1.8-1.3c-0.2,0.5-0.3,0.7-0.5,1.1c0.5-0.2,0.9-0.4,1.4-0.6c0,0.2,0,0.5,0,0.7c0.3-0.1,0.6-0.3,1-0.5
			c-0.4-0.7-0.8-1.4-1.3-2.4c1.6,0.7,2.7,0.4,3.3-1.1c-0.3-0.3-0.6-0.6-1-1c0.4-0.5,0.6-1,1.6-0.3c0.5,0.4,1.5,0.1,2.3,0.1l0,0
			c-0.2,0.2-0.5,0.6-0.7,0.7c-0.7,0.1-1.2,0.2-0.8,1.1c-0.8,0-1.5-0.1-1.4,1c0,0.2-1.1,0.6-1.8,0.9c0.1,0.5,0.5,1.3,0.3,1.8
			s-1.1,0.6-1.8,0.9c0.1,0.4,0.2,0.8,0.3,1.2c-0.4,0.2-0.8,0.5-1.1,0.6c-0.9,0.2-1.7,0.4-0.8,1.6c0.1,0.1-0.5,0.7-0.9,1.3
			c0.4,1,1.6,1.6,2.6,2.3c1.6,1.1,3.4,2,5,3.2c0.6,0.4,1,1.2,1.5,1.8c-0.7-0.4-1.5-0.7-2.4-1.1c0.4,1.3,1.2,1.9,3.1,2.5
			c-0.3-0.6-0.5-1-0.7-1.4c1.2,0.3,1.4,1.4,1.7,2.4v0.1c-1.3,1,0,2.7-1,3.8c-0.7-0.6-1.5-1.3-2-1.8c-0.6,0.2-1,0.4-1.3,0.4
			c-1.6-0.5-1.6-0.5-2.3,1.1c-1.1-0.6-2.2-1.1-3.4-1.7c-0.4,1.1-1,0.8-1.8,0.2c-0.9-0.6-1.4-1.4-1.7-2.5c-0.3-1.2-0.6-2.4-1.8-3.3
			c0.2,1.3,0.3,2.4,0.5,3.8c-1.1-0.5-1.9-0.8-2.6-1.2c-0.6,1.4-0.2,2.7,0.9,3.5c1.5,1.1,2.2,3.2,1.7,4.9c-0.1,0.3-0.1,0.7,0,1.1
			c0.7,2.1,0.3,4.3,0.1,6.5c0,0.4-0.4,0.9-0.4,1.3c-0.2,1.6,0.7,2.6,2.5,3.1c1.5,0.4,2.9,1.1,4.4,1.7c0.1,0.1,0.3,0.1,0.4,0.2
			c2.6,0.7,3.7,3.7,2,5.9c-0.7,0.9-0.5,1.3,0.3,1.9c1.8,1.2,3.9,0.8,5.2-1.2c0.4-0.7,0.8-1.4,1.1-2.1c0.7-2,1.9-3.3,3.8-4.2
			c0.7-0.3,1.3-0.8,2-1.3c1.2-0.8,0.5-2.1,0.9-3.4c-0.6,0.1-1,0.1-1.5,0.2c-2.7,0.7-5.1,0.5-7.1-1.8c-0.8-1-1.8-1.7-2.8-2.6
			c2.2-1.2,4.1-2.5,6.3-3.1c1.4-0.4,3.1,0.4,4.6,0.7c0.9,0.2,1.7,0.5,2.6,0.7c0.1-0.1,0.1-0.2,0.2-0.4c-0.7-0.6-1.5-1.2-2.2-1.8
			c-0.3-0.2-0.6-0.4-0.9-0.6c-1.4-1.3-1.4-1.6-0.6-3.2c0.4-0.7,0.7-1.5,1.1-2.5c1.2,0.6,2.5,1.2,3.9,1.8c1.1,0.5,1.3,1.7,1.3,2.6
			c0.1,1.9,1,3.2,2.6,4c1.3,0.7,2.1,1.8,2.9,3c1.2,1.9,2.6,3.6,3.6,5.6c1.6,3.1,0.8,6.2-0.9,9.1c-0.9,1.4-1.9,2.9-3.2,3.9
			c-1.8,1.3-4,2.3-6.1,3.2c-1.3,0.6-2.8,0.6-4.2,0.9c-0.4,0.1-0.8,0.2-1.4,0.3c1.1,0.8,2,1.4,3,2c0.2,0.2,0.5,0.4,0.6,0.6
			c1,2,1.9,4.1,3,6.2c-2.7-0.2-5.3-0.1-7.9-0.5c-1.1-0.2-2-1.2-3.1-2c0,2.5,0,5,0,7.4c-0.1,0.1-0.2,0.1-0.4,0.2
			c-2.1-2.6-5.3-2.9-7.9-4.4c-0.1,0.1-0.2,0.1-0.3,0.2c0.6,1,1,2.2,1.8,3.1c1.4,1.7,2.6,3.5,3,5.7c0,0.2,0.7,0.5,0.9,0.4
			c1.2-0.7,2.3-1.6,3.4-2.4c0.3-0.2,0.6-0.7,0.9-0.7c2.3-0.3,4.6-0.5,6.8,0.7c1.7,0.9,3.6,1.6,5.5,1.7c1.5,0.1,3.1-0.7,4.6-1.3
			c0.6-0.3,1-0.9,0.7-1.9c-0.4-1.3-0.3-2.8-0.1-4.3c0.1-1,0-1.5-1.2-1.4c-0.6,0.1-1.3,0-1.9-0.2c-1.9-0.6-2.5-2.6-1.4-4.4
			c0.9,0.4,1.8,0.9,2.8,1.1c0.7,0.1,1.4-0.2,2.1-0.4c0-0.1,0-0.2,0-0.4c-0.2-0.1-0.4-0.3-0.6-0.3c-2-0.3-2.9-1.1-2.7-3.1
			s0.8-3.9,1.3-5.9c0.1-0.3,0.6-0.5,0.8-0.7c0.2,0.3,0.4,0.5,0.5,0.8c0.1,0.2,0.1,0.6,0.3,0.8c0.3,0.4,0.7,0.8,1,1.2
			c0.3-0.3,0.6-0.6,0.9-0.9c0.5-0.5,1-1,1.7-1.7c0.3,0.5,0.4,0.8,0.6,1.1c0.9-0.6,1.8-1.2,2.7-1.8c0.1,0.1,0.2,0.2,0.4,0.3
			c-0.1,0.6-0.2,1.2-0.4,1.9c0.7,0,1.3,0,2,0c-0.2-0.4-0.4-0.7-0.6-0.9c0.7-0.8,2.4-0.1,2.3-1.8c1.5-0.4,2.6,0.5,3.7,1.2
			c1.1,0.7,1.5,0.7,2-0.5c0.6-1.2,1-2.6,1.5-3.9c0,0,0,0,0.1,0c1.9-0.1,2,1.4,2.4,2.7c0.4,1.3,0.6,1.4,1.8,0.9
			c0.9-0.4,1.8-0.6,2.9-1c-0.1,0.5-0.1,0.9-0.2,1.3c2,0.2,3.2-1.5,5.1-2.3c-0.8,3.2-1.6,6-2.3,8.8c-0.1,0.5,0,1.1,0.2,1.6
			c0.4,1.3,0.8,2.5,1.3,3.7c0.1,0.2,0,0.4,0.1,0.6c1.5,2,0.7,4.3,0.2,6.3c-0.2,1-0.8,2-0.7,3.1c0,0.4-0.6,1-1,1.1
			c-1.4,0.2-2.1,1.3-2.4,2.4c-0.3,1-0.1,2.2-0.1,3.2c0,0.5,0.1,1.1,0.2,1.6c0.1,1,0.1,2,0.1,3c0,0.5,0.5,1.2-0.3,1.6
			c-0.1,0-0.1,0.4,0,0.5c0.7,2,1.4,4,2.1,6.1c0.3,0.8,0.5,1.6,0.8,2.3c1.2,2.7,2.6,5.3,3.7,8.1c1,2.5,2.3,4.9,2.6,7.8
			c0.2,1.8,1.2,3.6,2.1,5.2c0.5,1,1.6,1.5,3,1.8c-0.3-0.4-0.4-0.7-0.6-0.8c-1.7-1.5-1.4-2.9-0.7-4.4c0.8-1.6,2.4-2.3,4.4-1.8
			c0.9,0.2,1.4-0.1,1.4-0.9c0.1-2.9,1.7-4.7,3.9-6.2c1.4-1,2.8-2.1,3.4-3.8c1.4,0.2,2.2,2.1,1.2,3.4c-1.5,2.1-1.8,4.5-2.3,6.9
			c-0.4,2.2-2,3.6-3.6,4.8c-0.3,0.2-0.7,0.6-0.7,1c-0.3,1.9-0.7,3.7-2.6,4.6c-2.2,1.1-4.4,1.1-6.7,0.3c-0.3-0.1-0.7-0.3-1-0.4
			c-0.1,0-0.2,0-0.5,0.1c0.3,0.6,0.6,1.2,1,1.9c-1.5,0.5-1.3,1.5-0.6,2.6c0.1,0.2-0.1,0.8-0.2,0.9c-1,0.2-1,1-0.8,1.6
			c0.4,1.2,0.1,1.9-1.4,1.7c0,1,0,1.8,0,2.8c-1.6-0.1-1.3,1.3-1.8,2.2c-0.5,1-0.6,2,0.2,3c1,1.2,1.1,2.6,1,4.1
			c-0.2,2.5-0.3,5.1-0.4,7.6c0,0.3,0.1,0.6,0.1,0.8c0.1,2.1,0.4,2.3,2.5,2.8c3.3,0.8,5.6,2.9,5,6.1c-0.2,1.2-1.1,2.2-1.4,3.4
			c-0.5,1.9-1.3,3.9-1.2,5.8c0.1,3.5-1.7,4.6-4.9,4.5c-3.8-0.1-7.7-0.6-11.5-1.5s-7.4-2.4-11.1-3.7c-1.6-0.6-1.6-0.5-2.4,1
			c-1.2,2.3-1,4.8-1.6,7.2c-0.5,1.8-2.2,3.2-4,3.3c-4.6,0.3-8.8-1.2-12.7-3.4c-3.3-1.9-6.5-4-9.8-5.9c-0.8-0.5-1.8-0.6-2.8-0.7
			c-2.1-0.2-4.1-0.4-6.2-0.5c-3.8-0.2-7.7-0.4-11.5-0.4c-4,0-8.1,0-12.1,0.3c-3.3,0.2-6.7,0.7-9.9,1.4c-1,0.2-1.9,1.2-2.8,1.9
			c-3.5,2.5-7.1,5-11.2,6.6c-2.9,1.1-5.8,2.1-9,2.2c-0.9,0-1.9-0.1-2.8-0.4c-1.6-0.5-2.2-1.4-2.2-3c0-1.7,0-3.5-0.2-5.2
			c-0.2-1.2-0.6-2.5-1.1-3.6c-0.1-0.2-0.9-0.4-1.3-0.2c-1.2,0.4-2.3,1.1-3.5,1.4c-4,1.1-7.9,2.4-12,3.2c-3.6,0.7-7.3,1-10.9,0.3
			c-0.9-0.2-1.7-0.6-2.5-1c-0.9-0.5-1-1.4-0.7-2.3c1.1-3.1,0.5-6-1-8.8c-2-3.6-0.3-7,3.9-8c2.4-0.6,4.7-0.6,7,0.5
			c0.4,0.2,1.3,0.3,1.5,0c0.3-0.5,0.4-1.2,0.3-1.8c-0.4-2.6-0.8-5.2-1.2-7.8c-0.1-0.7-0.3-1.5-0.5-2.2c-0.3-1.4-0.3-2.7,0.6-3.9
			c1.8-2.3,3.5-4.8,3.9-7.8c0.3-2.3-0.5-4.2-1.7-6.2c-1.1-1.8-1.8-3.9-2.7-5.8c-0.1-0.3-0.2-0.7-0.6-1.2c-0.4,0.6-0.8,1.2-1.1,1.8
			c-1.2,2.7-2.6,5.1-4.8,7.1c-2.2,2-2.2,2.2-4.4,2.5c0.4-0.4,0.6-0.7,0.9-0.8c3.2-1.3,4.8-4.1,6.4-6.9c1.3-2.4,2.5-4.9,3.8-7.6
			c0.2,0.6,0.4,0.8,0.4,1c-0.3,3,0.6,5.7,2,8.3c1.3,2.3,2.9,4.5,2.5,7.3c-0.2,1.6-0.7,3.2-1.4,4.6c-0.6,1.3-1.5,2.5-2.5,3.6
			c-1.2,1.5-0.7,3.2-0.5,4.8c0.3,2.4,0.6,4.7,0.9,7.1c0.2,1.7,0.3,3.5,0.3,5.3c0.1-0.2,0.3-0.5,0.5-1c0,1.2,0,2.2,0,3.2
			c0.3-0.5,1.6-0.8,0.6-1.8c0.1-0.1,0.1-0.2,0.2-0.2c0.5,0.5,1,0.9,1.7,1.5c0.8-0.6,2.7,0.4,3.4-1.4c0-0.1-0.1-0.2-0.1-0.3
			c-2.5-2-2.8-5-3-7.8c-0.2-2.3-0.1-4.7,0.5-7c0.5-1.9,1.7-3.6,2.7-5.3c1.6-2.5,3.4-5,4.9-7.5c0.5-0.8,0.7-1.9,1-2.9
			c0.1-0.4,0.2-0.7,0.4-1.1c0.2,1,0.4,2,0.6,2.9c0.2,0,0.4,0,0.6,0c0-0.6,0.1-1.1,0.1-1.8c0.3,0.5,0.5,1,0.9,1.7c0-0.8,0-1.4,0-1.9
			c0.1,0,0.1-0.1,0.2-0.1c0.1,0.2,0.3,0.5,0.4,0.7c0.1,0,0.1-0.1,0.2-0.1c-0.2-0.5-0.5-1-0.7-1.5l0.1-0.1c0.4,0.6,0.8,1.1,1.2,1.7
			c0.1,0,0.2-0.1,0.3-0.1c-0.2-0.5-0.3-1.1-0.4-1.4c0.4,0.2,0.9,0.4,1.5,0.7c-0.2-1.2-0.4-2.1-1.5-2.5c-0.3-0.1-0.7-0.7-0.6-1
			c0.3-2-0.7-3.5-1.8-4.9c-1.2-1.4-1-4.6,0.8-6.1c-0.9,2.3-1.7,4.3,0.5,6.3c0-0.9,0.3-1.7,0.1-2.2c-0.8-1.2-0.3-2.1,0.3-3
			c1.6-2.6,3.5-5.1,5.1-7.8c1.5-2.4,2.9-4.9,4.3-7.5c1.1-2.2,2.1-4.5,3.1-6.7c0.2-0.4,0.5-0.9-0.1-1.1c-0.3-0.1-0.8,0.3-1,0.5
			c-0.3,0.3-0.4,0.6-0.7,1.1c-0.4-0.4-0.7-0.7-1.1-1c1.3-1.7-1-2.3-1.1-3.9c0.7,0.7,1.1,1.3,1.6,1.8c0.3,0.3,0.7,0.9,1,0.8
			c2.1-0.2,3,1.6,4.3,2.7c1.7,1.4,3.2,3,4.7,4.6c1.7,1.8,2.5,4,1.7,6.5c-0.3,1.1-0.6,2.3-1.1,3.3c-0.4,0.8-1.1,1.4-1.7,2.1
			c0.1,0,0.3,0,0.6,0c0,0.1,0,0.1,0,0.2c-0.4,0.2-0.9,0.4-1.6,0.7c0.6,0,0.9,0,1.2,0c0,0.1,0,0.1,0,0.2c-0.1,0.2-0.3,0.4-0.2,0.5
			c0.8,1.3-0.3,2.5,0,3.7c0.2,0.9,0.9,1.7,1.4,2.8c0.4-0.4,0.6-0.6,0.7-0.9c1-2.7,1.9-5.5,2.8-8.2c0.6-1.8,1.2-3.7,1.9-5.5
			c0.9-2.7,0.3-5.2-1.2-7.4c-1.4-2.1-3.1-3.9-4.8-5.8c-1-1.2-2.2-2.3-3.1-3.6c-0.6-0.9-1.2-1.9-1.4-3c-0.4-1.7-1.4-2.9-2.5-4.2
			c-0.2-0.3-0.4-0.5-0.7-0.8c0.1-0.1,0.2-0.2,0.3-0.3c1.2,1.5,2.3,3,3.6,4.7c-0.2-0.7-0.3-1.6-0.7-2.1c-0.9-1.2-1.8-2.6-3-3.5
			c-1.8-1.4-3.9-2.4-6.1-3.5c0.8,1.7-0.3,2.9-0.8,4.3c-0.3-0.2-0.7-0.3-1.2-0.6c-0.3,0.7-0.5,1.4-0.7,2c-0.6-0.4-0.5-1.2-0.5-2
			c0-0.5-0.1-1-0.3-1.5c-0.3-0.9-0.7-1.8-0.9-2.8c-0.1-0.7-0.3-1.1-1-1.2c-0.8-0.1-1.6-0.3-2.3-0.7c-0.5-0.3-1-0.9-1.3-1.4
			c-0.1-0.1,0.3-0.8,0.5-0.9c1.9-0.7,3.5,0.3,5.1,1.2c0.2,0.1,0.3,0.8,0.2,1.2c-0.2,0.9-0.5,1.7-0.8,2.6c0.1,0,0.2,0.1,0.3,0.1
			c0.2-0.7,0.5-1.5,0.7-2.4c0.1,1.3,0.1,2.3,0.2,3.4c0.1,0,0.3,0,0.4,0c0-0.8,0-1.7,0-2.5c0.1,0,0.2,0,0.2,0c0,0.4,0.1,0.9,0.1,1.3
			c0.1,0,0.2,0,0.2,0c0.1-0.4,0.3-0.8,0.5-1.4c0.2,0.9,0.3,1.7,0.5,2.4c0.1,0,0.2,0,0.2,0c0-0.5-0.1-1,0-1.4
			c0.2-0.7,0.6-1.3,1.5-1.1c0.2,0.1,0.6-0.1,0.9-0.2c-0.1-0.3-0.2-0.6-0.4-0.8c-0.5-0.5-1.2-0.8-1.7-1.3c-0.3-0.4-0.7-1.1-0.6-1.5
			c0.1-0.7,0.7-1.1,1.6-0.8c1,0.3,2,0.6,3.1,0.8c0.4,0.1,0.9,0,1.4,0c0-0.4-0.1-0.8-0.1-1.2c0-0.2-0.1-0.4,0-0.6
			c0.6-1.6-0.5-2.4-1.6-3c-3.3-2-6.2-4.4-8.7-7.2C97.2,115.4,96.1,114.6,95.1,113.8c1,0,2.1,0,3.1,0l0.1-0.1
			c-0.9-0.3-1.7-0.6-2.6-0.9c-0.1-0.3-0.3-0.7-0.5-1.2c-0.5,0.4-0.8,0.7-1.1,0.9C94.5,112.9,94.8,113.4,95.1,113.8z M151,98.1
			c0-0.5,0.2-1.1,0.1-1.5c-0.1-0.5-0.5-1-0.9-1.2c-0.2-0.1-0.9,0.3-1.1,0.6c-0.2,0.4-0.2,1-0.2,1.5c0.1,0.7,0.2,1.4,0.4,2.1
			c0.1,0.3,0.5,0.5,0.7,0.7c0.2-0.3,0.5-0.5,0.6-0.8C150.8,99,150.9,98.5,151,98.1c0.1,0.4,0.1,0.9,0.2,1.4c0.1,0.3,0.3,0.7,0.5,0.7
			c1.2,0.2,2.4,0.2,3.6,0.4c0.1-0.1,0.1-0.2,0.2-0.4c-1.2-1.5-2.4-3-3.6-4.4C151.5,96.6,151.2,97.3,151,98.1z M218.4,158.6
			c0.4-0.2,0.8-0.4,1.1-0.5c-1-2.8-1.9-5.4-2.9-8.2c0.2-0.1,0.6-0.3,1-0.5c-0.3-0.5-0.6-1-1-1.5c1.8-0.6,0.5-1.3,0.2-1.9
			c0.3-0.3,0.7-0.7,0.6-0.8c-0.5-0.6-1.1-1.1-1.7-1.6c-0.1,0.1-0.2,0.2-0.3,0.2c0.1,1.1,0.2,2.2,0.4,3.3c-0.4,0-0.6,0-0.9,0
			c0.2,0.4,0.4,0.7,0.6,1c-0.5,0.4-0.5,0.4,0.6,1.7c-0.4,0-0.7-0.1-1-0.1c0.4,1,0.7,1.9,1.1,2.8c-0.3,0-0.5,0.1-0.6,0.1
			c0.3,0.8,0.6,1.5,0.8,2.2c0.2,0.6,0.7,1.4,0.5,1.8c-0.5,0.8,0.2,0.9,0.5,1.3C217.9,158.3,218.2,158.5,218.4,158.6
			c-0.3,0-0.5,0.1-1.1,0.1c0.5,0.8,0.9,1.4,1.2,2c0.1,0.2,0.4,0.5,0.4,0.7c-0.3,1.1,0.5,1.4,1.3,1.8c0.4,0.2,0.8,0.4,1.1,0.5
			c0,0.1-0.1,0.2-0.1,0.2c-0.4,0-0.9-0.1-1.3-0.1c0,0.1,0,0.1-0.1,0.2c0.8,0.5,1.6,1,2.3,1.5c0,0.1-0.1,0.2-0.1,0.2
			c-0.4-0.1-0.8-0.2-1.2-0.3c-0.1,0.1-0.1,0.2-0.2,0.4c0.8,0.6,1.5,1.1,2.5,1.9c-0.6,0-0.9-0.1-1.2-0.1c0,0.1-0.1,0.2-0.1,0.3
			c0.8,0.4,1.6,0.9,2.4,1.3c0.1-0.1,0.3-0.3,0.4-0.4c-0.9-1.9-1.7-3.9-2.8-5.8c-0.4-0.7-1.3-1-2-1.5c-0.1-0.1-0.1-0.2-0.1-0.4
			c0.3-0.1,0.6-0.3,1.2-0.6c-0.7-0.4-1.1-0.7-1.6-1C219,159.2,218.7,158.9,218.4,158.6z M118.1,105.3
			C118.2,105.3,118.2,105.3,118.1,105.3c1.6-1.2,1.5-2.7,1.2-4.3c-0.1-0.5-0.1-1-0.1-1.5c0.5,0.1,1,0.1,1.4,0.4
			c1.7,0.9,3.4,1.7,5.3,0.9c1.6-0.6,3.2-1.4,4.8-2.2c0.7-0.3,1.3-0.9,2.1-1.5c-0.8-0.5-1.4-0.8-1.9-1.2c0,0.1-0.1,0.1-0.1,0.2
			c0.4,0.4,0.7,0.8,1.2,1.3c-1.4,0.7-2.6,1.3-3.9,2c-0.1-0.1-0.1-0.2-0.2-0.3c0.3-0.2,0.5-0.4,0.8-0.6c-0.6-0.1-1.2-0.2-1.8-0.3
			c0-0.1,0-0.3,0.1-0.4c0.4-0.1,0.8-0.1,1.4-0.2c-0.5-0.4-0.9-0.6-1.2-0.8c0-0.1,0.1-0.1,0.1-0.2c0.5,0,1.1,0.1,1.8,0.1
			c-0.7-0.5-1.2-0.9-1.7-1.3c0,0,0-0.1,0.1-0.2c0.3,0,0.6,0,0.9,0.1c-0.2-0.3-0.4-0.6-0.6-1c0.4,0,0.7,0,1.1,0
			c-0.9-0.7-1.7-0.9-2.7-0.7c-1.4,0.3-2.9,0.5-4.4,0.6c-0.3,0-0.8-0.3-1-0.6c-0.1-0.2,0.3-0.7,0.5-1c0.1-0.2,0.4-0.3,0.6-0.4
			c2.7-1.6,3.1-4,1.1-6.6c-0.8,0.4-1.5,0.9-2.3,1.2c-1.5,0.5-2.2,1.7-2.3,3.2c-0.1,1.7-1.2,2.6-2.5,3.3c-0.7,0.4-1.5,0.5-2.2,0.9
			c-0.5,0.3-1,0.7-1.3,1.1c-1,1.7-1.8,3.4-2.7,5c1.5-0.2,3.1-0.2,4.6,1.1c1.5,1.4,1,3.1,0.8,4.7
			C116.6,106.6,117.3,106.4,118.1,105.3z M176.8,107L176.8,107c-1.1,0.5-1.6,1.6-2,2.8c-0.7,2-1.4,4-3.5,4.9
			c-0.1,0.1-0.2,0.2-0.4,0.5c2.9,0.9,4.2,3.2,5.5,5.7c-2.4,0.4-4.7,1.1-7.1,0.3c-2.5-0.9-3.3-3.2-4.5-5.2c0.2,0.8,0.6,1.5,0.9,2.2
			c0.3,0.6,0.9,1.2,0.9,1.8c0.2,2.2,0.4,4.5-0.4,6.6c-0.5,1.4-0.4,2.1,1,2.8c2.1,1.1,4.3,2.1,6.5,3.1c1.1-2.7,0.3-5.9-1.9-7.7
			c-0.3-0.3-0.3-0.8-0.5-1.3c0.5,0,1.1-0.3,1.6-0.1c0.5,0.2,0.8,0.8,1.1,1.2c1.7,2.3,3.6,4.4,7,3.5c-0.5-0.1-1-0.2-1.5-0.3
			c-0.4-0.1-0.8-0.3-1.2-0.4c0-0.1,0.1-0.2,0.1-0.3c0.6,0.1,1.1,0.1,1.7,0.2c0-0.1,0-0.2,0.1-0.2c-0.5-0.5-1-0.9-1.5-1.4l0.1-0.1
			c0.5,0.3,1,0.6,1.7,1c-0.2-0.5-0.3-0.8-0.5-1.4c0.6,0.4,0.9,0.6,1.2,0.9c0-0.3,0-0.6,0-0.8c0.7,0.9,1.8,1.6,1.3,3.1
			c0.4,0.1,0.7,0.1,1.3,0.2c-0.4-1-0.8-1.8-1.1-2.5c-0.9-1.8-1.7-3.7-4.1-3.9c-0.7-0.1-1.1-0.6-1-1.4s0.7-1,1.5-1.1
			c3.7-0.2,7.2-1.2,10.2-3.5c3.4-2.6,5.6-5.9,5.2-10.4c-0.1-1-0.5-1.9-0.7-2.8c-0.1,0-0.3,0.1-0.4,0.1c0,1.5,0,3,0,4.6
			c-0.1,0-0.2,0-0.3,0c0.1-2,0-3.9-1.1-5.6c0.7,2.1,0.7,4.1-0.1,6.2c-0.1-1.8-0.2-3.5-0.4-5.1c-0.1,0-0.2,0-0.3,0
			c-0.2,1.4-0.3,2.8-0.5,4.2c-0.1,0-0.3,0-0.4,0c0.3-1.7,0.5-3.4-0.6-5.1c0,1.6,0,2.9,0,4.3c-0.1,0-0.2,0-0.3,0c0-1.8,0-3.5-1.1-4.9
			c0.1,1.4,0.2,2.8,0.2,4.3c-0.8-1.4-0.4-3.3-2.1-4.7c-0.1,0.6-0.3,1.1-0.2,1.5c0.9,3.1,0.4,5.9-1.7,8.3c-1.5,1.8-3,3.7-5.5,4.3
			c-0.5,0.1-1.1-0.2-1.6-0.3c0.2-0.5,0.4-1.1,0.7-1.5c0.5-0.7,1.3-1.2,1.7-1.9c1.1-2.2,0.3-4.2-0.7-6.6
			C178.3,105.7,177.5,106.3,176.8,107z M106.7,174.8c3.1,1,4.8,3.1,2.9,9.1c-0.2-0.4-0.4-0.7-0.5-1c-0.1-0.7-0.5-1.2-1.2-0.9
			c-0.3,0.1-0.6,0.8-0.7,1.3c-0.3,2-0.8,4-0.9,6c-0.1,1.5-0.7,3-0.1,4.6c0.9,2.1,2.4,3.5,4.2,4.8c2,1.4,4.1,2.6,6,4.1
			c1.4,1,2.7,2.2,3.9,3.4c0.7,0.8,1.2,1.9,1.8,2.8c0.4,0.7,0.8,0.9,1.6,0.8c2.8-0.4,5.6-0.7,8.4-1.1c0.6-0.1,1.1-0.1,2-0.1
			c-1.5-1.7-2.8-3.1-4-4.6c-2.4-3-4.5-6.2-5.8-9.7c-1.2-3.3-2.3-6.7-3.1-10.1c-0.6-2.5-0.7-5.2-1.1-7.7c-0.1-0.4-0.2-0.9-0.4-1.6
			c-1.8,3-3.4,5.8-5.2,8.6c-0.4-0.7-0.6-1.2-1-1.8c-0.5,0.5-0.8,0.9-1.1,1.2c-0.1,0-0.3-0.1-0.4-0.1c0-1.2,0-2.5,0-3.7
			c0.1-2.9,1.8-4.9,4.2-6.6c-1.8-0.7-3.1,1.6-4.6,0.4c0.2-0.5,0.6-1,0.7-1.6c0.4-1.6,1.3-2.4,2.9-2.6c0.9-0.1,1.4-0.5,1.7-1.3
			c0.3-0.9,0.6-1.7,1-2.6c1.1-2.3,0.2-4.4-1.1-6.2c-1.3-1.7-3.1-3.1-4.8-4.7c-0.4-0.4-0.9-0.6-1.4-1c-0.4,0.7-0.8,1.2-1,1.8
			c-2.2,5.7-5.3,10.9-8.9,15.9c-0.4,0.6-0.7,1.3-1,1.9c0.8-0.1,1.5,0,2.3-0.2C104.5,171.7,105.8,172.3,106.7,174.8
			c-0.4-0.2-0.9-0.5-1.4-0.7c-0.7-0.3-1.4-0.9-2-0.9c-2.7,0-4.4,1.4-5.2,4.1c0.2,0,0.3-0.1,0.5-0.1c-0.4,1.1-0.7,2.2-1,3.2
			c0.1,0,0.2,0.1,0.2,0.1c0.3-0.7,0.6-1.4,0.9-2.1c0.1,0,0.1,0.1,0.2,0.1c-0.2,0.7-0.4,1.3-0.6,2.3c0.4-0.4,0.6-0.6,1-1
			c-0.4,1.2-0.7,2.1-1.1,3c0.1,0,0.2,0.1,0.2,0.1c0.2-0.1,0.4-0.3,0.6-0.4c-0.7,1.4-0.7,2.6,0.4,3.7c0.4,0.4,0.7,1.1,0.7,1.7
			c0.1,0.9-0.2,1.9-0.2,2.8c0,1.7,0.1,3.5,0.2,5.2c0,0.9,0.3,1.6,1.2,2c0.9,0.4,1.7,0.9,2.5,1.4c2.6,1.5,5.1,3.2,6.4,6.1
			c0.2-0.2,0.4-0.3,0.5-0.5c0.1,0.3,0.3,0.6,0.5,1.2c0.1-0.6,0.1-0.9,0.2-1.3c0.6,0.8,1.2,1.1,2.1,0.8c0.3-0.1,1,0.1,1.1,0.4
			c0.5,1.1,1.3,1.1,2.2,0.9c0.9-0.2,1.7-0.5,2.6-0.8c-0.3-0.3-0.4-0.6-0.6-0.8c-1.2-1-2.4-2-3.6-2.8c-2-1.4-4.2-2.6-6.2-4.1
			c-1.2-0.9-2.3-1.9-3.1-3.1c-1.1-1.6-0.8-3.5-0.4-5.3c0.5-2.7,1.3-5.4,0.8-8.2c-0.2-1-0.3-1.9-0.5-2.9c-0.1-0.8-0.3-1.7-0.4-2.5
			c0.1,0,0.3,0.1,0.5,0.1c0.1-0.4,0.1-0.8,0.2-1.2c0.4,0.1,0.7,0.1,1.2,0.2C107.1,175.3,106.9,175.1,106.7,174.8z M214.8,154.1
			L214.8,154.1c0-0.8,0-1.6,0-2.4c-0.1-1.4-0.2-2.9-0.4-4.3c-0.1,0-0.2,0-0.3-0.1c-0.3,0.8-0.5,1.6-0.8,2.4c-0.1-2.2,0.4-4,1.6-5.8
			c0.2-0.3,0.3-1,0.2-1.4c-0.3-0.9-3-2.5-3.9-2.5c-0.3-0.3-0.4-0.8-0.8-0.9c-1.7-0.8-3.4-1.5-5.1-2.1c-0.4-0.1-1,0-1.4,0.3
			c-0.2,0.2-0.2,1,0,1.2c0.3,0.3,0.9,0.3,1.3,0.3c0.9,0,1.8-0.2,2.7-0.1c0.3,0,0.8,0.5,0.8,0.9c0.1,2.2,0.2,4.5,0.1,6.7
			c-0.2,4.1-2.6,6.9-6,8.9c-0.4,0.2-1.2,0.2-1.5-0.1c-3.2-2.2-5.5-5-6.1-8.9c-0.3-2-0.2-4.1-0.3-6.1c-0.1-1,0.3-1.3,1.2-1.2
			c1.2,0.1,2.4,0,3.5,0c0.2-0.7,0.5-1.2,0.6-1.7c0-0.3-0.1-0.8-0.2-0.8c-1.9-0.1-4.1-0.6-5.7,0.8c-1.3,1.2-2.6,2-4.3,2.4
			c-0.2,0-0.3,0.5-0.4,0.7c0.1,0,0.2,0.1,0.3,0.1c-0.3,0.2-0.5,0.5-0.8,0.7c0.1,0.1,0.3,0.2,0.4,0.2c-0.1,0.6-0.3,1.1-0.4,1.7
			c0.1,0,0.2,0.1,0.2,0.1c0.5-0.8,1-1.6,1.5-2.3c0.1,0.1,0.2,0.1,0.3,0.2c-0.7,1.3-1.1,2.7-2,3.7c-2.2,2.4-4.7,4.6-7.7,6
			c-2,1-2.6,2.3-2.1,4.5c0.5,2.6,1.2,5.2,0.9,7.9c-0.1,0.9,0.2,2,0.5,2.9c0.4,1.1,1.8,1.1,2.6,0.3c0.6-0.7,1.5-1.2,2.3-1.8
			c0.3-0.2,0.6-0.3,0.9-0.5c-0.6-0.4-1-0.6-1.4-0.9c0-0.1,0.1-0.2,0.1-0.3c1,0.3,2,0.5,3.1,0.8c-0.2-1.5-1-2.5-2.4-3.1
			c-1.2-0.5-2.1-3.5-1.5-4.7c0.3-0.7,0.6-1.4,1-2.2c0.4,0.2,1,0.4,1.6,0.7c0.1-0.1,0.2-0.2,0.3-0.3c-0.4-0.8-0.8-1.7-1.1-2.5
			c0-0.1,0.1-0.1,0.1-0.2c0.7,0.7,1.5,1.4,2.2,2.1c0.9-1.9-1.7-1.3-1.7-2.8c0.9,0.5,1.8,0.8,2.4,1.4c0.9,0.7,1.5,0.6,2.2-0.2
			c0.2-0.2,0.7-0.4,0.8-0.3c0.7,1,1.3,0.4,2.1-0.4c-0.2,1-0.3,1.7-0.4,2.4c-1.1-1.2-1.9-1.4-2.5-0.7c1.6,2.8,3.2,5.6,4.8,8.3
			s3.2,5.4,4.8,8.1c-0.8-0.2-1.6-0.4-2.3-0.6c-0.1,0.2-0.1,0.3-0.2,0.5c0.7,0.5,1.4,0.9,2.2,1.4c-0.1,0.1-0.2,0.3-0.3,0.4
			c1.7,0.3,2.7,1.6,3.6,2.7c3.5,4,4.3,9,4.7,14.1c-0.5-1.7-1.1-3.4-1.6-5.1c-0.1,0-0.2,0.1-0.3,0.1c0.3,1.4,0.7,2.7,1,4.1
			c-0.1,0-0.2,0.1-0.3,0.1c-0.2-0.3-0.4-0.6-0.6-1.1c-0.1,0.8,0.7,1.7-0.4,2.1c-0.2-0.3-0.3-0.6-0.5-0.9c-0.1,0-0.1,0.1-0.2,0.1
			c0.3,0.8,0.5,1.5,0.8,2.5c-0.4-0.2-0.5-0.2-0.5-0.3c-0.8-1.9-1.3-3.9-0.4-6c0.3-0.8,0-1.8,0-2.9c0.3,0.3,0.5,0.5,0.9,0.9
			c-0.3-0.8-0.5-1.4-0.6-1.9c0.1,0,0.2-0.1,0.3-0.1c0.2,0.5,0.5,1.1,0.7,1.6c0.1-0.1,0.2-0.1,0.3-0.2c-0.5-1.1-0.9-2.2-1.5-3.1
			c-0.2-0.3-1.2-0.2-1.8-0.2c-0.2,0-0.4-0.1-0.6-0.2c-2.8-0.5-4.4,0.5-5.1,3.2c-0.3,1.3-0.5,2.7-0.6,4c-0.2,3-0.4,6.1-0.6,9.1
			c-0.1,1.5-0.8,2.9-1.9,3.9c-1.7,1.5-3.4,2.9-5.2,4.2c-2,1.5-3.4,3.4-4.7,5.4c-0.7,1.1-1,2.4-1.5,3.7c0,0.1,0.1,0.2,0.2,0.4
			c1.4-0.8,1.1-3,2.8-3.3c-0.5,1.2-1,2.3-1.4,3.5c-0.3,0.9,0.1,1.1,0.9,1c2.7-0.4,5.3-3.8,5.1-6.9c0-0.4,0.3-0.8,0.5-1.1
			c0.1-0.1,0.6-0.1,0.6,0c0.1,0.4,0.1,0.7,0.1,1.1c-0.1,0.8-0.2,1.6,0.6,2.1c0.7-1.1,1.2-2.4,2-3.2c2.2-2,4.5-3.8,6.9-5.6
			c0.6-0.4,0.8-0.8,0.9-1.5c0.1-1.4,0.3-2.8,0.5-4.3c0.2-0.1,0.4-0.1,0.6-0.2c0.2,0.4,0.3,0.7,0.4,0.9c0.9-1.2,1.7-2.2,2.5-3.4
			c0.2,0.3,0.3,0.5,0.4,0.7c0.1,0.2,0.3,0.4,0.4,0.7c2.8-4,1.9-8.2,1.5-12.5c1,2.5,1.1,5.1,0.9,7.8c-0.1,2-0.5,4,0.7,5.8
			c0.4,0.6,0.7,1.2,0.9,1.9c0.8,3,2.4,5.5,4.7,7.6c1.7,1.5,3,3.3,3.1,5.7c0,0.3,0.2,0.8,0.4,0.9c0.9,0.3,1.2,0.9,1.5,1.7
			c0.2,0.6,0.9,1.1,1.4,1.6c0.3,0.3,0.7,0.6,0.7,0.9c0.1,0.8,0,1.7,0,2.5c-0.1,0-0.2,0.1-0.3,0.1c-0.9-1,0.2-3.2-1.9-3.5
			c-0.1,0.2-0.2,0.5-0.2,0.5c-0.5-0.2-0.9-0.3-1.1-0.4c-0.7,1.3-1.1,2.6-2,3.3c-1.2,1-2.1,2.1-2.7,3.5c-0.4,1.1-1,2.1-1.6,3.4
			c2.4-0.9,1.7-3.3,3-4.5c0.1,0.1,0.3,0.1,0.4,0.2c-0.7,1.9-1.5,3.7-2.2,5.6c2.3,0.4,4.8-2,5.5-3.7c0.1-0.2-0.1-0.8-0.3-0.9
			c-0.8-0.4-1.7-0.6-2.4-0.9c0.7-0.6,0.7-0.6,3.9,1c0.2-0.7,0.3-1.3,0.4-2c0.1-0.3,0.1-0.7,0.1-1c0.4,0.1,0.8,0.2,1.1,0.4
			c0.5,0.3,0.8,0.8,1.5,1.4c0-0.7,0-1-0.1-1.4c-1.1-3.8-0.5-7.7-0.3-11.5c0.1-1.4,0-2.6-0.8-3.6c-1.1-1.6-1.4-3.2-1-5.1
			c0-0.1,0.1-0.2,0.2-0.3c0.1,0.4,0.3,0.7,0.4,1c0.1,0,0.2,0,0.3,0c0.1-1.1,0.1-2.1,0.2-3.3c0.4,0.2,0.7,0.4,1.3,0.8
			c0-1.4,0-2.6,0-4.1c0.5,0.6,0.8,0.9,1.1,1.3c0.5-0.9-0.9-2.4,0.9-2.7c-0.9-3.1-1.8-6.1-2.7-9.2c0.4,0.5,0.8,1,1,1.7
			c0.4,1.3,0.7,2.5,1,3.8c0.1,0.3,0.4,0.6,0.6,0.8c0.1-0.1,0.2-0.1,0.3-0.2c-0.2-1.4-0.5-2.8-0.8-4.3c0.3,0.2,0.5,0.2,0.5,0.4
			c1.2,1.7,2.9,2.5,4.9,2.7s4,0,5.3-1.8c1.2-1.7,1.1-4.2-0.2-6c-0.9-1.2-2.8-1.6-4.1-0.8c-1.1,0.7-1.6,2.2-1.2,3.4
			c0.4,1.1,2.1,2.2,3.2,1.9c0.4-0.1,0.8-0.6,1.2-0.8c-1-0.4-1.9-0.6-2.6-1c-0.3-0.2-0.4-0.9-0.3-1.4c0-0.2,0.5-0.5,0.8-0.6
			c1.9-0.3,3.4,1.6,2.7,3.4c-0.6,1.5-2.2,2.4-3.8,2.1c-2.1-0.4-3.5-1.6-4.6-3.3c-1.2-2-1.8-4.3-2-6.6c-0.1-1.3-0.5-2.5-2-3.1
			c0.2,0.3,0.3,0.5,0.4,0.8c-0.4,0-0.7,0-0.9,0c0.6,2.2,2.5,3.9,2.4,6.3c-0.9-1.8-1.6-3.5-2.5-5.2c-2.9-5.6-6.3-11-8.1-17.2
			C215.5,154.8,215.1,154.4,214.8,154.1z M199.2,168.2c-0.2-0.4-0.3-0.7-0.4-0.9c-1.9-3.4-3.7-6.8-5.6-10.1
			c-0.7-1.2-1.8-2.2-2.6-3.2c-0.7,0.4-1.1,0.7-1.9,1.1c-0.1,0.6-0.6,0.7-1.4,0.4c-0.3-0.1-0.8-0.1-1,0.1c-1,0.9-0.6,3.7,0.7,4.3
			c1.2,0.5,1.9,1.4,2.2,2.6c0.2,0.8,0.4,1.6,0.7,2.4c-0.6,0-1.2,0.1-1.9,0.1c0.1,0.7,0.2,1.2,0.3,1.8c0.3,1.8,0,3.5-0.9,5.1
			c-0.3,0.6-0.7,1.3-1.7,0.8c-0.2-0.1-0.6,0.1-0.8,0.3c-0.5,0.3-0.9,0.6-1.5,1c-0.7-2-1.3-3.8-1.9-5.6c-0.1,0-0.3,0.1-0.4,0.1
			c0.1,7.2-0.7,14.2-2.8,21.1c-2.1,6.9-6.3,12.6-10.8,18.3c4.8,0,9.2,1.1,13.5,2.3c1,0.3,2,0.6,2.6-0.7c0.3-0.6,0.6-1.1,0.9-1.6
			c0.5-1,0.9-2,1.6-2.8c2-2.4,4.4-4.4,7-6.3c2.1-1.5,3.8-3.3,3.9-6.2c0.1-2.7,0.2-5.3,0.4-8c0.2-2,0.3-4,1.3-5.9
			c0.7-1.2,1.6-1.7,2.9-1.7c0.8,0,1.5,0.1,2.3,0.1s1.2-0.4,0.7-1.1c-0.5-0.8-0.9-1.6-1.6-2.1c-3-2.2-5.9-4.3-8.1-7.3
			C196.6,166,197.4,168.2,199.2,168.2z M113,226.3c-0.4,1-0.7,1.7-0.8,2.4c-0.3,1.8-0.5,3.6-0.7,5.4c-0.1,1,0.3,1.3,1.3,1.2
			c1.9-0.3,3.7-0.6,5.6-0.9c3.7-0.6,7.3-1.4,11-1.8c5.2-0.6,10.4-1,15.6-1.4c0.9-0.1,1.9,0,2.8,0c2.6-0.1,5.3-0.3,7.9-0.2
			c4.4,0.2,8.8,0.5,13.2,0.9c4.6,0.5,9.1,1.1,13.7,1.8c2.6,0.4,5.1,0.9,7.6,1.6c1.9,0.5,3.7,1.2,5.4,2.1c1.6,0.8,1.6,2.2,0.3,3.5
			c-0.4,0.3-0.7,0.7-1.2,1.1c1.9-0.2,3.2-1.7,3.3-3.5c0.1-2.4,0.6-4.7,1.6-6.8c1.1-2.3,0.3-3.3-1.8-4c-2.8-0.9-5.7-1.7-8.7-2.2
			c-5.6-1-11.3-1.9-17-2.6c-5.1-0.6-10.2-1-15.3-1.1c-4.2-0.2-8.4,0-12.6,0.2c-4.1,0.2-8.3,0.5-12.4,0.9c-7.3,0.7-14.6,2.1-21.7,3.9
			c-1.1,0.3-2.1,0.6-3.1,1c0,0.1,0,0.1,0.1,0.2c0.4,0,0.9-0.1,1.2-0.1c-0.1,0.5-0.4,0.9-0.2,1.2c0.8,1.2,1.6,2.4,2.5,3.7
			c1.1-1.7,0.9-4.1-0.4-5.5C111.2,226.8,112.1,226.5,113,226.3z M74,235.6c0,0.1,0,0.1,0,0.2c2.5,0,4.9,0.3,7.3-0.1
			c3.3-0.4,6.6-1.2,9.8-2.1c3.9-1.1,7.8-2.1,10.9-5c1-1,2.7-1.2,4.1-1.7c3.1-1.1,6.2-2.1,9.2-3.2c3.5-1.3,7-2.8,10.6-3.8
			c2.6-0.7,5-1.6,7-3.4c1.1-1,2.1-2.1,3-3.2c0.9-1.2,0.5-2.5-0.8-2.8c-1.1-0.3-2.3-0.6-3.4-0.5c-3,0.3-5.9,0.8-8.9,1.3
			c-0.3,0-0.7,0.1-0.8,0.3c-0.5,1.1-1.4,0.8-2.3,0.9c-0.5,0-1.1,0-1.5,0.2c-3.4,1.3-6.9,2.5-10.3,4c-4.7,2.1-9.3,4.4-13.9,6.6
			c-0.6,0.3-1.3,0.5-1.6,1c-0.4,0.9-1.1,0.9-1.8,1c-1.1,0.2-2.3,0.3-3.4,0.7c-4.4,1.7-8.8,1.9-13.4,0.9c-1.3-0.3-2.6-0.8-4-1.3
			c0.1,0.4,0.1,0.8,0.2,1.1c0.9,2.4,1,4.7,0.2,7.1c-0.1,0.4,0.2,1,0.3,1.5c0.8-0.3,1.2-0.5,1.7-0.4c1.6,0.1,3.2,0.3,4.9,0.5
			c0.4,0,0.8,0.1,1.1,0.1c0,0.1,0,0.2,0,0.3C76.9,235.6,75.4,235.6,74,235.6z M230.6,225.4c-1.1,0.3-2.2,0.9-3.3,1
			c-4.9,0.5-9.7-0.4-14.3-2s-9-3.7-13.5-5.5c-5.5-2.2-11-4.4-16.5-6.4c-2.2-0.8-4.5-1.4-6.8-1.9c-2.4-0.5-4.9-0.7-7.3-0.8
			c-0.9-0.1-2.1,0.1-2.6,1.2c-0.5,1.1,0,2,0.7,2.7c1.2,1.3,2.6,2.4,3.9,3.7c1.2,1.1,2.5,2,4.2,2.3c1.9,0.4,3.9,1,5.7,1.6
			c5.1,1.8,10,4,15.4,5.1c1.9,0.4,4.1,0.7,5,3c0.1,0.3,0.5,0.5,0.9,0.6c3.4,1.3,6.8,2.8,10.3,3.7c3.6,1,7.3,1.4,11,1.9
			c1.5,0.2,3.1-0.2,4.6-0.6c0.4-0.1,0.8-0.9,1-1.4c0.2-0.8,0.2-1.7,0.4-2.6C229.7,229.1,230.1,227.3,230.6,225.4z M94.3,191.9
			c-0.1,0-0.2-0.1-0.3-0.1c-0.2,0.3-0.5,0.6-0.7,0.9c-1.7,2.4-3.5,4.6-5,7.1c-1.1,1.7-2.1,3.6-2.6,5.6c-0.9,3.7,0,7.3,1.1,10.9
			c0.2,0.5,0.7,0.9,1,1.4c0.7,0.9,1.5,1.8,2.2,2.7c0.3,0.4,0.5,0.9,0.7,1.4c0.4,1.2,1.2,1.2,2.2,0.7c3.6-1.8,7.2-3.7,10.9-5.4
			c4-1.8,8.1-3.4,12.2-5c0.9-0.3,1-0.6,0.4-1.4c-0.6-0.8-1-1.9-1.5-2.8c-0.2-0.5-0.4-1-0.8-1.3c-0.6-0.5-1.3-0.3-1.3,0.5
			c-0.1,1.2-0.2,2.4-0.3,3.5c-2.2-0.7-3-2.2-2.8-4.5c0-0.6-0.6-1.4-1.1-2c-2-2.3-4.6-3.7-7.2-5c-2.2-1.1-2.5-2.6-2.1-4.6
			c0.1-0.8,0-1.6,0-2.4c-0.1,0-0.3,0-0.4-0.1c-1,1.2-2.4,2.1-2.4,4.1c-0.7-1-1.4-2-2.2-3.2C94.2,192.7,94.3,192.3,94.3,191.9z
			 M189.2,213c2.6,1.1,5.3,2.2,7.9,3.3c4.3,1.9,8.5,3.9,12.7,5.8c2.2,1,2.7,0.9,4-1.2c0.1-0.2,0.2-0.4,0.3-0.6
			c0.8-1.2,1.3-2.8,2.4-3.7c1.6-1.2,2.1-2.7,2.3-4.5c0.1-0.7-0.1-1.4,0-2.1c0.4-3.3-1.2-5.5-3.4-7.6c-1.3-1.2-2.6-2.5-3.3-4.3
			c-0.8-2.2-1.7-4.3-2.6-6.4c-1,0.4-0.7,2.4-2.4,1.3c-0.1,0.6-0.2,1.1-0.3,1.6c-0.4-0.1-0.7-0.2-1.1-0.3c-0.1,0.6-0.3,1.2-0.4,1.7
			c-0.3,0-0.6-0.1-1.1-0.1c0,2.2-0.5,3.9-2.5,5.1c-1.2,0.7-2.3,1.6-3.4,2.4c-0.8,0.7-1.7,1.3-2.3,2.2c-0.7,1-1.2,2.2-1.8,3.4
			c-0.6-0.4-1.2-0.9-1.7-1.2C191.5,209.5,190.4,211.2,189.2,213z M172.6,178.1c-0.2,1.5,1,2,1.7,2.7c1.1,1.2,1.5,2.7,0.9,4.1
			c-0.6,1.4-1.9,1.7-2.6,0.4c-0.8-1.4-1.5-2.9-1.8-4.5c-0.4-1.9-0.5-3.9-0.6-5.9c-0.1-1.8,0-3.6,0-5.4c0-1.7,1-3.5-0.4-5.3
			c-0.5,0.6-0.9,1.2-1.4,1.8c-2-1.7-2.1-1.7-3.8,0c-0.3-0.2-0.6-0.4-1-0.6c-0.5,0.3-1,0.5-1.6,0.8c0.3,0.4,0.6,0.8,0.7,1
			c-0.9,0.6-1.7,1.1-2.7,1.8c0.9,0.4,1.4,0.6,1.8,0.8c-0.9,0.4-1.7,0.8-2.5,1.1c0,0.1,0.1,0.3,0.1,0.4c0.4,0.2,0.8,0.4,1.5,0.7
			c-0.7,0.9-1.3,1.7-1.9,2.5c-0.1-0.1-0.1-0.3-0.2-0.4c-0.6,0-1.2,0-1.9,0c0.1,0.3,0.1,0.4,0.2,0.5c0.1,0.4,0.2,0.8,0.3,1.2
			c-0.4-0.1-0.7-0.1-1.1-0.2c-1-0.4-1.3,0.1-1.3,1c0.4,0.3,0.8,0.5,1.5,0.9c-0.7,0.3-1.2,0.4-1.7,0.6c-0.2,0.1-0.6,0.4-0.6,0.6
			c0.1,0.3,0.4,0.7,0.6,0.7c0.5,0,1.1-0.2,1.6-0.4c0.3-0.1,0.6-0.5,0.8-0.7c0.1,0.1,0.2,0.1,0.3,0.2c-0.2,0.4-0.4,0.8-0.6,1.2
			c1.4,0.6,1.4,0.6,1.7-0.7c0.1-0.3,0.3-0.6,0.5-0.9c1.7-2.1,3.4-4.1,5.1-6.1c0.1-0.1,0.3-0.3,0.4-0.4c-1.2,1.7-0.4,3.2,0.4,4.6
			c0.1,0.2,0.3,0.5,0.5,0.7c1.2,1.6,1.3,3.4,0.5,5.2c-0.1-0.5-0.4-1-0.2-1.4c0.6-1.6-0.1-2.7-1-3.8c-4.1,1.4-6.5,6.3-6.1,10.1
			c0,0.4-0.1,0.9-0.1,1.3c-0.5-0.1-1-0.1-1.5-0.3c-1.1-0.6-1.3-1.3-0.8-2.5c0.1-0.3,0.1-0.6,0.3-1.1c-0.7,0.3-1.2,0.5-1.9,0.8
			c0-0.9-0.1-1.8-0.1-2.6c-1.6,0.3-1.6,0.3-1.3,1.7c0.3,1,0,1.2-1.1,1.2c-0.5,0-1,0.2-1.8,0.3c0.9,0.6,1.6,1,2.2,1.5
			c-0.5,0.6-0.8,1.1-1.1,1.5c1,0.3,1.8,0.4,2.6,0.8c1.1,0.5,0.8,1.3,0.2,2.3c0.9-0.3,1.8-0.6,2.9-1c-0.4,1-0.8,1.8-1.1,2.6
			c0.1,0.1,0.1,0.2,0.2,0.2c1-0.5,1.9-0.9,3-1.5c0,0.6,0,1.3,0,2.1c2-0.5,1.9-1.8,1.6-3.3c0.5,0.2,0.9,0.3,1.2,0.4
			c0.1-1,0.2-1.9,0.4-2.7c0.3-1.3,1.5-2.3,1.3-3.9c0-0.1,0.1-0.2,0.2-0.3c1.1-0.9,2.1-1.8,3.2-2.7c0,1.4-1.3,2-2.3,2.8
			c-0.2,0.2-0.6,0.4-0.6,0.6c-0.1,1.6-0.2,3.2-0.1,4.7c0.2,2,1.1,3.8,2.3,5.5s0.8,4.7-0.7,5.7c-0.3-0.6-0.6-1.1-0.9-1.7
			c-1.1,1.1-1.1,1.1-0.1,2.8c-0.8-0.3-1.4-0.5-1.9-0.6c-0.3-0.1-0.9,0-0.9,0.1c0,0.6-0.1,1.2,0.1,1.7c0.1,0.2,0.8,0.2,1.3,0.1
			c0.5,0,1-0.1,1.6-0.2c0,0.1,0,0.2,0,0.3c-0.3,0.4-0.7,0.8-1,1.2c1.5,0.8,1.5,0.8,2.9-1.5c0.1,0,0.1,0,0.2,0
			c0.5,0.1,1.1,0.1,1.6,0.2c0-0.4-0.1-0.8-0.1-1.2c0-0.5,0-0.9,0-1.4c0.8,0.4,1.3,0.6,1.8,0.9c0.1-0.1,0.2-0.2,0.3-0.3
			c-0.1-1.1-0.2-2.2-0.4-3.3c0.4,0.1,0.7,0.2,1.1,0.3c0.4-1.4-0.3-2.3-1.2-3.1c1.4-0.5,1.3-0.5,0.6-1.6c-0.6-0.9-1.2-2-1.1-3
			c0.1-1.4,0.7-2.9,1.1-4.3c0.4,0.5,0.7,1.1,1.2,1.3c1.6,0.7,1.8,2.1,2,3.6c0,0.3,0,0.6,0.1,1c1.6-0.4,2.2-1.7,1.7-3.4
			c-0.1-0.3-0.1-0.8,0-1.1c1.3-1.7,1.2-3.6,0.9-5.5c-0.6-3.3-1.6-6.6-2.3-9.9c-0.3-1.6-0.3-3.3-0.2-4.9c0-0.9,0.9-1.1,1.7-0.8
			c0.9,0.4,0.9,1.1,0.6,1.8c-0.2,0.4-0.6,0.7-0.8,1.2s-0.3,1.1-0.4,1.6c0.1,0,0.2,0,0.3,0.1c0.4-0.3,0.7-0.6,1.3-1.1
			c-1,3-0.4,4.6,1.3,5.6c0.4-1.2,0.8-2.4,1.2-3.6c0.5-1.5,0.5-3,0-4.6c-0.5-2-2.4-3.3-4.1-2.8c-1.4,0.4-2,1.6-2.3,2.8
			c-0.2,1.1-0.2,2.2-0.3,3.5c-0.2,0-0.6,0-0.9,0c-0.3,0-0.6-0.2-0.9-0.3c-0.2,1.3,0.3,2,1.3,2.5c0.6,0.3,1.1,0.8,1.7,1.2
			c-0.1,0.1-0.2,0.3-0.2,0.4c-0.9-0.1-1.7-0.2-2.7-0.4c0.2,1.2,0.9,1.7,1.8,2.2c1,0.5,1.8,1.2,2.7,1.8c-0.1,0.2-0.2,0.3-0.2,0.5
			C174.3,178.7,173.5,178.4,172.6,178.1z M127.7,173.1c0.1-0.5,0.2-0.7,0.3-0.9c0.2-1.4,0.6-2.7,0.7-4.1c0.1-1.3-0.5-2.5-1.9-3
			c-1.2-0.5-2.1-0.1-3.1,0.6c-2,1.5-2.4,3.5-2.2,5.9c0.1-0.3,0.2-0.4,0.3-0.6c0.5,1.6,1,3.2,1.5,5c1.5-1.2,1.9-2.6,2-4.1
			c0-1.1-0.3-2.2-0.4-3.3c-0.1-0.7,0.2-1.3,0.9-1.4c0.7-0.2,1.2,0.2,1.3,0.9c0.1,0.6,0.2,1.2,0.1,1.8c-0.1,0.9-0.4,1.8-0.6,2.7
			c-0.9,3.6-1.8,7.3-2.6,10.9c-0.3,1.3-0.6,2.8,0.5,3.8c1,0.9,1.1,1.8,1.1,2.9c0,1,0.5,1.9,1.8,2.5c0-0.9-0.1-1.5,0-2.2
			s0-1.6,0.4-2.2c0.7-1.1,1.7-2,2.6-3.1c0.4,1.1,0.7,2.2,1.1,3.3c1,2.9,0.6,4.3-1.8,6.2c-0.7,0.6-0.7,1.1,0.1,1.6
			c0.3,0.2,0.6,0.3,0.9,0.4c-0.5,0.9-0.9,1.9-1.4,2.8c0.2,0.1,0.3,0.2,0.5,0.3c0.4-0.6,0.8-1.1,1.2-1.7c0,0.1,0.1,0.1,0.1,0.2
			c-0.3,0.9-0.6,1.8-0.9,2.7c0.1,0,0.2,0.1,0.3,0.1c0.3-0.4,0.6-0.8,1.1-1.4c-0.2,1-0.4,1.7-0.6,2.4c0.1,0,0.2,0.1,0.3,0.1
			c0.2-0.3,0.5-0.6,0.8-1c0.3,0.9,0.8,1.7,0.7,2.4c-0.2,1.3,0.3,1.3,1.3,1.1c0.1-0.3,0.1-0.7,0.2-1.3c0.4,0.7,0.5,1,0.7,1.4
			c0.2,0.3,0.3,0.8,0.6,1s0.8,0.4,1,0.3c0.5-0.3,0.9-0.7,1.3-1.1c-0.3-0.3-0.6-0.7-0.9-1c-0.3-0.3-0.6-0.5-0.9-0.7
			c0-0.1,0.1-0.3,0.1-0.4c0.5,0,1,0.2,1.5,0.1c0.4-0.1,0.9-0.3,1.2-0.6c0.1-0.1,0.1-0.7-0.1-0.8c-0.3-0.2-0.8-0.3-1.2-0.3
			c-0.3,0-0.7,0-1.2,0.1c0.5-0.6,0.7-1,1-1.4c-1-0.6-1-0.6-1.7,0.2c-0.6,0.6-1,0.5-1.1-0.2c-0.2-1-0.3-2-0.2-3
			c0.2-1.3,0.6-2.5-0.8-3.9c2,0.1,1.9-1.3,2.3-2.4c0.3-0.7,0.4-1.5,0.6-2.3c0.5-2.3,0.7-4.5-1.6-6c-0.1-0.1-0.3-0.2-0.3-0.3
			c-0.5-0.8-1-1.6-1.4-2.4c1.4,1.2,2.7,2.4,3.8,3.8c0.4,0.5,0.6,1.3,0.5,1.9c-0.1,0.8,0.2,1.2,0.6,1.8c0.6,0.8,1.3,1.8,1.3,2.7
			c0,1.5,1.1,2.2,1.6,3.3c0.1,0.2,0.5,0.2,0.8,0.4c0-0.8,0-1.5,0-2.2c0.9,0.4,1.7,0.7,2.5,1.1c0.1-0.1,0.2-0.2,0.2-0.3
			c-0.2-0.5-0.5-1-0.8-1.7c1.2,0.3,2.3,0.5,3.3,0.7c0-0.1,0.1-0.3,0.1-0.4c-0.4-0.4-0.8-0.8-1.2-1.3c0.5-0.4,0.9-1,1.6-0.2
			c0.3,0.3,0.9,0.8,1.1,0.7c0.4-0.2,0.6-0.8,1-1.4c-0.6-0.1-1,0-1.2-0.2c-0.4-0.2-0.8-0.5-1.2-0.8c0.3-0.3,0.6-0.7,0.9-1
			c0.3-0.2,0.8-0.3,1.2-0.4c0.1-0.2,0.3-0.4,0.4-0.6c-0.4-0.2-0.8-0.5-1.2-0.5s-0.8,0.2-1.2,0.4c0.2-0.4,0.6-0.6,0.6-0.8
			c0-0.4-0.2-0.9-0.5-1.2c-0.1-0.1-0.9,0.1-1,0.3c-0.3,1.5-1.1,1.8-2.3,1.2c-0.1,0-0.2,0.1-0.3,0.1c1.4,1.3,1.4,1.3-0.3,2.2
			c-0.2,0.1-0.5,0.2-0.8,0.4c-0.7,0.4-1.2,0.1-1.3-0.6c-0.1-0.5-0.1-1-0.2-1.5c-0.2-1.3-0.3-2.8-0.8-3.9c-0.5-1-1.4-1.9-2.4-2.5
			c-0.7-0.4-1.9-0.2-2.7,0.1c-0.2,0.1-0.1,1.3-0.1,2c0,0.1-0.1,0.1-0.2,0.2c-0.8-1.1-0.7-2.2-0.3-3.3c1-2.6,1.9-5.2-0.6-7.6
			c0,0,0-0.1,0-0.6c1.1,1.4,2,2.6,2.9,3.8c0.8,1.1,1.5,2.4,2.4,3.3c1,0.9,2.2,1.5,1.9,3.2c0,0.2,0.2,0.5,0.3,0.8
			c0.5,1.1,0.7,1.1,1.7,0.5c-0.3-0.5-0.5-1.1-0.8-1.6c0.1-0.1,0.2-0.1,0.3-0.2c0.5,0.4,0.9,0.8,1.4,1c0.3,0.1,0.8,0,1-0.2
			c0.3-0.2,0.4-0.7,0.6-1.1c-0.3-0.2-0.6-0.3-0.9-0.5c-0.4-0.2-0.8-0.2-1.1-0.4c-0.2-0.1-0.4-0.5-0.4-0.8c0-0.1,0.4-0.4,0.6-0.4
			c0.5-0.1,1.1-0.1,0.8-0.9c-0.3-0.8-0.7-0.8-1.4-0.5c-0.3,0.1-0.8,0-1-0.2s0-0.7,0-1c0-0.2,0.2-0.3,0.4-0.8c-0.7,0-1.2,0.1-1.8,0.1
			c0.7-1.3-0.5-1.5-1.7-1.8c0.9-0.3,1.5-0.5,2.4-0.8c-1.1-0.7-2-1.3-2.9-1.8c0.6-0.2,1.2-0.4,2-0.8c-1.1-0.8-1.9-1.3-2.8-1.9
			c0-0.5,0-1.2,0-1.8c0.1-0.1,0.4-0.2,0.5-0.4c0-0.1-0.3-0.5-0.3-0.5c-0.3,0.1-0.6,0.2-0.8,0.4c-0.1,0.2,0,0.5,0,0.8
			c-0.1,0.6-0.1,1.2-0.2,1.7c-0.1,0-0.2,0-0.3,0.1c-0.6-1.5-1.8-2.1-3.5-2.4c0.1,0.9,0.3,1.6,0.4,2.5c-1.6-0.9-2.9-1.7-4.6-2.6
			c0,0.5-0.2,0.9-0.1,1.3c0.2,0.7,0.6,1.4,0.7,2.1c1,5,0.6,10-0.8,14.9c-0.3,1.2-1,2.3-1.7,3.3c-0.8,1-1.8,0.7-2.2-0.5
			c-0.6-1.7,0.2-3.2,0.6-4.8c0.1-0.4,1.1-0.6,1.7-1c0.1,0,0.2,0,0.2-0.1c0.3-0.5,0.6-1,0.9-1.6c-0.5-0.1-1-0.2-1.5-0.3
			c-0.1,0-0.2,0-0.3,0c0.9-0.7,1.8-1.4,2.6-2.1c-0.1-0.2-0.2-0.3-0.3-0.5c-0.6,0.1-1.1,0.2-1.7,0.2c0.5-0.7,1.1-1.1,1.7-1.6
			c0.7-0.5,1-1.2,0.5-2.2C129.3,172.2,128.6,172.6,127.7,173.1z M163,128.1c-0.2,0.1-0.4,0.2-0.5,0.4c1.2,2.2,2.4,4.4,3.7,6.5
			c-0.1,0.1-0.2,0.2-0.3,0.3c-1.3-1-2.6-2-3.9-2.9c0.2,0.3,0.4,0.7,0.6,1.1c-0.1,0.1-0.2,0.1-0.3,0.2c-0.8-1.3-1.6-2.7-2.2-3.7
			c0.3-0.7,0.4-1.1,0.6-1.5c0.3,0.2,0.5,0.4,0.8,0.5c-0.3-2.3-1.4-4.5-0.4-6.9c0.1-0.2-0.2-0.5-0.3-0.8c-0.2,0.2-0.6,0.4-0.6,0.6
			c0,0.9-0.1,1.7,0.1,2.6c0.3,1.5,0.4,2.9-0.7,4c-1.4,1.5-3.1,2.7-4.7,4c-0.5,0.4-1.2,0.7-2,1.2c-0.4-3.5-3.2-6.2-1.9-9.8
			c-0.8-0.6-1.7-1.1-2.4-1.8c-0.8-0.8-1.5-0.7-2.4-0.5c-2.4,0.6-4.8,1.2-7.2,1.7c-1.7,0.4-3.5,0.5-5.4,0.8c0.4,0.5,0.7,0.8,1,1.1
			c3.2,2.9,5.1,6.6,6.4,10.6c0.7,2,1,4.2,1.2,6.4c0.1,1.1-0.4,2.3-0.6,3.4c-0.2,0-0.3,0-0.5-0.1c0.1-2.3,0.5-4.6-0.3-6.8
			c-0.3,0.4-0.6,0.8-0.7,1.2c-0.6,2.5,0.2,4.7,1.1,6.9c0.4,1,1,1.3,1.8,0.9c2.3-1.1,4.6-2.2,6.8-3.5c3.1-2,6-4.3,9.1-6.3
			c2.9-1.8,6.1-2.6,9.5-1.1c0.1,0,0.2,0,0.5-0.1c-0.3-0.4-0.5-0.8-0.7-1.1c-1.1-1.8-2.2-3.5-3.3-5.2
			C164.2,129.7,163.6,128.9,163,128.1z M216.2,128.9c0.1-0.1,0.2-0.1,0.2-0.2c0.4,0.4,0.8,0.8,1.2,1.2c0.1-0.1,0.2-0.1,0.3-0.2
			c-0.2-0.5-0.4-0.9-0.7-1.5c0.2-0.2,0.4-0.4,0.6-0.6c-0.8-1.2-1.8-1.2-2.5,0.3c-0.2-0.2-0.3-0.3-0.5-0.5c-0.1-0.2-0.1-0.4-0.2-0.5
			c1.4-0.4,1.4-0.4,2.2-1.7c0.1-0.2,0.3-0.3,0.4-0.4c0.6-0.5,1.4-0.9,1.9-1.5c1-1.3,2-2.6,1.7-4.4c0-0.3,0.2-0.6,0.3-0.9
			c0.3-0.7,0.5-1.5,0.8-2.2c-0.1-0.1-0.3-0.2-0.4-0.3c-2.2,1.3-4.5,2.6-6.7,3.9c-0.2-0.2-0.3-0.4-0.5-0.5c1.7-0.2,1.9-1.5,2.4-2.9
			c-1,0.5-1.8,0.9-2.6,1.3c-2.4,1.1-4.9,1.5-7.3-0.2c-0.9-0.6-2.6-0.5-3.5,0.2c0.4,0.7,0.7,1.4,1.1,2c-1,0-1.9,0.3-2.3-0.1
			c-0.8-0.6-1.3-0.1-1.9,0.1c-0.2,0.1-0.5-0.2-1.1-0.5c-0.3,1.7-0.5,3.4-0.9,5.1c-0.2,0.8,0,1.1,0.9,1.3c2.1,0.5,4.1,1.2,6.1,1.9
			c0.3,0.1,0.7,0.6,0.8,1c0,0.2-0.5,0.7-0.8,0.8c-0.7,0.2-1.5,0.2-2.2,0.2c-1.7,0.1-3.5,0.1-5.2,0.3c-0.7,0.1-1.3,0.5-2,0.6
			c-1.8,0.3-2.2,1-1.3,2.5c-0.2,0.6-0.3,1.1-0.5,1.6c0.9-0.5,1.9-0.7,2.2-1.2c0.4-0.8,1.1-0.8,1.6-1c1.8-0.5,3.6-1,5.4-1.1
			c1.4-0.1,2.8,0.3,4.3,0.5c1.9,0.3,2.4,0.1,3-1.7c-0.3-0.2-0.5-0.4-0.8-0.6c0.1-0.1,0.2-0.2,0.3-0.3c1.8,0.1,1.3,2.1,2.3,2.9
			c-0.5,0.2-0.8,0.3-1.4,0.5c0.6,0.4,0.9,0.6,1.3,0.8c1.3,0.8,2.6,1.5,3.9,2.2c0.3,0.2,0.7,0.2,1.1,0.3c0.1-0.4,0.2-0.7,0.2-1.1
			c0.1-0.8-0.1-1.7,0.3-2.4c0.5-0.8,0.3-1.2-0.3-1.8C216.8,130,216.5,129.4,216.2,128.9z M154.6,109.9c0.1-0.1,0.2-0.2,0.3-0.3
			c-0.6-0.5-1.1-1.3-1.7-1.3c-1.3-0.2-2.7,0.1-4.1,0c-1,0-2.1-0.3-3.1-0.4c-0.5-0.1-1.1-0.2-1.6,0c-1.9,0.8-4,0.5-5.9,1.5
			c-1.3,0.7-2.9,0.7-4.1,1.4c-4.3,2.6-6.7,6.6-7.8,11.4c-0.1,0.2,0.3,0.8,0.6,0.9c1.4,0.1,2.9,0.4,4.4,0.2c3.7-0.4,7.4-1,11.1-1.7
			c2.3-0.4,4.5-1.3,5.3-3.8c0.7-2.3,2.3-3.4,4.5-3.9c0.7-0.1,1.4-0.3,1.9-0.7c0.5-0.5,0.6-1.3,0.9-2c-0.6-0.1-1.1-0.3-1.7-0.2
			c-1.5,0.3-3,0.7-4.5,1.2c-0.5,0.2-1,0.7-1.3,1.2c-1.3,2.5-2.8,4.8-5.7,6c-2.4,1-4.9,1.7-7.5,2c-2,0.2-4,0.2-6,0.3
			c0.1-2.6,4.1-8.3,6.2-9.1c-1.3,2.3-2.8,4.5-3.1,7.1c0.5,0.1,0.9,0.3,1.3,0.2c1.9-0.1,3.8-0.3,5.8-0.5c4.3-0.4,7-2.9,8.7-6.7
			c0.2-0.5,0.8-1,1.3-1.2C150.7,110.9,152.7,110.4,154.6,109.9z M171.4,144.4c-0.7,0.5-1.3,1.3-1.7,1.2c-1.6-0.5-2.3,1.2-3.6,1.4
			c-0.2,1.5-1.6,1.5-2.6,2c-0.3,0.2-0.6,0.4-0.7,0.5c0.1,0.9,0.2,1.6,0.3,2.3c0.2,0.7,0.3,1.5,1.3,1.3c0.7-0.1,1.4-0.2,2.2-0.3
			c0.1,0.1,0.1,0.3,0.2,0.4c-0.4,0.2-0.8,0.5-1.2,0.5c-1.2,0.2-2.1,1.2-1.8,2.1c1-0.1,2-0.3,3.1-0.4c-1.4,2.4-2.8,4.8-6.4,3.6
			c0.2,0.6,0.3,0.9,0.4,1.2c0.6-0.1,1.1-0.1,1.5-0.2c0,0.1,0,0.1,0,0.2c-0.3,0.2-0.6,0.4-1.2,0.7c0.6,0.2,0.9,0.3,1.2,0.3
			c-0.7,0.7-1.3,1.3-2,1.9c1.6,0.8,2.2-0.6,3.3-1.1c-0.3,0.5-0.5,1-0.7,1.4c0.1,0.1,0.2,0.2,0.4,0.3c0.7-0.8,1.4-1.5,2.1-2.3
			c0.1,0,0.1,0.1,0.2,0.1c-0.5,0.9-1.1,1.7-1.7,2.7c2.2-0.9,2.6-3.3,4.1-4.5c0.1,0.1,0.2,0.1,0.2,0.2c-1.3,1.8-2.6,3.6-4.1,5.6
			c1.5-1,2.8-1.8,4-2.5c-0.1,0.6-0.1,1.3-0.2,2.3c1.1-0.9,1.8-1.6,2.4-2.1c0.3,1,0.5,2,0.8,2.9c0.1,0,0.3,0,0.4-0.1
			c0.6-2.4,2.6-4.5,1.5-7.3c0.8,0.5,1.5,0.9,2.2,1.3c0.1-1.3,0.1-2.5-0.2-3.4s-1.1-1.7-1.6-2.4c0.8,0.2,1.7,0.4,2.8,0.7
			c-0.9-2.2-1.4-2.6-3-3.5c-0.5-0.3-0.9-0.9-1.4-1.3c0.1-0.1,0.2-0.2,0.2-0.2c0.7,0.3,1.2,1.6,2.1,0.6c0.5-0.6,0.7-1.6,1-2.4
			c-0.8-0.2-1.6-0.4-2.4-0.6c0.3-0.6,0.7-1.3,1-2c-0.1-0.1-0.2-0.2-0.3-0.3c-0.9,0.6-1.8,1.1-2.9,1.8
			C170.7,145.9,172.4,145.7,171.4,144.4z M137.3,165.3c-0.1-1.9-2.1-2.4-3.1-3.6c0.5,0.3,1,0.5,1.6,0.9c-0.2-0.5-0.3-0.7-0.5-1.1
			c1.2,0.6,2.2,1.2,3.5,1.8c-0.4-1.7-1.9-1.7-2.6-2.5c0.7-0.1,1.4-0.2,2.2-0.3c-1.2-0.7-2.2-1.2-3.1-1.7c0-0.2,0.1-0.3,0.1-0.5
			c1.5,1.3,2.9,1.2,4.5,0.2c0.7-0.4,2.3-2.2,2.3-4c-0.8,0.9-1.5,1.8-2.3,2.6c-1.5,1.4-2.9,1.4-4.2,0.2c-0.5-0.5-1.3-0.8-2-1.1
			c-0.2-0.1-0.4-0.2-0.7-0.2c1.1-0.2,2.1-0.1,3.1-0.1c0.3,0,0.7-0.3,0.9-0.6c0.1-0.1-0.3-0.5-0.4-0.8c-0.2-0.5-0.6-1.4-0.5-1.5
			c1.5-1.1,0.8-2.7,1-4c0-0.1-0.3-0.4-0.5-0.5c-2-1.1-4.1-2.1-6.2-3.2c0,0.3-0.1,0.7-0.1,1.2c-0.6-0.5-1.1-0.9-1.5-1.3
			c-0.1,0-0.2,0.1-0.2,0.1c0.1,0.5,0.2,0.9,0.3,1.5c-0.7-0.2-1.3-0.4-1.9-0.5c-0.1,0.1-0.1,0.2-0.2,0.3c0.5,0.5,1,1.1,1.5,1.6
			c-2.1-0.3-2.7-0.1-3.1,0.8c-0.3,1,0.3,1.9,1.9,2.7c-0.6,1.3-1.2,2.6-1.7,3.9c0.1,0.1,0.2,0.2,0.3,0.2c0.4-0.4,0.9-0.7,1.3-1.1
			c-0.8,2.1-1.5,4.2-1.1,6.4c0.1,0.1,0.2,0.2,0.4,0.2c0.5-0.6,1-1.1,1.7-1.9c-0.4,2-0.8,3.9,1,5.6c0.3-1.2,0.6-2.2,0.9-3.1
			c0.3,2,1,3.6,3.4,3.8c0.5-1.8-0.2-3.2-1.1-4.7C133.7,162.7,134.5,165.1,137.3,165.3z M138.8,212.3c-0.1,0.3-0.1,0.4-0.1,0.5
			c0.6,2.1,1.1,4.2,1.8,6.2c0.7,1.8,1.1,1.7,2.7,1.6c2.7-0.2,5.5-0.4,8.2-0.4c2.5,0,4.9,0.3,7.4,0.5c0.9,0.1,1.6-0.3,2-1
			c0.8-1.6,1.5-3.3,2.2-5c0.4-1,0.5-2,0.7-3.2c-0.4,0.1-0.5,0.1-0.6,0.2c-3.9,2.5-7.8,5.1-11.7,7.7c-0.8,0.5-1.4,0.5-2.1,0
			c-3.1-2-6.1-4-9.1-6.1C139.7,212.9,139.3,212.6,138.8,212.3z M196.3,142.3c0.1,2.2,0.2,4.2,0.3,6.6c1.3-1.2,2.1-2.5,3.9-2.6
			c0.6,2.8,0.4,5.7,1.8,8.6c1.2-3,0.8-5.8,1.1-9c1.4,0.8,2.5,1.5,3.5,2.1c0-1.7,0-3.6,0-5.5c-1.2,0.7-2.2,1.2-3.3,1.8
			c-0.1-0.1-0.2-0.3-0.3-0.4c0.7-1,1.5-2,2.2-3.1c-2.5,0-5,0-7.4,0c0.9,1.1,1.7,2,2.5,3c-0.1,0.1-0.2,0.3-0.3,0.4
			C198.9,143.6,197.7,143,196.3,142.3z M107.7,243.5c0-0.1,0-0.2,0-0.3c-0.4-0.1-0.8-0.2-1.3-0.3c-1.5-0.2-2.2-1.2-2.5-2.6
			c-0.2-1,0.5-2.2,1.9-2.8c1.7-0.7,3.4-1.4,5-2.1c-1.4-1.9-2.7-3.8-4.2-5.7c-0.9-1.2-2.3-1.5-3.5-0.8c-1.5,0.8-2,1.7-1.4,3.2
			c1,2.6,1.2,5.2,0.9,7.9c-0.2,1.2,0.4,2.3,1.5,2.7C105.2,243.1,106.5,243.3,107.7,243.5z M118.2,141c4.8,0,9.5,0,14.5,0
			c-0.4-0.7-0.6-1.1-0.9-1.3c-1-0.6-2-1.4-3-1.4c-2.4-0.1-4.8,0.1-7.2,0.3c-2.7,0.2-5.3,0.5-7.9,0.8c-0.3,0-0.7,0.1-0.8,0.1
			c0.4,1.5,0.7,3,1.1,4.4c0.3,1.4,1.3,1.8,2.6,1.3c1.3-0.5,1.8-1.3,1.6-2.6C118,142.1,118.1,141.6,118.2,141z M182.6,144.5
			c0.1-0.1,0.2-0.1,0.3-0.2c0.5,0.4,1,0.7,1.5,1.1c0.2,0.1,0.5,0.1,0.8,0.2c0.4,0.1,0.8,0.2,1.3,0.2c0.4,0,0.9,0,1.3-0.2
			c0.2-0.1,0.2-0.7,0.2-1c0.1-1,0.2-2.1,0.3-3.1c0-0.4,0.2-0.7,0.3-1.2c-0.3-0.1-0.5-0.3-0.7-0.3c-2.1-0.7-4.3-1.2-6.3-2.1
			c-2-0.8-3.9-0.8-5.7,0.2c0,0.5,0.1,0.9,0.1,1.3c0,0.9,0.2,1.5,1.3,1.5c0.8,0,1.7-0.2,2.5-0.1c0.7,0.1,1.8-0.3,1.8,1.1
			c0,0.8-0.4,1.8,1,2C182.6,143.8,182.6,144.2,182.6,144.5z M127.6,126.5c0-0.3,0-0.6,0.1-0.9c-0.2,0-0.3-0.1-0.5-0.1
			c-0.9,2.4-1.7,4.8-2.7,7.4c2-0.2,3.6-0.9,4.9-2.1c1-0.9,1.9-2,2.8-3.1c0.6-0.6,1.3-1,2.1-0.5c0.8,0.6,0.4,1.3,0,1.9
			c-1.5,2.4-0.9,4.7,0.4,6.9c2.2-1,3.3-2,3.7-3.5c-0.4,0.3-0.8,0.5-1.4,0.9c0.5-0.8,0.8-1.2,1-1.7c-0.1-0.1-0.2-0.1-0.3-0.2
			c-0.5,0.6-1.1,1.3-1.6,1.9c-0.1,0-0.1-0.1-0.2-0.1c0.5-0.8,1-1.7,1.5-2.5c-0.1,0-0.1-0.1-0.2-0.1c-0.4,0.4-0.7,0.8-1.1,1.2
			l-0.1-0.1c0.2-0.6,0.4-1.3,0.6-1.9h-0.1c-0.4,0.5-0.8,1-1.1,1.5c-0.1,0-0.1-0.1-0.2-0.1c0.3-0.8,0.6-1.6,0.9-2.3
			c-0.1,0-0.1-0.1-0.2-0.1c-0.5,0.7-0.9,1.5-1.4,2.2c0-0.8,0.2-1.6,0.6-2.3c0.4-0.7,0.5-1.3-0.2-1.9s-1.4-0.8-2.2-0.2
			c-0.3,0.2-0.5,0.4-0.8,0.6l-0.1-0.1c0.3-0.5,0.6-1,1.1-1.8c-0.8,0.6-1.4,1-2.1,1.5c0.2-0.6,0.4-0.9,0.6-1.3
			c-0.1,0-0.1-0.1-0.2-0.1c-0.6,0.6-1.3,1.2-1.9,1.9h-0.1c0.6-0.9,1.2-1.7,1.8-2.6c-0.1-0.1-0.2-0.1-0.2-0.2
			c-0.8,0.8-1.6,1.7-2.4,2.5c-0.1,0-0.1-0.1-0.2-0.1c0.2-0.4,0.4-0.9,0.6-1.3h-0.1C128.3,126,128,126.2,127.6,126.5z M142.1,172.1
			c7.8-1,13.4-4.8,17.5-11c0.4,0.5,0.7,0.8,1.1,1.1c0.1-0.1,0.2-0.2,0.2-0.3c-0.5-1.9-1.3-3.5-3-4.8c-0.2,0.3-0.5,0.6-0.4,0.7
			c0.2,0.5,0.6,0.9,0.9,1.4c-2.8,5.8-11.6,10.9-16.5,10.6c0.1-0.3,0.1-0.5,0.2-1.1c-0.6,0.4-0.8,0.7-1.2,1c0.7,0.6,1.1,0.9,1.6,1.3
			C142.4,171.3,142.3,171.5,142.1,172.1z M245.6,166c-1.7,1.2-3,2.1-4.3,3c-3.1,2.3-4,6.2-2.1,9.7c1.8-1.1,3.2-2.3,3.6-4.7
			c0.3-2,0.5-4.3,2-6C245.1,167.6,245.2,166.9,245.6,166z M184.9,102.6c-1.1,1.3-0.9,2.6-0.9,4.3c-1.4-1-2.5-1.9-3.9-2.9
			c0.1,0.7,0.2,1.3,0.3,1.7c0.5,1.6,1.4,3.2,0.7,5c-0.4,1-1.1,2-1.7,3c2.8-1.3,5-3.3,6-6.3C185.9,105.9,185.9,104.3,184.9,102.6z
			 M156.6,156.6c1.9-0.3,0.3-1.4,0.7-2.1c0.1,0.1,0.2,0.2,0.2,0.2c0.1,0.2,0.2,0.3,0.3,0.5c0.7,1.3,0.7,3.2,3,2.8
			c0.1,0,0.2,0.2,0.2,0.2c1.4,1,3,0.6,3.9-1.2c-2.1,0.8-3.6,0-4.8-1.5c-2.5-3-5.7-2.6-9-2.4c0.5,0.9,1,1.7,1.9,1.1
			c0.1,0.5,0.2,1,0.3,1.5c0.5-0.1,1.1-0.2,1.6-0.4c0.1,0,0.1-0.2,0.2-0.3c0.3-0.1,0.6-0.4,0.8-0.3c0.3,0.1,0.5,0.4,0.7,0.7
			C156.6,155.9,156.6,156.2,156.6,156.6z M156.8,91.5c-0.2,0.7-0.4,1.2-0.4,1.7c0,0.4,0,1,0.2,1.2c0.3,0.2,0.9,0.2,1.2,0
			c0.2-0.2,0.3-0.8,0.3-1.2c-0.1-0.9-0.3-1.9-0.4-2.8c-0.3,0.1-0.6,0.2-1.1,0.4c0.2-1.7-0.9-2.2-2-2.6c-0.5-0.2-1.2,0.2-1.7,0.3
			c0,0.1,0.1,0.2,0.1,0.3c1.1,0.4,2.2,0.8,3.3,1.1c0,0.2-0.1,0.3-0.1,0.5c-0.8-0.3-1.6-0.5-2.5-0.8c-0.7-0.2-2.2,0.6-2.2,1.2
			c0,1.2,0.3,2.5,0.5,4C153.7,93.6,155.2,92.6,156.8,91.5z M152.2,107.3c-0.6-1.2-1-2.4-1.6-3.5c-0.5-1-1.8-1.2-2.7-0.5
			c-0.5,0.3-0.8,0.3-1.4,0.1c-0.6-0.2-1.3,0-2,0.1c0.1,0.5,0.2,1,0.3,1.5c0.1,0.3,0.3,0.5,0.4,0.7c1,1.8,1.4,2,3.6,1.5
			c-0.6-0.7-1.1-1.4-1.6-2c0.9-0.5,1.1-0.4,1.7,0.6C149.9,107.5,150.5,107.8,152.2,107.3z M136.3,104.4c0.2,0.4,0.3,0.6,0.5,0.9
			c-3-0.6-3.2-0.6-3.9,0.8c-0.5,1.2-0.3,2.4,0.7,3c1,0.7,1.9,0.7,2.7,0c-0.5-0.6-1.1-1.3-1.6-1.9c0.1-0.1,0.1-0.2,0.2-0.3
			c1.3,1.3,2.5,2.5,4.5,1.2c-0.4-0.6-0.8-1-1-1.5c-0.3-0.5-0.4-1.1-0.5-1.7C137.6,104.1,137.1,104.2,136.3,104.4z M151,82.8
			c0-0.6,0-0.8,0-1c-0.2-0.8-0.4-1.4-0.1-2.3c0.4-1,0-1.8-1.2-1.6c-0.5,0.1-1,0.4-1.5,0.6c-0.4,0.2-0.9,0.9-1.1-0.1
			c-1.2,0.8-1.5,1.7-1.4,4.6c0.5-0.5,1.1-1.1,1.6-1.6c0.1,0.6,0.3,1.3,0.5,2c0.1,0,0.2,0,0.3,0c0.3-0.7,0.6-1.4,0.9-2.1
			C149.6,81.7,150.2,82.1,151,82.8z M159.6,105.6c0.1-0.1,0.1-0.2,0.2-0.2c0.3,0.3,0.7,0.6,1,0.9c0.3,0.4,0.5,1,0.9,1.4s1,0.7,1.5,1
			c0.1-0.5,0.4-1.1,0.4-1.6c-0.1-1.6-1-3.2-2-3c-1,0.1-1.7-0.3-2.5-0.6c-0.8-0.2-1.2,0.1-1,0.9c0.1,0.8,0.2,1.6,0.5,2.3
			c0.4,1,1,1.7,2.4,1.5c-0.2-0.6-0.4-1.2-0.7-1.7C160,106.2,159.8,105.9,159.6,105.6z M74.8,222.4c0,0.2,0.1,0.7,0.2,1.2
			c0.2,0.9-0.7,2.2,0.5,2.7c0.9,0.4,2.1,0.2,3.2,0.3c0.1,0,0.2,0,0.2,0c0.2-0.2,0.6-0.4,0.7-0.7c0.2-0.8,0.2-1.6,0.3-2.5
			c0-0.6-0.2-1.1-0.9-1.1C77.6,222.4,76.2,222.4,74.8,222.4z M142.6,102.1c0,0.2,0,0.3,0,0.5c0.4,0.1,0.9,0.2,1.3,0.2
			c0.9-0.1,1.8-0.2,2.8-0.3c0.3,0,0.6-0.1,0.9-0.1c0.9,0,1.7,0,2.6,0c0.3,0,0.8,0.2,1,0c1.7-1.1,3.5,0.1,5.2-0.1
			c0.5-0.1,0.9,0,1.4,0c-0.4-0.3-0.8-0.6-1.2-0.8h-0.1c-3.4-0.8-6.9-0.9-10.4-0.5C144.8,101.1,143.6,101.3,142.6,102.1z M163.5,79
			c-0.7,0.5-1.3,0.8-1.6,1.2c-0.2,0.3-0.3,0.8-0.2,1.1c0.4,1,0.8,2,1.3,2.9c0.7,1.3,1.8,2,3.4,2.1c-0.1-0.6-0.3-1.1-0.5-1.6
			s-0.6-0.9-0.7-1.4c-0.1-0.6,0.3-1.2,0.2-1.7c-0.3-1.3-1.3-1.8-2.7-1.4C163,79.8,163.1,79.6,163.5,79z M226,222.7
			c-1.7-0.5-3.3-0.9-4.8-1.3c-0.3,0.5-0.5,3.3,0.1,3.7s1.6,0.4,2.4,0.6c1.4,0.3,2-0.4,2.1-1.7C225.8,223.5,225.9,223,226,222.7z
			 M194.5,122.2c0.2,0.3,0.3,0.4,0.4,0.6c0.1,0.5,0.2,1,0.2,1.5c0,0.1-0.6,0.2-0.7,0.2c-0.3-0.4-0.5-0.9-0.7-1.3c0-0.1,0-0.2,0-0.2
			c0.9-2.2-0.6-3.6-1.6-5.2c-0.3,1.1-0.5,2.2-0.9,3.2c-0.5,1.3-0.2,2.4,0.5,3.4c0.8,1.1,2,0.9,3.1,0.7c0.4-0.1,0.9-0.8,1-1.3
			C196,122.9,195.7,122.2,194.5,122.2z M83.4,221.1c-1.7,0.4-2.6,2.5-2.6,5.1c1.6-0.4,3.2-0.6,4.8-1.1c0.8-0.2,0.5-0.8,0.1-1.3
			C85,223,84.2,222.1,83.4,221.1z M138.9,165.9c0.8,1,1.4,1,2.4,0.9c4.8-0.6,8.9-2.5,12.3-6c0.8-0.8,1.2-1.6,0.7-2.6
			c-0.2-0.3-0.4-0.7-0.6-1c0,0-0.5,0.2-0.5,0.3c0.1,0.4,0.2,0.8,0.4,1c0.5,0.4,0.6,0.7,0.1,1.2c-1.8,2-4.1,3.5-6.5,4.6
			C144.8,165.5,142.1,166.2,138.9,165.9z M186.2,171.4c1.8-1.2,1.9-4.5,0.7-5.7c-0.3-0.3-1.4-0.2-2,0.1s-1.2,1-0.7,1.9
			C184.8,168.8,185.5,170.1,186.2,171.4z M154.2,83.5c0.2,0,0.3-0.1,0.5-0.1c0.1-0.8,0.1-1.6,0.2-2.5c0.8,0.9,1.5,1.9,3.2,1.8
			c-0.5-0.9-1-1.7-1.3-2.4c-0.2-0.6-0.3-1.2-0.4-1.7c-1.8,0-3.2,0.7-4.2,2.4c0.4-0.2,0.7-0.3,1-0.4c0,0.1,0.1,0.1,0.1,0.2
			c-0.3,0.4-0.7,0.8-0.9,1.1c0.3,0.2,0.5,0.4,0.8,0.8c0.1-0.1,0.2-0.4,0.3-0.7C153.7,82.5,153.9,83,154.2,83.5z M198.8,117.7
			c-0.1-0.1-0.2-0.1-0.3-0.2c-0.4,0.5-1.1,1-1.3,1.6c-0.9,2.9-1.3,5.9-0.6,8.9c0.1,0.3,0.5,0.5,0.8,0.8c0.1-0.4,0.3-0.7,0.3-1.1
			c0-2-0.1-3.9,0.1-5.9C198,120.4,198.5,119,198.8,117.7z M186.1,146.9c-1.8-0.6-3.2-1.2-4.7-1.7c-0.1,1.6-0.6,3,0.3,4.5
			C183.2,148.7,184.5,147.9,186.1,146.9z M154.2,167.8c-0.2,0.5-0.6,1-0.5,1.2c0.5,1.1-0.3,1.5-1,2c-0.3,0.2-0.5,0.5-0.7,0.8
			c3.9-1.5,6.5-4.4,8.9-7.4c-1,0.7-1.8,1.5-2.7,2.3s-1.9,1.6-2.8,2.4C155,168.7,154.7,168.3,154.2,167.8z M150.9,88.5
			c0.1,0,0.3-0.1,0.4-0.1c-0.2-0.3-0.5-1-0.7-1c-0.5,0.1-1,0.4-1.3,0.7c-0.2,0.2-0.1,0.7-0.1,1c0,0.8,0,1.6,0,2.4
			c0,0.3-0.2,0.8,0,0.9c0.4,0.3,0.9,0.6,1.4,0.6c0.2,0,0.7-0.5,0.7-0.8C151.1,91,151,89.8,150.9,88.5z M153.5,83.8
			c-0.1,0.6,0,1.4-0.4,2c-0.3,0.5-1.1,0.8-1.6,1.2c0.7,0.4,1.5,0.8,2,0.5c0.9-0.6,1.5-0.1,2.2,0.3c0.4,0.2,0.9,0.3,1.4,0.4
			c0.1-0.2,0.2-0.3,0.3-0.5c-0.8-1.2-2.7-1.6-2.5-3C154.3,84.3,153.9,84.1,153.5,83.8z M141.2,158.6c4,1.4,7.7-1.7,8.9-5.6
			c-1.7-0.7-3.2,0.4-4.8,0.7c1.1,1.1,2.4-0.5,3.7,0.3C147.5,157.5,144.8,158.8,141.2,158.6z M219.2,131.6c-1.2,2.9-1.2,2.9,0.9,3.4
			c0.1-0.3,0.2-0.5,0.3-0.8c0.4,0.1,0.7,0.3,1.4,0.5c0.1-1.3,0.2-2.3,0.3-3.5c-0.8,0-1.3,0-1.8,0c0,0.1,0,0.1,0,0.2
			c0.3,0.1,0.5,0.2,0.8,0.3c0,0.1-0.1,0.2-0.1,0.3C220.5,131.9,219.9,131.8,219.2,131.6z M148.1,96c-1.2,1.6-2.3,3-3.5,4.4
			c1.2,0.1,2.1,0,3,0c1-0.1,1.2-0.6,1.1-1.5C148.6,98,148.3,97.1,148.1,96z M152,156.9c-0.3,0.3-0.5,0.4-0.7,0.6
			c-2.9,2.9-6.1,4.9-10.3,5c-0.4,0-0.7,0.2-1.4,0.5C144.1,163.9,150.9,160.2,152,156.9z M155.5,98.5c0-1.8,0-3.5,0-5.5
			c-1,0.8-1.8,1.4-2.5,2c-0.2,0.2-0.3,0.7-0.2,0.9C153.7,96.8,154.5,97.7,155.5,98.5z M171.9,86.9c0.1-0.7,0.2-0.9,0.2-1.2
			c0-1.7-1.3-2.7-2.5-3.6c-0.2-0.1-0.8,0-0.9,0.2c-0.1,0.4-0.2,0.9,0,1.3c0.3,0.6,0.9,1.1,1.3,1.6C170.5,85.6,171.1,86.1,171.9,86.9
			z M185.2,170.9c-0.5-1-1-2.1-1.6-3.1c-0.1-0.2-0.7-0.2-1-0.2c0,0.3-0.2,0.7-0.1,0.9c0.3,1.1,0.6,2.3,1,3.4
			c0.1,0.3,0.3,0.5,0.4,0.8c0.3-0.2,0.7-0.3,0.8-0.6C184.9,171.9,184.9,171.4,185.2,170.9z M209.7,117.9c1.2-0.2,2.1-0.4,3-0.7
			c0.1,0-0.2-0.9-0.2-1.4v-0.1c-0.1-0.9-0.3-1.7-0.4-2.6c-0.2,0-0.4-0.1-0.5-0.1C211,114.5,210.4,116,209.7,117.9z M148.5,173.4
			c0-0.1-0.1-0.3-0.1-0.4c-0.8-0.1-1.1-1.9-2.5-0.8c0.3,0.5,0.6,1,0.9,1.5c-0.1,0.1-0.1,0.2-0.2,0.3c-0.9-0.3-1.7-0.6-2.7-1
			c0,0-0.1,0-0.1,0.1c-0.6,0.8-0.2,1.5,0.5,1.7c0.5,0.2,1.3,1.4,1.9-0.1c0.1-0.2,0.6-0.3,0.9-0.5C147.6,174,148.1,173.6,148.5,173.4
			z M144,87.3c0.1,0.2,0.2,0.3,0.3,0.5c0.9-0.2,1.9-0.5,2.8-0.7c2.1-0.4,2.7-1.7,1.6-3.8C148,85.7,145.7,86.2,144,87.3z
			 M219.7,136.3c0.1-0.1,0.1-0.1,0.2-0.2c0.4,0.3,0.7,0.5,1.1,0.8c0.1-0.1,0.2-0.2,0.3-0.3c-0.3-0.4-0.6-1-1.1-1.2
			c-0.7-0.2-1.5-0.1-2.2-0.2c0,0.5-0.2,1.2,0,1.6c0.5,1,1.4,1.4,2.7,0.9C220.3,137.2,220,136.7,219.7,136.3z M146.9,175.8
			c0.1,0.1,0.2,0.1,0.3,0.2c2.7-1.8,4.4-4.3,5.6-7.2C150.8,171.1,148.9,173.5,146.9,175.8z M144.9,98.5c0.8-0.9,1.6-1.6,2.3-2.4
			c0.1-0.1,0-0.5-0.1-0.7c-0.6-0.6-1.2-1.2-1.9-1.8c-0.1,0.1-0.2,0.1-0.3,0.2C144.9,95.3,144.9,96.8,144.9,98.5z M166.9,79.5
			l0.1-0.1c0.4,0.3,0.9,0.6,1.3,0.9c0.1,0.1,0.4,0.1,0.5,0s0.2-0.4,0.1-0.5c-0.2-0.7-2.4-1.8-3.3-1.6c0.2,0.3,0.4,0.5,0.6,0.8
			c-0.1-0.1-0.3-0.3-0.4-0.4c-0.2,0.4-0.6,0.9-0.5,1.2c0.4,1.3,1.5,0.9,2.6,1C167.5,80.3,167.2,79.9,166.9,79.5z M218.9,129.4
			c0.7-0.2,1.3-0.4,1.9-0.6c0-0.1,0-0.3-0.1-0.4c-0.8,0.1-1.5,0.2-2.4,0.3c0.1,0.9,0,1.8,1.2,1.6c-0.3,0.2-0.5,0.4-0.7,0.5
			c0,0.1,0.1,0.2,0.1,0.2c1.1-0.1,2.1-0.3,3.3-0.4C221.6,128.2,220.1,130,218.9,129.4z M118.2,145.5c-0.8,0.4-1.4,0.6-1.8,0.9
			c-0.2,0.2-0.5,0.8-0.4,1c0.6,0.7,1.3,1.3,1.9,2c0.1-0.1,0.2-0.1,0.3-0.2C118.2,148,118.2,146.9,118.2,145.5z M156.1,98.5
			c0.2,0.7,0.3,1.3,0.6,1.9c0.1,0.2,0.5,0.2,0.8,0.3c0.2-1.1,0.3-2.1,0.4-3.2c0,0-0.9-0.3-1.2-0.2C156.4,97.5,156.3,98.1,156.1,98.5
			z M80.2,143.6c-0.6-3.2-0.4-6.4,0.2-9.6C79,137.1,79.1,140.4,80.2,143.6z M142.6,98.4c0.1,0.6,0.3,1.3,0.5,2.1
			c0,0.1,0.3,0.4,0.4,0.3c0.2-0.1,0.4-0.3,0.4-0.4c0.1-0.7,0.1-1.4,0.2-2.1c0.1-0.6,0.2-1.2-0.6-1.3
			C142.6,96.9,142.6,97.5,142.6,98.4z M112.5,181.2c0.2,0.1,0.3,0.1,0.5,0.2c0.2-0.6,0.4-1.3,0.7-1.9c0.3-0.7,0.6-1.3,0.9-1.9
			c0.3-0.5,0.6-1,0.9-1.5c-0.1,0-0.2-0.1-0.4-0.1C113.7,177.4,112.7,179.1,112.5,181.2z M161.9,85.8c0.1-0.1,0.3-0.1,0.4-0.2
			c-0.3-1-0.5-2.1-0.8-3.1c0-0.1-0.4-0.2-0.5-0.3c0,0.2-0.1,0.3-0.1,0.5s0,0.4,0,0.5C160.6,84.4,160.9,85.2,161.9,85.8z
			 M156.1,172.9c-2.4,1.3-4.6,2.5-6.8,3.7c0,0.1,0.1,0.2,0.1,0.3c1.6-0.9,3.2-1.7,4.8-2.6c0.8-0.4,1.5-1,2.3,0
			c0.1-0.1,0.2-0.2,0.3-0.3C156.6,173.6,156.3,173.2,156.1,172.9z M217.9,126.8c0.2-0.1,0.4-0.1,0.4-0.1c0.1-1.1,1-1.5,1.7-2.1
			c0.1-0.1,0-0.5-0.1-0.6s-0.4-0.2-0.6-0.2C218.2,124,217.4,125.6,217.9,126.8z M118,211c0.1-0.1,0.2-0.2,0.3-0.3
			c-0.4-0.7-0.9-1.3-1.2-2c-0.5-1.1-0.4-1.2-1.7-0.3C116.3,209.3,117.2,210.1,118,211z M93.8,142.8c-1.6,0-3.3,0-4.9,0
			C90.5,143.5,92.2,143.6,93.8,142.8z M155.4,155.7c-0.1,0-0.2,0-0.3,0c0,2.3,0,4.6,0,6.7C155.6,161.7,155.9,157.6,155.4,155.7z
			 M150,82.9c-0.1,0.1-0.3,0.2-0.4,0.3c0.2,0.5,0.3,1.3,0.6,1.4c0.8,0.2,1.7,0.4,2.5-0.3C151.7,83.8,150.9,83.3,150,82.9z
			 M86.6,139.4c2.2,0.7,3.8-0.3,5.4-1.4C90.2,138.5,88.5,138.9,86.6,139.4z M99,130.9c-0.8-1.2-2.7-1.8-3.5-1
			C96.6,130.5,97.6,131.2,99,130.9z M149.6,93.5c-0.3,0.2-0.7,0.5-1,0.8c0.4,0.2,0.7,0.3,1.1,0.5c0.2,0.1,0.5,0.1,0.7,0.1
			c0.3,0,0.6-0.2,0.9-0.3c-0.2-0.2-0.3-0.6-0.6-0.7C150.5,93.7,150.1,93.7,149.6,93.5z M175.4,138.5c-1.1,0.8-1.9,1.3-3.1,2.1
			c1.1-0.1,2,0.7,2.2-0.9c0.2,0.3,0.4,0.5,0.7,1C175.3,139.8,175.3,139.3,175.4,138.5z M99.1,105.7c-0.5,0.9-1.9,1.5-1.3,2.9
			C98.5,107.7,99.5,107,99.1,105.7z M145.2,168.6c-0.4-1.7-0.7-1.9-1.7-1.4C143.8,168.9,144.1,169.1,145.2,168.6z M76.2,122.9
			c1.3-0.7,2.7-1.4,4.2-2.2C78.4,120.8,77.5,121.2,76.2,122.9z M148.1,165.5c-0.5,0.2-0.8,0.4-1.1,0.5c0.6,1.6,0.7,1.6,2,1.1
			C148.7,166.6,148.4,166.1,148.1,165.5z M95.8,111.8c1.4-1.4,1.7-2,1-3C96.2,109.7,95.1,110.4,95.8,111.8z M87.3,224.4
			c0.1-0.1,0.2-0.2,0.4-0.3c-0.5-0.9-1-1.7-1.6-2.5c-0.1-0.1-0.3-0.2-0.5-0.2c-0.1,0.2-0.3,0.5-0.2,0.6
			C86,222.7,86.7,223.6,87.3,224.4z M80.2,123.6c-1.6,1-3.6,1.6-4.3,3.7C77.4,126,78.8,124.8,80.2,123.6z M79,130.5
			c-0.1,0-0.2-0.1-0.4-0.1c-0.6,1.8-1.1,3.5-1.7,5.3c0.1,0,0.2,0.1,0.3,0.1C77.9,134,78.4,132.3,79,130.5z M156,96.7
			c0.8-0.3,1.4-0.5,2.1-0.7c-0.2-0.3-0.5-0.7-0.7-0.8C156.7,95.2,156,95.2,156,96.7z M196.3,119.8c-0.1-0.1-0.2-0.2-0.3-0.3
			c-0.5,0.5-1,1-1.4,1.5c0.4,0.3,0.8,0.5,1.3,0.9C196.1,121,196.2,120.4,196.3,119.8z M217.9,224.6c0,0.2,0,0.3,0.1,0.5
			c0.6-0.1,1.3,0,1.9-0.2c0.2-0.1,0-0.9,0-1.7C219,223.8,218.5,224.2,217.9,224.6z M152.6,164.8c-0.6-0.4-1.1-0.7-1.7-1
			c-0.1,0.4-0.4,0.9-0.2,1.2C151.1,165.8,151.7,165.6,152.6,164.8z M152.7,85.7c0-0.1-0.1-0.2-0.1-0.3c-0.4,0-0.9,0-1.3,0
			c-0.4,0.1-0.8,0.2-1.2,0.3c0.2,0.4,0.4,0.8,0.5,1.2C151.4,86.4,152.1,86.1,152.7,85.7z M152.6,160.4c0-0.2,0-0.3,0.1-0.5
			c-0.9-1.2-1.2-1.2-2,0.3C151.4,160.2,152,160.3,152.6,160.4z M87.5,112.7c-0.3-1.2-1.6-1.8-3.1-1.6
			C85.5,111.6,86.5,112.1,87.5,112.7z M157.3,165.4c-0.9,0.3-1.5,0.6-0.9,1.4c0.1,0.2,0.6,0.1,0.9,0.2
			C157.3,166.4,157.3,165.9,157.3,165.4z M158.7,162.6c0,1,0,1.7,0,2.5C159.8,164.3,159.8,164,158.7,162.6z M90.1,141.7
			c0,0.1,0,0.2,0,0.3c1.4-0.1,2.9-0.2,4.3-0.3c0-0.1,0-0.2,0-0.4C92.9,141.4,91.5,141.5,90.1,141.7z M142.1,152.1
			c-0.1,0-0.1,0.1-0.2,0.1c0.4,0.8,0.7,1.7,1.1,2.6c0.3-0.2,0.5-0.4,0.7-0.6C143.1,153.4,142.6,152.7,142.1,152.1z M156.2,160.9
			c0.1,0,0.2,0,0.4,0.1c0.2-0.3,0.5-0.7,0.8-1.1c-0.4-0.3-0.7-0.6-1.1-1C156.2,159.8,156.2,160.4,156.2,160.9z M99.4,105
			c0.2,0.1,0.4,0.2,0.6,0.3c0.4-0.7,0.8-1.3,1.2-2c-0.2-0.1-0.3-0.2-0.5-0.3C100.2,103.8,99.8,104.4,99.4,105z M158.4,168.9
			c-0.2-0.1-0.5-0.1-0.7-0.2c-0.1,0.5-0.2,0.9-0.3,1.4c0,0.1,0.4,0.2,0.6,0.3C158.2,169.9,158.3,169.4,158.4,168.9z M140.4,161.6
			c0.2,0,0.4,0.1,0.7,0.1c0.1-0.6,0.2-1.3,0.3-1.9c-0.2,0-0.4-0.1-0.5-0.1C140.7,160.3,140.6,161,140.4,161.6z M149.7,155.5
			c0,0.2-0.1,0.5-0.1,0.7c0.6,0.1,1.1,0.1,1.7,0.2c0-0.2,0.1-0.5,0-0.5C150.7,155.8,150.2,155.7,149.7,155.5z M150.2,161.9
			c-0.5-0.3-0.8-0.6-1.1-0.7c-0.1,0-0.6,0.5-0.5,0.6c0.1,0.3,0.4,0.6,0.7,0.6C149.5,162.4,149.8,162.1,150.2,161.9z M142.8,155.5
			c0.1,0.1,0.2,0.3,0.2,0.4c0.7-0.4,1.3-0.7,2-1.1c-0.1-0.1-0.2-0.3-0.2-0.4C144.1,154.8,143.5,155.1,142.8,155.5z M152.6,174.1
			c0.3-0.3,0.6-0.6,0.6-0.8s-0.4-0.6-0.6-0.5c-0.3,0.1-0.6,0.4-0.7,0.6C151.9,173.5,152.3,173.8,152.6,174.1z"/>
		<path fill="#FFFFFF" d="M61.4,181.1c0,0.2,0,0.4,0,0.5c-0.6,0-1.1,0-1.7,0l0,0c-1.5-0.9-2.3-3.7-1.6-5.4c0.3-0.6,0.6-1.3,1.1-2.3
			c0.3,2.3,1.1,3.8,3.4,4.1c0-1.1-0.4-1.9-1.2-2.7c-1.2-1.1-1.8-2.4-1.6-4.1c0.1-0.5,0.3-1.1,0.5-1.6c0.4-0.8,0.9-1.6,1.5-2.6
			c0.5,1.8,0.9,4,3.5,4.8c-0.2-0.7-0.3-1.3-0.5-1.8c-0.2-0.4-0.5-0.7-0.8-1c-1.4-1.4-1.7-3-1-4.8c0.4-1.2,1-2.3,1.6-3.7
			c0.2,0.6,0.3,1,0.5,1.4c0.4,0.7,0.8,1.5,1.3,2.2c0.4,0.6,1.1,1.1,1.4,1.7c0.5,0.9,1.1,0.7,1.4,0.1c0.5-1.1,1-2.2,1.2-3.4
			c0.7-3.4-1-7.1-4.1-8.6c-1.4-0.7-3-0.9-4.5-1.5c-2.6-0.9-3.8-3-3.5-5.9c1,0.7,1.4,2.4,3.2,2c-0.6-0.7-1.1-1.2-1.6-1.7
			c-2.3-2.7-2.4-5.7-1.5-8.9c0.6-2,1.3-4.1,0.3-6.3c1.8,0.4,2.4,1.7,2.5,3.2c0.1,1.1,0.7,1.9,1.6,2.5c1.6,1.1,3.2,2.3,4.8,3.4
			c0.2,0.1,0.3,0.2,0.6,0.3c0.9-2-1-3.3-1.1-5c3.2,1.9,4.4,4.7,4.3,8.1c-0.1,2.3,0,4.6,1.4,6.6c0.5,0.7,1.1,1.4,1.5,2.2
			c1.3,2.3,1.7,5,1.4,7.4c-0.5,3.6-2,7-3.8,10.2c-2,3.6-4.2,7.1-5.5,11c-0.2,0.7-0.4,1.5-0.5,2.2c-0.1,1.6,0.4,2.6,1.4,3
			c1.1,0.4,2.5,0,3.3-1.3c1.6-2.7,3-5.4,4.4-8.2c1.8-3.5,3.4-7.1,5.8-10.4c2.6-3.5,4.5-7.4,5.5-11.7c0.1-0.3,0.3-0.7,0.4-1
			c0.1,0,0.3,0.1,0.4,0.1c-0.1,0.5-0.1,0.9-0.2,1.4c-0.9,3.6-2.5,6.9-4.5,10c-2.2,3.5-4.3,7-6.4,10.5c-1,1.7-1.6,3.6-2.4,5.3
			c-1,2.2-2.1,4.4-4.2,5.8c-1.9,1.3-4,0.5-4.4-1.7c-0.2-1-0.3-2.2,0.1-3.1c1.4-3.4,3-6.7,4.7-9.9c1.9-3.8,4.1-7.5,5-11.7
			c0.6-2.9-0.3-5.5-1.7-8c-1-1.7-2-3.3-3-5c0,0.1-0.1,0.3-0.1,0.5c-0.1,0-0.1,0-0.2,0c-0.2-1.2-0.4-2.3-0.6-3.5c-0.1,0-0.2,0-0.3,0
			c0.2,1.5,0.4,3,0.5,4.4c0,0-0.3-0.2-0.5-0.3c0.2,0.9,0.5,1.8,0.8,2.8c-0.4-0.1-0.6-0.1-1-0.1c0.2,0.3,0.4,0.6,0.6,1.1
			c-0.8-0.4-1.5-0.8-2.4-1.3c1.3,2,2.6,3.7,3.4,5.5c1.1,2.2,1.1,4.6,0.3,7c-0.4,1.2-0.8,2.4-1.4,3.6c-0.4,0.7-1,1.4-1.7,1.8
			c-1.4,0.8-1.4,2.3-2,3.5c-0.7,1.3-1.1,1.5-2.2,0.4c-0.4-0.4-0.8-0.7-1.3-1c0.6,1.2,2,1.9,2.2,3.6c-1.1-1.3-2-2.4-3-3.5
			c-0.1,0.1-0.2,0.2-0.3,0.2c0.8,1.1,1.7,2.3,2.4,3.2c-1.1,1.3-0.1,2.9-0.8,4.1c-0.9-0.9-1.8-1.8-2.7-2.7c-0.1,0.1-0.2,0.2-0.3,0.3
			c0.4,0.4,0.8,0.7,1.1,1.1c0.5,0.5,1,1,1.4,1.6C62.5,181,62.2,181.4,61.4,181.1c-0.7-0.6-1.3-1.3-2-1.9
			C59.8,180.4,60,180.6,61.4,181.1z M65.6,149.3c-2-2.1-3.8-4-5.8-6.2C61.2,145.9,63,147.9,65.6,149.3z M61.1,140.4
			c0.1,1.4,3.1,4.8,5,5.5c-0.8-0.9-1.8-1.7-2.6-2.6C62.7,142.3,61.9,141.3,61.1,140.4z M67.1,149c0.1-0.1,0.2-0.3,0.3-0.4
			c-1.2-1-2.3-1.9-3.5-2.9c-0.1,0.1-0.2,0.2-0.2,0.3C64.8,147,65.9,148,67.1,149z M63.9,141.7c-0.1,0.1-0.2,0.2-0.3,0.3
			c1.1,1.2,2.2,2.3,3.3,3.5c0.1-0.1,0.2-0.2,0.2-0.2C66.1,144,65,142.9,63.9,141.7z"/>
		<path fill="#FFFFFF" d="M143,79.7c-0.3-0.8-0.5-1.8-1.1-2.3c-0.5-0.4-1.5-0.1-2.3-0.1c0.4-0.5,0.8-0.9,1.3-1.4
			c-1.3-1.3-1.7-1.2-3,0.7c-0.2,0.3-0.4,0.7-0.6,1.1c-0.3-0.5-0.5-0.8-0.7-1.2c-0.2-0.3-0.3-0.6-0.5-0.9c0.1-0.1,0.2-0.1,0.2-0.2
			c-0.4-0.2-0.7-0.3-1.2-0.5c-0.2,0.2-0.4,0.5-0.6,0.7c-0.6-0.2-1-0.4-1.7-0.6c0,0.9,0,1.6,0,2.3c-0.1,0-0.2,0.1-0.3,0.1
			c-0.1-0.3-0.3-0.6-0.4-1c-1.8,2.1-3.8,2.7-6.2,2.5c0.6-1.5,1-2.8,1.5-3.9c0.7-1.7,2.3-2,3.6-0.9c0.3,0.3,0.8,0.4,1.2,0.6
			c1,0.4,1.2,0.3,1.1-0.9c-0.1-1.1,0.3-1.9,1.1-2.7c1.7-1.7,4-1.7,6-2.4c0.8-0.3,1.5-0.7,2.3-1.1c0.9,0.4,2,0,3.2-1.6
			c-0.2-0.2-0.5-0.5-0.5-0.6c-1.2,0.3-2.1,0.6-3.3,0.9c0.1-0.4,0.2-0.6,0.3-0.8c-0.1,0-0.3,0-0.3,0.1c-0.6,0.7-2,0.8-1.7,2.3
			c0,0.1-0.7,0.5-1.1,0.5c-0.5,0.1-1-0.1-1.6-0.2c-0.1-0.4-0.2-0.8-0.3-1.1c-0.4,0-0.8-0.1-1.3-0.1c-0.3-0.7,0.4-2-1.2-1.8
			c0-0.6-0.1-1.2-0.1-1.8c-0.5,0-1-0.1-1.7-0.1c0.2-0.6,0.3-1.1,0.4-1.7c-0.4-0.2-0.7-0.3-1.1-0.5c-0.3-0.2-0.8-0.3-0.9-0.6
			c-0.2-1.7-2.1-2.3-2.7-3.7c-0.2-0.4-0.1-0.8,0-1.3c-0.9-2.1-2.4-3.9-2.4-6.7c0.7,0.6,1.3,1,2,1.6c-0.3-3.3-2-6.1-1-9.4
			c1.3,1.5,1.2,3.8,3.1,5c0.3-2.6,0.6-5,2.4-7c-1.2,3.3,0.7,9.8,2.7,11.1c0.4-0.5,0.9-1,1.6-1.7c-0.5,1.8,0.4,2.8,1,4
			c1.4,2.9,2.7,5.9,4.2,8.7c0.8,1.4,2.1,2.5,3.2,3.8c0.3,0.3,0.5,0.6,0.9,0.8c1.7,1.1,2,0.9,3.4-0.6c2.4-2.6,4.9-5.1,7.4-7.7
			c1.4-1.5,2.5-3.2,4.1-4.5c2.6-2.1,5.4-3.9,8.1-5.9c0.1,0.2,0.2,0.4,0.2,0.5c0.5-0.1,1.1,0,1.5-0.2c2.9-1.4,5.7-2.8,8.6-4.2
			c1.2-0.6,2.4-1.5,3.7-2.1c-1.8,1.9-4.1,3.1-6.4,4.2c-1.5,0.7-2.8,1.6-4.3,2.5c-1.2-0.8-1.8,1.3-3.2,1c-0.1-0.2-0.1-0.4-0.2-0.7
			c-0.1,0-0.2,0-0.3,0c-2.2,1.4-4.3,2.9-6.4,4.3c-0.6,0.4-0.9,1-0.3,1.7c0.2-0.1,0.5-0.2,0.8-0.3c0.1,0.1,0.1,0.2,0.2,0.2
			c-0.9,0.8-1.9,1.6-2.8,2.4c-0.1-0.1-0.3-0.3-0.4-0.4c0.7-0.4,1.4-0.8,2.1-1.1c-0.2-0.2-0.4-0.4-0.6-0.7c-1,1-2.7,1.8-3,3
			c-0.4,1.5-1.4,2-2.3,2.9c-0.6,0.6-1.3,1-1.9,1.7c-0.2,0.3-0.3,0.7-0.4,1.1c-0.1,0.2-0.1,0.4-0.3,0.5c-0.9,0.8-1.9,1.6-2.8,2.4
			c-0.8,0.8-1.5,1.7-2.1,2.6c-0.5,0.8-1.1,1.5-2.2,1.5c0.4-0.2,0.8-0.5,1.2-0.7c-0.1-0.1-0.2-0.2-0.3-0.3c-0.7,0.5-1.3,0.9-2,1.4
			c-0.1-0.1-0.1-0.1-0.2-0.2c0.2-0.3,0.5-0.6,0.7-0.9L146,69c-0.4,0.2-0.7,0.5-1.1,0.7l-0.1-0.1c0.2-0.3,0.5-0.7,0.6-0.9
			c-1.1-1.3-1.8-0.3-2.7,0.3c-0.2,0.1-0.7-0.2-0.9-0.1c-0.4,0.2-0.8,0.6-1.2,1c-1.3-0.5-4.3,0.3-5.1,1.8c0.7-0.1,1.1-0.1,1.6-0.2
			c0.7-0.2,1.4-0.4,2.3-0.6c-0.4,1.9-0.6,2-2.1,1.6c-0.5-0.1-1.1,0.4-1.6,0.6c0,0.1,0.1,0.3,0.1,0.4c1,0,2,0,3,0c0,0.1,0,0.1,0,0.2
			c-0.4,0-0.8,0.1-1.4,0.1c1.4,1,3.2,0.5,4.1,1.9C142.5,76.9,143.1,78.2,143,79.7z M134.4,61.1c-0.1,0.5-0.1,1-0.2,1.5
			c0.6-0.1,1.2-0.1,1.8-0.2c-0.2,0.7-0.4,1.4-0.6,2.4c0.8-0.4,1.3-0.7,2-1c-0.2,0.8-0.4,1.5-0.7,2.5c1-0.4,1.7-0.7,2.3-1
			c-0.1,0.4-0.2,0.7-0.4,1.2c0.4-0.1,0.7-0.2,1.2-0.3c-0.3,0.4-0.4,0.7-0.6,0.9c0.1,0,0.1,0.1,0.2,0.1c0.9-0.8,1.9-1.7,2.8-2.5
			c-0.1-0.1-0.1-0.1-0.2-0.2c-0.4,0.3-0.7,0.5-1.1,0.8c-0.1-0.1-0.1-0.1-0.2-0.2c0.4-0.5,0.8-1,1.2-1.5l-0.1-0.1
			c-0.4,0.2-0.7,0.5-1.1,0.7c0-0.1-0.1-0.1-0.1-0.2c0.3-0.4,0.6-0.8,1-1.3c-0.4,0.1-0.7,0.2-0.9,0.3c0.1-0.4,0.3-0.7,0.6-0.9
			c0.8-0.5,1-1.1,0.5-2c-0.6-1-1-2.2-1.5-3.3c-1.1-2.2-2.1-4.4-3.3-6.8c-0.4,0.6-0.6,1-1,1.5c-1.2-2.2-2.3-4.3-3.4-6.3
			c-2.2,1.4,0.2,3.2-0.3,4.8c-0.8-1.2-1.4-2.4-2.1-3.7c-0.6-1.2-1.3-2.4-2-3.8c-0.6,1.5,0.2,3.7,1.3,3.9c-0.7,1.3,0.2,3.9,1.6,5
			c0.3-0.2,0.7-0.4,1-0.6c0.1,0.1,0.1,0.2,0.2,0.3c-0.6,0.5-1.2,1-1.6,1.4c-1.1-0.9-2-1.6-2.9-2.4c-0.1,0.1-0.2,0.2-0.3,0.2
			c0.6,1.2,1.2,2.4,1.9,3.6c0.3,0.5,0.8,0.6,1.4,0.1c0.6-0.6,1.2-1.1,1.9-1.6c0.7-0.6,1.4-1.1,2.1-1.7c0.1,0.1,0.2,0.2,0.2,0.3
			c-1.2,1.1-2.4,2.2-3.7,3.3c0.1,0.1,0.1,0.1,0.2,0.2c1.2-1,2.4-2,3.7-3.1c0.1,0.1,0.2,0.2,0.2,0.3c-1,1-2.1,1.9-3.1,2.9
			c0.1,0.1,0.1,0.1,0.2,0.2c0.9-0.8,1.9-1.5,2.8-2.3c0.1,0.1,0.1,0.1,0.2,0.2c-0.4,0.5-0.8,1-1.1,1.4l0.1,0.1
			c0.3-0.2,0.6-0.4,0.9-0.6c0.1,0.1,0.2,0.3,0.4,0.4c-0.8,0.5-1.6,1-2.3,1.5c0.1,0.1,0.2,0.2,0.4,0.4c0.5-0.4,1.1-0.8,1.6-1.1
			c-0.6,0.9-1.2,2-2.5,1.8c-1-0.1-1.9-0.2-3-0.4c0.7,1.7,2.1,2.2,3.7,2.5c-0.5,0.4-0.9,0.7-1.3,1c0,0.1,0,0.3,0,0.4
			C132.9,60.6,133.7,60.8,134.4,61.1z"/>
		<path fill="#FFFFFF" d="M187.5,45.9c-0.1,0.5-0.3,0.9-0.5,1.7c1.4-0.3,2.6-0.6,3.9-0.9c-1,2-2.7,3.5-4.7,4.7
			c-0.4,0.2-0.7,0.5-1.1,0.8c0.4,0.2,0.8,0.4,1.2,0.6c0.2,0.1,0.4,0.2,0.6,0.3c-1.9,1.2-3.8,2.4-5.8,3.6c0.5,0.9,0.2,1.5-0.7,1.7
			c-1.2,0.3-2.5,0.6-3.7,0.8c-1.6,0.2-1.7,0.3-0.7,1.9c-0.7,0.2-1.4,0.5-2.1,0.6c-1.8,0.3-1.9,0.3-1.8,2.2c-0.4-0.2-0.7-0.4-1-0.5
			l0,0c0.5-0.3,0.6-0.7,0.1-1.2s-1.2-1-1.9-1.6c1.6-1.4,2.9-2.6,4.5-3.9c0,0.5,0,0.8-0.1,1.1c0.3-0.2,0.6-0.4,1.2-0.8
			c-0.3,0.6-0.4,0.8-0.5,1.1l0.1,0.1c0.3,0,0.6-0.1,0.9,0c1.1,0.6,1.7,0.5,2.5-0.8c-0.4,0.2-0.7,0.3-1.2,0.5
			c0.3-0.5,0.4-0.8,0.8-1.4c-0.6,0.5-1,0.7-1.3,1c-0.1,0-0.1-0.1-0.2-0.1c0.3-0.4,0.5-0.8,0.9-1.3c-0.4,0.1-0.6,0.2-0.8,0.3
			c-0.1-0.1-0.1-0.1-0.2-0.2c0.6-0.6,1.2-1.1,1.8-1.7c1-1,2.1-1.8,3.5-1.9c1.2-0.1,2.1-0.7,3-1.6c0.8-0.7,1.5-1.5,2.8-1.3
			c0.6,0.1,1.3-0.7,1.8-1.3c-1.4-0.2-2.8-0.1-3.9,0.7l0,0c-0.6,0.2-1.2,0.4-1.9,0.4c-0.9,0-1.9,0.7-2.8,1.2
			c-0.3,0.2-0.7,0.4-1.1,0.3c1-0.6,2-1.3,3.1-1.9C183.9,48,185.7,47,187.5,45.9L187.5,45.9z M179.6,54.9c0.7-0.5,1.2-0.9,1.7-1.3
			c0.1,0.1,0.1,0.2,0.2,0.3c-0.3,0.3-0.6,0.7-1.2,1.3c1-0.1,1.8,0,2.4-0.3c0.8-0.3,1.5-1,2.2-1.5C183,53.1,180.8,52.1,179.6,54.9z"
			/>
		<path fill="#FFFFFF" d="M59.7,181.6c1.5,0.7,2.1,1.9,2.2,3.5c0.2,1.8,0.5,3.6,2,5c0.7,0.6,0.6,1.3,0.2,2c-0.3,0.7-0.5,1.5-0.7,2.2
			c0.2,0,0.3,0.1,0.5,0.1c0.2-0.6,0.3-1.3,0.5-1.9c0.1,0,0.1,0,0.2,0c0,0.6,0,1.3,0,1.9c0.1,0,0.1,0,0.2,0c0.3-0.8,0.6-1.6,1-2.4
			c0.1,0,0.1,0,0.2,0c-0.1,0.8-0.3,1.6-0.4,2.3c0.1,0,0.2,0,0.3,0.1c0.2-0.7,0.4-1.4,0.6-2c0.1,0,0.1,0,0.2,0c0,0.6-0.1,1.1-0.1,1.7
			c0.1,0,0.2,0,0.3,0.1c0.1-0.4,0.2-0.9,0.3-1.3c0.1,0.3,0.2,0.6,0.3,1.1c0.3-0.5,0.4-0.8,0.6-1.1c0.4,1.8-0.7,4.2-2.3,5
			c-0.7,0.4-1.5,0.8-2.3,1c-1.1,0.3-1.6,0.8-1.5,1.9c-0.9-0.9-1-1.7-0.2-2.7c0.9-1.1,1.4-2.1,1.1-3.6c-0.2-0.7,0.4-1.5,0.6-2.2
			c0.1-0.4,0.2-1.1,0-1.4c-1.6-1.6-2-3.7-2.1-5.7C61.3,183.8,60.6,182.7,59.7,181.6C59.8,181.6,59.7,181.6,59.7,181.6z"/>
		<path fill="#FFFFFF" d="M187.6,46c0.7-0.7,1.5-1.4,2.2-2.1c-0.1-0.1-0.1-0.1-0.2-0.2c-0.3,0.2-0.6,0.3-0.8,0.5
			c-0.1-0.1-0.1-0.2-0.2-0.2c0.9-0.8,1.8-1.7,2.7-2.5c-0.1-0.1-0.1-0.1-0.2-0.2c-1.1,0.9-2.2,1.8-3.4,2.8c-0.1-0.3-0.2-0.5-0.4-1
			c-1.8,1.7-3.5,3.2-5.2,4.8c-0.1-0.1-0.2-0.2-0.3-0.3c0.7-0.7,1.5-1.3,2.2-2c-0.1-0.1-0.1-0.2-0.2-0.2c-0.9,0.7-1.9,1.5-2.9,2.3
			c0-0.3-0.1-0.5-0.1-0.8c-0.1,0.1-0.2,0.1-0.3,0.2c-0.5,0.1-0.9,0.1-1.4,0.2c0.2-0.4,0.3-1,0.6-1.3c0.9-0.9,1.9-1.8,2.9-2.6
			c0.1,0.1,0.2,0.2,0.3,0.2c-0.5,0.5-0.9,1.1-1.4,1.7c2.3-1,3.3-3,4.5-4.9c0.1,0,0.2,0.1,0.3,0.1c-0.1,0.3-0.2,0.6-0.4,0.9
			c-0.1,0.3-0.4,0.6-0.5,0.9c-0.1,0.4-0.1,0.8-0.1,1.3c1.5,0,2.4-1.1,3.5-1.7c1.1-0.6,2.2-1.2,3.4-1.9c0.5,1.4-0.4,2.3-0.9,3.2
			c-0.6,1-1.5,1.8-2.3,2.6C188.5,45.8,188,45.8,187.6,46C187.5,45.9,187.6,46,187.6,46z"/>
		<path fill="#FFFFFF" d="M97.4,120.2c-1.7,1.5-2.4,1.6-3.6,0.8c1.2,0.4,2.2,0.3,2.9-1.2c-0.5,0.3-0.8,0.6-1.2,0.7
			c-0.3,0.1-0.7-0.1-1.5-0.1c0.9-0.6,1.7-1,0.7-1.9c-0.5,0.4-1,0.9-1.5,1.3c-0.1-0.1-0.2-0.2-0.2-0.2c0.5-0.7,0.9-1.4,2-1.6
			C96.6,117.7,96.9,119.1,97.4,120.2z"/>
		<path fill="#FFFFFF" d="M173.8,48.5c0.8-0.6,1.7-1.3,2.5-1.9c0.1,0.1,0.2,0.2,0.2,0.3c-1.1,1-2.1,1.9-3.2,2.9
			c0.1,0.1,0.1,0.1,0.2,0.2c1.2-1,2.4-2,3.7-3c0.1,0.1,0.2,0.2,0.3,0.2c-0.2,0.3-0.3,0.5-0.5,0.8c-0.6,0.5-1.3,1-1.9,1.5
			c-0.6,0.5-1.3,0.9-1.9,1.4c-0.3-0.3-0.5-0.5-0.7-0.8c-0.2-0.1-0.3-0.1-0.5-0.2c0.6-0.4,1.1-0.8,1.7-1.2
			C173.7,48.6,173.7,48.5,173.8,48.5z"/>
		<path fill="#FFFFFF" d="M167.3,54.4c0.6-0.5,1.3-1.1,1.9-1.6c-0.1-0.1-0.2-0.2-0.2-0.3c-0.8,0.6-1.7,1.3-2.5,1.9
			c-0.1-0.1-0.2-0.2-0.2-0.3c1.4-1.2,2.9-2.5,4.3-3.7c0.1,0.1,0.1,0.2,0.2,0.2c-0.3,0.4-0.6,0.8-1,1.2l0.1,0.1
			c0.6-0.4,1.1-0.7,1.7-1.1c0.1,0.1,0.1,0.2,0.2,0.3c-1.4,1.2-2.7,2.4-4.1,3.6C167.5,54.6,167.4,54.5,167.3,54.4z"/>
		<path fill="#FFFFFF" d="M160.1,57.6c-0.2,0.4-1,0.7-0.4,1.4c0,0-0.1,0.3-0.2,0.4c-0.8,0.7-1.7,1.5-2.5,2.2
			c-0.1-0.1-0.2-0.2-0.2-0.3c0.8-0.7,1.5-1.4,2.3-2.1c-0.1-0.1-0.1-0.1-0.2-0.2c-1,0.8-2,1.6-3,2.4c-0.1-0.1-0.2-0.2-0.2-0.3
			C157.2,59.9,158.3,58.4,160.1,57.6L160.1,57.6z"/>
		<path fill="#FFFFFF" d="M175,49.5c0.6-0.5,1.3-1,1.9-1.5c0.4-0.2,0.8-0.3,1.1-0.5c0.1,0.1,0.1,0.2,0.2,0.3
			c-1.3,1.1-2.5,2.2-3.8,3.3c-0.1-0.1-0.2-0.2-0.3-0.2C174.4,50.3,174.7,49.9,175,49.5z"/>
		<path fill="#FFFFFF" d="M122.8,161.7c-0.7,1.8-1.3,3.5-2,5.3c0-1.6,1.1-3.1,0.7-4.8c0.3-0.2,0.7-0.4,1.1-0.7
			C122.6,161.6,122.7,161.6,122.8,161.7z"/>
		<path fill="#FFFFFF" d="M101.3,128.9c-0.6-0.2-1.2-0.4-1.9-0.6c-0.6-0.2-1.2-0.3-1.9-0.5C98.7,126.8,100.6,127.4,101.3,128.9z"/>
		<path fill="#FFFFFF" d="M92.6,127.7c2.2,0.5,2.7-1.8,4.1-2.6C96.2,127.1,94.2,129.1,92.6,127.7z"/>
		<path fill="#FFFFFF" d="M160.1,57.6c0.5-0.6,1-1.2,1.5-1.7c0.8-0.7,1.6-1.4,2.6-2C163,55.4,161.7,56.7,160.1,57.6L160.1,57.6z"/>
		<path fill="#FFFFFF" d="M169,50.3c0.3-0.1,0.5-0.1,0.8-0.2c-1,1.4-2.1,2.7-3.8,3.2l0,0C167,52.4,168,51.3,169,50.3L169,50.3z"/>
		<path fill="#FFFFFF" d="M168,60.1c-1.2,1-2.3,2-3.5,3c-0.1-0.1-0.2-0.2-0.3-0.3c1.2-1,2.3-2,3.5-3C167.8,59.9,167.9,60,168,60.1z"
			/>
		<path fill="#FFFFFF" d="M173.8,48.5c-0.1,0.1-0.2,0.2-0.2,0.2c-0.3,0.2-0.7,0.3-1,0.5c-0.1-0.1-0.1-0.2-0.2-0.3
			c1-0.9,1.9-1.8,2.9-2.6c0.1,0.1,0.2,0.2,0.3,0.3C175,47.2,174.4,47.8,173.8,48.5z"/>
		<path fill="#FFFFFF" d="M169,60.3c-1.1,1-2.3,1.9-3.4,2.9c-0.1-0.1-0.2-0.2-0.3-0.3c1.1-1,2.3-2,3.4-2.9
			C168.8,60.1,168.9,60.2,169,60.3z"/>
		<path fill="#FFFFFF" d="M144.3,70.3c-1,0.9-2.1,1.9-3.1,2.8c-0.1-0.1-0.2-0.2-0.3-0.3c1-0.9,2.1-1.9,3.1-2.8
			C144.1,70.1,144.2,70.2,144.3,70.3z"/>
		<path fill="#FFFFFF" d="M169.6,59.3c1-0.9,2.1-1.9,3.1-2.8c0.1,0.1,0.2,0.2,0.3,0.3c-1,0.9-2,1.9-3,2.8
			C169.8,59.5,169.7,59.4,169.6,59.3z"/>
		<path fill="#FFFFFF" d="M141.2,73.6c1-0.9,2.1-1.9,3.1-2.8c0.1,0.1,0.2,0.2,0.3,0.3c-1.1,0.9-2.1,1.9-3.2,2.8
			C141.4,73.9,141.3,73.7,141.2,73.6z"/>
		<path fill="#FFFFFF" d="M161.3,65.1C161.3,65.1,161.2,65.2,161.3,65.1c0.6-0.5,1.2-1,1.9-1.5c0.1,0.1,0.2,0.2,0.3,0.3
			c-1,0.9-2,1.8-3,2.7c-0.1-0.1-0.2-0.2-0.3-0.3C160.5,66,160.9,65.6,161.3,65.1z"/>
		<path fill="#FFFFFF" d="M118.3,172.3c0.2,0.3,0.6,0.6,0.6,0.8c-0.4,1.2-0.9,2.4-1.4,3.6c-0.5-1.5,1.5-2.7,0.6-4.2
			C118.2,172.4,118.3,172.3,118.3,172.3z"/>
		<path fill="#FFFFFF" d="M175.9,51.1c-0.2,0-0.4,0.1-0.7,0.1c-0.1-0.1-0.1-0.1-0.2-0.2c1.1-0.9,2.1-1.8,3.2-2.8
			c0.1,0.1,0.1,0.1,0.2,0.2C177.6,49.4,176.7,50.2,175.9,51.1L175.9,51.1z"/>
		<path fill="#FFFFFF" d="M132,74.1c-0.2-0.8-0.4-1.5-0.6-2.3c0.2,0,0.4-0.1,0.6-0.1c0.2,0.8,0.4,1.6,0.5,2.3
			C132.4,74,132.2,74.1,132,74.1z"/>
		<path fill="#FFFFFF" d="M166.9,59.8c-0.9,0.8-1.8,1.7-2.8,2.5c-0.1-0.1-0.2-0.2-0.3-0.3c0.9-0.8,1.8-1.7,2.8-2.5
			C166.7,59.6,166.8,59.7,166.9,59.8z"/>
		<path fill="#FFFFFF" d="M113.3,152.7c-0.6-0.6-1.1-1.3-1.7-1.9c0.1-0.1,0.3-0.2,0.4-0.4c0.6,0.6,1.1,1.3,1.7,1.9
			C113.5,152.5,113.4,152.6,113.3,152.7z"/>
		<path fill="#FFFFFF" d="M168.3,54.6c1-0.9,2.1-1.9,3.1-2.8c0.1,0.1,0.2,0.2,0.3,0.3c-1,0.9-2.1,1.9-3.1,2.8
			C168.5,54.8,168.4,54.7,168.3,54.6z"/>
		<path fill="#FFFFFF" d="M93.7,172.5c-0.1,0.8-0.1,1.7-0.2,2.6c-1.7-0.8,0.2-1.8-0.2-2.6C93.5,172.5,93.6,172.5,93.7,172.5z"/>
		<path fill="#FFFFFF" d="M106.2,156.5c0-0.7,0-1.5,0-2.2C106.5,155,107.5,155.6,106.2,156.5z"/>
		<path fill="#FFFFFF" d="M107.5,125c-0.2,0.3-0.4,0.6-0.6,0.9c0.2,0.2,0.4,0.4,0.5,0.6c-0.1,0.1-0.2,0.2-0.2,0.2
			c-0.3-0.4-0.7-0.7-0.8-1.1c-0.1-0.2,0.5-0.6,0.8-0.9C107.3,124.8,107.4,124.9,107.5,125z"/>
		<path fill="#FFFFFF" d="M178.4,53.1c-0.7,0.7-1.3,1.3-2,2c-0.1-0.1-0.2-0.2-0.3-0.3c0.7-0.6,1.3-1.3,2-1.9
			C178.3,52.9,178.4,53,178.4,53.1z"/>
		<path fill="#FFFFFF" d="M143.3,70.2c-0.7,0.6-1.3,1.2-2,1.7c-0.1-0.1-0.2-0.2-0.3-0.3c0.7-0.6,1.3-1.2,2-1.8
			C143.1,70,143.2,70.1,143.3,70.2z"/>
		<path fill="#FFFFFF" d="M166.2,63.3c0.8-0.7,1.6-1.4,2.4-2c0.1,0.1,0.2,0.2,0.2,0.3c-0.8,0.7-1.5,1.4-2.3,2.1
			C166.4,63.5,166.3,63.4,166.2,63.3z"/>
		<path fill="#FFFFFF" d="M169,50.3c-0.8,0.6-1.6,1.1-2.4,1.7c-0.1-0.1-0.1-0.1-0.2-0.2c0.6-0.6,1.2-1.2,1.8-1.7
			C168.3,50,168.7,50.3,169,50.3L169,50.3z"/>
		<path fill="#FFFFFF" d="M184.8,49.2c0.1,0.1,0.4,0.4,0.3,0.4c-0.6,0.6-1.2,1.2-1.9,1.8c-0.1-0.1-0.2-0.2-0.3-0.3
			C183.6,50.4,184.2,49.8,184.8,49.2C184.8,49.1,184.8,49.2,184.8,49.2z"/>
		<path fill="#FFFFFF" d="M90,111.4c-0.1,1.1-0.2,2.1-0.3,3.2C88.9,113.4,89.4,112.4,90,111.4z"/>
		<path fill="#FFFFFF" d="M153.1,72.3C153.1,72.3,153,72.4,153.1,72.3c-0.1,0.3,0,0.7-0.2,0.9c-0.4,0.4-0.9,0.7-1.4,1
			c-0.1-0.1-0.2-0.2-0.2-0.3C151.9,73.5,152.5,72.9,153.1,72.3z"/>
		<path fill="#FFFFFF" d="M186.9,38c-0.1,0.6-0.2,1.1-0.3,1.8C186.1,39,185.2,38.3,186.9,38z"/>
		<path fill="#FFFFFF" d="M156,75.3c-0.4,0.3-0.9,0.6-1.3,0.9c-0.3,0.2-0.6,0.3-0.9,0.5c-0.1-0.1-0.1-0.2-0.2-0.2
			c0.5-0.4,0.9-0.9,1.4-1.3C155.3,75,155.7,75.3,156,75.3L156,75.3z"/>
		<path fill="#FFFFFF" d="M175.8,51.1c0.7-0.4,1.3-0.9,2-1.3c0.1,0.1,0.1,0.1,0.2,0.2c-0.6,0.5-1.1,1-1.7,1.5
			C176.3,51.5,176,51.2,175.8,51.1C175.9,51.1,175.8,51.1,175.8,51.1z"/>
		<path fill="#FFFFFF" d="M118.1,105.3c-0.8,0.3-1.6,0.5-2.4,0.8c0-1.8,0-3.2,0-4.8c0.4,0.6,0.7,1.2,1.1,1.7h0.1
			c-0.1-0.6-0.2-1.1-0.3-1.7l0.1-0.1c0.2,0.3,0.5,0.7,0.8,1.2c0.1-0.4,0.1-0.7,0.3-1.4c0.2,0.8,0.3,1.3,0.4,1.8c0.1,0,0.1,0,0.2,0
			c0-0.4,0-0.8,0-1.2c0.9,0.7,0.9,1.6-0.1,3.6C118.2,105.2,118.2,105.3,118.1,105.3z"/>
		<path fill="#FFFFFF" d="M176.8,107c0.7-0.4,1.4-0.8,2.3-1.3c0.3,1.3,0.6,2.5,0.9,3.6c-0.2,0-0.3,0.1-0.5,0.1
			c-0.1-0.3-0.2-0.6-0.3-1c-0.1,0.4-0.2,0.6-0.4,1.1c-0.2-0.4-0.3-0.7-0.4-1c-0.3,0.4-0.5,0.7-0.6,0.9c-0.1,0-0.2,0-0.3-0.1
			c0.1-0.5,0.2-1,0.4-1.7c-0.4,0.3-0.7,0.6-0.9,0.8C177.3,107.9,175.9,107.5,176.8,107C176.8,106.9,176.8,107,176.8,107z"/>
		<path fill="#FFFFFF" d="M212.7,143.6c-0.6,0.3-1,0.5-1.5,0.8c-0.4-0.2-0.9-0.5-1.5-0.8c0.4-1,0.8-2,1.4-3.2
			C211.7,141.6,212.2,142.6,212.7,143.6z"/>
		<path fill="#FFFFFF" d="M221.9,180.1c-0.3,0.4-0.7,0.9-1.1,1.4c-0.1-0.5-0.2-0.9-0.3-1.3c-0.2,0-0.4,0-0.8-0.1
			c0.4-0.7,0.7-1.3,1-1.9c-0.4-0.2-0.7-0.4-0.9-0.6c0,0,0.1-0.4,0.2-0.4c0.5,0.1,1.3,0.1,1.6,0.4c0.4,0.7,0.6,1.6,0.8,2.4
			C222.2,180.2,222.1,180.2,221.9,180.1z"/>
		<path fill="#FFFFFF" d="M183.3,157.6c-0.2-0.1-0.4-0.3-0.7-0.4c0.7-0.9,1.3-1.7,2.1-2.7c-0.1,0.5-0.1,0.8-0.2,0.9
			c-1,1.8-0.5,3.5,0,5.2c0.1,0.4,0.1,0.9,0.2,1.3c-0.1,0-0.3,0-0.4,0.1c-0.4-1.5-0.9-2.9-1.3-4.4
			C183.1,157.7,183.2,157.7,183.3,157.6z"/>
		<path fill="#FFFFFF" d="M202.3,181.9c0.7-1,0.6-2.8,2.7-2.6c-0.3,0.3-0.6,0.6-1.1,1c0.2,0.4,0.5,1,0.8,1.5
			c-0.4,0.4-0.8,0.7-1.1,1.1C203.3,182.6,202.9,182.3,202.3,181.9z"/>
		<path fill="#FFFFFF" d="M216.6,194.1c0.4,1.4,0.6,2.4,0.9,3.5c-0.4,0.2-0.8,0.4-1.1,0.6c-0.4-0.2-0.8-0.4-1.2-0.7
			C215.6,196.6,216,195.5,216.6,194.1z"/>
		<path fill="#FFFFFF" d="M182.5,151.4c1,0.2,1.2,1,1.6,1.8c0.5,1.1-0.8,1.3-0.6,2.2c-1-1.4-1-1.4-0.6-2.9c-0.3-0.3-0.5-0.6-0.8-0.8
			C182.3,151.5,182.4,151.4,182.5,151.4z"/>
		<path fill="#FFFFFF" d="M214.8,154.1c0.2,0.7,0.4,1.4,0.5,2c-0.4,0.1-0.8,0.2-1.2,0.4c-0.3-0.4-0.6-0.8-1-1.3
			c0.2-0.6,0.5-1.4,0.9-2.3C214.4,153.3,214.6,153.7,214.8,154.1L214.8,154.1z"/>
		<path fill="#FFFFFF" d="M201.2,157.1c0.4,1.2,0.7,2.2,1.1,3.3c-0.3,0-0.5,0-0.8-0.1c-0.1,0.4-0.2,0.8-0.3,1.1c-0.1,0-0.1,0-0.2,0
			c-0.1-0.4,0-0.8-0.2-1.1c-0.1-0.2-0.5-0.3-0.8-0.5C200.3,159,200.7,158.2,201.2,157.1z"/>
		<path fill="#FFFFFF" d="M193.4,143.5c-0.4-0.4-0.8-0.8-1.3-1.2c0.3-0.6,0.7-1.4,1.1-2.4C194.1,141.3,194.6,142.4,193.4,143.5z"/>
		<path fill="#FFFFFF" d="M196.2,154.3c0.3,1.3,0.5,2.3,0.7,3.3c0.1-0.1,0.2-0.2,0.6-0.5c-0.1,0.7-0.2,1.2-0.3,1.7
			C195.6,157.7,195.4,156.3,196.2,154.3z"/>
		<path fill="#FFFFFF" d="M197.7,197.5c0.3-0.9,0.6-1.7,1-2.8c0.3,1,0.6,1.8,0.9,2.8c-0.2,0.2-0.5,0.5-0.8,0.7
			C198.5,198,198.1,197.8,197.7,197.5z"/>
		<path fill="#FFFFFF" d="M208.1,152.3c0.3-0.8,0.7-1.5,1-2.3c0.3-0.7,0.7-1.1,1.5-0.7c-0.3,0.8-0.6,1.6-0.9,2.4c-0.1,0-0.1,0-0.2,0
			c0-0.3,0-0.6,0-1.2c-0.5,0.8-0.9,1.4-1.2,1.9C208.2,152.4,208.1,152.3,208.1,152.3z"/>
		<path fill="#FFFFFF" d="M213,147.7c-0.1,0.9-0.2,1.8-0.3,2.7c-0.1,0-0.2,0-0.4,0c0-0.3,0-0.5-0.1-1.1c-0.3,0.9-0.5,1.6-0.7,2.2
			C211.1,149.8,212.1,148.8,213,147.7z"/>
		<path fill="#FFFFFF" d="M223.8,181.3c1.6,1.8,1.5,4.1,1.9,6.2C225,185.5,224.4,183.4,223.8,181.3z"/>
		<path fill="#FFFFFF" d="M194,203.4c0.7-0.6,1.4-1.3,2.2-1.9c0.1,0.1,0.2,0.2,0.2,0.2c-0.5,0.7-0.9,1.4-1.5,2c-0.1,0.2-0.6,0-0.9,0
			C194.1,203.7,194,203.5,194,203.4z"/>
		<path fill="#FFFFFF" d="M212.7,177.4c-1.6-0.4-1.9-0.7-2.1-2.3C211.4,175.9,212,176.6,212.7,177.4z"/>
		<path fill="#FFFFFF" d="M187.8,206.9c1.8-1.1,2.6-1,3.3,0C190.2,206.9,189.1,206.9,187.8,206.9z"/>
		<path fill="#FFFFFF" d="M223.7,184.1c0.4,1,0.7,2,1.1,3c-0.1,0.1-0.3,0.1-0.4,0.2c-0.4-1-0.7-2-1.1-3
			C223.4,184.2,223.6,184.2,223.7,184.1z"/>
		<path fill="#FFFFFF" d="M188.1,150.5c1,0.6,1.8,1.1,2.6,1.6C189.9,152.3,188.7,151.6,188.1,150.5z"/>
		<path fill="#FFFFFF" d="M210.7,153.5c0.2-0.1,0.6-0.3,1.1-0.6c-0.4,0.9-0.7,1.7-1.1,2.8C210.7,154.8,210.7,154.2,210.7,153.5z"/>
		<path fill="#FFFFFF" d="M165.9,226.9c-0.4-1.4,1.2-3.1-0.8-4.4c0.8,0,1.7,0,2.8,0c-1.4,1.3-1.3,2.7-1.3,4.1
			c-0.1,1.3-0.2,2.7-0.3,4c-0.1,0.1-0.3,0.1-0.4,0.2c-1.4-1.9-2.7-3.9-4.3-6.1c-0.4,2.2-1.1,4.1,0.6,5.9c-0.9-0.1-1.8-0.2-2.6-0.3
			c1.7-2.6,1.5-5.3,0.5-8c1-0.4,2.3,0,3,0.9c0.8,1.3,1.7,2.5,2.5,3.8C165.6,227,165.8,227,165.9,226.9z"/>
		<path fill="#FFFFFF" d="M126.3,228.4c0.9-0.1,2-0.2,3.1-0.4c-1.7,1.1,0.1,2.7-0.5,3.6c-0.7,0.1-1.3-0.1-1.7,0.2
			c-1.9,1.2-4.8,0.4-5.3-2.1c-0.5-2.6,0.1-5.1,2.8-5.7c0.5-0.1,0.9-0.1,1.4-0.1s1.1,0,1.8,0c0.1,0.9,0.2,1.8,0.3,2.8
			c-0.1,0-0.2,0-0.3,0c-0.4-0.6-0.8-1.2-1.3-1.6c-0.9-0.9-2.2-0.7-2.8,0.5c-0.8,1.8-0.6,3.6,0.4,5.3c0.3,0.4,1.2,0.8,1.8,0.7
			c0.4-0.1,0.9-0.9,1-1.4C127.2,229.6,126.7,229.1,126.3,228.4z"/>
		<path fill="#FFFFFF" d="M193.5,235.2c-1.2-0.3-2.2-0.5-3.6-0.9c1.2-0.6,1.4-1.5,0.7-2c-0.6-0.5-1.7-0.6-2.5-0.5
			c-0.6,0.1-0.5,1.1,0.3,2.2c-1.1-0.3-2-0.4-3.2-0.7c2.6-1.7,3.5-4.3,5.1-6.3c0.2-0.3,0.6-0.5,0.9-0.7c0.2,0.4,0.4,0.7,0.5,1.1
			c0.3,1.9,0.5,3.9,0.8,5.8C192.8,233.8,193.1,234.3,193.5,235.2z M188.8,230.7c0.1,0.1,0.2,0.3,0.3,0.4c0.5-0.1,1.3-0.1,1.4-0.3
			c0.2-0.6,0.1-1.3,0.1-2c-0.1,0-0.3-0.1-0.4-0.1C189.6,229.4,189.2,230.1,188.8,230.7z"/>
		<path fill="#FFFFFF" d="M153,221.9c1.1,2.7,2.2,5.5,3.4,8.3c-0.8,0-1.8,0-2.5,0c-0.1-0.8,0-1.8-0.4-2c-0.7-0.3-1.7-0.5-2.5-0.2
			c-0.9,0.3-0.7,1.2,0.4,1.9c-0.6,0.6-1.6,0.7-2.5,0.3c1.2-2.7,2.4-5.5,3.6-8.2C152.7,221.9,152.8,221.9,153,221.9z M153.1,227
			c-0.3-0.8-0.6-1.5-0.9-2.2c-0.1,0-0.2,0-0.3,0c-0.2,0.7-0.5,1.3-0.8,2.1C151.8,227,152.3,227,153.1,227z"/>
		<path fill="#FFFFFF" d="M175.8,232c-1.5-0.2-2.7-0.3-4-0.5c2-0.9,1-2.7,1.4-4c0.2-0.7,0.2-1.5,0.2-2.2c0-0.4-0.2-0.7-0.3-1.1
			c-0.4,0.2-0.8,0.2-1.1,0.5c-0.4,0.5-0.8,1-1.1,1.6c-0.1,0-0.2-0.1-0.3-0.1c0.1-0.8,0.2-1.7,0.4-2.5c0-0.2,0.6-0.4,0.9-0.3
			c1.7,0.1,3.5,0.3,5.2,0.5c0.3,0,0.8,0.6,0.8,0.9c0.1,0.7-0.1,1.4-0.4,2.1c-0.5-1-0.5-2.2-2.3-2.5c-0.2,2.1-0.5,4.2-0.6,6.3
			C174.7,231,175.2,231.4,175.8,232z"/>
		<path fill="#FFFFFF" d="M145.9,227.5c0,0.8,0,1.6,0,2.4c0,0.2-0.3,0.4-0.6,0.5c-0.8,0.1-1.6,0.2-2.4,0.2c-0.8,0.1-1.7,0.2-2.5,0.2
			c-0.4,0-0.9-0.1-1.4-0.3c1.8-1,1-2.6,0.9-3.9c-0.1-1.3,0.6-3-1.1-4.1c1.2,0,2.5,0,3.9,0c-1.6,0.8-1.1,2.1-1.1,3.3
			c0,1,0.2,1.9,0.1,2.9c0,0.9,0.4,1.2,1.2,1.1c1-0.1,1.6-0.6,2-1.5c0.2-0.3,0.3-0.7,0.4-1C145.6,227.4,145.7,227.5,145.9,227.5z"/>
		<path fill="#FFFFFF" d="M120.7,233.1c-1.5,0.3-2.7,0.5-4.2,0.8c1.2-1.8,0.3-6.9-1.6-8c1.4-0.3,2.6-0.6,3.9-0.9
			c-1.4,2.5,0.2,4.7,0.3,7C119.2,232.3,119.9,232.6,120.7,233.1z"/>
		<path fill="#FFFFFF" d="M134.9,222.8c-1.1,1.8-0.5,7.3,0.9,8.2c-1.2,0.1-2.4,0.3-3.7,0.4c1.4-1.9,0.8-7.1-1-8.1
			C132.6,223.2,133.7,223,134.9,222.8z"/>
		<path fill="#FFFFFF" d="M180.9,224.4c1.2,0.1,2.4,0.3,3.6,0.4c-1.4,0.9-1.4,2.3-1.5,3.6c0,0.6-0.1,1.3-0.2,1.9
			c-0.2,0.9-0.5,1.8,0.9,2.3c-0.1,0.1-0.2,0.2-0.3,0.3c-1.1-0.2-2.2-0.3-3.7-0.5c1.8-1.1,1.6-2.6,1.7-4
			C181.5,227.2,182.5,225.8,180.9,224.4z"/>
		<path fill="#FFFFFF" d="M79.8,231.3c-2.4,0-4.8,0-7.2,0c-0.2,0-0.5-0.4-0.7-0.7c0.3-0.1,0.6-0.2,0.9-0.2
			C75.1,230.6,77.5,230.9,79.8,231.3C79.8,231.2,79.8,231.2,79.8,231.3z"/>
		<path fill="#FFFFFF" d="M77.1,228.4c-4.5,0.2-5.5,0-5.9-1.7C73.2,227.3,75.2,227.9,77.1,228.4z"/>
		<path fill="#FFFFFF" d="M78.9,234.2c-2.2,0.4-4.4,0.3-6.6,0c-0.2,0-0.3-0.3-0.4-0.5c0.2-0.1,0.4-0.3,0.6-0.3
			C74.6,233.6,76.8,233.9,78.9,234.2z"/>
		<path fill="#FFFFFF" d="M78.8,232.8c-2.1,0-4.1,0-6.2,0c-0.2,0-0.5-0.4-0.7-0.6c0.3-0.1,0.6-0.3,0.8-0.3c1.5,0.1,3.1,0.3,4.6,0.4
			c0.5,0.1,1,0.1,1.5,0.2C78.8,232.6,78.8,232.7,78.8,232.8z"/>
		<path fill="#FFFFFF" d="M71.8,228.6c1.6,0.3,3.1,0.7,4.7,1c0,0.1,0,0.2,0,0.3c-1.5-0.1-3-0.2-4.4-0.3c-0.2,0-0.4-0.6-0.6-0.9
			C71.6,228.7,71.7,228.6,71.8,228.6z"/>
		<path fill="#FFFFFF" d="M229,227.1c-0.5,1.2-4.7,1.8-7.3,0.9C224.1,227.7,226.5,227.4,229,227.1z"/>
		<path fill="#FFFFFF" d="M228.6,228.9c-0.1,0.9-0.9,0.9-1.6,1c-1.9,0.4-3.9,0.4-5.8,0C223.7,229.5,226.1,229.2,228.6,228.9z"/>
		<path fill="#FFFFFF" d="M220.4,234.4c2.4-0.1,4.8-0.3,7.1-0.4C226.8,235.1,222.5,235.3,220.4,234.4z"/>
		<path fill="#FFFFFF" d="M228.1,232.2c-1.2,1.1-5.4,1.4-6.9,0.8C223.4,232.7,225.6,232.5,228.1,232.2z"/>
		<path fill="#FFFFFF" d="M222.7,231.5c1.8-0.3,3.6-0.6,5.4-1C227.7,231.6,226.5,231.8,222.7,231.5z"/>
		<path fill="#FFFFFF" d="M148.2,123c-0.9,0.4-1.5,0.6-2.2,0.9c0,0.1-0.1,0.5-0.3,0.6c-0.8,0.3-1.7,0.6-2.2,0.7
			c-0.3,0.8-0.5,1.4-0.7,2c-0.3-0.2-0.5-0.3-1-0.6c0.4,0.8,0.6,1.2,1,1.9c-0.2,0.1-0.6,0.2-1,0.3c0.1,0.2,0.3,0.3,0.4,0.5
			c0.4-0.2,0.7-0.3,1.1-0.5c0.1,0.1,0.2,0.2,0.2,0.2c-0.4,0.4-0.8,0.8-1.2,1.2c0.2,0.1,0.6,0.3,0.7,0.5c0.1,0.3-0.2,0.7-0.4,1.1
			c1.7,0.7,0.2,1.2,0,1.6c0.4,0.4,1,0.8,0.9,0.9c-0.6,1.2,0.5,1.9,0.6,2.8c0.1,0.6,0.2,1.2,0.1,1.8c-0.2,1-0.5,1.8,0.1,2.8
			c0.3,0.5-0.1,1.4-0.3,2.1c-0.4-7.2-3-13.5-7.3-19.1c3.7-0.9,7.3-1.7,10.8-2.6C147.5,122.4,147.7,122.6,148.2,123z"/>
		<path fill="#FFFFFF" d="M170.7,127.8c0.4,0.3,0.8,0.7,1.3,1c0.1,0,0.1-0.1,0.2-0.1c-0.1-0.4-0.3-0.8-0.5-1.4
			c0.3,0.4,0.5,0.7,0.8,1c0.2-0.3,0.4-0.4,0.7-0.9c0.1,1.5,0.2,2.7,0.2,3.8c-0.1,0.1-0.3,0.1-0.4,0.2c-1.1-0.8-2.2-1.6-3.3-2.4
			c0.1-0.1,0.2-0.2,0.2-0.4c0.4,0.3,0.9,0.5,1.6,0.9C171.1,128.8,170.8,128.4,170.7,127.8C170.6,127.9,170.6,127.9,170.7,127.8z"/>
		<path fill="#FFFFFF" d="M205.1,121.4c0.7-0.7,1.4-1.5,2.5-1.3c1.3,0.3,1.2,1.7,1.6,2.6c0.1,0.3-0.4,0.9-0.6,1.4
			c-0.1-0.1-0.2-0.1-0.4-0.2c0.1-0.3,0.2-0.5,0.3-0.8c-0.1-0.1-0.1-0.1-0.2-0.2c-0.4,0.4-0.7,0.8-1.1,1.3c-0.6-0.6-1.2-1.1-1.9-1.8
			c1,0.1,1.6,0.2,2.3,0.2c0.2,0,0.4-0.3,0.5-0.6c-0.4,0.2-0.9,0.3-1.3,0.5c-0.1-0.3-0.3-0.8-0.2-1c0.3-0.3,0.8-0.4,1.2-0.7
			c-0.4,0.1-0.9,0.1-1.3,0.3c-0.4,0.2-0.8,0.5-1.1,0.8C205.2,121.7,205.2,121.5,205.1,121.4z"/>
		<path fill="#FFFFFF" d="M218.6,119.1c-1.6,0.9-3.2,1.8-3.9,3.7c1.4,2.1,1.4,2.1,0.2,2.8c0.1-0.4,0.2-0.6,0.3-1
			c-0.4,0.1-0.6,0.1-1,0.2c-0.2-0.5,0.9-1.4-0.5-1.4c1-3,3.8-4.2,6.1-5.8c-0.2,0.2-0.4,0.5-0.6,0.7
			C219.1,118.5,218.8,118.8,218.6,119.1L218.6,119.1z"/>
		<path fill="#FFFFFF" d="M200.1,122.1c-0.3-0.4-0.5-0.7-0.8-1.2c1.9,0,1.9,1.5,2.6,2.2c-0.5,0.4-0.8,0.7-1.2,1
			c-0.3-0.3-0.6-0.7-1-1.3C199.7,122.8,199.9,122.4,200.1,122.1z"/>
		<path fill="#FFFFFF" d="M216.4,132.8c-0.2-0.9-0.4-1.8-0.7-2.6s-0.9-1.4-1.5-2.3c1.6,0.7,2.5,2.4,2.6,4.7
			C216.6,132.8,216.5,132.8,216.4,132.8z"/>
		<path fill="#FFFFFF" d="M218.6,119.1c0.1,0.4,0.2,0.8,0.3,1.3c0.4,1.3,0.4,1.3-0.6,2.1c-0.2-0.4-0.5-0.8-0.9-1.4
			C217.7,120.5,218.2,119.8,218.6,119.1L218.6,119.1z"/>
		<path fill="#FFFFFF" d="M214.1,130c0.1,0.6,0.2,0.9,0.3,1.4c-0.4-0.1-0.8-0.3-1.1-0.4c0.2-0.8,0.5-1.5,0.8-2.6
			c0.4,0.9,0.7,1.5,1,2c-0.1,0-0.1,0.1-0.2,0.1C214.6,130.4,214.4,130.2,214.1,130z"/>
		<path fill="#FFFFFF" d="M207.9,119.5c-0.9,0.1-1.8,0.1-3,0.2C206.1,118.8,207,118.9,207.9,119.5z"/>
		<path fill="#FFFFFF" d="M108.8,202c-1.7-1.2-3.3-2.4-5-3.6c2.1,0.6,3.5,2.1,5.2,3.3C108.9,201.8,108.9,201.9,108.8,202z"/>
		<path fill="#FFFFFF" d="M169.2,149.5c-1.6,1.8-2.7,0.5-3.7-0.1c0.2-0.5,0.4-1,0.5-1.3c0.5,0.1,1,0.2,1.4,0.4
			C168.1,148.8,168.6,149.2,169.2,149.5z"/>
		<path fill="#FFFFFF" d="M170.2,153.3c-0.5-0.1-0.9-0.2-1.4-0.3c0.2-0.6,0.4-1.2,0.6-1.9C169.7,151.8,170,152.5,170.2,153.3z"/>
		<path fill="#FFFFFF" d="M131.4,149.9c-0.4,0.2-0.7,0.3-1.1,0.5c-0.1-0.1-0.1-0.2-0.2-0.3c0.6-0.5,1.1-1.1,1.8-1.4
			c0.3-0.1,0.9,0.4,1.4,0.7c-0.3,0.5-0.6,1-1,1.4c-0.1,0.1-0.7-0.4-1.1-0.6C131.3,150.1,131.4,150,131.4,149.9z"/>
		<path fill="#FFFFFF" d="M130.5,153.8c-0.3-0.9-0.5-1.7-0.8-2.6c0.3,0.3,0.6,0.5,0.8,0.8c0.7,1.3,0.7,1.3,2.3,1.4
			c-0.1,0.7-0.3,1.5-0.5,2.6C131.8,154.8,132.4,152.8,130.5,153.8z"/>
		<path fill="#FFFFFF" d="M134.8,152.9c0.1,0.5,0.3,1.1,0.5,2.1c-0.8-0.4-1.4-0.7-1.9-0.9c0.4-0.4,0.7-0.9,1.1-1.3
			C134.6,152.8,134.7,152.8,134.8,152.9z"/>
		<path fill="#FFFFFF" d="M127.3,150.8c0.1-0.4,0.3-0.7,0.4-1.2c-0.4-0.2-0.7-0.4-1-0.6c0-0.1,0.1-0.2,0.1-0.3
			c0.5,0.1,1.3,0.3,1.3,0.4c0,0.6-0.2,1.2-0.4,1.9C127.6,150.9,127.4,150.9,127.3,150.8z"/>
		<path fill="#FFFFFF" d="M120.6,89.7c0.1-0.6,0.2-0.9,0.3-1.3c-0.3,0.1-0.6,0.2-0.8,0.2c0.1-1,1.3-2.2,2.2-2.2
			c0.2,0,0.5,0.2,0.6,0.4c0.4,0.7,0.4,2.1-0.1,3.1c-0.1-0.3-0.3-0.6-0.4-0.9c-0.2,0.2-0.3,0.4-0.4,0.6c-0.2,0.2-0.3,0.3-0.7,0.7
			c0.1-0.5,0.1-0.8,0.2-1.1C121.2,89.3,121,89.4,120.6,89.7z"/>
		<path fill="#FFFFFF" d="M240.7,176.7c-0.1-0.4-0.2-0.7-0.3-1.1c-0.3,0.1-0.6,0.1-0.9,0.2c0.3-1.1,0.7-2.1,1-3.3
			c0.5,1.1,0.9,2,1.2,2.7C241.3,175.7,241,176.1,240.7,176.7z"/>
		<path fill="#FFFFFF" d="M139.4,57.8c0.1,0.2,0.3,0.5,0.2,0.7c-0.2,0.4-0.6,0.8-0.9,1.2l0,0c-1,0.7-1.9,1.3-2.9,2l-0.1-0.1
			c0.7-0.7,1.4-1.3,2.1-2C138.4,58.9,138.9,58.3,139.4,57.8L139.4,57.8z"/>
		<path fill="#FFFFFF" d="M137,58.7c-0.5,0.3-0.9,0.6-1.4,1c-0.1-0.1-0.2-0.2-0.2-0.3c1.1-1,2.2-2,3.4-3.1c0.1,0.1,0.2,0.2,0.3,0.3
			C138.4,57.3,137.7,58.1,137,58.7C137,58.8,137,58.7,137,58.7z"/>
		<path fill="#FFFFFF" d="M137,58.8c0.8-0.6,1.7-1.2,2.6-1.8c-0.1,0.3-0.1,0.6-0.2,0.9l0,0c-1.2,1-2.4,1.9-3.6,2.9
			c-0.1-0.1-0.1-0.1-0.2-0.2C136.1,59.9,136.6,59.3,137,58.8C137,58.7,137,58.8,137,58.8z"/>
		<path fill="#FFFFFF" d="M133.6,51.2c-1,0.9-2.1,1.9-3.1,2.8c-0.1-0.1-0.2-0.2-0.3-0.3c1-0.9,2.1-1.8,3.1-2.7
			C133.4,51,133.5,51.1,133.6,51.2z"/>
		<path fill="#FFFFFF" d="M138.7,59.7c0.3-0.2,0.7-0.4,1-0.6c0.1,0.1,0.2,0.2,0.2,0.3c-0.9,0.8-1.9,1.6-2.8,2.4
			c-0.2-0.2-0.3-0.3-0.5-0.5C137.4,60.8,138.1,60.2,138.7,59.7L138.7,59.7z"/>
		<path fill="#FFFFFF" d="M135.4,58.3c0.8-0.6,1.5-1.3,2.3-1.9c0.1,0.1,0.1,0.2,0.2,0.3c-0.7,0.7-1.5,1.4-2.2,2
			C135.6,58.5,135.5,58.4,135.4,58.3z"/>
	</g>
</g>
</svg>
