<?xml version="1.0" encoding="utf-8"?>
<!-- Generator: Adobe Illustrator 22.0.1, SVG Export Plug-In . SVG Version: 6.00 Build 0)  -->
<svg version="1.0" id="Layer_1" xmlns="http://www.w3.org/2000/svg" xmlns:xlink="http://www.w3.org/1999/xlink" x="0px" y="0px"
	 viewBox="0 0 300 300" enable-background="new 0 0 300 300" xml:space="preserve">
<g id="cert">
	<g id="Layer_1_copy_2">
		<circle fill="#48605C" cx="150" cy="150.2" r="137.5"/>
	</g>
	<circle fill="#2B3A37" cx="150" cy="150.2" r="123.5"/>
	<g>
		<path fill="#FFFFFF" d="M66.7,230.2c6.8-2.9,13.4-5.5,20.6-4.1c5.1,1,8.8,4.3,11.8,9c-4.4,4.3-9.5,5.9-15.3,4.7
			C77.4,238.5,72,234.8,66.7,230.2z"/>
		<path fill="#FFFFFF" d="M230.6,230.8c-5.9,4.9-11.8,9-19.1,9.8c-5.1,0.5-9.5-1.2-13.4-5.1c3.5-5.6,8.1-8.9,14.3-9.3
			C218.8,225.8,224.6,228.1,230.6,230.8z"/>
		<path fill="#FFFFFF" d="M86.7,248.3c5.7-4.7,11.3-9,18.4-10.1c5.4-0.8,9.9,1.4,14.1,5c-2.6,4.7-6.3,7.6-11.1,8.7
			C100.7,253.7,93.8,251.4,86.7,248.3z"/>
		<path fill="#FFFFFF" d="M178,243.5c5.7-5.1,11.8-6.5,18.6-3.8c5.1,2,9.4,5.4,13.8,9.1c-6.7,2.9-13.4,5-20.5,3.7
			C184.8,251.4,180.9,248.4,178,243.5z"/>
		<path fill="#FFFFFF" d="M230.6,205.8c1.6-8.8,7.2-14.8,15.6-16.6c4.1-0.8,8.4-1,13.2-1.6c-1,1.7-1.6,2.9-2.3,4
			c-2.9,4.8-6.2,9.2-10.7,12.3C241.4,207.3,236.1,207.9,230.6,205.8z"/>
		<path fill="#FFFFFF" d="M216.1,222.1c2.7-6.8,7.2-11.1,14-12.4c5-1,9.9-0.3,14.8,0.6c0.7,0.1,1.3,0.3,2.3,0.5
			c-1.1,1.3-2.1,2.6-3.2,3.7c-4.6,4.9-9.5,9.1-16,10.4C223.9,225.6,219.5,224.6,216.1,222.1z"/>
		<path fill="#FFFFFF" d="M81.4,221.7c-5.3,3.4-10.5,3.7-15.9,1.4c-6.1-2.7-10.7-7.5-15.1-13c6.4-1.3,12.5-2.4,18.7-0.6
			C75,211.3,78.9,215.5,81.4,221.7z"/>
		<path fill="#FFFFFF" d="M78,172.1c0.9,5.3,2.2,10.6,2.7,16c0.7,7.8-2.2,14-8.1,18.5c-0.3,0.3-0.7,0.4-1.2,0.7
			c-3.4-5-4.7-10.4-3.5-16.4c1.4-7.3,5.3-13.2,9.5-18.8C77.5,172.1,77.7,172.1,78,172.1z"/>
		<path fill="#FFFFFF" d="M224.2,124.4c6.4,4.8,12.8,9.5,15.9,17.8c1.4,3.9,1.4,7.9,0.6,11.9c-0.3,1.3-0.8,1.6-1.9,1.3
			c-6.9-2.1-11.4-6.9-13.1-14.4c-1.2-5.3-1.5-10.8-2.3-16.3C223.6,124.6,223.9,124.5,224.2,124.4z"/>
		<path fill="#FFFFFF" d="M34.7,164.8c7.4,1.2,14.5,2.2,20.3,7.6c3.8,3.6,5.6,8.3,6.1,13.9c-6.6,1.7-12.2-0.4-16.9-5.3
			C39.9,176.5,37.1,171,34.7,164.8z"/>
		<path fill="#FFFFFF" d="M263.1,165.6c-2.9,6.8-5.9,13-11.2,17.6c-4.5,3.9-9.5,5.2-15.3,3.7c0.8-8.4,4.7-14.2,11.6-17.5
			C252.8,167.1,257.8,166.3,263.1,165.6z"/>
		<path fill="#FFFFFF" d="M109.2,258.7c5.1-4.9,10.1-9.6,16.7-11.5c5.7-1.7,10.6,0,15.3,3.5c-3.3,6.9-8.6,10.2-15.5,10.7
			C120.1,261.8,114.7,260.7,109.2,258.7z"/>
		<path fill="#FFFFFF" d="M207.5,73.4c6.3,3.1,12.3,6.1,16.7,11.9c3.5,4.7,4.7,10,3.9,16.2c-6-0.1-10.8-2.6-14.3-7.8
			c-3.3-4.8-4.7-10.4-5.7-16.2C207.9,76.2,207.7,74.9,207.5,73.4z"/>
		<path fill="#FFFFFF" d="M156.1,250.8c6.2-4.8,12.6-5.3,19.3-1.8c4.6,2.4,8.5,6,12.8,10.3c-3.9,0.8-7.4,1.9-10.9,2.2
			c-3.3,0.3-6.8,0.1-10-0.7C162.1,259.5,158.6,256.1,156.1,250.8z"/>
		<path fill="#FFFFFF" d="M91.3,73.6c-1.5,5.2-2.7,10.6-4.7,15.6c-2.6,6.6-7.4,10.6-14,11.6c-2.6,0.4-2.7,0.3-2.8-2.5
			c-0.2-6.2,1.9-11.2,6-15.5c4.3-4.5,9.5-7.2,14.9-9.7C90.8,73.3,91,73.4,91.3,73.6z"/>
		<path fill="#FFFFFF" d="M86.8,98.9c-1.6,6.5-3.4,12.6-7.1,17.7c-4.1,5.8-9.5,8.2-16.2,7.6c-0.3-6.5,1.6-11.7,5.9-16
			C74.2,103.3,80.3,101,86.8,98.9z"/>
		<path fill="#FFFFFF" d="M210.3,223.6c-5.7-4.8-8.1-13-5.7-21.4c1.4-5,3.5-9.6,5.7-14.4c3.3,6.2,6,12.5,6.3,19.6
			C216.8,213.8,214.7,219.2,210.3,223.6z"/>
		<path fill="#FFFFFF" d="M37.9,136.2c5.9,3.8,11.4,7.5,15.1,13.6c3.2,5.4,3.5,11.1,1.8,17.3c-5.9-1.2-10.1-4.5-12.9-10.1
			C38.8,150.6,38.1,143.7,37.9,136.2z"/>
		<path fill="#FFFFFF" d="M53.8,141.9c-6.5-4.5-9.2-10.9-9.1-18.9c0.1-5.6,1.3-11,3.1-16.7c5.5,7.7,11.2,15,10,25.5
			C57.5,135.6,56,138.8,53.8,141.9z"/>
		<path fill="#FFFFFF" d="M188.8,235.9c-3.4-6.6-3.7-13.1-0.6-19.7c2.7-5.6,6.7-10,11.3-14.3c1.3,8.9,2.2,17.4-1.8,25.6
			C195.7,231.4,192.7,234.1,188.8,235.9z"/>
		<path fill="#FFFFFF" d="M113.2,219.4c6.7,1.6,13.1,3.1,18.4,7.7c4.6,3.9,6.4,9.3,6.7,15.7c-5,1-9.4-0.2-13.4-3.4
			c-4.1-3.3-6.7-7.9-8.9-12.9C115,224.2,114.2,221.9,113.2,219.4z"/>
		<path fill="#FFFFFF" d="M57.6,155.1c-1.6-5.9-1.3-11.3,1.4-16.4c3.5-6.6,9.1-10.7,14.7-14.8c0.2,0.1,0.4,0.1,0.6,0.2
			c-0.4,4.1-0.4,8.4-1.3,12.4c-0.7,3.6-2,7.2-3.7,10.4C66.9,151.7,62.7,154,57.6,155.1z"/>
		<path fill="#FFFFFF" d="M234.5,124.7c-6.9,0.6-12.3-2-16.4-7.9c-3.3-4.8-5-10.3-6.4-16c-0.1-0.4-0.2-0.9-0.3-1.5
			c7.2,2.3,13.9,5,18.9,11.2C233.5,114.5,234.7,119.2,234.5,124.7z"/>
		<path fill="#FFFFFF" d="M87.2,223.3c-4-3.9-6.1-8.6-6.3-14.3c-0.2-5.2,1.2-10,3-14.6c0.9-2.3,2-4.6,3.2-7.3
			c3.9,8.1,7.9,15.8,6.3,25.1C92.6,216.6,90.3,220.2,87.2,223.3z"/>
		<path fill="#FFFFFF" d="M108.5,235.7c-5.4-2.5-8.8-6.7-10.5-12.6c-1.5-5.4-1.3-10.9-0.8-16.4c0.2-1.6,0.5-3.3,0.7-5.3
			c6,6.2,12,12.2,13.2,21.6C111.8,227.5,110.5,231.6,108.5,235.7z"/>
		<path fill="#FFFFFF" d="M72.9,147.2c1.5,8.1,2.9,15.8,0.3,23.5c-1.8,5.3-5.3,8.7-10,11.1c-2.6-4.8-3.4-9.7-2.3-15
			c1.2-5.6,4.1-10.1,7.5-14.4C69.8,150.8,71.2,149.2,72.9,147.2z"/>
		<path fill="#FFFFFF" d="M159,242.8c0.3-7.5,3-13.3,8.7-17.1c5-3.4,10.5-4.8,16.4-6c-2.7,7.6-5.6,14.7-11.6,19.7
			C168.5,242.6,164.1,243.8,159,242.8z"/>
		<path fill="#FFFFFF" d="M67,205.2c-6.1,2.2-11.6,1.3-16.7-2.6c-5.1-3.9-8.6-9.3-11.9-15.4c7.7,0.4,15.1,0.3,21.5,5.4
			C63.8,195.7,65.9,200,67,205.2z"/>
		<path fill="#FFFFFF" d="M260.1,137.2c-0.4,7.1-1,14.2-4.3,20.6c-2.8,5.4-7,8.7-12.8,9.9c-1.3-4.6-1.7-9.2,0.2-13.5
			c1.4-3.1,3.3-6.3,5.6-8.6c3.3-3.3,7.2-5.9,10.9-8.8C259.7,136.9,259.9,137.1,260.1,137.2z"/>
		<path fill="#FFFFFF" d="M220.1,172c4.8,6.7,8.9,12.9,9.9,20.9c0.7,5.5-0.7,10.3-3.8,14.9c-0.8-0.5-1.5-1-2.2-1.5
			c-6.3-5.2-8-12.3-6.9-20.4C217.7,181.4,219,177,220.1,172z"/>
		<path fill="#FFFFFF" d="M237.1,79.6c3.3,6.5,6.1,12.9,6.5,20.2c0.3,6.3-1.7,11.5-6.1,15.9c-5.6-5.2-7.7-11.7-6.5-19.4
			C232,90.4,234.4,85.1,237.1,79.6z"/>
		<path fill="#FFFFFF" d="M250.4,107.4c2,7.5,3.9,15.1,2.1,23.1c-1.2,5.2-4.1,9.1-8.4,12c-2.3-3.2-3.8-6.7-4.1-10.8
			c-0.4-4.6,0.6-8.9,2.7-12.7c2.2-4.1,4.8-7.9,7.2-11.9C250,107.2,250.2,107.3,250.4,107.4z"/>
		<path fill="#FFFFFF" d="M234.3,182.3c-6.6-3.3-10.3-8.9-11-16.7c-0.5-5.9,0.3-11.8,1.7-17.9c6.2,7.2,12.2,14.1,12.2,24.7
			C237.2,175.8,236,179.7,234.3,182.3z"/>
		<path fill="#FFFFFF" d="M61.1,78.8c3,6.4,5.7,12.3,6.3,19.1c0.5,7-1.9,12.5-6.8,17.2c-3.3-3.4-5.4-7.5-5.9-12.4
			c-0.4-4.8,0.4-9.4,2.1-13.8C58,85.6,59.5,82.4,61.1,78.8z"/>
		<path fill="#FFFFFF" d="M153,247.6c0,2.7-2,4.9-4.5,4.8c-2.4-0.1-4.4-2.4-4.3-5c0.1-2.6,2.1-4.7,4.4-4.7
			C151,242.7,153,244.9,153,247.6z"/>
	</g>
	<g>
		<path fill="#FFFFFF" stroke="#FFFFFF" stroke-width="0.5" stroke-miterlimit="10" d="M100.1,97.9c0,0.7,0.1,1.4,0.3,2.1
			c0.2,0.7,0.4,1.2,0.8,1.7s0.8,0.9,1.4,1.2c0.5,0.3,1.2,0.4,1.9,0.4c0.4,0,0.8-0.1,1.2-0.2c0.4-0.1,0.7-0.3,1-0.6
			c0.3-0.2,0.5-0.6,0.7-0.9c0.2-0.4,0.4-0.8,0.6-1.3l0.4,0.1c-0.1,0.5-0.2,1-0.3,1.4c-0.1,0.5-0.1,0.9-0.2,1.4
			c-0.6,0.2-1.2,0.3-1.7,0.4s-1.2,0.2-1.7,0.2c-0.8,0-1.6-0.1-2.3-0.4c-0.7-0.3-1.3-0.7-1.8-1.2s-0.9-1.1-1.2-1.8
			c-0.3-0.7-0.4-1.5-0.4-2.4c0-1,0.2-1.9,0.5-2.6s0.8-1.4,1.4-1.9s1.3-0.9,2.1-1.1c0.8-0.2,1.6-0.4,2.5-0.4c0.5,0,0.9,0,1.5,0.1
			c0.5,0.1,1,0.2,1.4,0.3c0,0.5-0.1,1-0.1,1.4s0,0.9,0,1.4h-0.5c0-0.5-0.1-0.9-0.3-1.2c-0.1-0.3-0.3-0.6-0.6-0.8
			c-0.2-0.2-0.5-0.4-0.8-0.5s-0.7-0.2-1-0.2c-0.7,0-1.4,0.1-2,0.4c-0.6,0.2-1,0.6-1.4,1s-0.7,1-0.9,1.6S100.1,97.1,100.1,97.9z"/>
		<path fill="#FFFFFF" stroke="#FFFFFF" stroke-width="0.5" stroke-miterlimit="10" d="M112.5,101.8c0,0.3,0,0.5,0.1,0.7
			s0.1,0.3,0.2,0.4s0.2,0.2,0.4,0.2c0.2,0,0.4,0.1,0.7,0.1h0.8c0.4,0,0.8,0,1.1-0.1c0.3-0.1,0.5-0.2,0.7-0.4
			c0.2-0.2,0.4-0.4,0.5-0.7s0.3-0.6,0.5-1.1l0.4,0.1c-0.1,0.2-0.1,0.5-0.2,0.7c-0.1,0.3-0.1,0.5-0.1,0.8c0,0.2-0.1,0.5-0.1,0.7
			s0,0.4-0.1,0.5c-1.5,0-2.7,0-3.6,0s-1.6,0-2.1,0c-0.1,0-0.3,0-0.5,0s-0.4,0-0.6,0s-0.4,0-0.6,0s-0.3,0-0.5,0v-0.4
			c0.3,0,0.6-0.1,0.8-0.1c0.2-0.1,0.4-0.1,0.5-0.2s0.2-0.2,0.2-0.4c0-0.2,0.1-0.4,0.1-0.7V94c0-0.2,0-0.3-0.1-0.5
			c0-0.1-0.1-0.2-0.2-0.3c-0.1-0.1-0.2-0.1-0.4-0.2c-0.2,0-0.4-0.1-0.8-0.1v-0.4c0.1,0,0.3,0,0.5,0s0.4,0,0.6,0s0.4,0,0.6,0
			s0.4,0,0.5,0c0.3,0,0.9,0,1.8,0s2.1,0,3.5,0c0,0.4-0.1,0.8-0.1,1.2c0,0.4,0,0.9,0,1.4h-0.4c-0.1-0.4-0.1-0.7-0.2-1
			s-0.2-0.5-0.3-0.6c-0.1-0.2-0.3-0.3-0.6-0.3S115,93,114.6,93H113c-0.2,0-0.4,0-0.4,0.1c-0.1,0-0.1,0.2-0.1,0.4v4l3.8-0.1l0.1,0.1
			v1c-0.7-0.1-1.3-0.1-2-0.1s-1.3,0-1.8-0.1L112.5,101.8L112.5,101.8z"/>
		<path fill="#FFFFFF" stroke="#FFFFFF" stroke-width="0.5" stroke-miterlimit="10" d="M121.6,102.2c0,0.2,0,0.3,0,0.5
			c0,0.1,0.1,0.2,0.2,0.3s0.2,0.1,0.4,0.2c0.2,0,0.5,0.1,0.8,0.1v0.4c-0.4,0-0.7,0-1.1,0s-0.7,0-1.1,0c-0.1,0-0.3,0-0.5,0
			s-0.3,0-0.5,0s-0.3,0-0.5,0s-0.3,0-0.4,0v-0.4c0.3,0,0.5-0.1,0.7-0.1s0.3-0.1,0.4-0.2s0.2-0.2,0.2-0.4c0-0.2,0.1-0.4,0.1-0.7V94
			c0-0.2,0-0.3,0-0.5c0-0.1-0.1-0.2-0.2-0.3c-0.1-0.1-0.2-0.1-0.4-0.2c-0.2,0-0.4-0.1-0.7-0.1v-0.4c0.1,0,0.3,0,0.4,0
			c0.2,0,0.3,0,0.5,0s0.4,0,0.6,0s0.4,0,0.6,0c0.3,0,0.6,0,0.9-0.1c0.3,0,0.6-0.1,0.9-0.1c0.4,0,0.9,0,1.3,0.1s0.9,0.2,1.2,0.4
			s0.7,0.5,0.9,0.8c0.2,0.3,0.3,0.8,0.3,1.3c0,0.4-0.1,0.7-0.2,1s-0.3,0.6-0.5,0.9s-0.4,0.5-0.7,0.7s-0.6,0.4-0.9,0.5
			c0.2,0.5,0.5,0.9,0.7,1.4s0.4,0.8,0.6,1.2c0.2,0.4,0.4,0.7,0.5,1c0.2,0.3,0.3,0.5,0.4,0.6c0.1,0.2,0.3,0.4,0.4,0.5
			s0.2,0.2,0.3,0.3c0.1,0.1,0.3,0.1,0.4,0.1s0.4,0.1,0.6,0.1v0.4c-0.2,0-0.5,0-0.9,0s-0.7,0-1,0c-0.1,0-0.2,0-0.3,0
			c-0.1,0-0.2,0-0.3,0c-0.1-0.2-0.2-0.4-0.3-0.7s-0.3-0.7-0.6-1.1c-0.2-0.4-0.5-0.9-0.7-1.4c-0.3-0.5-0.5-1-0.8-1.5
			c0-0.1-0.1-0.1-0.1-0.2s-0.1-0.1-0.2-0.2c-0.1,0-0.1-0.1-0.3-0.1s-0.2,0-0.4,0H122c-0.1,0-0.1,0-0.2,0s-0.2,0-0.3,0L121.6,102.2
			L121.6,102.2z M121.6,97.9c0.1,0,0.1,0,0.2,0s0.1,0,0.2,0h0.4c0.9,0,1.6-0.2,2-0.6s0.7-1.1,0.7-2c0-0.8-0.2-1.4-0.7-1.7
			c-0.5-0.4-1.1-0.5-1.8-0.5c-0.2,0-0.4,0-0.5,0.1c-0.1,0-0.2,0.1-0.3,0.2s-0.1,0.2-0.1,0.3c0,0.1,0,0.3,0,0.4L121.6,97.9
			L121.6,97.9z"/>
		<path fill="#FFFFFF" stroke="#FFFFFF" stroke-width="0.5" stroke-miterlimit="10" d="M133.2,92.5c0.3,0,0.6,0,1,0s0.8,0,1.2,0
			s0.8,0,1.3,0s0.9,0,1.3,0c0,0.3,0,0.5-0.1,0.8s0,0.5,0,0.7s0,0.4,0,0.7c0,0.2,0,0.5,0,0.7h-0.4c-0.1-0.4-0.1-0.8-0.2-1.1
			s-0.2-0.5-0.3-0.7s-0.4-0.3-0.6-0.4c-0.3-0.1-0.6-0.1-1-0.1H134v9.2c0,0.2,0,0.3,0,0.5c0,0.1,0.1,0.2,0.2,0.3
			c0.1,0.1,0.3,0.1,0.5,0.2c0.2,0,0.5,0.1,0.9,0.1v0.4c-0.2,0-0.3,0-0.5,0s-0.4,0-0.6,0c-0.2,0-0.4,0-0.6,0c-0.2,0-0.4,0-0.6,0
			c-0.1,0-0.3,0-0.5,0s-0.4,0-0.5,0s-0.4,0-0.5,0s-0.3,0-0.5,0v-0.4c0.3,0,0.6-0.1,0.8-0.1s0.4-0.1,0.5-0.2s0.2-0.3,0.2-0.4
			c0-0.2,0.1-0.4,0.1-0.7v-8.7h-1.2c-0.4,0-0.8,0-1,0.1c-0.3,0.1-0.5,0.2-0.6,0.4s-0.3,0.4-0.4,0.7s-0.2,0.6-0.2,1.1h-0.4v-0.7
			c0-0.4,0-0.7,0-1s0-0.7-0.1-1.1c0.4,0,0.9,0,1.3,0s0.8,0,1.3,0s0.8,0,1.1,0S132.9,92.5,133.2,92.5z"/>
		<path fill="#FFFFFF" stroke="#FFFFFF" stroke-width="0.5" stroke-miterlimit="10" d="M138.9,103.3c0.3,0,0.5-0.1,0.7-0.1
			c0.2-0.1,0.3-0.1,0.4-0.2s0.2-0.2,0.2-0.4c0-0.2,0.1-0.4,0.1-0.7V94c0-0.2,0-0.3,0-0.5c0-0.1-0.1-0.2-0.2-0.3
			c-0.1-0.1-0.2-0.1-0.4-0.2c-0.2,0-0.4-0.1-0.7-0.1v-0.4c0.1,0,0.3,0,0.4,0c0.2,0,0.4,0,0.5,0c0.2,0,0.4,0,0.6,0s0.4,0,0.6,0
			c0.1,0,0.3,0,0.5,0s0.3,0,0.5,0s0.3,0,0.5,0s0.3,0,0.4,0v0.4c-0.3,0-0.5,0.1-0.7,0.1c-0.2,0.1-0.3,0.1-0.4,0.2
			c-0.1,0.1-0.2,0.2-0.2,0.4s-0.1,0.4-0.1,0.7v7.9c0,0.2,0,0.3,0,0.5c0,0.1,0.1,0.2,0.2,0.3c0.1,0.1,0.2,0.1,0.4,0.2
			s0.4,0.1,0.7,0.1v0.4c-0.1,0-0.3,0-0.4,0s-0.4,0-0.6,0c-0.2,0-0.4,0-0.6,0c-0.2,0-0.4,0-0.6,0c-0.1,0-0.3,0-0.5,0s-0.3,0-0.5,0
			s-0.3,0-0.5,0s-0.3,0-0.4,0L138.9,103.3z"/>
		<path fill="#FFFFFF" stroke="#FFFFFF" stroke-width="0.5" stroke-miterlimit="10" d="M144.2,92.5c0.2,0,0.3,0,0.5,0s0.4,0,0.6,0
			s0.4,0,0.6,0s0.4,0,0.5,0c0.3,0,0.9,0,1.7,0c0.9,0,2,0,3.5,0c0,0.4-0.1,0.8-0.1,1.3s0,0.9,0,1.4h-0.4c-0.1-0.4-0.1-0.8-0.2-1
			c-0.1-0.3-0.2-0.5-0.3-0.7s-0.3-0.3-0.6-0.3s-0.7-0.2-1-0.2h-1.4c-0.2,0-0.4,0-0.4,0.1c-0.1,0-0.1,0.2-0.1,0.4v4.3l3.6-0.1
			l0.1,0.1v1c-0.7-0.1-1.3-0.1-1.9-0.1c-0.6,0-1.2,0-1.7-0.1v3.7c0,0.2,0,0.3,0.1,0.5s0.1,0.2,0.2,0.3c0.1,0.1,0.3,0.1,0.5,0.2
			c0.2,0,0.6,0.1,1,0.1v0.4c-0.1,0-0.3,0-0.6,0s-0.5,0-0.7,0s-0.5,0-0.7,0s-0.4,0-0.6,0c-0.1,0-0.3,0-0.4,0c-0.2,0-0.3,0-0.5,0
			s-0.4,0-0.5,0c-0.2,0-0.3,0-0.4,0v-0.4c0.3,0,0.6-0.1,0.8-0.1c0.2-0.1,0.3-0.1,0.4-0.2c0.1-0.1,0.2-0.3,0.2-0.4
			c0-0.2,0.1-0.4,0.1-0.7v-7.9c0-0.2,0-0.3-0.1-0.5c0-0.1-0.1-0.2-0.2-0.3c-0.1-0.1-0.3-0.1-0.5-0.2c-0.2,0-0.5-0.1-0.8-0.1
			L144.2,92.5z"/>
		<path fill="#FFFFFF" stroke="#FFFFFF" stroke-width="0.5" stroke-miterlimit="10" d="M152.6,103.3c0.3,0,0.5-0.1,0.7-0.1
			c0.2-0.1,0.3-0.1,0.4-0.2s0.2-0.2,0.2-0.4c0-0.2,0.1-0.4,0.1-0.7V94c0-0.2,0-0.3,0-0.5c0-0.1-0.1-0.2-0.2-0.3
			c-0.1-0.1-0.2-0.1-0.4-0.2c-0.2,0-0.4-0.1-0.7-0.1v-0.4c0.1,0,0.3,0,0.4,0c0.2,0,0.4,0,0.5,0c0.2,0,0.4,0,0.6,0s0.4,0,0.6,0
			c0.1,0,0.3,0,0.5,0s0.3,0,0.5,0s0.3,0,0.5,0s0.3,0,0.4,0v0.4c-0.3,0-0.5,0.1-0.7,0.1c-0.2,0.1-0.3,0.1-0.4,0.2
			c-0.1,0.1-0.2,0.2-0.2,0.4s-0.1,0.4-0.1,0.7v7.9c0,0.2,0,0.3,0,0.5c0,0.1,0.1,0.2,0.2,0.3c0.1,0.1,0.2,0.1,0.4,0.2
			s0.4,0.1,0.7,0.1v0.4c-0.1,0-0.3,0-0.4,0s-0.4,0-0.6,0c-0.2,0-0.4,0-0.6,0c-0.2,0-0.4,0-0.6,0c-0.1,0-0.3,0-0.5,0s-0.3,0-0.5,0
			s-0.3,0-0.5,0s-0.3,0-0.4,0L152.6,103.3z"/>
		<path fill="#FFFFFF" stroke="#FFFFFF" stroke-width="0.5" stroke-miterlimit="10" d="M159.7,97.9c0,0.7,0.1,1.4,0.3,2.1
			s0.4,1.2,0.8,1.7s0.8,0.9,1.4,1.2c0.5,0.3,1.2,0.4,1.9,0.4c0.4,0,0.8-0.1,1.2-0.2s0.7-0.3,1-0.6c0.3-0.2,0.5-0.6,0.7-0.9
			c0.2-0.4,0.4-0.8,0.6-1.3l0.4,0.1c-0.1,0.5-0.2,1-0.3,1.4c-0.1,0.5-0.1,0.9-0.2,1.4c-0.6,0.2-1.2,0.3-1.7,0.4s-1.2,0.2-1.7,0.2
			c-0.8,0-1.6-0.1-2.3-0.4s-1.3-0.7-1.8-1.2s-0.9-1.1-1.2-1.8c-0.3-0.7-0.4-1.5-0.4-2.4c0-1,0.2-1.9,0.5-2.6s0.8-1.4,1.4-1.9
			c0.6-0.5,1.3-0.9,2.1-1.1s1.6-0.4,2.5-0.4c0.5,0,0.9,0,1.5,0.1c0.5,0.1,1,0.2,1.4,0.3c0,0.5-0.1,1-0.1,1.4s0,0.9,0,1.4h-0.5
			c0-0.5-0.1-0.9-0.3-1.2c-0.1-0.3-0.3-0.6-0.6-0.8c-0.2-0.2-0.5-0.4-0.8-0.5s-0.7-0.2-1-0.2c-0.7,0-1.4,0.1-2,0.4
			c-0.6,0.2-1,0.6-1.4,1s-0.7,1-0.9,1.6S159.7,97.1,159.7,97.9z"/>
		<path fill="#FFFFFF" stroke="#FFFFFF" stroke-width="0.5" stroke-miterlimit="10" d="M175.6,99.5h-3.7l-0.9,2.3
			c-0.1,0.4-0.2,0.7-0.2,0.8c0,0.2,0.1,0.3,0.3,0.4s0.5,0.1,1,0.2v0.4c-0.3,0-0.6,0-0.9,0c-0.3,0-0.7,0-1,0s-0.6,0-0.9,0
			c-0.3,0-0.6,0-0.9,0v-0.4c0.3,0,0.5-0.1,0.7-0.1c0.2-0.1,0.3-0.1,0.5-0.3c0.1-0.1,0.3-0.3,0.4-0.6c0.1-0.2,0.3-0.6,0.4-1l3.1-7.9
			c0.1-0.2,0.2-0.4,0.3-0.6s0.2-0.4,0.3-0.6l0.7-0.1c0.1,0.4,0.2,0.7,0.3,1s0.2,0.6,0.3,0.9l2.5,7.6c0.1,0.3,0.2,0.6,0.3,0.8
			c0.1,0.2,0.2,0.3,0.3,0.4s0.3,0.2,0.5,0.2s0.4,0.1,0.7,0.1v0.4c-0.3,0-0.7,0-1,0c-0.4,0-0.8,0-1.1,0s-0.6,0-0.9,0
			c-0.3,0-0.6,0-0.9,0V103c0.4,0,0.7-0.1,0.9-0.2s0.3-0.2,0.3-0.4c0-0.1,0-0.2,0-0.3c0-0.1-0.1-0.2-0.1-0.4L175.6,99.5z M172.1,98.9
			h3.2l-1.5-4.6l0,0L172.1,98.9z"/>
		<path fill="#FFFFFF" stroke="#FFFFFF" stroke-width="0.5" stroke-miterlimit="10" d="M184.2,92.5c0.3,0,0.6,0,1,0s0.8,0,1.2,0
			s0.8,0,1.3,0s0.9,0,1.3,0c0,0.3,0,0.5-0.1,0.8s0,0.5,0,0.7s0,0.4,0,0.7c0,0.2,0,0.5,0,0.7h-0.4c-0.1-0.4-0.1-0.8-0.2-1.1
			s-0.2-0.5-0.3-0.7s-0.4-0.3-0.6-0.4c-0.3-0.1-0.6-0.1-1-0.1h-1.3v9.2c0,0.2,0,0.3,0,0.5c0,0.1,0.1,0.2,0.2,0.3
			c0.1,0.1,0.3,0.1,0.5,0.2c0.2,0,0.5,0.1,0.9,0.1v0.4c-0.2,0-0.3,0-0.5,0s-0.4,0-0.6,0c-0.2,0-0.4,0-0.6,0c-0.2,0-0.4,0-0.6,0
			c-0.1,0-0.3,0-0.5,0s-0.4,0-0.5,0s-0.4,0-0.5,0s-0.3,0-0.5,0v-0.4c0.3,0,0.6-0.1,0.8-0.1s0.4-0.1,0.5-0.2s0.2-0.3,0.2-0.4
			c0-0.2,0.1-0.4,0.1-0.7v-8.7h-1.2c-0.4,0-0.8,0-1,0.1c-0.3,0.1-0.5,0.2-0.6,0.4s-0.3,0.4-0.4,0.7s-0.2,0.6-0.2,1.1h-0.4v-0.7
			c0-0.4,0-0.7,0-1s0-0.7-0.1-1.1c0.4,0,0.9,0,1.3,0s0.8,0,1.3,0s0.8,0,1.1,0S183.9,92.5,184.2,92.5z"/>
		<path fill="#FFFFFF" stroke="#FFFFFF" stroke-width="0.5" stroke-miterlimit="10" d="M192.6,101.8c0,0.3,0,0.5,0.1,0.7
			s0.1,0.3,0.2,0.4c0.1,0.1,0.2,0.2,0.4,0.2s0.4,0.1,0.7,0.1h0.8c0.4,0,0.8,0,1.1-0.1s0.5-0.2,0.7-0.4c0.2-0.2,0.4-0.4,0.5-0.7
			s0.3-0.6,0.5-1.1l0.4,0.1c-0.1,0.2-0.1,0.5-0.2,0.7c-0.1,0.3-0.1,0.5-0.1,0.8c0,0.2-0.1,0.5-0.1,0.7s0,0.4-0.1,0.5
			c-1.5,0-2.7,0-3.6,0s-1.6,0-2.1,0c-0.1,0-0.3,0-0.5,0s-0.4,0-0.6,0c-0.2,0-0.4,0-0.6,0c-0.2,0-0.3,0-0.5,0v-0.4
			c0.3,0,0.6-0.1,0.8-0.1c0.2-0.1,0.4-0.1,0.5-0.2s0.2-0.2,0.2-0.4c0-0.2,0.1-0.4,0.1-0.7V94c0-0.2,0-0.3-0.1-0.5
			c0-0.1-0.1-0.2-0.2-0.3c-0.1-0.1-0.2-0.1-0.4-0.2c-0.2,0-0.4-0.1-0.8-0.1v-0.4c0.1,0,0.3,0,0.5,0s0.4,0,0.6,0c0.2,0,0.4,0,0.6,0
			c0.2,0,0.4,0,0.5,0c0.3,0,0.9,0,1.8,0c0.9,0,2.1,0,3.5,0c0,0.4-0.1,0.8-0.1,1.2c0,0.4,0,0.9,0,1.4h-0.4c-0.1-0.4-0.1-0.7-0.2-1
			c-0.1-0.3-0.2-0.5-0.3-0.6c-0.1-0.2-0.3-0.3-0.6-0.3s-0.5-0.1-0.9-0.1h-1.6c-0.2,0-0.4,0-0.4,0.1c-0.1,0-0.1,0.2-0.1,0.4v4
			l3.8-0.1l0.1,0.1v1c-0.7-0.1-1.3-0.1-2-0.1s-1.3,0-1.8-0.1L192.6,101.8L192.6,101.8z"/>
		<path fill="#FFFFFF" stroke="#FFFFFF" stroke-width="0.5" stroke-miterlimit="10" d="M110.2,120.9c0.8,0,1.6,0.1,2.2,0.4
			c0.7,0.3,1.3,0.7,1.7,1.1c0.5,0.5,0.9,1.1,1.1,1.8c0.3,0.7,0.4,1.5,0.4,2.4s-0.1,1.7-0.4,2.4s-0.6,1.4-1.1,1.9s-1.1,0.9-1.7,1.2
			s-1.4,0.4-2.3,0.4c-0.8,0-1.6-0.1-2.2-0.4c-0.7-0.3-1.3-0.7-1.7-1.1s-0.9-1.1-1.1-1.8s-0.4-1.5-0.4-2.4s0.1-1.7,0.4-2.4
			c0.3-0.7,0.6-1.4,1.1-1.9s1.1-0.9,1.7-1.2C108.6,121.1,109.3,120.9,110.2,120.9z M110.1,121.5c-0.5,0-1,0.1-1.5,0.3
			c-0.5,0.2-0.9,0.5-1.3,0.8s-0.6,0.9-0.9,1.5s-0.3,1.4-0.3,2.3c0,1,0.1,1.9,0.4,2.6s0.6,1.3,0.9,1.7c0.4,0.4,0.8,0.7,1.3,0.9
			s1,0.3,1.4,0.3c0.5,0,1-0.1,1.5-0.3s0.9-0.5,1.3-0.8c0.4-0.4,0.6-0.9,0.9-1.5s0.3-1.4,0.3-2.3c0-1-0.1-1.9-0.4-2.6
			s-0.6-1.3-0.9-1.7s-0.8-0.7-1.3-0.9S110.6,121.5,110.1,121.5z"/>
		<path fill="#FFFFFF" stroke="#FFFFFF" stroke-width="0.5" stroke-miterlimit="10" d="M117,121.1c0.2,0,0.3,0,0.5,0s0.4,0,0.6,0
			s0.4,0,0.6,0s0.4,0,0.5,0c0.3,0,0.9,0,1.7,0c0.9,0,2,0,3.5,0c0,0.4-0.1,0.8-0.1,1.3s0,0.9,0,1.4h-0.4c-0.1-0.4-0.1-0.8-0.2-1
			c-0.1-0.3-0.2-0.5-0.3-0.7c-0.1-0.2-0.3-0.3-0.6-0.3s-0.5-0.1-0.9-0.1h-1.4c-0.2,0-0.4,0-0.4,0.1c-0.1,0-0.1,0.2-0.1,0.4v4.3
			l3.6-0.1l0.1,0.1v1c-0.7-0.1-1.3-0.1-1.9-0.1s-1.2,0-1.7-0.1v3.7c0,0.2,0,0.3,0.1,0.5s0.1,0.2,0.2,0.3s0.3,0.1,0.5,0.2
			c0.2,0,0.6,0.1,1,0.1v0.4c-0.1,0-0.3,0-0.6,0s-0.5,0-0.7,0s-0.5,0-0.7,0s-0.4,0-0.6,0c-0.1,0-0.3,0-0.4,0c-0.2,0-0.3,0-0.5,0
			s-0.4,0-0.5,0c-0.2,0-0.3,0-0.4,0v-0.4c0.3,0,0.6-0.1,0.8-0.1c0.2-0.1,0.3-0.1,0.4-0.2c0.1-0.1,0.2-0.3,0.2-0.4
			c0-0.2,0.1-0.4,0.1-0.7v-7.9c0-0.2,0-0.3-0.1-0.5c0-0.1-0.1-0.2-0.2-0.3c-0.1-0.1-0.3-0.1-0.5-0.2c-0.2,0-0.5-0.1-0.8-0.1
			L117,121.1z"/>
		<path fill="#FFFFFF" stroke="#FFFFFF" stroke-width="0.5" stroke-miterlimit="10" d="M130.7,121.1c0.1,0,0.2,0,0.5,0
			c0.2,0,0.5,0,0.7,0c0.3,0,0.5,0,0.8,0s0.5,0,0.7,0c0.1,0.3,0.3,0.7,0.4,1c0.1,0.3,0.3,0.7,0.4,1l3.2,7.3l0,0l3.1-7.5
			c0.1-0.3,0.2-0.6,0.4-0.9c0.1-0.3,0.2-0.6,0.4-0.9c0.1,0,0.3,0,0.6,0s0.5,0,0.8,0s0.5,0,0.8,0c0.2,0,0.4,0,0.5,0v0.4
			c-0.3,0-0.6,0.1-0.8,0.1c-0.2,0.1-0.3,0.1-0.5,0.2s-0.2,0.3-0.2,0.4c0,0.2,0,0.4,0,0.7l0.2,7.9c0,0.2,0,0.3,0.1,0.5
			c0,0.1,0.1,0.2,0.2,0.3c0.1,0.1,0.3,0.1,0.5,0.2s0.5,0.1,0.8,0.1v0.4c-0.1,0-0.3,0-0.5,0s-0.4,0-0.6,0c-0.2,0-0.4,0-0.6,0
			c-0.2,0-0.4,0-0.6,0c-0.1,0-0.3,0-0.5,0s-0.3,0-0.5,0s-0.3,0-0.4,0c-0.1,0-0.3,0-0.4,0v-0.4c0.3,0,0.5-0.1,0.6-0.1
			c0.2-0.1,0.3-0.1,0.4-0.2s0.1-0.3,0.2-0.4c0-0.2,0-0.4,0-0.7l-0.2-7.4l0,0c-0.7,1.6-1.3,3.1-1.9,4.7c-0.6,1.6-1.3,3.1-1.9,4.7
			l-0.5,0.1c-0.6-1.5-1.3-3-1.9-4.5c-0.6-1.5-1.3-2.9-1.9-4.5l0,0l-0.2,6.7c0,0.4,0,0.7,0,0.9s0.1,0.4,0.2,0.5s0.2,0.2,0.4,0.2
			s0.4,0.1,0.7,0.1v0.4c-0.2,0-0.5,0-0.8,0s-0.6,0-0.9,0c-0.3,0-0.6,0-0.9,0c-0.3,0-0.6,0-0.9,0V132c0.3,0,0.6-0.1,0.7-0.1
			c0.2,0,0.3-0.1,0.5-0.3c0.1-0.1,0.2-0.3,0.2-0.6s0.1-0.6,0.1-1.1l0.2-6c0-0.3,0-0.5,0-0.7s0-0.4-0.1-0.5c0-0.1-0.1-0.3-0.1-0.4
			s-0.1-0.2-0.2-0.3c-0.1-0.1-0.3-0.2-0.5-0.3c-0.2-0.1-0.5-0.1-0.7-0.1L130.7,121.1z"/>
		<path fill="#FFFFFF" stroke="#FFFFFF" stroke-width="0.5" stroke-miterlimit="10" d="M151.4,128.2h-3.7l-0.9,2.3
			c-0.1,0.4-0.2,0.7-0.2,0.8c0,0.2,0.1,0.3,0.3,0.4c0.2,0.1,0.5,0.1,1,0.2v0.4c-0.3,0-0.6,0-0.9,0c-0.3,0-0.7,0-1,0s-0.6,0-0.9,0
			c-0.3,0-0.6,0-0.9,0v-0.4c0.3,0,0.5-0.1,0.7-0.1c0.2-0.1,0.3-0.1,0.5-0.3c0.1-0.1,0.3-0.3,0.4-0.6c0.1-0.2,0.3-0.6,0.4-1l3.1-7.9
			c0.1-0.2,0.2-0.4,0.3-0.6s0.2-0.4,0.3-0.6l0.7-0.1c0.1,0.4,0.2,0.7,0.3,1s0.2,0.6,0.3,0.9l2.5,7.6c0.1,0.3,0.2,0.6,0.3,0.8
			s0.2,0.3,0.3,0.4s0.3,0.2,0.5,0.2s0.4,0.1,0.7,0.1v0.4c-0.3,0-0.7,0-1,0c-0.4,0-0.8,0-1.1,0s-0.6,0-0.9,0c-0.3,0-0.6,0-0.9,0v-0.4
			c0.4,0,0.7-0.1,0.9-0.2c0.2-0.1,0.3-0.2,0.3-0.4c0-0.1,0-0.2,0-0.3s-0.1-0.2-0.1-0.4L151.4,128.2z M147.9,127.5h3.2l-1.5-4.6l0,0
			L147.9,127.5z"/>
		<path fill="#FFFFFF" stroke="#FFFFFF" stroke-width="0.5" stroke-miterlimit="10" d="M156.2,129.1c0.1,0.4,0.3,0.8,0.5,1.1
			s0.4,0.6,0.6,0.9c0.2,0.3,0.5,0.5,0.8,0.6s0.7,0.2,1.1,0.2c0.3,0,0.6-0.1,0.8-0.2s0.5-0.2,0.6-0.4c0.2-0.2,0.3-0.4,0.4-0.7
			c0.1-0.3,0.2-0.5,0.2-0.8c0-0.4-0.1-0.7-0.2-1c-0.1-0.3-0.3-0.5-0.5-0.7s-0.5-0.4-0.8-0.5s-0.6-0.3-0.9-0.4
			c-0.3-0.2-0.7-0.3-1-0.5s-0.6-0.4-0.9-0.7c-0.3-0.3-0.5-0.6-0.7-0.9s-0.3-0.7-0.3-1.2s0.1-0.9,0.3-1.3s0.4-0.7,0.8-1
			c0.3-0.3,0.7-0.5,1.1-0.6c0.4-0.1,0.9-0.2,1.4-0.2s0.9,0,1.3,0.1c0.4,0.1,0.8,0.2,1.3,0.3c0,0.2,0,0.5-0.1,0.7c0,0.2,0,0.4,0,0.6
			s0,0.4,0,0.6s0,0.4,0,0.7h-0.5c-0.1-0.8-0.3-1.4-0.7-1.8s-1-0.6-1.7-0.6c-0.3,0-0.5,0-0.7,0.1s-0.4,0.2-0.6,0.4
			c-0.2,0.2-0.3,0.4-0.4,0.6c-0.1,0.2-0.1,0.5-0.1,0.8c0,0.4,0.1,0.7,0.2,0.9c0.1,0.3,0.3,0.5,0.5,0.7s0.4,0.3,0.7,0.5
			c0.3,0.1,0.5,0.3,0.8,0.4c0.4,0.2,0.7,0.3,1.1,0.5s0.7,0.4,1,0.7c0.3,0.3,0.5,0.6,0.7,0.9c0.2,0.4,0.3,0.8,0.3,1.2
			c0,0.5-0.1,1-0.3,1.4s-0.5,0.8-0.8,1c-0.3,0.3-0.7,0.5-1.2,0.6c-0.4,0.1-0.9,0.2-1.4,0.2c-0.4,0-0.8,0-1.3-0.1
			c-0.4-0.1-0.9-0.2-1.4-0.4c-0.1-0.5-0.1-1-0.2-1.4c-0.1-0.5-0.2-0.9-0.3-1.4L156.2,129.1z"/>
		<path fill="#FFFFFF" stroke="#FFFFFF" stroke-width="0.5" stroke-miterlimit="10" d="M167.9,121.2c0.3,0,0.6,0,1,0s0.8,0,1.2,0
			s0.8,0,1.3,0s0.9,0,1.3,0c0,0.3,0,0.5-0.1,0.8s0,0.5,0,0.7s0,0.4,0,0.7c0,0.2,0,0.5,0,0.7h-0.4c-0.1-0.4-0.1-0.8-0.2-1.1
			s-0.2-0.5-0.3-0.7s-0.4-0.3-0.6-0.4c-0.3-0.1-0.6-0.1-1-0.1h-1.3v9.2c0,0.2,0,0.3,0,0.5c0,0.1,0.1,0.2,0.2,0.3
			c0.1,0.1,0.3,0.1,0.5,0.2c0.2,0,0.5,0.1,0.9,0.1v0.4c-0.2,0-0.3,0-0.5,0s-0.4,0-0.6,0c-0.2,0-0.4,0-0.6,0c-0.2,0-0.4,0-0.6,0
			c-0.1,0-0.3,0-0.5,0s-0.4,0-0.5,0s-0.4,0-0.5,0s-0.3,0-0.5,0v-0.4c0.3,0,0.6-0.1,0.8-0.1s0.4-0.1,0.5-0.2s0.2-0.3,0.2-0.4
			c0-0.2,0.1-0.4,0.1-0.7V122h-1.2c-0.4,0-0.8,0-1,0.1c-0.3,0.1-0.5,0.2-0.6,0.4s-0.3,0.4-0.4,0.7s-0.2,0.6-0.2,1.1h-0.4v-0.7
			c0-0.4,0-0.7,0-1s0-0.7-0.1-1.1c0.4,0,0.9,0,1.3,0s0.8,0,1.3,0s0.8,0,1.1,0S167.6,121.2,167.9,121.2z"/>
		<path fill="#FFFFFF" stroke="#FFFFFF" stroke-width="0.5" stroke-miterlimit="10" d="M176.3,130.4c0,0.3,0,0.5,0.1,0.7
			s0.1,0.3,0.2,0.4c0.1,0.1,0.2,0.2,0.4,0.2s0.4,0.1,0.7,0.1h0.8c0.4,0,0.8,0,1.1-0.1s0.5-0.2,0.7-0.4s0.4-0.4,0.5-0.7
			s0.3-0.6,0.5-1.1l0.4,0.1c-0.1,0.2-0.1,0.5-0.2,0.7c-0.1,0.3-0.1,0.5-0.1,0.8c0,0.2-0.1,0.5-0.1,0.7s0,0.4-0.1,0.5
			c-1.5,0-2.7,0-3.6,0s-1.6,0-2.1,0c-0.1,0-0.3,0-0.5,0s-0.4,0-0.6,0c-0.2,0-0.4,0-0.6,0c-0.2,0-0.3,0-0.5,0v-0.4
			c0.3,0,0.6-0.1,0.8-0.1c0.2-0.1,0.4-0.1,0.5-0.2c0.1-0.1,0.2-0.2,0.2-0.4s0.1-0.4,0.1-0.7v-7.9c0-0.2,0-0.3-0.1-0.5
			c0-0.1-0.1-0.2-0.2-0.3c-0.1-0.1-0.2-0.1-0.4-0.2c-0.2,0-0.4-0.1-0.8-0.1v-0.4c0.1,0,0.3,0,0.5,0s0.4,0,0.6,0c0.2,0,0.4,0,0.6,0
			c0.2,0,0.4,0,0.5,0c0.3,0,0.9,0,1.8,0c0.9,0,2.1,0,3.5,0c0,0.4-0.1,0.8-0.1,1.2c0,0.4,0,0.9,0,1.4h-0.4c-0.1-0.4-0.1-0.7-0.2-1
			c-0.1-0.3-0.2-0.5-0.3-0.6c-0.1-0.2-0.3-0.3-0.6-0.3s-0.5-0.1-0.9-0.1h-1.6c-0.2,0-0.4,0-0.4,0.1c-0.1,0-0.1,0.2-0.1,0.4v4
			l3.8-0.1l0.1,0.1v1c-0.7-0.1-1.3-0.1-2-0.1s-1.3,0-1.8-0.1L176.3,130.4L176.3,130.4z"/>
		<path fill="#FFFFFF" stroke="#FFFFFF" stroke-width="0.5" stroke-miterlimit="10" d="M185.4,130.9c0,0.2,0,0.3,0,0.5
			c0,0.1,0.1,0.2,0.2,0.3s0.2,0.1,0.4,0.2c0.2,0,0.5,0.1,0.8,0.1v0.4c-0.4,0-0.7,0-1.1,0s-0.7,0-1.1,0c-0.1,0-0.3,0-0.5,0
			s-0.3,0-0.5,0s-0.3,0-0.5,0s-0.3,0-0.4,0V132c0.3,0,0.5-0.1,0.7-0.1s0.3-0.1,0.4-0.2s0.2-0.2,0.2-0.4s0.1-0.4,0.1-0.7v-7.9
			c0-0.2,0-0.3,0-0.5c0-0.1-0.1-0.2-0.2-0.3c-0.1-0.1-0.2-0.1-0.4-0.2c-0.2,0-0.4-0.1-0.7-0.1v-0.4c0.1,0,0.3,0,0.4,0
			c0.2,0,0.3,0,0.5,0s0.4,0,0.6,0c0.2,0,0.4,0,0.6,0c0.3,0,0.6,0,0.9-0.1c0.3,0,0.6-0.1,0.9-0.1c0.4,0,0.9,0,1.3,0.1
			s0.9,0.2,1.2,0.4s0.7,0.5,0.9,0.8s0.3,0.8,0.3,1.3c0,0.4-0.1,0.7-0.2,1s-0.3,0.6-0.5,0.9s-0.4,0.5-0.7,0.7s-0.6,0.4-0.9,0.5
			c0.2,0.5,0.5,0.9,0.7,1.4c0.2,0.5,0.4,0.8,0.6,1.2c0.2,0.4,0.4,0.7,0.5,1c0.2,0.3,0.3,0.5,0.4,0.6c0.1,0.2,0.3,0.4,0.4,0.5
			c0.1,0.1,0.2,0.2,0.3,0.3s0.3,0.1,0.4,0.1s0.4,0.1,0.6,0.1v0.4c-0.2,0-0.5,0-0.9,0s-0.7,0-1,0c-0.1,0-0.2,0-0.3,0s-0.2,0-0.3,0
			c-0.1-0.2-0.2-0.4-0.3-0.7s-0.3-0.7-0.6-1.1c-0.2-0.4-0.5-0.9-0.7-1.4c-0.3-0.5-0.5-1-0.8-1.5c0-0.1-0.1-0.1-0.1-0.2
			s-0.1-0.1-0.2-0.2c-0.1,0-0.1-0.1-0.3-0.1s-0.2,0-0.4,0h-0.3c-0.1,0-0.1,0-0.2,0c-0.1,0-0.2,0-0.3,0v3.8H185.4z M185.4,126.6
			c0.1,0,0.1,0,0.2,0s0.1,0,0.2,0h0.4c0.9,0,1.6-0.2,2-0.6s0.7-1.1,0.7-2c0-0.8-0.2-1.4-0.7-1.7c-0.5-0.4-1.1-0.5-1.8-0.5
			c-0.2,0-0.4,0-0.5,0.1c-0.1,0-0.2,0.1-0.3,0.2s-0.1,0.2-0.1,0.3c0,0.1,0,0.3,0,0.4L185.4,126.6L185.4,126.6z"/>
		<path fill="#FFFFFF" stroke="#FFFFFF" stroke-width="0.5" stroke-miterlimit="10" d="M88,155.2c0,0.7,0.1,1.4,0.3,2.1
			c0.2,0.7,0.4,1.2,0.8,1.7s0.8,0.9,1.4,1.2c0.5,0.3,1.2,0.4,1.9,0.4c0.4,0,0.8-0.1,1.2-0.2c0.4-0.1,0.7-0.3,1-0.6
			c0.3-0.2,0.5-0.6,0.7-0.9c0.2-0.4,0.4-0.8,0.6-1.3l0.4,0.1c-0.1,0.5-0.2,1-0.3,1.4c-0.1,0.5-0.1,0.9-0.2,1.4
			c-0.6,0.2-1.2,0.3-1.7,0.4s-1.2,0.2-1.7,0.2c-0.8,0-1.6-0.1-2.3-0.4c-0.7-0.3-1.3-0.7-1.8-1.2s-0.9-1.1-1.2-1.8
			c-0.3-0.7-0.4-1.5-0.4-2.4c0-1,0.2-1.9,0.5-2.6c0.3-0.7,0.8-1.4,1.4-1.9s1.3-0.9,2.1-1.1c0.8-0.2,1.6-0.4,2.5-0.4
			c0.5,0,0.9,0,1.5,0.1c0.5,0.1,1,0.2,1.4,0.3c0,0.5-0.1,1-0.1,1.4s0,0.9,0,1.4h-0.5c0-0.5-0.1-0.9-0.3-1.2
			c-0.1-0.3-0.3-0.6-0.6-0.8c-0.2-0.2-0.5-0.4-0.8-0.5s-0.7-0.2-1-0.2c-0.7,0-1.4,0.1-2,0.4c-0.6,0.2-1,0.6-1.4,1s-0.7,1-0.9,1.6
			S88,154.4,88,155.2z"/>
		<path fill="#FFFFFF" stroke="#FFFFFF" stroke-width="0.5" stroke-miterlimit="10" d="M100.3,159.5c0,0.2,0,0.3,0,0.5
			c0,0.1,0.1,0.2,0.2,0.3s0.2,0.1,0.4,0.2c0.2,0,0.5,0.1,0.8,0.1v0.4c-0.4,0-0.7,0-1.1,0s-0.7,0-1.1,0c-0.1,0-0.3,0-0.5,0
			s-0.3,0-0.5,0s-0.3,0-0.5,0s-0.3,0-0.4,0v-0.4c0.3,0,0.5-0.1,0.7-0.1s0.3-0.1,0.4-0.2s0.2-0.2,0.2-0.4s0.1-0.4,0.1-0.7v-7.9
			c0-0.2,0-0.3,0-0.5c0-0.1-0.1-0.2-0.2-0.3s-0.2-0.1-0.4-0.2c-0.2,0-0.4-0.1-0.7-0.1v-0.4c0.1,0,0.3,0,0.4,0c0.2,0,0.3,0,0.5,0
			s0.4,0,0.6,0s0.4,0,0.6,0c0.3,0,0.6,0,0.9-0.1c0.3,0,0.6-0.1,0.9-0.1c0.4,0,0.9,0,1.3,0.1s0.9,0.2,1.2,0.4s0.7,0.5,0.9,0.8
			c0.2,0.3,0.3,0.8,0.3,1.3c0,0.4-0.1,0.7-0.2,1s-0.3,0.6-0.5,0.9c-0.2,0.3-0.4,0.5-0.7,0.7s-0.6,0.4-0.9,0.5
			c0.2,0.5,0.5,0.9,0.7,1.4s0.4,0.8,0.6,1.2s0.4,0.7,0.5,1c0.2,0.3,0.3,0.5,0.4,0.6c0.1,0.2,0.3,0.4,0.4,0.5s0.2,0.2,0.3,0.3
			c0.1,0.1,0.3,0.1,0.4,0.1s0.4,0.1,0.6,0.1v0.4c-0.2,0-0.5,0-0.9,0s-0.7,0-1,0c-0.1,0-0.2,0-0.3,0c-0.1,0-0.2,0-0.3,0
			c-0.1-0.2-0.2-0.4-0.3-0.7s-0.3-0.7-0.6-1.1c-0.2-0.4-0.5-0.9-0.7-1.4c-0.3-0.5-0.5-1-0.8-1.5c0-0.1-0.1-0.1-0.1-0.2
			c0-0.1-0.1-0.1-0.2-0.2c-0.1,0-0.1-0.1-0.3-0.1s-0.2,0-0.4,0h-0.3c-0.1,0-0.1,0-0.2,0s-0.2,0-0.3,0L100.3,159.5L100.3,159.5z
			 M100.3,155.3c0.1,0,0.1,0,0.2,0s0.1,0,0.2,0h0.4c0.9,0,1.6-0.2,2-0.6s0.7-1.1,0.7-2c0-0.8-0.2-1.4-0.7-1.7
			c-0.5-0.4-1.1-0.5-1.8-0.5c-0.2,0-0.4,0-0.5,0.1c-0.1,0-0.2,0.1-0.3,0.2s-0.1,0.2-0.1,0.3s0,0.3,0,0.4L100.3,155.3L100.3,155.3z"
			/>
		<path fill="#FFFFFF" stroke="#FFFFFF" stroke-width="0.5" stroke-miterlimit="10" d="M114.1,156.9h-3.7l-0.9,2.3
			c-0.1,0.4-0.2,0.7-0.2,0.8c0,0.2,0.1,0.3,0.3,0.4c0.2,0.1,0.5,0.1,1,0.2v0.4c-0.3,0-0.6,0-0.9,0s-0.7,0-1,0s-0.6,0-0.9,0
			s-0.6,0-0.9,0v-0.4c0.3,0,0.5-0.1,0.7-0.1c0.2-0.1,0.3-0.1,0.5-0.3c0.1-0.1,0.3-0.3,0.4-0.6c0.1-0.2,0.3-0.6,0.4-1l3.1-7.9
			c0.1-0.2,0.2-0.4,0.3-0.6c0.1-0.2,0.2-0.4,0.3-0.6l0.7-0.1c0.1,0.4,0.2,0.7,0.3,1c0.1,0.3,0.2,0.6,0.3,0.9l2.5,7.6
			c0.1,0.3,0.2,0.6,0.3,0.8c0.1,0.2,0.2,0.3,0.3,0.4s0.3,0.2,0.5,0.2s0.4,0.1,0.7,0.1v0.4c-0.3,0-0.7,0-1,0c-0.4,0-0.8,0-1.1,0
			c-0.3,0-0.6,0-0.9,0s-0.6,0-0.9,0v-0.4c0.4,0,0.7-0.1,0.9-0.2c0.2-0.1,0.3-0.2,0.3-0.4c0-0.1,0-0.2,0-0.3s-0.1-0.2-0.1-0.4
			L114.1,156.9z M110.6,156.2h3.2l-1.5-4.6l0,0L110.6,156.2z"/>
		<path fill="#FFFFFF" stroke="#FFFFFF" stroke-width="0.5" stroke-miterlimit="10" d="M118.5,149.8c0.2,0,0.3,0,0.5,0s0.4,0,0.6,0
			s0.4,0,0.6,0s0.4,0,0.5,0c0.3,0,0.9,0,1.7,0c0.9,0,2,0,3.5,0c0,0.4-0.1,0.8-0.1,1.3s0,0.9,0,1.4h-0.4c-0.1-0.4-0.1-0.8-0.2-1
			c-0.1-0.3-0.2-0.5-0.3-0.7c-0.1-0.2-0.3-0.3-0.6-0.3s-0.5-0.1-0.9-0.1H122c-0.2,0-0.4,0-0.4,0.1c-0.1,0-0.1,0.2-0.1,0.4v4.3
			l3.6-0.1l0.1,0.1v1c-0.7-0.1-1.3-0.1-1.9-0.1s-1.2,0-1.7-0.1v3.7c0,0.2,0,0.3,0.1,0.5s0.1,0.2,0.2,0.3s0.3,0.1,0.5,0.2
			c0.2,0,0.6,0.1,1,0.1v0.4c-0.1,0-0.3,0-0.6,0s-0.5,0-0.7,0s-0.5,0-0.7,0s-0.4,0-0.6,0c-0.1,0-0.3,0-0.4,0c-0.2,0-0.3,0-0.5,0
			s-0.4,0-0.5,0c-0.2,0-0.3,0-0.4,0v-0.4c0.3,0,0.6-0.1,0.8-0.1c0.2-0.1,0.3-0.1,0.4-0.2c0.1-0.1,0.2-0.3,0.2-0.4
			c0-0.2,0.1-0.4,0.1-0.7v-7.9c0-0.2,0-0.3-0.1-0.5c0-0.1-0.1-0.2-0.2-0.3s-0.3-0.1-0.5-0.2c-0.2,0-0.5-0.1-0.8-0.1L118.5,149.8z"/>
		<path fill="#FFFFFF" stroke="#FFFFFF" stroke-width="0.5" stroke-miterlimit="10" d="M131,149.8c0.3,0,0.6,0,1,0s0.8,0,1.2,0
			s0.8,0,1.3,0s0.9,0,1.3,0c0,0.3,0,0.5-0.1,0.8s0,0.5,0,0.7s0,0.4,0,0.7c0,0.2,0,0.5,0,0.7h-0.4c-0.1-0.4-0.1-0.8-0.2-1.1
			s-0.2-0.5-0.3-0.7s-0.4-0.3-0.6-0.4c-0.3-0.1-0.6-0.1-1-0.1h-1.3v9.2c0,0.2,0,0.3,0,0.5c0,0.1,0.1,0.2,0.2,0.3
			c0.1,0.1,0.3,0.1,0.5,0.2c0.2,0,0.5,0.1,0.9,0.1v0.4c-0.2,0-0.3,0-0.5,0s-0.4,0-0.6,0c-0.2,0-0.4,0-0.6,0c-0.2,0-0.4,0-0.6,0
			c-0.1,0-0.3,0-0.5,0s-0.4,0-0.5,0s-0.4,0-0.5,0s-0.3,0-0.5,0v-0.4c0.3,0,0.6-0.1,0.8-0.1s0.4-0.1,0.5-0.2s0.2-0.3,0.2-0.4
			c0-0.2,0.1-0.4,0.1-0.7v-8.7h-1.2c-0.4,0-0.8,0-1,0.1c-0.3,0.1-0.5,0.2-0.6,0.4s-0.3,0.4-0.4,0.7s-0.2,0.6-0.2,1.1H127v-0.7
			c0-0.4,0-0.7,0-1s0-0.7-0.1-1.1c0.4,0,0.9,0,1.3,0c0.4,0,0.8,0,1.3,0s0.8,0,1.1,0S130.7,149.8,131,149.8z"/>
		<path fill="#FFFFFF" stroke="#FFFFFF" stroke-width="0.5" stroke-miterlimit="10" d="M137,157.8c0.1,0.4,0.3,0.8,0.5,1.1
			s0.4,0.6,0.6,0.9c0.2,0.3,0.5,0.5,0.8,0.6s0.7,0.2,1.1,0.2c0.3,0,0.6-0.1,0.8-0.2s0.5-0.2,0.6-0.4c0.2-0.2,0.3-0.4,0.4-0.7
			c0.1-0.3,0.2-0.5,0.2-0.8c0-0.4-0.1-0.7-0.2-1c-0.1-0.3-0.3-0.5-0.5-0.7s-0.5-0.4-0.8-0.5s-0.6-0.3-0.9-0.4
			c-0.3-0.2-0.7-0.3-1-0.5s-0.6-0.4-0.9-0.7c-0.3-0.3-0.5-0.6-0.7-0.9c-0.2-0.3-0.3-0.7-0.3-1.2s0.1-0.9,0.3-1.3s0.4-0.7,0.8-1
			c0.3-0.3,0.7-0.5,1.1-0.6c0.4-0.1,0.9-0.2,1.4-0.2s0.9,0,1.3,0.1c0.4,0.1,0.8,0.2,1.3,0.3c0,0.2,0,0.5-0.1,0.7c0,0.2,0,0.4,0,0.6
			c0,0.2,0,0.4,0,0.6c0,0.2,0,0.4,0,0.7h-0.5c-0.1-0.8-0.3-1.4-0.7-1.8s-1-0.6-1.7-0.6c-0.3,0-0.5,0-0.7,0.1s-0.4,0.2-0.6,0.4
			c-0.2,0.2-0.3,0.4-0.4,0.6c-0.1,0.2-0.1,0.5-0.1,0.8c0,0.4,0.1,0.7,0.2,0.9c0.1,0.3,0.3,0.5,0.5,0.7s0.4,0.3,0.7,0.5
			c0.3,0.1,0.5,0.3,0.8,0.4c0.4,0.2,0.7,0.3,1.1,0.5s0.7,0.4,1,0.7s0.5,0.6,0.7,0.9c0.2,0.4,0.3,0.8,0.3,1.2c0,0.5-0.1,1-0.3,1.4
			s-0.5,0.8-0.8,1c-0.3,0.3-0.7,0.5-1.2,0.6c-0.4,0.1-0.9,0.2-1.4,0.2c-0.4,0-0.8,0-1.3-0.1c-0.4-0.1-0.9-0.2-1.4-0.4
			c-0.1-0.5-0.1-1-0.2-1.4c-0.1-0.5-0.2-0.9-0.3-1.4L137,157.8z"/>
		<path fill="#FFFFFF" stroke="#FFFFFF" stroke-width="0.5" stroke-miterlimit="10" d="M144.3,149.8c0.1,0,0.2,0,0.5,0
			c0.2,0,0.5,0,0.7,0c0.3,0,0.5,0,0.8,0s0.5,0,0.7,0c0.1,0.3,0.3,0.7,0.4,1c0.1,0.3,0.3,0.7,0.4,1l3.2,7.3l0,0l3.1-7.5
			c0.1-0.3,0.2-0.6,0.4-0.9c0.1-0.3,0.2-0.6,0.4-0.9c0.1,0,0.3,0,0.6,0s0.5,0,0.8,0s0.5,0,0.8,0c0.2,0,0.4,0,0.5,0v0.4
			c-0.3,0-0.6,0.1-0.8,0.1c-0.2,0.1-0.3,0.1-0.5,0.2s-0.2,0.3-0.2,0.4c0,0.2,0,0.4,0,0.7l0.2,7.9c0,0.2,0,0.3,0.1,0.5
			c0,0.1,0.1,0.2,0.2,0.3c0.1,0.1,0.3,0.1,0.5,0.2s0.5,0.1,0.8,0.1v0.4c-0.1,0-0.3,0-0.5,0s-0.4,0-0.6,0c-0.2,0-0.4,0-0.6,0
			c-0.2,0-0.4,0-0.6,0c-0.1,0-0.3,0-0.5,0s-0.3,0-0.5,0s-0.3,0-0.4,0c-0.1,0-0.3,0-0.4,0v-0.4c0.3,0,0.5-0.1,0.6-0.1
			c0.2-0.1,0.3-0.1,0.4-0.2s0.1-0.3,0.2-0.4c0-0.2,0-0.4,0-0.7l-0.2-7.4l0,0c-0.7,1.6-1.3,3.1-1.9,4.7c-0.6,1.6-1.3,3.1-1.9,4.7
			l-0.5,0.1c-0.6-1.5-1.3-3-1.9-4.5c-0.6-1.5-1.3-2.9-1.9-4.5l0,0l-0.2,6.7c0,0.4,0,0.7,0,0.9s0.1,0.4,0.2,0.5s0.2,0.2,0.4,0.2
			s0.4,0.1,0.7,0.1v0.4c-0.2,0-0.5,0-0.8,0s-0.6,0-0.9,0c-0.3,0-0.6,0-0.9,0c-0.3,0-0.6,0-0.9,0v-0.4c0.3,0,0.6-0.1,0.7-0.1
			c0.2,0,0.3-0.1,0.5-0.3c0.1-0.1,0.2-0.3,0.2-0.6s0.1-0.6,0.1-1.1l0.2-6c0-0.3,0-0.5,0-0.7s0-0.4-0.1-0.5c0-0.1-0.1-0.3-0.1-0.4
			s-0.1-0.2-0.2-0.3c-0.1-0.1-0.3-0.2-0.5-0.3s-0.5-0.1-0.7-0.1L144.3,149.8z"/>
		<path fill="#FFFFFF" stroke="#FFFFFF" stroke-width="0.5" stroke-miterlimit="10" d="M165,156.9h-3.7l-0.9,2.3
			c-0.1,0.4-0.2,0.7-0.2,0.8c0,0.2,0.1,0.3,0.3,0.4c0.2,0.1,0.5,0.1,1,0.2v0.4c-0.3,0-0.6,0-0.9,0c-0.3,0-0.7,0-1,0s-0.6,0-0.9,0
			c-0.3,0-0.6,0-0.9,0v-0.4c0.3,0,0.5-0.1,0.7-0.1c0.2-0.1,0.3-0.1,0.5-0.3c0.1-0.1,0.3-0.3,0.4-0.6c0.1-0.2,0.3-0.6,0.4-1l3.1-7.9
			c0.1-0.2,0.2-0.4,0.3-0.6c0.1-0.2,0.2-0.4,0.3-0.6l0.7-0.1c0.1,0.4,0.2,0.7,0.3,1s0.2,0.6,0.3,0.9l2.5,7.6
			c0.1,0.3,0.2,0.6,0.3,0.8s0.2,0.3,0.3,0.4s0.3,0.2,0.5,0.2s0.4,0.1,0.7,0.1v0.4c-0.3,0-0.7,0-1,0c-0.4,0-0.8,0-1.1,0s-0.6,0-0.9,0
			c-0.3,0-0.6,0-0.9,0v-0.4c0.4,0,0.7-0.1,0.9-0.2c0.2-0.1,0.3-0.2,0.3-0.4c0-0.1,0-0.2,0-0.3s-0.1-0.2-0.1-0.4L165,156.9z
			 M161.6,156.2h3.2l-1.5-4.6l0,0L161.6,156.2z"/>
		<path fill="#FFFFFF" stroke="#FFFFFF" stroke-width="0.5" stroke-miterlimit="10" d="M178.7,161.2c-0.2-0.3-0.4-0.6-0.6-0.8
			c-0.2-0.3-0.4-0.5-0.6-0.8l-6-7.4l0,0v6.8c0,0.4,0,0.7,0.1,0.9c0,0.2,0.1,0.4,0.2,0.5c0.1,0.1,0.3,0.2,0.5,0.2s0.4,0.1,0.7,0.1
			v0.4c-0.2,0-0.5,0-0.8,0s-0.7,0-1,0s-0.6,0-0.9,0c-0.3,0-0.6,0-0.9,0v-0.4c0.3,0,0.5-0.1,0.7-0.1s0.3-0.1,0.5-0.3
			c0.1-0.1,0.2-0.3,0.2-0.6s0.1-0.6,0.1-1.1v-5.8c0-0.3,0-0.6,0-0.8s0-0.4-0.1-0.5c0-0.1-0.1-0.2-0.1-0.3s-0.1-0.2-0.2-0.3
			c-0.1-0.1-0.1-0.2-0.2-0.3c-0.1-0.1-0.2-0.1-0.3-0.2c-0.1,0-0.2-0.1-0.4-0.1c-0.1,0-0.3,0-0.5-0.1v-0.4c0.1,0,0.2,0,0.4,0
			s0.4,0,0.6,0s0.4,0,0.7,0c0.2,0,0.4,0,0.6,0l7.1,8.8l0,0v-6.8c0-0.4,0-0.7-0.1-0.9s-0.1-0.4-0.2-0.5c-0.1-0.1-0.3-0.2-0.5-0.2
			s-0.4-0.1-0.7-0.1v-0.4c0.2,0,0.5,0,0.8,0s0.7,0,1,0c0.1,0,0.3,0,0.4,0s0.3,0,0.5,0s0.3,0,0.4,0c0.1,0,0.3,0,0.4,0v0.4
			c-0.3,0-0.5,0.1-0.7,0.1s-0.3,0.1-0.4,0.3s-0.2,0.3-0.2,0.6s-0.1,0.6-0.1,1.1v8.8L178.7,161.2z"/>
		<path fill="#FFFFFF" stroke="#FFFFFF" stroke-width="0.5" stroke-miterlimit="10" d="M182,157.8c0.1,0.4,0.3,0.8,0.5,1.1
			s0.4,0.6,0.6,0.9c0.2,0.3,0.5,0.5,0.8,0.6s0.7,0.2,1.1,0.2c0.3,0,0.6-0.1,0.8-0.2s0.5-0.2,0.6-0.4c0.2-0.2,0.3-0.4,0.4-0.7
			c0.1-0.3,0.2-0.5,0.2-0.8c0-0.4-0.1-0.7-0.2-1c-0.1-0.3-0.3-0.5-0.5-0.7s-0.5-0.4-0.8-0.5s-0.6-0.3-0.9-0.4
			c-0.3-0.2-0.7-0.3-1-0.5s-0.6-0.4-0.9-0.7c-0.3-0.3-0.5-0.6-0.7-0.9c-0.2-0.3-0.3-0.7-0.3-1.2s0.1-0.9,0.3-1.3s0.4-0.7,0.8-1
			c0.3-0.3,0.7-0.5,1.1-0.6c0.4-0.1,0.9-0.2,1.4-0.2s0.9,0,1.3,0.1c0.4,0.1,0.8,0.2,1.3,0.3c0,0.2,0,0.5-0.1,0.7c0,0.2,0,0.4,0,0.6
			c0,0.2,0,0.4,0,0.6c0,0.2,0,0.4,0,0.7h-0.5c-0.1-0.8-0.3-1.4-0.7-1.8s-1-0.6-1.7-0.6c-0.3,0-0.5,0-0.7,0.1s-0.4,0.2-0.6,0.4
			c-0.2,0.2-0.3,0.4-0.4,0.6c-0.1,0.2-0.1,0.5-0.1,0.8c0,0.4,0.1,0.7,0.2,0.9c0.1,0.3,0.3,0.5,0.5,0.7s0.4,0.3,0.7,0.5
			c0.3,0.1,0.5,0.3,0.8,0.4c0.4,0.2,0.7,0.3,1.1,0.5s0.7,0.4,1,0.7s0.5,0.6,0.7,0.9c0.2,0.4,0.3,0.8,0.3,1.2c0,0.5-0.1,1-0.3,1.4
			s-0.5,0.8-0.8,1c-0.3,0.3-0.7,0.5-1.2,0.6c-0.4,0.1-0.9,0.2-1.4,0.2c-0.4,0-0.8,0-1.3-0.1c-0.4-0.1-0.9-0.2-1.4-0.4
			c-0.1-0.5-0.1-1-0.2-1.4c-0.1-0.5-0.2-0.9-0.3-1.4L182,157.8z"/>
		<path fill="#FFFFFF" stroke="#FFFFFF" stroke-width="0.5" stroke-miterlimit="10" d="M198.3,154.8v-3.5c0-0.2,0-0.3,0-0.5
			c0-0.1-0.1-0.2-0.2-0.3c-0.1-0.1-0.2-0.1-0.4-0.2c-0.2,0-0.4-0.1-0.7-0.1v-0.4c0.1,0,0.3,0,0.4,0s0.3,0,0.5,0s0.4,0,0.6,0
			c0.2,0,0.4,0,0.6,0c0.1,0,0.3,0,0.5,0s0.3,0,0.5,0s0.3,0,0.5,0s0.3,0,0.4,0v0.4c-0.3,0-0.5,0.1-0.7,0.1c-0.2,0.1-0.3,0.1-0.4,0.2
			s-0.2,0.3-0.2,0.4c0,0.2-0.1,0.4-0.1,0.7v7.9c0,0.2,0,0.3,0,0.5c0,0.1,0.1,0.2,0.2,0.3c0.1,0.1,0.2,0.1,0.4,0.2s0.4,0.1,0.7,0.1
			v0.4c-0.1,0-0.3,0-0.4,0c-0.2,0-0.4,0-0.5,0s-0.4,0-0.6,0c-0.2,0-0.4,0-0.6,0c-0.1,0-0.3,0-0.5,0s-0.3,0-0.5,0s-0.3,0-0.5,0
			c-0.1,0-0.3,0-0.4,0v-0.4c0.3,0,0.5-0.1,0.7-0.1c0.2-0.1,0.3-0.1,0.4-0.2s0.2-0.2,0.2-0.4s0-0.4,0-0.7v-3.7h-6v4.1
			c0,0.2,0,0.3,0,0.5c0,0.1,0.1,0.2,0.2,0.3c0.1,0.1,0.2,0.1,0.4,0.2s0.4,0.1,0.7,0.1v0.4c-0.1,0-0.3,0-0.4,0s-0.3,0-0.5,0
			s-0.4,0-0.6,0c-0.2,0-0.4,0-0.6,0c-0.1,0-0.3,0-0.5,0s-0.3,0-0.5,0s-0.3,0-0.5,0s-0.3,0-0.4,0v-0.4c0.3,0,0.5-0.1,0.7-0.1
			c0.2-0.1,0.3-0.1,0.4-0.2s0.2-0.2,0.2-0.4s0.1-0.4,0.1-0.7v-7.8c0-0.2,0-0.3,0-0.5c0-0.1-0.1-0.2-0.2-0.3
			c-0.1-0.1-0.2-0.1-0.4-0.2c-0.2,0-0.4-0.1-0.7-0.1V150c0.1,0,0.3,0,0.5,0s0.4,0,0.6,0c0.2,0,0.4,0,0.6,0c0.2,0,0.4,0,0.5,0h0.5
			c0.2,0,0.3,0,0.5,0s0.3,0,0.5,0h0.4v0.4c-0.3,0-0.5,0.1-0.7,0.1c-0.2,0.1-0.3,0.1-0.4,0.2s-0.2,0.3-0.2,0.4c0,0.2,0,0.4,0,0.7v3.1
			h5.9V154.8z"/>
		<path fill="#FFFFFF" stroke="#FFFFFF" stroke-width="0.5" stroke-miterlimit="10" d="M202.4,160.6c0.3,0,0.5-0.1,0.7-0.1
			c0.2-0.1,0.3-0.1,0.4-0.2s0.2-0.2,0.2-0.4s0.1-0.4,0.1-0.7v-7.9c0-0.2,0-0.3,0-0.5c0-0.1-0.1-0.2-0.2-0.3
			c-0.1-0.1-0.2-0.1-0.4-0.2c-0.2,0-0.4-0.1-0.7-0.1v-0.4c0.1,0,0.3,0,0.4,0c0.2,0,0.4,0,0.5,0c0.2,0,0.4,0,0.6,0s0.4,0,0.6,0
			c0.1,0,0.3,0,0.5,0s0.3,0,0.5,0s0.3,0,0.5,0s0.3,0,0.4,0v0.4c-0.3,0-0.5,0.1-0.7,0.1c-0.2,0.1-0.3,0.1-0.4,0.2
			c-0.1,0.1-0.2,0.2-0.2,0.4s-0.1,0.4-0.1,0.7v7.9c0,0.2,0,0.3,0,0.5c0,0.1,0.1,0.2,0.2,0.3c0.1,0.1,0.2,0.1,0.4,0.2
			s0.4,0.1,0.7,0.1v0.4c-0.1,0-0.3,0-0.4,0s-0.4,0-0.6,0c-0.2,0-0.4,0-0.6,0c-0.2,0-0.4,0-0.6,0c-0.1,0-0.3,0-0.5,0s-0.3,0-0.5,0
			s-0.3,0-0.5,0s-0.3,0-0.4,0L202.4,160.6z"/>
		<path fill="#FFFFFF" stroke="#FFFFFF" stroke-width="0.5" stroke-miterlimit="10" d="M210.4,159.5c0,0.2,0,0.3,0,0.5
			c0,0.1,0.1,0.2,0.2,0.3c0.1,0.1,0.3,0.1,0.5,0.2c0.2,0,0.5,0.1,1,0.1v0.4c-0.4,0-0.8,0-1.3,0s-0.8,0-1.2,0c-0.1,0-0.3,0-0.5,0
			s-0.3,0-0.5,0s-0.3,0-0.5,0s-0.3,0-0.4,0v-0.4c0.3,0,0.5-0.1,0.7-0.1s0.3-0.1,0.4-0.2s0.2-0.2,0.2-0.4s0.1-0.4,0.1-0.7v-7.9
			c0-0.2,0-0.3,0-0.5c0-0.1-0.1-0.2-0.2-0.3c-0.1-0.1-0.2-0.1-0.4-0.2c-0.2,0-0.4-0.1-0.7-0.1v-0.4c0.1,0,0.3,0,0.4,0
			c0.2,0,0.3,0,0.5,0s0.4,0,0.6,0c0.2,0,0.4,0,0.6,0c0.3,0,0.6,0,0.9-0.1c0.3,0,0.7-0.1,1-0.1c0.5,0,1,0.1,1.5,0.2
			c0.5,0.1,0.9,0.3,1.3,0.5c0.4,0.2,0.6,0.6,0.9,1s0.3,0.9,0.3,1.5s-0.1,1.1-0.3,1.6c-0.2,0.4-0.5,0.8-0.9,1.1s-0.8,0.5-1.3,0.7
			c-0.5,0.1-0.9,0.2-1.4,0.2c-0.3,0-0.6,0-0.8-0.1c-0.3,0-0.5-0.1-0.6-0.2v3.4H210.4z M210.4,155.7c0.2,0.1,0.4,0.1,0.5,0.1
			s0.4,0,0.6,0c0.3,0,0.6,0,0.9-0.1s0.6-0.3,0.8-0.5s0.5-0.5,0.6-0.9c0.2-0.4,0.2-0.8,0.2-1.4c0-0.9-0.2-1.6-0.7-2s-1.1-0.6-1.9-0.6
			c-0.3,0-0.5,0-0.6,0s-0.3,0.1-0.3,0.1c-0.1,0.1-0.1,0.2-0.2,0.3c0,0.1,0,0.2,0,0.4L210.4,155.7L210.4,155.7z"/>
	</g>
</g>
</svg>
