<?xml version="1.0" encoding="utf-8"?>
<!-- Generator: Adobe Illustrator 23.0.1, SVG Export Plug-In . SVG Version: 6.00 Build 0)  -->
<svg version="1.1" id="Layer_1" xmlns="http://www.w3.org/2000/svg" xmlns:xlink="http://www.w3.org/1999/xlink" x="0px" y="0px"
	 viewBox="0 0 41.6 41.6" style="enable-background:new 0 0 41.6 41.6;" xml:space="preserve">
<style type="text/css">
	.st0{fill:#6690A8;}
</style>
<g>
	<path class="st0" d="M20.8,5.2c4.1,0,8.3,0,12.4,0c0.8,0,1.4,0.3,1.8,1c1.9,2.9,3.9,5.9,5.8,8.8c0.7,1,0.6,1.3-0.2,2.2
		C35.1,22.6,29.5,28.2,24,33.7c-0.7,0.7-1.3,1.4-2,2.1c-1,1-1.5,1-2.5,0c-3.8-3.9-7.6-7.7-11.4-11.6c-2.4-2.4-4.8-4.8-7.1-7.1
		c-0.9-0.9-0.9-1.2-0.2-2.2C2.7,12,4.6,9.1,6.5,6.2c0.5-0.7,1-1,1.9-1C12.6,5.2,16.7,5.2,20.8,5.2z M20.7,32.2c0.1,0,0.1,0,0.2,0
		c0.4-1.3,0.9-2.7,1.3-4c1.2-3.5,2.3-6.9,3.5-10.4c0.2-0.5,0.3-1-0.5-0.9c-2.9,0-5.9,0-8.8,0c-0.6,0-0.7,0.2-0.5,0.7
		c0.4,1.2,0.8,2.5,1.2,3.7C18.3,25,19.5,28.6,20.7,32.2z M37.9,16.9c-0.3,0-0.5,0-0.8,0c-2.7,0-5.5,0-8.2,0c-0.7,0-1.1,0.2-1.3,0.9
		c-1.4,4.3-2.8,8.6-4.3,13c-0.1,0.3-0.3,0.5-0.2,0.7C28.1,26.7,33,21.9,37.9,16.9z M3.7,16.9c4.9,4.9,9.8,9.7,14.7,14.6
		c0,0-0.1-0.1-0.1-0.3c-1.5-4.6-3-9.1-4.5-13.7c-0.2-0.5-0.5-0.6-1-0.6c-2.2,0-4.4,0-6.6,0C5.4,16.9,4.6,16.9,3.7,16.9z M33.8,14.9
		c1.3,0,2.6,0,3.9,0c0.6,0,0.8-0.2,0.4-0.7c-1.3-1.9-2.6-3.9-3.9-5.9c-0.3-0.5-0.5-0.4-0.8,0c-1.3,1.9-2.5,3.9-3.8,5.8
		c-0.3,0.5-0.2,0.7,0.4,0.7C31.3,14.9,32.5,14.9,33.8,14.9z M7.7,14.9c1.3,0,2.6,0,3.9,0c0.6,0,0.7-0.2,0.4-0.7
		c-1.3-1.9-2.6-3.9-3.9-5.9C7.8,7.9,7.6,8,7.4,8.4c-1.3,2-2.6,3.9-3.9,5.9c-0.3,0.5-0.2,0.7,0.4,0.7C5.2,14.9,6.4,14.9,7.7,14.9z
		 M20.8,14.9c1.3,0,2.6,0,3.8,0c0.6,0,0.8-0.2,0.4-0.7c-1.3-1.9-2.6-3.9-3.9-5.8c-0.3-0.4-0.4-0.5-0.7,0c-1.3,2-2.6,3.9-3.9,5.9
		c-0.4,0.6-0.2,0.7,0.4,0.7C18.2,14.9,19.5,14.9,20.8,14.9z M27.4,7.1c-1.3,0-2.7,0-4,0c-0.5,0-0.7,0.1-0.4,0.6
		c1.3,1.9,2.6,3.9,3.8,5.8c0.4,0.6,0.6,0.5,0.9,0c1.2-1.9,2.5-3.8,3.8-5.7c0.3-0.5,0.3-0.7-0.4-0.7C29.9,7.1,28.7,7.1,27.4,7.1z
		 M14.3,7.1c-1.3,0-2.6,0-3.9,0c-0.5,0-0.8,0.1-0.4,0.7c1.3,1.9,2.6,3.9,3.8,5.8c0.3,0.5,0.6,0.5,0.9,0c1.3-1.9,2.5-3.9,3.8-5.8
		c0.4-0.6,0.2-0.7-0.4-0.7C16.9,7.1,15.6,7.1,14.3,7.1z"/>
</g>
</svg>
