<?xml version="1.0" encoding="utf-8"?>
<!-- Generator: Adobe Illustrator 22.1.0, SVG Export Plug-In . SVG Version: 6.00 Build 0)  -->
<svg version="1.1" id="nav-masthead-logo" xmlns="http://www.w3.org/2000/svg" xmlns:xlink="http://www.w3.org/1999/xlink" x="0px"
	 y="0px" viewBox="0 0 188 90.9" style="enable-background:new 0 0 188 90.9;" xml:space="preserve">
<style type="text/css">
	.st0{fill:#FFFFFF;}
</style>
<path class="st0" d="M155.3,48.1L128.4,49L139,64.1c-11.6,2.3-22.6-7.5-22.5-18.8c0.2-11.6,9.5-20.2,20.7-20.1
	c14.4,0,24.5,13.3,20.4,25.9L155.3,48.1L155.3,48.1z M92.6,50.5c2.7,19.9,19.9,38.8,44.3,38.8c10.6,0,18.1-4.5,19.4-5.2l2.8,3.7
	l26-1.4L174.2,71c0,0,8.2-10.6,8.2-24.5c0.1-27.2-19-44.9-45.6-45c-23.9,0-42.2,18.1-44.4,39.3l-0.3-2.2H50.7v20.7h11.2
	c0,0.5-5.7,6.1-14.4,6.1c-9.5,0-20.2-7.5-20.4-19.5c-0.2-12.4,10.6-20.6,20.5-20.2c8,0.3,11.1,2.6,15.6,7H90
	c-2.3-8.8-14.6-31-42.7-31.1C21.5,1.6,2.9,22.9,3,45c0.1,25.7,20,44.5,45.2,44.5C75.5,89.5,90.7,67.1,92.6,50.5z M53.5,42.4h2.8
	c0.7,0,1.2,0.2,1.6,0.5c0.3,0.3,0.4,0.6,0.4,1c0,0.7-0.4,1.1-0.8,1.3c0.7,0.3,1.1,0.7,1.1,1.5c0,1.1-0.9,1.7-2.3,1.7h-2.9v-6H53.5z
	 M57,44.3c0-0.4-0.3-0.6-0.9-0.6h-1.3V45H56C56.7,44.9,57,44.7,57,44.3z M56.4,46h-1.6v1.3h1.6c0.6,0,1-0.2,1-0.7
	C57.4,46.3,57.1,46,56.4,46z M59.8,42.4h2.8c0.8,0,1.4,0.2,1.8,0.6c0.3,0.3,0.5,0.8,0.5,1.4c0,1-0.5,1.6-1.3,1.9l1.5,2.2h-1.6
	l-1.3-2h-1.1v2h-1.3C59.8,48.5,59.8,42.4,59.8,42.4z M62.5,45.4c0.7,0,1-0.3,1-0.9c0-0.6-0.4-0.9-1.1-0.9h-1.3v1.8
	C61.1,45.4,62.5,45.4,62.5,45.4z M66.2,42.4h1.3v6.1h-1.3C66.2,48.5,66.2,42.4,66.2,42.4z M70.5,43.7h-1.9v-1.2h5.1v1.2h-1.9v4.9
	h-1.3C70.5,48.6,70.5,43.7,70.5,43.7z M74.8,42.4h1.3v6.1h-1.3C74.8,48.5,74.8,42.4,74.8,42.4z M77.2,47.7l0.8-0.9
	c0.5,0.5,1.1,0.7,1.8,0.7c0.5,0,0.9-0.2,0.9-0.6c0-0.3-0.2-0.5-1.2-0.8c-1.2-0.3-2-0.7-2-1.9c0-1.1,0.9-1.8,2.1-1.8
	c0.9,0,1.6,0.3,2.3,0.8l-0.7,1c-0.5-0.4-1.1-0.6-1.6-0.6s-0.8,0.2-0.8,0.5c0,0.4,0.3,0.5,1.3,0.8c1.2,0.3,1.9,0.8,1.9,1.8
	c0,1.2-0.9,1.9-2.2,1.9C78.9,48.6,78,48.3,77.2,47.7L77.2,47.7z M83.2,42.4h1.3v2.4H87v-2.4h1.3v6.1H87V46h-2.5v2.5h-1.3L83.2,42.4
	L83.2,42.4z"/>
</svg>
