<?xml version="1.0" encoding="utf-8"?>
<!-- Generator: Adobe Illustrator 23.0.1, SVG Export Plug-In . SVG Version: 6.00 Build 0)  -->
<svg version="1.1" id="Layer_1" xmlns="http://www.w3.org/2000/svg" xmlns:xlink="http://www.w3.org/1999/xlink" x="0px" y="0px"
	 viewBox="0 0 279.1 267.4" style="enable-background:new 0 0 279.1 267.4;" xml:space="preserve">
<style type="text/css">
	.st0{fill:#CC0000;}
</style>
<path class="st0" d="M271.1,133.7l-27.3-33.9l2.2-43.5L204,45L180.2,8.5L139.5,24L98.9,8.5L75.1,45L33,56.3l2.2,43.5L7.9,133.7
	l27.3,33.9L33,211.1l42,11.4l23.8,36.4l40.7-15.5l40.7,15.5l23.8-36.4l42-11.4l-2.2-43.5L271.1,133.7z M98.3,161.1H85.2l-20.6-33.8
	h-0.3v33.8H51.7v-54.7h12.7l21.1,34.6h0.3v-34.6h12.5V161.1z M145.9,161.1h-39.6v-54.7h38.8v10.8H119v11.2h22.3v10.1H119v11.9h27
	V161.1z M211.6,161.1h-11.5l-11.5-35.4l-11.4,35.4h-11.6l-15.7-54.7h13.3l8.9,35.7l10.5-35.7h12l10.5,35.7l8.9-35.7h13.3
	L211.6,161.1z"/>
</svg>
