<?xml version="1.0" encoding="utf-8"?>
<!-- Generator: Adobe Illustrator 23.0.1, SVG Export Plug-In . SVG Version: 6.00 Build 0)  -->
<svg version="1.1" id="Layer_1" xmlns="http://www.w3.org/2000/svg" xmlns:xlink="http://www.w3.org/1999/xlink" x="0px" y="0px"
	 viewBox="0 0 1024 1024" style="enable-background:new 0 0 1024 1024;" xml:space="preserve">
<title></title>
<g id="icomoon-ignore">
</g>
<path d="M357.1,23.2c-3.7,1.1-7.3,2.3-10.9,3.5l33.8,85.5L357.1,23.2z M544.4,1.2l-1.5,91.9L555.8,2C552,1.6,548.2,1.5,544.4,1.2z
	 M319.2,36.7c-3.5,1.4-7.1,2.9-10.6,4.4l40.4,82.5L319.2,36.7L319.2,36.7z M24.7,348.4c-1.2,3.6-2.4,7.3-3.5,10.9l88.9,22.9
	L24.7,348.4z M635,15.4c-3.7-0.9-7.4-1.8-11.1-2.6l-15.8,90.7C608.1,103.4,635,15.4,635,15.4z M673.7,26.7
	c-3.6-1.2-7.3-2.4-10.9-3.5l-22.9,89.1L673.7,26.7z M584.4,5.4L575.7,97l20-89.8C591.9,6.6,588.2,5.9,584.4,5.4L584.4,5.4z
	 M247.3,72.5c-3.3,2-6.6,3.8-9.8,5.9l52.9,75.3C290.3,153.6,247.3,72.5,247.3,72.5z M213.6,94.4c-3.1,2.2-6.2,4.5-9.2,6.8l58.5,70.7
	C262.8,171.9,213.6,94.4,213.6,94.4z M76.4,239.7c-2,3.2-4.1,6.5-6,9.7l81.2,43L76.4,239.7L76.4,239.7z M711.2,41.2
	c-3.5-1.5-7-3.1-10.5-4.5l-29.9,87.1L711.2,41.2z M99.1,206.5c-2.3,3.1-4.5,6.1-6.8,9.2l77.5,49.2L99.1,206.5L99.1,206.5z
	 M39.1,310.8c-1.5,3.5-3.1,7-4.5,10.6l87,29.8L39.1,310.8L39.1,310.8z M56.2,274.4c-1.8,3.4-3.4,6.9-5.1,10.3l84.2,36.5L56.2,274.4
	L56.2,274.4z M181.7,119c-2.9,2.4-5.8,5-8.7,7.5l63.8,65.9L181.7,119z M152,146c-2.7,2.7-5.5,5.3-8.2,8l68.9,60.8L152,146L152,146z
	 M124.3,175.2c-2.5,2.9-4.9,5.8-7.4,8.8l73.3,55.1L124.3,175.2L124.3,175.2z M282.5,53.1c-3.4,1.7-6.8,3.5-10.2,5.3l46.7,79.1
	C319.1,137.5,282.5,53.1,282.5,53.1z M435.5,5.4c-3.8,0.6-7.6,1-11.4,1.6l20,89.8L435.5,5.4L435.5,5.4z M396,12.7
	c-3.7,0.9-7.4,1.8-11.1,2.8l27,87.8L396,12.7L396,12.7z M475.5,1.1c-3.8,0.2-7.6,0.7-11.4,1L477,93L475.5,1.1z M998.7,359.3
	c-1.1-3.7-2.3-7.3-3.5-10.9l-85.6,33.8L998.7,359.3z M544.4,1022.9c3.9-0.2,7.6-0.7,11.4-1L542.9,931L544.4,1022.9z M623.9,1011.3
	c3.7-0.8,7.4-1.8,11.1-2.7l-27-87.8L623.9,1011.3L623.9,1011.3z M985.2,321.4c-1.4-3.6-2.9-7.1-4.4-10.6l-82.6,40.5L985.2,321.4
	L985.2,321.4z M584.4,1018.5c3.8-0.5,7.6-1,11.3-1.6l-20-89.7L584.4,1018.5z M782.3,78.5c-3.2-2-6.4-4.1-9.7-6l-43.1,81.3
	C729.5,153.7,782.3,78.5,782.3,78.5z M876,154.1c-2.7-2.7-5.3-5.5-8-8.2l-60.9,69L876,154.1L876,154.1z M815.5,101.2
	c-3.1-2.3-6.1-4.6-9.2-6.8L757,172.1C757,172.1,815.5,101.2,815.5,101.2z M846.8,126.4c-2.9-2.5-5.9-4.9-8.8-7.4l-55.2,73.4
	C782.9,192.5,846.8,126.4,846.8,126.4z M747.6,58.3c-3.4-1.8-6.8-3.4-10.3-5.1l-36.5,84.4L747.6,58.3L747.6,58.3z M927.6,215.7
	c-2.2-3.1-4.5-6.2-6.8-9.2L850,265L927.6,215.7z M949.5,249.4c-1.9-3.3-3.8-6.6-5.9-9.8l-75.3,52.9L949.5,249.4z M903,183.9
	c-2.4-2.9-5-5.8-7.5-8.7l-66,63.9L903,183.9L903,183.9z M968.9,284.7c-1.7-3.4-3.5-6.8-5.3-10.2l-79.1,46.8L968.9,284.7z
	 M662.7,1000.8c3.6-1.1,7.3-2.3,10.9-3.5l-33.8-85.5L662.7,1000.8L662.7,1000.8z M737.3,970.9c3.4-1.7,6.8-3.5,10.2-5.3l-46.7-79.1
	L737.3,970.9L737.3,970.9z M867.8,878.1c2.7-2.7,5.5-5.3,8.2-8l-68.9-60.8L867.8,878.1L867.8,878.1z M772.5,951.5
	c3.3-2,6.6-3.9,9.8-5.9l-52.8-75.2L772.5,951.5L772.5,951.5z M838,905c2.9-2.4,5.8-5,8.7-7.5l-63.8-65.9L838,905L838,905z
	 M806.2,929.6c3.1-2.2,6.2-4.5,9.2-6.8L757,852.1L806.2,929.6L806.2,929.6z M700.6,987.3c3.6-1.4,7.1-2.9,10.6-4.4l-40.4-82.6
	L700.6,987.3z M504.2,1023.9c3.8,0,7.6,0.2,11.4,0.1l-5.7-91.6L504.2,1023.9L504.2,1023.9z M515.7,0.1c-3.8,0-7.6-0.2-11.4-0.1
	l5.7,91.7C509.9,91.7,515.7,0.1,515.7,0.1z M1006.5,637.2c0.9-3.7,1.8-7.4,2.6-11.2l-90.5-15.8L1006.5,637.2L1006.5,637.2z
	 M980.8,713.3c1.5-3.5,3.1-7,4.5-10.6l-87-29.8L980.8,713.3L980.8,713.3z M995.2,675.8c1.2-3.6,2.4-7.3,3.5-10.9l-89-22.9
	L995.2,675.8L995.2,675.8z M475.5,1022.8l1.5-91.5l-12.9,90.8C467.9,1022.4,471.7,1022.5,475.5,1022.8z M895.5,848.9
	c2.5-2.9,4.9-5.8,7.4-8.8L829.5,785L895.5,848.9z M1009.2,398.1c-0.9-3.7-1.8-7.4-2.7-11.1l-87.9,27L1009.2,398.1L1009.2,398.1z
	 M963.6,749.7c1.8-3.4,3.4-6.8,5.1-10.3l-84.3-36.5L963.6,749.7L963.6,749.7z M920.7,817.6c2.3-3.1,4.6-6.1,6.8-9.3L850,759.1
	L920.7,817.6L920.7,817.6z M943.4,784.4c2-3.2,4.1-6.5,6.1-9.7l-81.2-43L943.4,784.4L943.4,784.4z M10.7,626
	c0.8,3.7,1.8,7.4,2.7,11.1l87.7-26.9L10.7,626z M70.4,774.7c2,3.3,3.8,6.6,5.9,9.8l75.2-52.8C151.5,731.7,70.4,774.7,70.4,774.7z
	 M435.5,1018.6l8.7-91.3l-20,89.4C428,1017.4,431.7,1018.1,435.5,1018.6L435.5,1018.6z M92.4,808.4c2.2,3.1,4.5,6.2,6.8,9.2
	l70.7-58.4L92.4,808.4L92.4,808.4z M117,840.2c2.4,2.9,4.9,5.8,7.5,8.7l65.8-63.7L117,840.2L117,840.2z M34.7,702.7
	c1.4,3.5,2.9,7.1,4.4,10.6l82.5-40.3L34.7,702.7z M144,870c2.7,2.7,5.3,5.5,8,8.1l60.7-68.7L144,870z M13.3,387
	c-0.9,3.7-1.8,7.4-2.6,11.2l90.4,15.8L13.3,387L13.3,387z M21.2,664.9c1.1,3.6,2.3,7.3,3.5,10.9l85.4-33.8L21.2,664.9L21.2,664.9z
	 M51.1,739.4c1.7,3.4,3.5,6.8,5.3,10.1l79-46.6L51.1,739.4L51.1,739.4z M173.1,897.7c2.9,2.5,5.8,4.9,8.8,7.3l55-73.2L173.1,897.7
	L173.1,897.7z M346.3,997.3c3.6,1.2,7.2,2.4,10.9,3.5L380,912L346.3,997.3z M384.9,1008.6c3.7,0.9,7.4,1.8,11.1,2.6l15.8-90.3
	L384.9,1008.6L384.9,1008.6z M308.8,982.9c3.5,1.5,7,3.1,10.5,4.5l29.8-86.8L308.8,982.9L308.8,982.9z M204.4,922.8
	c3.1,2.3,6.1,4.5,9.2,6.7l49.1-77.4L204.4,922.8L204.4,922.8z M272.4,965.7c3.4,1.8,6.9,3.4,10.3,5.1l36.5-84.1L272.4,965.7z
	 M237.6,945.6c3.2,2,6.4,4.1,9.7,6l42.9-81L237.6,945.6L237.6,945.6z M533.2,48.8c-3,0.7-6.1,1.3-9.3,1.7l2.1,70.5L533.2,48.8
	L533.2,48.8z M646,145.1l29.4-67c-2.8-2.2-5.4-4.4-7.8-6.7L646,145.1z M559.7,977.6c2.1,0.7,4.4,1.3,6.4,2.2l4.4,1.8l-15.3-81
	L559.7,977.6L559.7,977.6z M669.3,960.6l6.3-7.6c0.4-0.5,1-1,1.5-1.5l-32.5-72.1L669.3,960.6L669.3,960.6z M612.1,32.2
	c-4.2-0.9-8.4-1.3-12.6-1.6L587,128.3C587,128.3,612.1,32.2,612.1,32.2z M567,35.9l-6.2,2.9l-4.1,84.7l16-89.4
	C570.8,34.7,568.8,35.1,567,35.9z M646.6,49.8c-3.1-2.9-6.5-5.6-10.3-7.9l-19.5,93.7C616.8,135.6,646.6,49.8,646.6,49.8z
	 M706.3,928.3l-33.2-60.6l25.6,65.5C701.2,931.4,703.7,929.8,706.3,928.3z M636.6,985.5c4-1.5,7.8-3.4,11.5-5.5l-32.7-91.2
	L636.6,985.5L636.6,985.5z M868.4,800.6c1.7-2.4,3.3-4.9,5.1-7.2l-56.7-38.6L868.4,800.6L868.4,800.6z M851.4,834.9
	c1-3.3,2.1-6.7,3.6-10.1l-58.2-46.7L851.4,834.9L851.4,834.9z M868.7,224.1l-51,46.2l57-39.7C872.6,228.5,870.6,226.3,868.7,224.1z
	 M780,908.2c0.4,0,0.7-0.1,1.1-0.2l-54.4-70.3l41.6,71.1L780,908.2z M739.6,913.5l-39.2-59.8l30.5,62.8
	C733.8,915.5,736.7,914.4,739.6,913.5L739.6,913.5z M807.6,900.1c3.8-2,7.4-4.2,10.8-6.8l-66.8-73.6L807.6,900.1L807.6,900.1z
	 M836.5,874.8c2.5-3.5,4.6-7.2,6.4-11.1l-68-64L836.5,874.8L836.5,874.8z M598.6,990.4c4.2,0.5,8.5,0.6,12.8,0.4l-25.8-94.9
	L598.6,990.4L598.6,990.4z M957.8,711.7L865,676.4l87.5,46.8C954.6,719.5,956.3,715.7,957.8,711.7z M961.4,673.6l-0.1-0.8
	l-84.5-24.7l85.8,37.6C962.6,681.6,962.3,677.5,961.4,673.6L961.4,673.6z M953.1,382.7l-66.4,23.8l67.5-14.8
	C953.8,388.6,953.4,385.7,953.1,382.7L953.1,382.7z M956.5,643.2c-0.2-3.2-0.3-6.4-0.2-9.7l-70-14.6L956.5,643.2L956.5,643.2z
	 M931.2,269.3l-79.5,52.1l88.2-42.8C937.3,275.3,934.4,272.2,931.2,269.3z M936.1,744L851,703.8l74.6,47.8
	C929.3,749.5,932.8,746.9,936.1,744z M953.5,353.1l1.9-11.1l-78.1,35.2l76.1-23.1C953.5,353.8,953.5,353.5,953.5,353.1L953.5,353.1z
	 M952.5,301.2l-86.9,47.6l90.3-35.3C955.2,309.3,954,305.2,952.5,301.2L952.5,301.2z M752.8,205.1l65.7-73.9c-3-3-6.2-5.8-9.7-8.3
	L752.8,205.1z M727.9,187l57.6-76c-4.2-1.3-8.3-2.2-12.6-2.6L727.9,187L727.9,187z M903.1,252.3c-2.2-1.1-4.5-2.6-6.7-4l-60.7,46.9
	l70.6-41.3L903.1,252.3L903.1,252.3z M732.9,105l-31.1,66l41.2-64.2C739.7,106.3,736.3,105.7,732.9,105z M836.1,160.5
	c-0.7-2.3-1.7-4.6-2.6-6.8l-57.4,71.5l61.6-59.2L836.1,160.5L836.1,160.5z M698.8,92.7l-24.4,64.2l32.4-60.5
	C704.1,95.3,701.5,94,698.8,92.7L698.8,92.7z M151.1,799.8l51.1-46.3l-57.1,39.8C147.2,795.4,149.2,797.6,151.1,799.8L151.1,799.8z
	 M523.2,971.8c3,0.1,6,0.2,8.9,0.4l-7.5-69.2L523.2,971.8L523.2,971.8z M847.7,193.8l-50,53.1l54.6-44.8
	C850.7,199.3,849.2,196.6,847.7,193.8L847.7,193.8z M183.7,863.5c0.6,2.3,1.7,4.5,2.6,6.7l57.5-71.5l-61.7,59.2L183.7,863.5z
	 M57.3,338.2c0,4.1,0.3,8.2,1.1,12.2l0.1,0.7l84.6,24.7L57.3,338.2L57.3,338.2z M120.4,256.9l64.8,37.1l-57.2-43.3
	C125.4,252.9,122.9,254.9,120.4,256.9z M67.4,300.6c-2.1,3.7-3.8,7.6-5.3,11.6l92.9,35.2L67.4,300.6L67.4,300.6z M63.5,390.3
	l70.1,14.6l-70.3-24.4C63.5,383.8,63.6,387,63.5,390.3z M66.7,641.2l66.5-23.8l-67.7,14.8C66.1,635.2,66.4,638.2,66.7,641.2z
	 M452.9,988.1l6.1-2.8l4.2-85l-16.1,89.8C449,989.5,451,989,452.9,988.1L452.9,988.1z M496.8,52.2c-3-0.1-5.9-0.2-8.9-0.4l7.5,69.2
	L496.8,52.2z M460.3,46.5c-2.2-0.7-4.5-1.4-6.5-2.2l-4.3-1.8l15.3,80.9L460.3,46.5z M67.3,722.7l87-47.6l-90.4,35.4
	C64.7,714.5,65.9,718.6,67.3,722.7L67.3,722.7z M116.9,771.7c2.2,1.1,4.4,2.6,6.5,3.9l60.8-47L113.6,770L116.9,771.7z M486.6,975.3
	c3-0.7,6.1-1.3,9.3-1.8l-2.1-70.7L486.6,975.3z M899.6,767l-64.8-37l57.2,43.3C894.6,771,897.1,769,899.6,767z M88.6,754.5
	l79.7-52.1l-88.3,42.8C82.5,748.6,85.4,751.7,88.6,754.5z M83.9,279.9l85.1,40.2l-74.6-47.8C90.7,274.4,87.2,277,83.9,279.9
	L83.9,279.9z M407.6,991.9c4.2,0.9,8.4,1.5,12.6,1.7l12.6-98.2L407.6,991.9L407.6,991.9z M66.4,670.8l-1.9,10.9l78.2-35.1
	l-76.2,23.1C66.4,670.1,66.4,670.5,66.4,670.8L66.4,670.8z M280.4,110.5l39.1,59.8l-30.5-62.8C286.2,108.5,283.3,109.6,280.4,110.5
	L280.4,110.5z M212.4,123.8c-3.8,2-7.4,4.2-10.8,6.7l66.8,73.7L212.4,123.8L212.4,123.8z M373,974.5c3.1,2.9,6.6,5.5,10.3,7.7
	l19.6-93.9L373,974.5L373,974.5z M421.4,33.7c-4.2-0.5-8.4-0.6-12.7-0.4l25.8,94.9L421.4,33.7z M168.5,188.9
	c-0.9,3.3-2.1,6.7-3.5,10.1l58.3,46.8L168.5,188.9L168.5,188.9z M177,160l68.1,64.1L183.4,149C180.9,152.6,178.7,156.2,177,160
	L177,160z M313.7,95.7l33.2,60.7l-25.6-65.5C318.8,92.5,316.3,94.2,313.7,95.7z M383.3,38.6c-4,1.5-7.8,3.3-11.5,5.5l32.7,91.2
	C404.6,135.2,383.3,38.6,383.3,38.6z M350.6,63.3l-6.4,7.7c-0.4,0.5-0.9,0.9-1.4,1.4l32.5,72.3C375.3,144.7,350.6,63.3,350.6,63.3z
	 M239.8,115.8c-0.3,0-0.6,0.1-0.9,0.1l54.3,70.3l-41.6-71.1L239.8,115.8L239.8,115.8z M321,931.3l24.5-64.4L313,927.5
	C315.7,928.7,318.3,929.9,321,931.3z M373.8,878.7l-29.4,67.1c2.8,2.2,5.4,4.4,7.8,6.7L373.8,878.7L373.8,878.7z M151.6,223.2
	c-1.6,2.4-3.3,4.9-5.1,7.2l56.7,38.7L151.6,223.2L151.6,223.2z M286.8,919l31.3-66.1l-41.3,64.4C280.1,917.7,283.4,918.3,286.8,919
	L286.8,919z M291.9,836.8l-57.7,76.2c4.1,1.3,8.3,2.2,12.5,2.6L291.9,836.8L291.9,836.8z M172,830.1l50.1-53.2l-54.7,44.9
	C169.1,824.6,170.6,827.3,172,830.1L172,830.1z M267.1,818.7l-65.8,74c3,3,6.2,5.8,9.6,8.3L267.1,818.7z M224.8,260.4
	c0,21,16.3,36.2,38.7,36.2c13.3,0,24.4-4.8,32.2-14l0.4-0.5l-7.5-8.1l-0.5,0.6c-7.8,7.7-14.2,10.6-23.9,10.6
	c-13.6,0-28.1-7.7-28.1-24.6c0-14.3,10.9-24.7,26-24.7c8.4,0,15.9,3.1,24.2,10l0.5,0.4l8.4-7.2l-0.6-0.6c-9.5-9.2-20.9-14-33-14
	C240.6,224.5,224.8,239.9,224.8,260.4L224.8,260.4z M352.5,255.7h-29.3v-18.4h29.3c4.9,0,10.7,1.5,10.7,8.8
	C363.2,254.5,356.5,255.7,352.5,255.7z M374.4,246.7c0-12.5-8.6-20.6-22-20.6h-40.7V295h11.3v-27.9H347l13.5,27.9h12.8l-14.1-28.5
	C369,263.8,374.4,256.8,374.4,246.7L374.4,246.7z M413.8,254.1l-20.2-28h-13.7l28.1,39.2V295h11.2v-29.7l28.5-39.2h-14.1
	L413.8,254.1L413.8,254.1z M484,296.5c15.1,0,32.6-5.8,32.6-22c0-7.3-3.6-13.7-9.8-17.4c-7-4.2-13.7-4.2-20.7-4.2h-10
	c-7.2,0-10.6-2.2-10.6-7c0-8,12.4-10.1,19-10.1c8.2,0,13.1,2.1,20.8,6.9l0.6,0.4l6.3-9l-0.6-0.5c-8.1-6.1-17.9-9.3-28.4-9.3
	c-4.1,0-8.1,0.6-11.9,1.8c-8.4,2.7-17.3,9.4-17.3,19.9c0,13,11.2,17.8,20.8,18l10.1,0.2c9.8,0.2,13,0.3,16.4,2.5
	c2.8,1.8,4.2,4.2,4.2,7c0,9-12.6,11.4-20.1,11.4c-12.1,0-19.6-2.8-27.7-10.3l-0.5-0.5l-7.9,7.6l0.5,0.5
	C459.5,292.3,469.7,296.5,484,296.5L484,296.5z M525.9,237.5h24V295H561v-57.5h23.8v-11.3h-58.8V237.5z M610.4,261.6l9.5-20.9
	l9.5,20.9H610.4z M626,226.2h-11.8L582.9,295h12.3l10-21.9h29.3l9.5,21.5l0.2,0.5h12.6L626,226.2L626,226.2z M670.7,295H723v-11.3
	h-41v-57.5h-11.3L670.7,295L670.7,295z M766.8,285.1c-12.1,0-19.6-2.8-27.6-10.3l-0.5-0.5l-7.9,7.6l0.5,0.5c9.7,9.8,19.9,14,34.2,14
	c15.1,0,32.6-5.8,32.6-22c0-7.3-3.6-13.7-9.8-17.4c-7-4.2-13.7-4.2-20.7-4.2h-10c-7.2,0-10.6-2.2-10.6-7c0-8,12.4-10.1,19-10.1
	c8.2,0,13,2.1,20.8,6.9l0.6,0.4l6.3-9l-0.6-0.5c-8.1-6.1-17.9-9.3-28.4-9.3c-4.1,0-8.1,0.6-11.9,1.8c-8.4,2.7-17.3,9.4-17.3,19.9
	c0,13,11.2,17.8,20.8,18l10.1,0.2c9.8,0.2,13.1,0.3,16.4,2.5c2.8,1.8,4.2,4.2,4.2,7C786.9,282.7,774.3,285.1,766.8,285.1
	L766.8,285.1z M771,685.3c3.9-2.5,7.8-4.9,11.6-7.4c0.6-0.4,0.8-1.3,1.1-2c-0.8-0.1-1.7-0.4-2.4-0.2c-1.9,0.8-3.7,1.8-5.6,2.9
	c-3.5,2.1-7.1,4.2-10.6,6.4c-0.5,0.4-0.9,1.3-0.9,2.1c0,0.3,0.9,0.7,1.4,1.1c0.9-0.4,1.6-0.6,2.3-0.9
	C769.1,686.7,770,685.9,771,685.3L771,685.3z M761.8,705.1c0.2,0.2,0.9,0.1,1.3-0.1c1.9-0.9,2.6-2.4,2.8-4.4
	c0.3-2.7-2.1-5.8-4.8-5.8c-0.1-0.2-0.2-0.3-0.3-0.4c-0.9,0.7-2.4,1.2-2.8,2.1c-0.5,1.6,1.4,1.4,2.3,2c0.1,0.1,0.4,0.1,0.5,0.2
	c0.3,0.4,0.9,0.8,0.9,1.2c-0.1,1.2-0.4,2.5-0.4,3.7C761.2,704.1,761.5,704.8,761.8,705.1L761.8,705.1z M496.7,784.3
	c-0.1,0.4-0.6,0.2-0.6,0.2s-2-1.3-3-2c-1.4-1-2.8-2.1-4.2-3.2c-1.1-0.9-2.2-2-3.4-2.9c-2.6-1.8-5.2-3.6-7.9-5.2
	c-3.5-2.1-7-4.1-10.6-5.9c-2.1-1.2-4.6-1.7-6.4-3.1c-2.2-1.8-4.7-2.5-7.1-3.5c-3.8-1.6-7.5-3.1-11.3-4.7c-2.9-1.3-5.8-2.5-8.7-3.6
	c-1.5-0.6-3-1.1-4.5-1.5c-4.2-1.2-8.4-2.4-12.6-3.6c-4.3-1.3-8.6-2.8-13-4c-2.8-0.7-5.6-1.1-8.4-1.6c-0.4-0.1-0.9-0.2-1.4-0.6
	c0.3-0.1,0.6-0.2,0.8-0.2c6.7-0.2,13.4-0.3,20-0.4c3.4-0.1,6.7-0.2,10.1-0.2c3.6,0,7.3,0.2,11,0.1c2.6,0,5.3-0.4,7.9-0.4
	c1.5-0.1,3.1,0.2,4.6,0.2c0.9,0,1.8-0.3,2.8-0.2c5.2,0,10.4,0.2,15.5,0.2c2.3,0,4.6,0,6.9-0.2c1.1,0,2.3-0.4,3.5-0.4
	c2.9,0,5.9,0.2,8.8,0.2c0.5,0,1,0,1.5-0.1c4.1-0.4,8.2-0.5,12.3-0.2c1.5,0.1,3.1-0.4,4.6-0.5c2.4-0.1,4.8-0.1,7.5-0.1
	C504.4,752.2,498.3,767.6,496.7,784.3L496.7,784.3z M501.2,796.5c0.6,0.5,1.1,0.8,1.4,1.2c2,3.8,4,7.5,6.1,11.3
	c0.9,1.6,1.5,3.3,1.1,5.3c-0.3,1.5-0.9,1.9-2.2,1c-0.9-0.7-1.8-1.7-2.4-2.8c-0.9-1.5-1.6-3.2-2.3-4.8c-0.4-1-0.7-2.1-0.9-3.2
	c-0.4-2.1-0.6-4.2-0.9-6.4C501,797.7,501.1,797.3,501.2,796.5L501.2,796.5z M372.5,736.8c-7.9,0.2-15.8,0.5-23.7,0.7
	c-6.8,0.2-13.7,0.3-20.5,0.5c-5.8,0.2-11.6,0.3-17.4,0.4c-4.1,0.2-8.1,0.4-12.2,0.5c-3.3,0.1-6.6-0.1-9.9,0
	c-6.1,0.1-12.3-0.1-18.3,0.4c-5.2,0.5-10.3-0.1-15.4,0c-3.7,0.1-7.4-0.1-11.1-0.1c-3.4,0-6.9,0.2-10.3,0c-4.1-0.2-8.1-0.9-12.1-1.1
	c-5.9-0.3-11.7-0.2-17.6-0.7c-2.7-0.2-5.4-1.1-8.1-1.9c-0.4-0.1-0.7-0.7-1.1-1c0.4-0.3,0.7-0.7,1.1-0.8c3.6-1.6,7.4-2.3,11.3-2.8
	c2.9-0.4,5.9-0.5,8.8-0.9c2.8-0.3,5.6-1,8.4-1.3c3.5-0.4,7-0.6,10.5-0.8c2.7-0.2,5.4-0.3,8.1-0.4c2.2-0.1,4.3-0.2,6.5-0.3
	c1.9-0.1,3.9-0.2,5.8-0.3c2.3-0.1,4.5-0.2,6.8-0.2c1.7-0.1,3.4-0.1,5.1-0.1c5.6,0.1,11.2,0.2,16.8,0.2c3.2,0,6.5-0.2,9.7-0.2
	c1.3,0,2.6,0.4,3.9,0.5c6.1,0.4,12.2,1,18.3,1.1c5.2,0.1,10.3,1.3,15.5,1.8c4,0.4,8.1,0.6,12.2,1.1c2.8,0.3,5.5,1,8.3,1.5
	c4,0.7,8,1.2,11.9,1.9c2.3,0.4,4.6,0.7,6.9,1.2c0.7,0.1,1.3,0.4,2,0.6C372.6,736.5,372.6,736.6,372.5,736.8L372.5,736.8z
	 M555.4,736.6c0.5-0.2,1.1-0.2,1.4,0c0.9,0.6,1.7,0.5,2.7,0.4c3-0.2,6,0.1,9,0.1c2.5,0,4.9-0.1,7.4-0.1c2.1,0,4.3,0.1,6.5,0.1
	c1.6,0,3.1-0.1,4.6,0c1.6,0.1,3.2,0.4,4.8,0.4c3.1-0.1,6.3-0.3,9.3-0.4c1.8-0.1,3.6,0,5.5,0.1c2.5,0.1,5,0.3,7.5,0.4
	c1,0,1.9,0.2,2.9,0.1c2-0.1,4-0.4,5.9-0.4c1.9,0,3.8,0.3,5.6,0.2c3.6-0.1,7.2-0.4,10.8-0.5c2.4,0,4.6,0.5,7,0.5
	c4.7,0,9.3-0.1,14-0.1c3.9,0,7.8,0.2,11.6,0.2c3.1,0,6.2-0.3,9.2-0.3c6.5,0,12.9,0.2,19.4,0.3c5.8,0.1,11.6,0.2,17.4,0.3
	c3.3,0.1,6.6,0.1,9.9,0.1c3.7,0,7.3,0,11.1,0c4.9,0,9.9-0.2,14.9-0.2c6.1,0,12.2,0.3,18.3,0.3c2.8,0,5.5-0.2,8.3-0.2
	c1.9,0,3.9,0.5,5.8,0.5c4.8,0.1,9.5-0.1,14.3,0.4c3.6,0.4,7.2,0.4,10.8,0.6c2.6,0.2,5.2,0.4,7.8,0.7c0.2,0,0.5-0.2,0.8-0.1
	c2.4,0.6,4.7,1.1,7.1,1.7c0.2,0,0.4,0.4,0.6,0.7c-0.6,0.3-1,0.7-1.5,0.8c-3.7,0.5-7.5,1.2-11.2,1.6c-3.6,0.3-7.3,0.4-10.9,0.4
	c-8.7,0-17.4-0.2-26.1-0.4c-6.5-0.1-13-0.4-19.6-0.8c-5.1-0.3-10.3-0.9-15.5-1.3c-6-0.4-12-0.7-18-1c-2.2-0.1-4.3,0-6.5-0.1
	c-2.9-0.1-5.8-0.3-8.8-0.3c-5.6-0.1-11.3-0.1-16.9-0.1c-0.7,0-1.4,0.3-2.2,0.5c0.6,0.5,1.3,1,1.9,1.5c0.1,0,0.3,0,0.5,0
	c3.7,0.3,7.4,0.6,11.1,0.7c5.2,0.1,10.5,0,15.8,0.2c5.7,0.2,11.4,0.5,17.1,0.9c2.9,0.2,5.8,0.5,8.7,0.9c2.5,0.2,5.1,0.8,7.6,0.9
	c5,0.2,10.1,0.2,15.1,0.3c3.4,0.1,6.7,0.2,10.1,0.2c2.6,0.1,5.1,0.3,7.7,0.3c3.2,0,6.3-0.1,9.4,0c3.8,0.1,7.6,0.6,11.5,0.6
	c4.4-0.1,8.8-0.5,13.2-0.9c1.9-0.2,3.9-0.6,5.8-1c2.4-0.5,4.3-2.4,4.1-4.2c-0.1-1.6-2.2-2.9-4.6-3.1c-1.5-0.2-2.9-0.5-4.4-0.6
	c-4.9-0.4-9.8-0.6-14.7-1c-4.8-0.3-9.7-0.6-14.5-0.9c-1.8-0.1-3.5-0.4-5.3-0.4c-5.7,0-11.4,0.3-17.2,0.3c-4.8,0-9.6-0.4-14.4-0.5
	c-3.8-0.1-7.6-0.1-11.4-0.1c-4.7,0-9.3,0.3-13.9,0.2c-8.5-0.2-17-0.4-25.5-0.6c-4.5-0.1-8.9-0.2-13.4-0.3c-2.7-0.1-5.4-0.1-8.1-0.1
	c-2.6,0-5.1-0.1-7.7-0.1c-1.4,0-2.9,0-4.3,0c-4.1,0-8.3,0.2-12.5,0.2c-4,0-8.1-0.2-12.1-0.2c-4.5,0-9.1,0.1-13.6,0.1
	c-4.8,0-9.8-0.1-14.7-0.1c-6.1,0-12,0.2-18.1,0.2c-3.5,0-7.1-0.2-10.6-0.2c-1.5,0-3.1,0.2-4.6,0.2c-4.6,0-9.2-0.2-13.8-0.2
	c-4.5-0.1-9.1-0.2-13.6-0.2c-4.1-0.1-8.2-0.1-12.3,0c-4.3,0.1-8.6,0.5-13,0.5c-4.1,0-8.2-0.3-12.2-0.4c-0.8,0-1.2-0.4-0.7-1.2
	c0.4-0.7,0.9-1.2,1.2-1.9c0.2-0.5,0.2-1,0.3-1.5c-0.6-0.1-1.4-0.5-1.8-0.3c-1.1,0.7-2.3,1.4-3,2.4c-1.2,1.8-2.6,2.6-4.8,2.6
	c-3.1-0.1-6.3,0.2-9.4,0.2c-3.3,0-6.6,0-9.9-0.1c-1.6,0-3.1-0.3-4.7-0.2c-3.8,0.1-7.5,0.4-11.2,0.4c-6.8,0.1-13.6,0-20.3,0.1
	c-4.8,0-9.5,0.3-14.2,0.4c-8.2,0.3-16.3,0.7-24.5,1c-3,0.1-5.9,0.2-8.9,0.2c-3.7,0-7.4-0.1-11.1-0.1c-3.5,0-7.1,0.4-10.6,0.1
	c-3.6-0.3-7.1-1.3-10.7-2c-5-1-9.9-2.2-14.8-3.1c-3.2-0.6-6.5-0.9-9.7-1.4c-4.2-0.7-8.3-1.7-12.4-2.1c-7.6-0.9-15.3-1.6-22.9-2.3
	c-3.9-0.3-7.8-0.6-11.7-0.8c-2-0.1-4.1,0.3-6.1,0.2c-2.6,0-5.2-0.5-7.9-0.6c-4.9-0.1-9.8-0.1-14.8-0.1c-6.6,0-13.2-0.1-19.9,0.1
	c-7.1,0.2-14.2,0.5-21.3,1.1c-5.3,0.4-10.5,1.3-15.8,1.9c-2.5,0.3-5,0.2-7.5,0.6c-4.2,0.6-8.3,1.5-12.5,2.3
	c-2.1,0.4-4.2,0.8-6.2,1.6c-2.1,0.8-2.5,2.3-1.3,4.3c1,1.8,2.8,2.7,4.7,3c3.1,0.6,6.3,1,9.5,1.4c0.6,0.1,1.1,0,1.7,0
	c0.8,0,1.6,0,2.4,0c2.3,0.1,4.6,0.5,6.9,0.3c0.8-0.1,1.6,0,2.4,0.1c0.8,0.1,1.5,0.4,2.3,0.4c2.1,0.1,4.2,0,6.2,0.1
	c3.5,0.2,7,0.6,10.5,0.7c2.7,0.1,5.4-0.1,8.1-0.3c0.9,0,1.7-0.4,2.6-0.6c0.9,0.3,1.9,1,3,1c4,0,7.9-0.3,11.9-0.5
	c3.6-0.2,7.2-0.3,10.8-0.3c1.7,0,3.4,0.2,5.1,0.2c6.6-0.1,13.1-0.3,19.7-0.5c1.8-0.1,3.5,0.1,5.3,0.1c2.9-0.1,5.7-0.4,8.6-0.5
	c0.9,0,1.8,0.2,2.6,0.1c3.1-0.1,6.1-0.2,9.2-0.3c3.7-0.1,7.5,0,11.2-0.1c1.2,0,2.3-0.5,3.5-0.6c3.8-0.1,7.6,0,11.4-0.1
	c2.8-0.1,5.5-0.4,8.4-0.4c3.8,0,7.7,0.4,11.5,0.1c6.3-0.5,12.4,0.6,18.6,1.5c4.7,0.7,9.3,2,13.8,3.2c2.1,0.5,4.1,1.3,6.1,2
	c2.8,0.9,5.7,1.9,8.5,2.8c2.7,0.8,5.4,1.4,8,2.4c4.2,1.5,8.3,3.3,12.5,5c1.3,0.5,2.7,1,4,1.4c1.1,0.4,15.7,6.9,24,10.4
	c8.3,3.6,12.6,7.2,15.8,9.2c1.8,1.1,3.6,2,5.2,3.2c2.6,1.8,5,3.9,7.4,5.9c1.5,1.3,2.8,2.8,3,4.9c0.5,5.8,1.4,11.5,3.1,17.1
	c0.8,2.7,1.7,5.4,3.7,7.5c1.1,1.1,2.5,2.5,3.9,2.8c3.2,0.5,6.4-1.7,5.6-6.5c-1.1-6-4.7-10.6-7.6-15.7c-1.8-3-4.8-5.3-5-9.1
	c0-1,0.1-2,0.2-2.9c0.3-3.3,0.3-6.6,1-9.8c0.8-3.8,2-7.5,3.1-11.3c0.4-1.3,0.8-2.6,1.2-3.9c1.4-3.6,2.9-7.1,4.3-10.7
	c0.5-1.2,0.9-2.4,1.5-3.6c1.1-2.2,2.6-4.2,3.5-6.5c0.6-1.7,1.6-2,3.1-2c1.9,0,3.9,0.1,5.8,0.1c1.8,0,3.6-0.1,5.3-0.2
	c2.2-0.1,4.2-0.2,6.4-0.2c0.6,0,1.1,0.4,1.7,0.5c2.9-0.3,5.9-0.5,8.9-0.4S552.4,737.6,555.4,736.6L555.4,736.6z M371.3,659.1
	c-5-1.4-9.6-3.4-13.1-7.3c-1.6-1.8-3.2-3.6-4.3-5.6c-1.6-2.9-0.8-5.9,1.8-7.7c0.9-0.7,2.3-0.8,3-1.1c6.4,0.6,11.5,2.2,15.4,7.3
	c2.3,3,2.9,6.3,3.7,9.7C378.5,657.4,374.8,660,371.3,659.1L371.3,659.1z M375,668.8c-1.9,4.4-5.5,7.7-9.1,10.6
	c-2.1,1.8-4.9,2.7-7.4,4c-5.4,2.9-11.4,3.3-17.1,4.8c-0.4,0.1-0.7,0-1.1,0c0-0.2-0.1-0.3-0.2-0.5c0.5-0.5,1.1-1,1.7-1.4
	c2.3-1.5,4.6-2.9,6.8-4.5c2.9-2,5.8-4.2,8.7-6.3c4.8-3.5,9.7-7.1,14.5-10.7c1.4-1.1,2.6-2.7,5.1-2.2
	C376.3,664.7,375.9,666.8,375,668.8L375,668.8z M313.3,697.9c-3.6,1.5-7.2,3.1-10.9,4.2c-4.4,1.3-8.9,2.3-13.3,3.3
	c-0.8,0.2-1.6,0.2-2.4,0.4c-1.5,0.3-2.9-0.2-3.6-1.5c-0.8-1.4,0.1-2.8,0.7-4c2.1-4.1,6.1-5.4,10-6.9c1.4-0.5,2.9-1.3,4.3-1.5
	c3.2-0.4,6.4-0.4,9.6-0.6c2.6-0.1,5.2-0.1,7.9-0.1c2.6,0,5.3,0.1,7.9,0.3c1.1,0,2.1,0.1,3.2,0.2c0,0.2,0.1,0.4,0.1,0.6
	C322.4,694.1,317.9,696,313.3,697.9L313.3,697.9z M467.7,619.6c-4.2,6.8-10.3,11.1-17.1,15.2C451.5,631.9,465.7,619.4,467.7,619.6z
	 M730.7,676.1c3.8-3.5,7.3-7.5,11.8-10.2c1.5-1,3-2.1,4.3-3.3c1.7-1.4,3.4-2.8,4.9-4.3c0.4-0.3,0.3-1.2,0.4-1.8
	c-0.6,0-1.2,0-1.8,0.1c-0.5,0.2-0.9,0.7-1.4,1c-2.6,2.1-5.1,4.2-7.8,6.1c-2.1,1.4-4.4,2.6-6.7,3.7c-1.9,0.9-3.9,1.7-5.6,2.5
	c-0.7-0.7-1.1-1.2-1.5-1.7c-0.4,0.5-0.9,1-1,1.5c-0.2,1.5-1.2,1.9-2.3,2.4c-3.5,1.6-7.1,3.1-10.6,4.7c-4.9,2.2-9.7,4.4-14.7,6.6
	c-0.6,0.3-1.7,0.4-2.1,0.1c-2.4-1.9-5.3-2.4-8.1-3.2c-2.4-0.7-5-0.8-6.9-2.9c-0.4-0.5-1.7-0.5-2.3-0.2c-1.3,0.6-2.4,1.5-3.6,2.3
	c-2,1.4-3.9,2.8-6,4.1c-3.3,2-6.7,3.9-10.3,5.7c-1.9,0.9-3.9,1.7-6,2.3c-0.6,0.2-1.5-0.3-2.3-0.4c0.2-0.7,0.2-1.5,0.6-2
	c2-2.3,4-4.4,6-6.6c1.6-1.7,3.4-3.3,4.9-5.1c0.4-0.4,0.4-1.7,0.1-2c-0.5-0.4-1.5-0.5-2.2-0.4c-1.6,0.5-3.1,1.2-4.6,1.9
	c-1.5,0.6-3,1.5-4.6,2c-3.2,0.9-6.5,1.4-9.7,2.1c-3.3,0.8-3.7,0.5-4.3-2.8c-0.5-2.5-1.6-4.4-4.3-4.8c-0.7-0.1-1.4,0.1-2.1,0.2
	c0.4,0.6,0.6,1.5,1.2,1.7c2.7,1.5,3,4,1.7,6.3c-3,5.1-6.4,9.9-13.1,10.8c-2.4,0.3-3.5-0.5-3-2.9c0.1-0.8,0.6-1.6,1-2.3
	c1.2-1.7,2.5-3.4,3.8-5.2c1-1.3,1.7-3.1,3-3.9c2.2-1.2,2.6-3.6,4-5.2c0.1-0.2-0.4-1.1-0.8-1.3c-0.4-0.2-1.1-0.2-1.6-0.1
	c-1.9,0.7-3.7,1.3-5.6,2c-4,1.6-7.9,3-11.8,4.8c-5.2,2.3-10.2,4.9-15.3,7.3c-2.2,1.1-4.6,2.1-6.9,3.1c-0.3,0.1-0.9-0.2-1.3-0.4
	c0.2-0.4,0.2-0.9,0.5-1.1c1.8-1.6,3.5-3.3,5.5-4.6c2.3-1.6,4.7-2.8,5.4-5.8c0.3-1.5,0.9-2.9,1.1-4.3c0.1-0.8,0-2-0.5-2.6
	c-0.5-0.5-1.8-0.7-2.4-0.5c-2.9,1.2-5.7,2.6-8.6,4c-2.5,1.2-4.8,2.6-7.3,3.9c-3.8,1.9-7.5,3.7-11.3,5.5c-2.2,1.1-4.4,2.3-6.6,3.4
	c-1.5,0.7-3.2,1.1-4.7,1.8c-2.2,0.9-4.4,1.8-6.6,2.7c-0.3,0.1-1.1,0-1.1-0.1c-0.2-0.5-0.3-1.2,0-1.5c0.5-0.6,1.3-1,2-1.4
	c3.1-1.6,6.2-3.4,8.3-6.3c1.1-1.4,2.1-2.9,3.1-4.4c2-2.9,4.1-5.9,6-8.9c0.4-0.6,0.4-1.8,0.1-2c-0.6-0.5-1.6-0.6-2.4-0.6
	c-0.5,0-1,0.3-1.4,0.6c-4,2.4-8,4.7-12,7.2c-2.8,1.7-5.4,3.7-8.1,5.5c-3.1,1.9-6.4,3.7-9.6,5.5c-2.4,1.4-4.8,2.8-7.3,4.1
	c-1,0.5-2.1,0.6-3.3,0.9c0-0.2-0.2-0.4-0.2-0.6c0.9-1.3,1.6-2.7,2.6-3.8c1.9-2.1,4-4,5.9-6.1c2.7-2.9,5.5-5.5,9-7.3
	c0.8-0.4,1.7-0.6,2.4-1.1c0.5-0.4,0.8-1.1,1.1-1.7c-0.6-0.3-1.2-0.9-1.9-1c-0.9-0.1-1.9,0-2.8,0.2c-2.3,0.5-3.8-0.5-5.1-2.3
	c-1-1.5-2.1-3-3.2-4.5c-1.7-2.3-4.1-3-6.7-2c-1.2,0.5-2.2,1.3-3.4,1.6c-3.9,0.9-7,3.2-10.4,5c-1.5,0.8-2.8,1.9-4.2,2.8
	c-2.4,1.6-4.8,3.2-7.2,4.8c-3.6,2.5-7.3,5-10.9,7.4c-3,2-5.9,4.2-9.1,6c-1.7,1-3.7,1.5-5.7,2.2c-0.4,0.1-0.9-0.2-1.4-0.2
	c0.1-0.4,0.2-1,0.5-1.3c1.2-1.2,2.3-2.3,3.6-3.5c1.4-1.3,2.9-2.5,4.2-3.9c1.6-1.6,2.9-3.3,4.4-4.9c0.8-0.8,1.7-1.5,2.5-2.4
	c2.7-2.7,5.4-5.4,8.2-8c0.9-0.9,1.6-3.3,1-4.3c-0.8-1.5-2.1-1.3-3.3-1c-1.2,0.3-2.3,0.8-3.5,1c-2.5,0.6-5.3,0.8-7.6,1.8
	c-6.2,2.6-12.2,5.5-18.2,8.2c-1.1,0.5-2.3,0.8-3.8,1.4c1.4-2.3,2.5-4,3.6-5.9c1.2-2.2,2.5-4.3,3.6-6.5c0.9-1.8,0.6-3.6-0.3-5.4
	c-0.6-1.3-1.7-1.7-3-1.6c-1.6,0.3-3.2,0.5-4.7,1c-4.9,1.6-9.7,3.3-14.5,5.1c-5.1,1.9-10.2,3.8-15.2,6.1c-3.1,1.3-6,3.1-8.9,4.7
	c-3.5,2-7.1,4-10.6,6.1c-2.5,1.5-5,3.2-7.4,4.8c-0.1-0.2-0.3-0.3-0.4-0.5c0.6-0.7,1.1-1.4,1.8-2.1c1.1-1.1,2.4-2.1,3.5-3.2
	c4.6-4.3,9.1-8.5,13.7-12.9c2.2-2.1,4.4-4.3,6.5-6.5c1.8-1.9,3.4-3.9,5.3-5.6c2.7-2.3,4.7-5.6,8.2-7c4.1-1.6,7.8-3.8,11.3-6.4
	c3.5-2.6,6.9-5.1,10.1-8c1.7-1.4,2.9-3.4,4.2-5.2c1-1.5,1.9-3.1,2.5-4.8c0.3-0.8,0.1-2-0.5-2.7c-0.2-0.4-1.6-0.3-2.3-0.1
	c-0.6,0.2-1.3,0.7-1.8,1.2c-1.8,1.6-3.6,3.1-5.3,4.7c-3.1,2.8-6.2,5.4-9.1,8.3c-3,3-5.8,6.1-8.8,9.2c-0.6,0.7-1.3,1.3-2.1,1.6
	c-4.9,2.4-9.9,4.7-14.9,6.8c-4.3,1.9-8.6,3.5-12.9,5.2c-2.3,0.9-4.5,1.9-6.8,2.6c-3.2,0.9-6.4,1.6-9.7,2.2c-4.1,0.8-8.3,1.4-12.4,2
	c-1.1,0.1-2.3-0.3-3.4-0.4c0.5-1,0.9-2,1.6-2.9c1-1.3,2.2-2.5,3.2-3.8c0.2-0.3-0.1-1.1-0.2-1.6c-0.5,0.1-1,0.1-1.4,0.4
	c-0.8,0.7-1.5,1.5-2.1,2.3c-0.8,0.9-1.4,1.1-1.9-0.3c-0.1-0.5-0.3-0.9-0.5-1.4c-0.4-1.5-0.5-3.1-1.2-4.4c-1-1.9-2.4-3.5-3.8-5.1
	c-1-1.2-1.9-2.6-3.2-3.5c-4-2.7-8.5-4.2-13.3-3.6c-3.4,0.4-6.5,1.9-7.5,5.6c-0.5,1.7-0.3,3.7-0.2,5.6c0.1,1.1,0.4,2.4,1,3.4
	c2.5,4.5,7,6.9,11.1,9.6c2,1.3,4.5,2.1,6.8,3.1c0.8,0.3,1.3,0.7,0.5,1.4c-2.3,1.8-4.8,3.6-7.1,5.4c-4,2.9-8,5.9-12,8.7
	c-2.4,1.7-4.9,3.3-7.4,5c-1.8,1.2-3.6,2.3-5.3,3.6c-1.8,1.4-3.6,2.6-5.9,2.7c-5.2,0.3-10.4,0.4-15.6,0.6c-3.9,0.1-7.9,0.5-11.8,0.3
	c-5.9-0.3-11.5,1-16.7,3.5c-4.5,2.1-7.8,5.6-8.5,10.9c-0.3,2.5,0.9,4.4,3.9,4.4c3.1-0.1,6.3-0.6,9.4-1.2c3.2-0.6,6.4-1.5,9.5-2.4
	c2.5-0.7,5-1.4,7.4-2.3c2-0.7,3.9-1.6,5.9-2.5c1.1-0.5,2.2-1.2,3.4-1.7c1.7-0.8,3.5-1.4,5.3-2.1c1.5-0.7,2.7-2,4.3-2.3
	c1.9-0.4,3.4-1.1,4.9-2.2c0.4-0.2,0.9-0.5,1.4-0.5c1.6-0.3,3.2-0.4,4.7-0.6c4-0.6,7.9-1.1,11.9-1.8c1.6-0.3,3.2-0.6,4.7-1.3
	c2.2-1,4.3-2.3,6.5-3.3c4.3-2,7.8-4.9,10.8-8.6c2.7-3.4,4.2-7.2,5-11.3c0.3-1.6,1.1-2.1,2.6-2c1.5,0.1,3,0.3,4.4,0.1
	c4.9-0.9,9.9-1.9,14.8-3c2.9-0.6,5.7-1.4,8.5-2.3c2.4-0.7,4.6-1.7,7-2.6c1.8-0.6,3.5-1.1,5.3-1.9c2.8-1.2,5.6-2.5,8.5-3.7
	c1-0.4,2-0.6,3.3-1c-0.5,0.8-0.9,1.4-1.3,1.9c-3.2,3.1-6.3,6.2-9.5,9.2c-3.6,3.5-7.3,7-11,10.5c-2.6,2.4-5,5-7.7,7.3
	c-2.1,1.9-4.3,3.5-6.5,5.3c-2.4,2-4.8,4-7.3,6c-3.7,3-7.5,6-11.2,9.1c-0.8,0.6-2,1.5-1.2,2.7c0.9,1.3,2.1,0.3,2.9-0.2
	c4.1-2.6,8.1-5.1,12.1-7.8c4.2-2.8,8.2-5.8,12.3-8.6c3.2-2.2,6.5-4.3,9.8-6.3c2.2-1.4,4.6-2.6,6.9-3.8c2-1.1,4-2,6-3.1
	c2.5-1.3,5-2.6,7.5-3.9c1.2-0.6,2.4-1.1,3.6-1.6c3.9-1.7,7.7-3.5,11.7-5.1c2.2-0.9,4.4-1.5,6.7-2.2c1.9-0.6,3.9-1.2,5.9-1.5
	c1.2-0.1,3,0,3.5,0.6c0.5,0.8,0.2,2.5-0.4,3.6c-1.4,2.9-2.9,5.8-4.9,8.3c-2.5,3.1-5.2,6-8.1,8.6c-3.8,3.5-7.7,6.9-11.7,10.1
	c-2.9,2.4-6.1,4.5-9.2,6.8c-0.9,0.6-1.6,1.3-0.9,2.5c0.7,1.1,1.8,0.9,2.6,0.3c3.8-2.8,7.6-5.6,11.3-8.5c2.2-1.7,4.2-3.6,6.4-5.2
	c2.3-1.6,4.8-2.7,7-4.5c3.8-3.1,8.1-5.3,12.5-7.5c6.4-3.2,13-6,19.9-7.7c1.3-0.3,2.6-0.5,4-0.9c-0.2,0.8-0.5,1.3-0.9,1.7
	c-2.7,2.6-5.4,5.3-8.1,7.9c-4.4,4.2-8.8,8.4-13.1,12.6c-1,1-2,2-2.8,3.3c-1,1.6-0.1,3.7,1.8,4c1.9,0.1,3.9,0.2,5.6-0.4
	c2.2-0.7,4.3-2,6.3-3.1c2.1-1.3,4-2.8,6.1-4.1c1.2-0.8,3-1.1,3.4-2.9c0-0.1,0.3-0.1,0.5-0.2c4.6-2.9,9.3-5.7,13.8-8.7
	c2.8-1.9,5.4-4.1,8.5-5.6c3.6-1.7,7-3.7,10.6-5.5c1.5-0.8,2.7-0.3,3.6,1.1c1.1,1.9,2.3,3.7,3.6,5.4c0.7,0.8,1.7,1.5,2.7,2.1
	c1.1,0.6,1.1,0.9,0.2,1.8c-4.9,4.6-10.1,9-13.7,14.7c-0.9,1.5-1.8,3.3-0.7,5c1.1,1.7,3.1,1.4,4.7,0.6c3.2-1.6,6.2-3.3,9.3-5
	c0.9-0.5,1.8-1,2.7-1.5c3.2-2.1,6.3-4.2,9.6-6.2c2.8-1.8,5.6-3.6,8.3-5.3c1.6-1,3.3-1.9,5-2.9c0.1,0.2,0.3,0.4,0.5,0.5
	c-0.4,0.7-0.8,1.3-1,2c-1.7,5.1-4.6,9-9.7,11.4c-2.2,1-4.3,2.3-5.3,4.8c-0.8,1.9,0.4,4.2,2.5,3.9c1.3-0.1,2.6-0.6,3.8-1
	c2.2-0.9,4.3-2,6.4-2.9c4.9-2.2,10-4.4,14.9-6.7c2.5-1.2,4.9-2.7,7.4-4c2.4-1.3,4.9-2.6,7.3-3.8c2.1-1.1,4.2-2.2,6.3-3.3
	c0.6-0.3,1.6-0.3,1.4,0.6c-0.7,2.7-1.2,5.5-3.7,7.2c-2.2,1.5-4.4,3-6.5,4.6c-1.2,0.9-2.3,2-3.2,3.1c-1.3,1.6-0.6,3.5,1.4,3.7
	c2.1,0.3,4.1,0.3,6.1-0.8c2.3-1.4,4.7-2.7,7.1-3.9c2.1-1.1,4.3-1.8,6.3-2.8c4.7-2.1,9.3-4.3,14.1-6.4c1.2-0.6,2.4-1.1,3.6-1.5
	c0.6-0.2,1.3-0.2,2.1-0.3c-1.4,2-2.5,3.7-3.8,5.4c-2.3,2.8-4,5.9-4.8,9.5c-0.5,2.2,0.6,4.3,2.6,4.8c1.8,0.4,3.9,1,5.5,0.4
	c2.5-0.9,5-2.3,7-4.1c1.9-1.5,3.2-3.7,4.6-5.8c1.3-1.9,1.8-2.2,4.1-1.6c0.5,0.2,1,0.3,1.4,0.2c3.8-1,7.5-2,11.2-3
	c1.5-0.4,3-1.1,4.5-1.7c0.1,0.2,0.1,0.3,0.3,0.4c-1.6,1.7-3.2,3.4-4.6,5.2c-1.4,1.6-2.6,3.4-3.6,5.2c-0.8,1.5,0.8,4.1,2.4,4.3
	c3.9,0.4,7.6-0.7,11-2.8c1.1-0.7,2.2-1.4,3.4-2c2.6-1.5,5.2-2.9,7.7-4.5c1.4-0.8,2.7-1.7,3.9-2.7c3-2.6,4-2.1,6.6-0.8
	c1.1,0.6,2.4,0.8,3.6,1c2.8,0.5,5.5,1.3,8.4,3c-2.4,1.8-4.5,3.3-6.5,5c-1.2,1-2.3,2.2-3.1,3.6c-0.7,1.3,0.3,2.8,1.7,2.6
	c3.6-0.6,6.9-1.8,9-5.3c1.1-1.7,2.1-3.7,3.6-4.9c1.9-1.5,4.2-2.4,6.4-3.4c4.1-1.9,8.3-3.8,12.5-5.6c2.8-1.2,5.6-2.5,8.4-3.8
	c1.1-0.5,2.1-0.9,3.2-1.4c-0.6,0.9-1.4,1.5-2.1,2.2c-3.9,3.9-7.8,7.8-11.6,11.8c-0.9,0.9-1.7,2.1-2.2,3.3c-0.6,1.6,0.5,2.8,2.2,2.4
	c1.1-0.2,2.2-0.7,3.2-1.2c0.6-0.3,1.1-0.8,1.7-1.2c-0.5-0.4-1-0.8-1.5-1.2c-0.2-0.1-0.3-0.2-0.6-0.4c0.2-0.4,0.3-0.7,0.6-1
	C723.8,683.4,727.1,679.6,730.7,676.1L730.7,676.1z M736.9,687.4c-0.3,0.2-0.2,1.3,0.1,1.7c0.2,0.3,1.2,0.4,1.6,0.1
	c1.6-1,3.2-2.1,4.7-3.2c3.2-2.2,6.3-4.4,9.4-6.7c1.4-1.1,2.9-2.2,4.1-3.5c0.4-0.4,0.7-1.5,0.5-2c-0.2-0.6-1.1-1.1-1.7-1.3
	c-0.6-0.2-1.4,0-2.1,0.2c-3.6,1.4-7.3,2.9-10.9,4.2c-3,1.2-6,2.2-9,3.4c-0.5,0.2-0.8,0.9-1.2,1.3c0.6,0.1,1.3,0.6,1.8,0.4
	c3.8-1.3,7.5-2.6,11.2-3.9c1.3-0.5,2.6-1,3.9-1.5c0.1,0.3,0.3,0.6,0.4,0.8c-3,2.3-5.9,4.6-8.8,6.8
	C739.7,685.3,738.2,686.2,736.9,687.4L736.9,687.4z M296.7,368.1h73.2v-5.7h-73.2V368.1z M650.1,368.1h73.2v-5.7h-73.2V368.1z
	 M308.7,829.3c-3.2,0-7.1-1.9-9.7-3.6c-6.3-4.3-9.3-8.4-10.9-15.2l-0.1-0.6l-6.6,1.1l-0.7,0.1l0.1,0.7c1.6,8.6,5.6,14.7,13.2,19.8
	c2.4,1.6,8.6,5.4,15.1,5.4c4.5,0,8-1.8,10.3-5.3c2.7-3.9,3.1-8.7,1.1-13c-2.2-4.8-5.8-7.2-9.5-9.7l-5.3-3.6c-2.3-1.5-3.5-3-3.8-4.4
	c-0.2-0.9,0-1.9,0.7-2.8c0.9-1.3,2.2-1.9,4.1-1.9c3.1,0,7,1.9,9.3,3.5c4.3,2.9,6.1,5.8,8.5,11.1l0.3,0.6l6.9-2.7l-0.2-0.6
	c-2.1-6.2-6.2-11.4-11.8-15.2c-2.2-1.5-4.5-2.6-7-3.4c-1.9-0.5-3.8-0.8-5.6-0.8c-4.7,0-8.6,1.9-10.9,5.3c-4.8,7-0.5,13.7,4.6,17.3
	l5.3,3.7c5.1,3.6,6.7,4.8,7.7,7.1c0.8,1.9,0.7,3.6-0.3,5C312.4,828.5,310.8,829.3,308.7,829.3L308.7,829.3z M327,850.5l6.7,3.5
	l20.7-39.2l-6.7-3.5L327,850.5L327,850.5z M352.7,863.8l7,2.7l11.4-29.4l11.8,38.4l6.7,2.6l15.8-40.7l0.3-0.6l-7.2-2.8l-11.5,29.4
	l-11.6-38.1l-0.1-0.3l-6.6-2.6l-15.8,40.7L352.7,863.8L352.7,863.8z M436,851.4c1.3,0,2.6,0.1,3.9,0.4c5.2,1.1,9.4,4,13.7,9.4
	l0.4,0.5l6.6-3.6l-0.4-0.6c-4.7-7-11.3-11.6-18.9-13.2c-1.8-0.4-3.6-0.6-5.4-0.6c-11.2,0-20.3,7.4-22.6,18.3
	c-2.8,13.3,5.4,25.1,19.5,28c2.3,0.5,4.5,0.7,6.6,0.7c5.8,0,11.1-1.8,15.6-5.3l0.5-0.4l-3.8-6.4l-0.6,0.4c-6,3.9-10.2,4.7-16.2,3.5
	c-8.4-1.8-16.4-8.5-14.2-18.9C422.2,856.2,428.2,851.4,436,851.4L436,851.4z M508.9,860.6l0.7,0l0.5-7.7l-36.8-2.2l-2.6,43.7l0,0.7
	l37.9,2.3l0.5-7.6l-30.2-1.8l0.7-11.6l14.7,0.9l0.4-7.6l-14.6-0.9l0.6-9.9L508.9,860.6L508.9,860.6z M557.4,850.8l-7.1,0.9l-0.4,0
	l5.3,41.7l0,0.4l7.2-0.9l0.4,0l-5.3-41.7L557.4,850.8L557.4,850.8z M590,854.2c1.1-1.9,4.6-3.7,9.7-5.1c3.3-0.9,6.2-1.4,8.4-1.4
	c2.8,0,4.5,0.8,4.9,2.3c0.2,0.7,0.1,1.5-0.4,2.2c-1.5,2.7-6.7,4.9-9.6,5.6c-0.6,0.2-4,1.1-7.4,1.1c-2.4,0-5.3-0.5-5.9-2.6
	C589.5,855.6,589.6,854.9,590,854.2L590,854.2z M620.8,867.6c1.2,4.3-8.1,8-13.2,9.4c-0.9,0.2-5.4,1.4-9.5,1.4
	c-3.7,0-5.9-0.9-6.4-2.7c-0.1-0.5,0.1-1.6,0.3-2.1c1.5-4.1,8.6-7,12.5-8.1c2.2-0.6,4.1-1,5.9-1.1c0.4,0,1.1-0.1,1.9-0.1
	C614.1,864.3,620,864.5,620.8,867.6L620.8,867.6z M584.2,877.8c1.4,5.4,6.3,8.3,14.1,8.3c4.8,0,9.5-1.1,11.9-1.7
	c3.1-0.8,8.9-2.7,13.3-6c4.8-3.6,6.5-7.8,5.3-12.6c-0.6-2.4-2.2-4.6-4.5-6.2c-1.8-1.3-3.8-1.8-6.1-2.1c2.6-3.2,3.3-6.3,2.3-9.8
	c-1.4-5.2-5.5-7.8-12.2-7.8c-2.9,0-6.3,0.5-9.9,1.5c-12.6,3.4-18.3,9.1-16.3,16.4c1,3.5,3.1,5.9,7.1,7.6c-2,1.9-4.1,4.2-4.8,7.4
	C583.7,874.6,583.7,876.2,584.2,877.8L584.2,877.8z M657.4,841.6c-1.7,0.8-3.6,1.4-5.4,1.8c-0.6,0.1-1.9,0.3-3.4,0.3
	c-1.9,0-4.4-0.3-5.2-2c-1.3-2.7,2.9-6.9,5.3-8.8c1.4-1.1,3.1-2.1,5-3c3.4-1.5,6.5-2.3,9.5-2.3c3.1,0,5.9,0.9,8.3,2.6
	C667.9,834.5,663.7,838.8,657.4,841.6L657.4,841.6z M665,856.3c-3.2,1.5-6.5,2.2-10.1,2.2c-1.7,0-3.6-0.2-5.8-0.5l-0.5-0.1l-0.6,7.3
	l0,0.4l0.4,0.1c2.8,0.5,4.7,0.7,6.6,0.7c1.6,0,3.2-0.1,5.1-0.5c3.1-0.5,5.9-1.4,8.5-2.6c5.9-2.7,11-7.5,13.8-13
	c3.1-6.1,3.3-12.7,0.5-18.6c-3.6-7.7-10.4-12-19.4-12c-4.3,0-8.8,1-13,3c-3.1,1.4-5.6,3-7.8,4.9c-4.7,4-9.1,10.9-6.2,17.4
	c1.9,4.2,6.3,6.6,12.1,6.6c1.5,0,3.1-0.2,4.7-0.5c2.4-0.5,4.9-1.3,7.4-2.5c7.4-3.4,10.5-6.1,15.4-12
	C678.7,845.1,672.6,852.8,665,856.3L665,856.3z M722.3,790.1l-3.9-5.7l-0.3-0.4l-32.2,22l12.4,18.1l0.1,0.2l6.4,0.9l0.2-0.3
	c1.7-2.8,5.4-8.6,10.9-12.4c1.4-1,6.4-4.1,10.5-4.1c1.9,0,3.3,0.7,4.2,2c2.3,3.4-2.1,8.6-3,9.6c-1.4,1.6-3.1,3-4.8,4.2
	c-5.8,3.9-10.9,5.1-17,6.2l-0.4,0.1l0.7,7l0.1,0.4l0.4,0c6.7-0.5,12.7-2,20.5-7.3c2.7-1.9,5.1-3.9,6.9-6.1
	c4.1-4.8,7.3-12.4,3.2-18.5c-2.4-3.5-5.9-5.3-10.3-5.3c-4.5,0-10.2,2-15.1,5.3c-4.5,3.1-7,5.7-9.8,9.6l-5.4-8L722.3,790.1
	L722.3,790.1z M449.4,351.2v-7.1h-35v42.5h7.1v-17.8h17v-7.2h-17v-10.5L449.4,351.2L449.4,351.2z M484.4,362.4h-18v-11.2h18
	c3,0,6.5,0.9,6.5,5.4C490.9,361.6,486.8,362.4,484.4,362.4z M498,356.9c0-7.7-5.3-12.8-13.6-12.8h-25.1v42.5h7.1v-17.2H481l8.4,17.2
	h8l-8.7-17.6C494.6,367.4,497.9,363.1,498,356.9L498,356.9z M528.7,350.1c8.9,0,15.8,6.6,15.8,15c0,8.6-6.9,15.4-15.8,15.4
	c-8.8,0-15.9-6.7-15.9-15C512.9,356.6,519.6,350.1,528.7,350.1L528.7,350.1z M505.9,364.8c0,12.8,10,22.9,22.8,22.9
	c12.6,0,22.9-10,22.9-22.2c0-12.6-10-22.5-22.8-22.5C516.2,342.9,505.9,352.7,505.9,364.8L505.9,364.8z M605.7,386.7v-42.5h-6.8
	l-14.5,25.3l-14-25.3h-6.8v42.5h7v-27.5l13.3,23.9l0.5,0.8l14.2-24.7v27.6L605.7,386.7L605.7,386.7z M94.2,539.2
	c0-28.2-19.1-33.4-44.3-38.8c-24.8-5.3-34.7-8.3-34.7-23.6c0-15.5,13.1-27.4,34.8-27.4c15.4,0,31.6,10.1,34.4,28.6h3.1l-0.8-29.5
	c-8.6-4.7-25-7-33.4-7C20.9,441.4,0,459.7,0,480.7c0,25.8,18.7,32.4,53.4,39.6c13.9,2.9,25.6,7,25.6,24c0,22-18.8,30.4-33.4,30.4
	c-21.1,0-35.5-14.6-40.4-35H2l1.2,32.9c11.8,7.2,24.2,9.9,36.7,9.9C77.3,582.6,94.2,562.7,94.2,539.2L94.2,539.2z M393.4,568.7
	c-0.1,8.8-7.2,8.8-10.3,8.8v3h40.2v-3c-3.2,0-10.2,0-10.2-8.8V451.4h10.8c24.6,0,35.4,9.8,35.4,27.8c0,16.2-7.2,30.3-41.3,30.3
	l50.3,71.1h25.8v-3c-5.7,0-12.2-7.2-18.3-15.2l-36.3-49.2c21.9-1.1,38.1-15.7,38.1-37.3c0-17.6-15.3-32.2-44.3-32.2H383v3
	c4.7,0,10.3,1,10.3,8.9L393.4,568.7L393.4,568.7z M222.3,581.8l35-120.6c2.6-9.3,8.7-14.6,15.1-14.6v-3h-37.1v3
	c13.4,0,16.6,5.3,11.7,21.8c-1.9,6.5-27,93-27,93h-0.4c0,0-26.7-88.6-28.8-95.8c-2.8-9.5-7.4-19,9-19v-3h-47.1v3
	c7.6,0,13.1,2.3,15.7,9.6c1.6,4.4,11.6,33.4,11.6,37.2c0,3.8-12.3,44.5-18.6,66.2h-0.4c0,0-26.9-86.5-29.9-96
	c-1.5-4.7-2.8-7.6-2.8-10.7c0-4.2,2.8-6.2,9.6-6.2v-3H97.5v3c9.1,0,11.4,5.9,13.8,13.6l38.9,121.7h13.5l21.1-77.8h0.4l23,77.8
	L222.3,581.8L222.3,581.8z M306.6,461.2h0.4l19.9,58.3h-40.6L306.6,461.2z M283,577.5c-9.7,0-12.6-3.7-12.6-6.8c0-3,1-6.9,3.1-12.6
	l10.2-30.7h45.9l8.8,24.8c4.2,11.6,5.5,15.2,5.5,19.1c0,4-1.8,6.3-10.2,6.3v3h41.2v-3c-9.1,0-9.6-2.9-14.9-17.1l-42.4-116.8h-24.2v3
	c3.1,0,6.8,0.9,6.8,6.2c0,1.8-0.6,4.5-1.6,7.3c-0.6,1.8-35.8,103.5-35.8,103.5c-4,11.6-7.2,13.9-15.7,13.9v3H283L283,577.5
	L283,577.5z M550.9,453.1c27.5,0,51.6,27.8,51.6,64.9c0,33.7-14.3,54-40.5,54c-28.1,0-53.3-37-53.3-67
	C508.6,462.6,534.4,453.1,550.9,453.1z M555.6,582.6c39.9,0,65.4-35.8,65.4-72.3c0-30.9-17.7-68.9-62.4-68.9c-31.2,0-66,29.4-66,71
	C492.5,550.9,515.1,582.6,555.6,582.6L555.6,582.6z M966,580.5v-3c-5.9,0-9.2-3.1-13.4-8.3l-56.2-64c0,0,39.2-42.8,43.6-47.4
	c6-6.5,11.1-11.3,19.4-11.3v-3h-39v3c16.8,0,11.6,8.1,8.7,11.3c-2.9,3.2-49.7,54.2-49.7,54.2l59.6,68.5L966,580.5L966,580.5z
	 M1017.8,446.5v-3h-40.3v3c3.3,0,10.3,0,10.3,8.9v113.2c0,8.8-7.2,8.8-10.3,8.8v3h40.3v-3c-3.2,0-10.3,0-10.3-8.8V455.4
	C1007.5,446.5,1014.5,446.5,1017.8,446.5L1017.8,446.5z M877.1,568.6V455.4c0-8.9,7-8.9,10.2-8.9v-3H847v3c3.2,0,10.3,0,10.3,8.9
	v113.2c0,8.8-7.2,8.8-10.3,8.8v3h40.3v-3C884.1,577.5,877.1,577.5,877.1,568.6z M832.4,539.2c0-28.2-19.1-33.4-44.3-38.8
	c-24.8-5.3-34.7-8.3-34.7-23.6c0-15.5,13.2-27.4,34.9-27.4c15.4,0,31.6,10.1,34.3,28.6h3.1l-0.8-29.5c-8.6-4.7-25-7-33.4-7
	c-32.5,0-53.4,18.3-53.4,39.2c0,25.8,18.7,32.4,53.4,39.6c13.9,2.9,25.6,7,25.6,24c0,22-18.8,30.4-33.5,30.4
	c-21,0-35.5-14.6-40.4-35h-3.1l1.2,32.9c11.7,7.2,24.2,9.9,36.7,9.9C815.6,582.6,832.4,562.7,832.4,539.2L832.4,539.2z M703.8,446.5
	c17.4,0,12.8,11.4,10.6,18.2c-4.8,14.9-31.7,96.5-31.7,96.5h-0.4L649,461.8c-0.8-2.3-2.2-6.7-2.2-9.1c0-4,2.6-6.1,10.3-6.1v-3h-41.2
	v3c9,0,9.9,4.9,11.7,9.5l44.1,125.7h12.6c0,0,37.5-114.3,40.6-124c2.9-9.2,7.4-11.3,14.7-11.3v-3h-36V446.5L703.8,446.5z"/>
</svg>
