<?xml version="1.0" encoding="utf-8"?>
<!-- Generator: Adobe Illustrator 22.0.1, SVG Export Plug-In . SVG Version: 6.00 Build 0)  -->
<svg version="1.0" xmlns="http://www.w3.org/2000/svg" xmlns:xlink="http://www.w3.org/1999/xlink" x="0px" y="0px"
	 viewBox="0 0 300 300" enable-background="new 0 0 300 300" xml:space="preserve">
<g id="Layer_1">
	<circle fill="#FFFFFF" cx="150" cy="150.1" r="137.5"/>
	<circle opacity="0.8" fill="#48605C" cx="150" cy="150.1" r="137.5"/>
	<g>
		<path fill="#FFFFFF" d="M237.4,198c-4.8-0.2-9.1-2.1-13.5-3.7c-6.6-2.3-13.2-1.9-19.6,1.1c-7,3.2-14,3.2-21.1,0.1
			c-7.6-3.4-15.2-3.5-22.9,0.1c-6.8,3.1-13.8,3.2-20.6,0c-7.7-3.5-15.3-3.5-22.9-0.1c-7.1,3.1-14,3.2-21.1,0
			c-7.2-3.3-14.5-3.4-21.8-0.2c-3.2,1.4-6.6,2.4-10.2,2.6c-1,0-1.2-0.3-1.2-1.2c0-4.5,0-9.1,0-13.6c0-0.7,0.1-1.1,1-1.2
			c4.1-0.1,7.9-1.5,11.6-3c6.3-2.5,12.6-2.6,18.9,0c4.8,2,9.6,3.6,14.8,2.9c2.4-0.3,4.8-0.9,7-1.9c7.9-3.7,15.7-3.9,23.7-0.3
			c7,3.1,13.9,3.1,20.9-0.1c7.6-3.5,15.3-3.3,22.9,0.2c6.7,3,13.4,3,20.1,0.1c6.5-2.9,13.2-3.6,20.1-1.4c3.1,1,6,2.8,9.3,3.2
			c1.5,0.2,2.9,0.3,4.4,0.5C237.4,187.3,237.4,192.6,237.4,198z"/>
		<path fill="#FFFFFF" d="M237.4,225.9c-4.8-0.2-9.1-2.1-13.5-3.7c-6.6-2.3-13.2-1.9-19.6,1.1c-7,3.2-14,3.2-21.1,0.1
			c-7.6-3.4-15.2-3.5-22.9,0.1c-6.8,3.1-13.8,3.2-20.6,0c-7.7-3.5-15.3-3.5-22.9-0.1c-7.1,3.1-14,3.2-21.1,0
			c-7.2-3.3-14.5-3.4-21.8-0.2c-3.2,1.4-6.6,2.4-10.2,2.6c-1,0-1.2-0.3-1.2-1.2c0-4.5,0-9.1,0-13.6c0-0.7,0.1-1.1,1-1.2
			c4.1-0.1,7.9-1.5,11.6-3c6.3-2.5,12.6-2.6,18.9,0c4.8,2,9.6,3.6,14.8,2.9c2.4-0.3,4.8-0.9,7-1.9c7.9-3.7,15.7-3.9,23.7-0.3
			c7,3.1,13.9,3.1,20.9-0.1c7.6-3.5,15.3-3.3,22.9,0.2c6.7,3,13.4,3,20.1,0.1c6.5-2.9,13.2-3.6,20.1-1.4c3.1,1,6,2.8,9.3,3.2
			c1.5,0.2,2.9,0.3,4.4,0.5C237.4,215.2,237.4,220.6,237.4,225.9z"/>
		<path fill="#FFFFFF" d="M91.1,164.1c11-6,21.6-11.8,32.3-17.6c9.1-5,18.2-10,27.3-14.9c1.1-0.6,1.4-1,0.7-2.2
			c-5.4-9.5-10.7-19-16.1-28.4c-3.3-5.8,1-14.6,7.8-15.8c20.1-3.6,40.2-7.1,60.4-10.7c7.1-1.3,13,3,13.9,10.2
			c0.7,5.6-3,11.2-8.6,12.3c-8.4,1.7-16.8,3.2-25.3,4.8c-5.4,1-10.8,2-16.4,3.1c11.5,20.6,22.9,41.1,34.4,61.7
			c-4.8,1.8-9.5,1.9-14.2,0.5c-2.6-0.8-5.1-2-7.7-2.8c-6.6-2.1-13.1-1.4-19.4,1.5c-6.6,3-13.3,3-20,0.1c-8.3-3.7-16.4-3.5-24.7,0.3
			c-5.7,2.6-11.7,2.5-17.6,0.3C95.8,165.6,93.7,164.7,91.1,164.1z"/>
		<path fill="#FFFFFF" d="M211.9,152.3c-12.2-0.1-20.8-8.7-20.7-20.7c0.1-11.6,9.3-20.6,21-20.4c11.6,0.1,20.5,9.2,20.5,20.6
			C232.6,143.4,223.5,152.4,211.9,152.3z"/>
	</g>
</g>
<g id="Layer_2">
	<circle fill="#48605C" cx="150" cy="150.1" r="137.5"/>
	<g>
		<path fill="#FFFFFF" d="M247.3,101.6v17.6c1.1,0.2,2.3,0.4,3.4,0.4c0-5.9,0-11.7,0-17.6C249.5,101.9,248.4,101.7,247.3,101.6z"/>
		<path fill="#FFFFFF" d="M232.3,97c-6.3-1.2-12.5-0.2-18.6,2.4c-7.3,3.2-14.7,3.3-22-0.1c-8.3-3.8-16.7-4-25.1-0.2
			c-7.7,3.5-15.3,3.5-22.9,0.1c-8.7-3.9-17.3-3.7-26,0.3c-2.4,1.1-5,1.8-7.7,2.1c-5.8,0.7-11-1-16.3-3.2c-6.9-2.8-13.8-2.8-20.7,0
			c-4.1,1.7-8.2,3.3-12.7,3.3c-1,0-1.1,0.5-1.1,1.3c0,5,0,10,0,15c0,1,0.2,1.3,1.3,1.3c3.9-0.2,7.6-1.2,11.1-2.8
			c8-3.5,16-3.4,23.9,0.2c7.7,3.5,15.3,3.5,23.1,0.1c8.3-3.7,16.7-3.8,25.1,0.1c7.5,3.4,15.1,3.4,22.6,0c8.4-3.9,16.7-3.8,25.1-0.1
			c7.7,3.4,15.4,3.5,23.1-0.1c5.8-2.7,11.8-3.5,17.8-2.2V97z"/>
	</g>
	<g>
		<path fill="#FFFFFF" d="M224,191.7c-12.1,2.1-23-1.2-32.9-7.9c-4.9-3.3-9.6-3.5-15.1-1.8c-7.6,2.3-15.4,3.7-23.1,5.9
			c-9.1,2.7-18.3,3-27.7,1.9c-9.7-1.1-19.4-2-29.1-3c-3.2-0.3-5.6-1.7-7.4-4.2c-6.5-9.1-13.1-18.3-19.5-27.4
			c-3-4.3-2.2-9.7,1.8-12.7c4-3,9.3-2.3,12.6,1.9c5.8,7.2,11.4,14.6,17.2,21.8c0.8,1,2.3,1.8,3.6,1.9c7.8,0.5,15.5,0.9,23.3,1.2
			c1.4,0.1,2.9-0.2,4.3-0.6c12.5-3.8,24.9-7.7,37.3-11.5c7.5-2.2,14.7-1.4,21.1,3.5c5.3,4,10.6,8,16.1,11.8c1.3,0.9,3.1,1.6,4.7,1.7
			c9,0.7,18.1,1.2,27.1,1.8c4.4,0.3,7.4,2.6,8.1,6.3c0.9,5-2.4,9.2-7.8,9.4c-2.5,0.1-5,0.1-7.5,0.1
			C228.9,191.7,226.5,191.7,224,191.7z"/>
		<path fill="#FFFFFF" d="M133.2,195.7c-4.2,3.3-7.9,6.1-11.6,9c-12.9,10-9.1,8.5-25.3,8.6c-6.4,0-12.8,0-19.2,0
			c-5.8,0-9.6-3.6-9.6-8.8c0-5.1,3.8-8.7,9.4-8.9c8.4-0.3,16.7-0.7,25.1-1c0.3,0,0.6,0.1,0.8,0c4.9-3.1,10-0.5,15-0.4
			C122.7,194.3,127.7,195.1,133.2,195.7z"/>
		<path fill="#FFFFFF" d="M191.4,146.1c-0.1-9.3,7.4-16.9,16.7-16.9c9.2,0,16.7,7.4,16.7,16.5c0.1,9.3-7.4,17-16.5,17.1
			C199.1,162.9,191.5,155.4,191.4,146.1z"/>
		<path fill="#FFFFFF" d="M237.2,91.7c1.9,0,3.4,0,5.2,0c0,1,0.1,2,0.1,2.9c0,15.3-0.3,30.6,0.1,45.9c0.2,9.1-5,16.7-14.7,14.9
			c0.6-2,1.1-3.9,1.7-5.8c6.3-0.8,7.6-2.5,7.6-9.9c0-14.9,0-29.8,0-44.7C237.2,94.1,237.2,93.1,237.2,91.7z"/>
	</g>
</g>
<g id="Layer_3" display="none">
	<circle display="inline" fill="#FFFFFF" cx="150" cy="149.9" r="137.5"/>
	<circle display="inline" opacity="0.6" fill="#48605C" cx="150" cy="149.9" r="137.5"/>
	<g display="inline">
		<g>
			<g>
				<path fill="#FFFFFF" d="M167.8,74.1c-14.6,0-28,7.8-35.2,20.2c-22.7,0.1-41.1,18.6-41.1,41.3c0,3.8,3.1,6.9,6.9,6.9h68.9
					c3.8,0,6.9-3.1,6.9-6.9c0-17.6-11.1-32.7-26.6-38.6c5-5.7,12.4-9.1,20.3-9.1c14.9,0,27,12.1,27,27v103.9c0,3.8,3.1,6.9,6.9,6.9
					s6.9-3.1,6.9-6.9V114.9C208.6,92.5,190.3,74.1,167.8,74.1z"/>
			</g>
		</g>
		<g>
			<g>
				<path fill="#FFFFFF" d="M105.2,193.1c-3.8,0-6.9,3.1-6.9,6.9v9.2c0,3.8,3.1,6.9,6.9,6.9s6.9-3.1,6.9-6.9V200
					C112.1,196.2,109,193.1,105.2,193.1z"/>
			</g>
		</g>
		<g>
			<g>
				<path fill="#FFFFFF" d="M132.8,193.1c-3.8,0-6.9,3.1-6.9,6.9v9.2c0,3.8,3.1,6.9,6.9,6.9s6.9-3.1,6.9-6.9V200
					C139.7,196.2,136.6,193.1,132.8,193.1z"/>
			</g>
		</g>
		<g>
			<g>
				<path fill="#FFFFFF" d="M160.3,193.1c-3.8,0-6.9,3.1-6.9,6.9v9.2c0,3.8,3.1,6.9,6.9,6.9c3.8,0,6.9-3.1,6.9-6.9V200
					C167.2,196.2,164.1,193.1,160.3,193.1z"/>
			</g>
		</g>
		<g>
			<g>
				<path fill="#FFFFFF" d="M105.2,156.4c-3.8,0-6.9,3.1-6.9,6.9v9.2c0,3.8,3.1,6.9,6.9,6.9s6.9-3.1,6.9-6.9v-9.2
					C112.1,159.5,109,156.4,105.2,156.4z"/>
			</g>
		</g>
		<g>
			<g>
				<path fill="#FFFFFF" d="M132.8,156.4c-3.8,0-6.9,3.1-6.9,6.9v9.2c0,3.8,3.1,6.9,6.9,6.9s6.9-3.1,6.9-6.9v-9.2
					C139.7,159.5,136.6,156.4,132.8,156.4z"/>
			</g>
		</g>
		<g>
			<g>
				<path fill="#FFFFFF" d="M160.3,156.4c-3.8,0-6.9,3.1-6.9,6.9v9.2c0,3.8,3.1,6.9,6.9,6.9c3.8,0,6.9-3.1,6.9-6.9v-9.2
					C167.2,159.5,164.1,156.4,160.3,156.4z"/>
			</g>
		</g>
	</g>
</g>
</svg>
