<?xml version="1.0" encoding="utf-8"?>
<!-- Generator: Adobe Illustrator 22.0.1, SVG Export Plug-In . SVG Version: 6.00 Build 0)  -->
<svg version="1.0" id="Layer_1" xmlns="http://www.w3.org/2000/svg" xmlns:xlink="http://www.w3.org/1999/xlink" x="0px" y="0px"
	 viewBox="0 0 300 300" enable-background="new 0 0 300 300" xml:space="preserve">
<g id="_x32__x2B_1">
	<g id="Layer_1_1_">
		<circle fill="#48605C" cx="150" cy="150" r="137.5"/>
	</g>
	<path fill="#FFFFFF" d="M148.8,258.4c-3.4,0.7-6.2-1.4-9.1-3c-3.4-2-6.7-4.3-9.9-6.6c-4.1-2.9-8.5-3.7-13.4-3.2
		c-4.7,0.4-9.3,1.1-14.1,0.5c-5.3-0.6-9.4-3.2-12.5-7.5c-2.4-3.4-4.2-7.2-5.8-11.1c-2.3-5.6-6.2-9.6-11.8-11.8
		c-2.4-1-4.8-2.1-7.1-3.3c-9.1-4.7-12.5-10.9-11.7-21.1c0.2-2.8,0.5-5.6,0.8-8.4c0.5-4.8-0.6-9.1-3.4-13c-2.2-3.1-4.3-6.2-6.3-9.3
		c-4.2-6.8-4.4-13.8-0.2-20.7c1.9-3.1,4-6.1,6.1-9.1c3.2-4.4,4.3-9.1,3.7-14.5c-0.5-3.6-0.7-7.3-0.7-10.9c0-7,2.9-12.5,9-16.1
		c2.8-1.6,5.7-3.2,8.7-4.4c6.5-2.5,11-6.9,13.5-13.5c0.8-2,1.8-4,2.8-5.9c4.7-9.1,10.9-12.5,21.2-11.7c2.8,0.2,5.6,0.5,8.4,0.8
		c4.7,0.5,8.9-0.6,12.7-3.3c3-2.1,6-4.2,9.1-6.2c7.3-4.7,14.7-4.6,22.1,0.1c3,1.9,5.9,3.9,8.8,6c4.1,2.9,8.6,3.8,13.6,3.3
		c4.6-0.4,9.1-1.1,13.7-0.6c5.7,0.7,10,3.4,13.1,8.1c2.3,3.4,3.9,7.1,5.5,10.9c2.3,5.4,6.1,9.1,11.5,11.4c2.4,1,4.7,2.2,7.1,3.3
		c9,4.2,13.3,11.4,11.8,21c-1.7,10.8,0.6,19.8,7.3,28.6c7.2,9.3,6.7,16.2,0,26.2c-1.6,2.4-3.3,4.8-5,7.2c-2.7,3.9-3.4,8.2-3,12.8
		c0.4,4.7,1.1,9.3,0.6,14.1c-0.6,5.6-3.3,9.8-7.9,12.9c-3.3,2.2-6.9,3.9-10.6,5.4c-5.7,2.3-9.7,6.3-12,12c-1.1,2.6-2.4,5.1-3.6,7.6
		c-4.1,8.1-10.8,11.6-19.7,11.1c-2.9-0.2-5.8-0.4-8.7-0.7c-5.1-0.6-9.7,0.4-13.9,3.4c-3.1,2.3-6.3,4.4-9.6,6.4
		C156.6,257.6,152.9,258.7,148.8,258.4z"/>
	<path fill="#FFFFFF" d="M188.7,242.2c-9.4-2.9-18.8,1.2-27.9,8.1c-8.1,6.2-13.4,5.8-21.8,0.2c-2.3-1.5-4.5-3-6.7-4.6
		c-5-3.6-10.6-4.8-16.6-4c-3.9,0.5-7.9,0.7-11.9,0.5c-4.8-0.2-8.3-2.3-11-6.2c-2.1-3-3.6-6.4-5-9.7c-2.7-6.8-7.4-11.5-14.1-14.3
		c-2.8-1.1-5.5-2.6-8.2-4c-5.5-2.9-8.3-7.5-8.2-13.7c0.1-3.4,0.2-6.9,0.6-10.3c0.8-6.2-0.5-11.8-4.2-16.9c-2.2-3.1-4.3-6.2-6.3-9.4
		c-3.2-5.2-3.2-10.5-0.1-15.7c2.2-3.6,4.5-7,6.9-10.4c3.2-4.6,4.2-9.7,3.7-15.2c-0.4-4.5-1-8.9-0.6-13.4c0.4-4.4,2.5-7.6,6.1-10.1
		c3.3-2.3,6.9-3.9,10.6-5.4c6.3-2.7,10.7-7.1,13.4-13.4c1.1-2.6,2.4-5.1,3.6-7.6c3.5-7.3,9.5-9.9,17.2-9.1c3,0.3,6,0.5,9.1,0.7
		c5.1,0.4,9.8-0.6,14-3.6c2.8-2,5.7-3.9,8.5-5.8c6.7-4.7,13.4-4.6,20.1,0.1c2.6,1.8,5.2,3.5,7.7,5.3c4.8,3.5,10.2,4.5,16,3.9
		c4.3-0.4,8.7-1,13.1-0.5c4.1,0.5,7.3,2.3,9.7,5.7c2.5,3.5,4.2,7.5,5.9,11.4c2.6,6,6.8,10.2,12.7,12.7c3.4,1.5,6.8,3.2,10.1,5.1
		c4.7,2.7,7.2,6.9,7.1,12.4c-0.1,3.7-0.2,7.3-0.6,10.9c-0.6,6.1,0.4,11.6,4.1,16.6c2.5,3.5,5.1,6.9,7,10.7c2.3,4.5,2.3,9,0.1,13.5
		c-1.8,3.7-4.3,6.9-6.7,10.2c-3.9,5.3-5.3,11.2-4.4,17.7c0.5,3.8,0.7,7.7,0.5,11.6c-0.2,4.6-2.3,8.1-6.1,10.7
		c-3.6,2.5-7.5,4.1-11.4,5.8c-5.6,2.5-9.7,6.5-12.1,12.1c-0.9,2.1-1.9,4.2-2.9,6.2C205.2,240.7,201.4,242.9,188.7,242.2z"/>
	<path fill="#48605C" d="M61.9,149.6c0-48.5,39.5-87.6,88.5-87.6c48.3,0,87.4,39.7,87.4,88.5c-0.1,48.2-39.6,87.5-88.1,87.4
		C101.1,237.9,61.9,198.5,61.9,149.6z"/>
	<path fill="#FFFFFF" d="M149.9,65.3c46.7,0,84.7,38.1,84.7,84.8s-38.2,84.7-84.9,84.6c-46.7-0.1-84.6-38.2-84.5-85
		C65.2,103.2,103.3,65.2,149.9,65.3z"/>
	<path fill="#FFFFFF" d="M149.9,68.5c44.8,0,81.5,36.5,81.5,81.3c0,45-36.4,81.7-81.4,81.8c-45,0-81.6-36.5-81.7-81.4
		C68.4,105,104.9,68.5,149.9,68.5z"/>
	<path fill="#48605C" d="M69.7,149.7c0.1-44.2,36.3-80,80.8-79.9c43.8,0.1,79.7,36.4,79.6,80.5c-0.1,44-36.3,80-80.5,79.9
		C105.6,230.1,69.6,193.9,69.7,149.7z"/>
	<g>
		<path fill="#FFFFFF" d="M93.5,171.3h5.4v6.8c-2,0.9-3.9,1.3-5.9,1.3c-2.6,0-4.8-0.8-6.3-2.3c-1.6-1.5-2.4-3.4-2.4-5.7
			c0-2.4,0.8-4.4,2.5-6c1.6-1.6,3.7-2.4,6.2-2.4c0.9,0,1.8,0.1,2.6,0.3c0.8,0.2,1.8,0.6,3.1,1.1v2.3c-1.9-1.1-3.8-1.7-5.7-1.7
			c-1.7,0-3.2,0.6-4.4,1.8c-1.2,1.2-1.8,2.6-1.8,4.4c0,1.8,0.6,3.3,1.8,4.4s2.7,1.7,4.6,1.7c0.9,0,2-0.2,3.3-0.6l0.2-0.1v-3.3h-3.1
			L93.5,171.3L93.5,171.3z"/>
		<path fill="#FFFFFF" d="M113.4,163.2h2.3v9.1c0,1.2-0.1,2.2-0.3,2.8s-0.4,1.1-0.7,1.6c-0.3,0.4-0.6,0.8-1,1.1
			c-1.3,1.1-2.9,1.6-5,1.6s-3.8-0.5-5-1.6c-0.4-0.3-0.7-0.7-1-1.1s-0.5-0.9-0.7-1.5s-0.3-1.5-0.3-2.8v-9h2.3v9.1
			c0,1.5,0.2,2.5,0.5,3.1s0.9,1.1,1.6,1.4c0.7,0.4,1.5,0.5,2.5,0.5c1.4,0,2.5-0.4,3.3-1.1c0.4-0.4,0.8-0.8,1-1.3s0.3-1.4,0.3-2.7
			v-9.2H113.4z"/>
		<path fill="#FFFFFF" d="M123.3,163.1h1.6l7.2,16.1h-2.3l-2.1-4.7h-6.8l-2,4.7h-2.4L123.3,163.1z M126.7,172.4l-2.6-5.8l-2.4,5.8
			H126.7z"/>
		<path fill="#FFFFFF" d="M133.9,179.2v-16h4c1.6,0,2.9,0.4,3.8,1.2c0.9,0.8,1.4,1.9,1.4,3.2c0,0.9-0.2,1.7-0.7,2.4s-1.1,1.2-2,1.5
			c0.5,0.3,1,0.8,1.5,1.4c0.5,0.6,1.2,1.6,2.1,3c0.6,0.9,1,1.6,1.3,2l0.8,1.1h-2.7l-0.7-1.1c0,0-0.1-0.1-0.1-0.2l-0.4-0.6l-0.7-1.2
			l-0.8-1.2c-0.5-0.7-0.9-1.2-1.3-1.6s-0.7-0.7-1.1-0.8c-0.3-0.2-0.8-0.3-1.6-0.3h-0.6v7h-2.2V179.2z M136.9,165.2h-0.7v5h0.9
			c1.2,0,2-0.1,2.4-0.3s0.8-0.5,1-0.9s0.4-0.9,0.4-1.4s-0.1-1-0.4-1.4c-0.3-0.4-0.6-0.7-1.1-0.9C138.8,165.3,138,165.2,136.9,165.2z
			"/>
		<path fill="#FFFFFF" d="M153.1,163.1h1.6l7.2,16.1h-2.3l-2.1-4.7h-6.8l-2,4.7h-2.4L153.1,163.1z M156.5,172.4l-2.6-5.8l-2.4,5.8
			H156.5z"/>
		<path fill="#FFFFFF" d="M176.3,163.2h2.2v16h-2l-10.7-12.3v12.3h-2.1v-16h1.9l10.8,12.4L176.3,163.2L176.3,163.2z"/>
		<path fill="#FFFFFF" d="M180.5,163.2h13.3v2h-5.6v14H186v-14h-5.5V163.2z"/>
		<path fill="#FFFFFF" d="M196,163.2h9.1v2h-6.8v4.9h6.5v2h-6.5v5h7v2H196V163.2z"/>
		<path fill="#FFFFFF" d="M207.8,163.2h9.1v2H210v4.9h6.5v2H210v5h7v2h-9.3v-15.9H207.8z"/>
	</g>
	<g>
		<path fill="#FFFFFF" d="M124.6,140v7.9H99.1v-1.1c2.3-2.9,5-6.5,8-10.8c3-4.4,4.9-7.5,5.7-9.3c0.8-1.8,1.2-3.6,1.2-5.4
			c0-1.5-0.5-2.8-1.5-3.9s-2.2-1.6-3.6-1.6c-2.8,0-5.9,1.6-9.3,4.8v-8.1c3.8-2.4,7.4-3.7,10.8-3.7c3.8,0,6.8,1,9,2.9s3.3,4.6,3.3,8
			c0,4.7-3.5,11.4-10.5,20.2h12.4V140z"/>
		<path fill="#FFFFFF" d="M145.3,131.5v-7.2h10.5v-10.5h7.2v10.5h10.5v7.2H163V142h-7.2v-10.5H145.3z"/>
		<path fill="#FFFFFF" d="M199.9,109.3v38.5h-8.5v-38.5H199.9z"/>
	</g>
</g>
</svg>
