<?xml version="1.0" encoding="utf-8"?>
<!-- Generator: Adobe Illustrator 22.0.1, SVG Export Plug-In . SVG Version: 6.00 Build 0)  -->
<svg version="1.1" id="Layer_1" xmlns="http://www.w3.org/2000/svg" xmlns:xlink="http://www.w3.org/1999/xlink" x="0px" y="0px"
	 viewBox="0 0 300 300" style="enable-background:new 0 0 300 300;" xml:space="preserve">
<style type="text/css">
	.st0{opacity:0.6;fill:#48605C;enable-background:new    ;}
	.st1{fill:#FFFFFF;}
</style>
<circle class="st0" cx="150" cy="149.9" r="137.5"/>
<g>
	<path class="st1" d="M170.7,159.7c9,16,18.1,30.8,23,47.6c3,10.3-0.6,20.4-9,26.2c-8.5,5.9-20.2,5.8-28.4-0.2
		c-8.3-6.1-11.9-16.3-8.7-26.4C152.9,190.4,161.6,175.6,170.7,159.7z M187.7,207.5c-2.6,11.3-9.5,17.8-18.9,23.1
		C183.2,232.3,192.7,220.9,187.7,207.5z"/>
	<path class="st1" d="M184.1,60.1c6.3,11.1,12.6,21.5,16,33.1c2.1,7.2-0.4,14.2-6.2,18.2c-5.9,4.1-14.1,4.1-19.8-0.2
		c-5.8-4.2-8.3-11.4-6.1-18.4C171.6,81.5,177.7,71.2,184.1,60.1z M195.9,93.4c-1.8,7.9-6.6,12.4-13.1,16.1
		C192.7,110.7,199.4,102.7,195.9,93.4z"/>
	<path class="st1" d="M117.9,76.1c11.8,21.1,23.6,40.3,30.1,62c6.3,20.8-8.4,40.3-30,40.5c-21.4,0.2-36.7-19.6-30.5-40.1
		C94.2,116.7,105.8,97.1,117.9,76.1z M114,169.5c21.3,0.8,31.8-11.7,26.2-30.6C136.6,153.6,128.1,162.7,114,169.5z"/>
</g>
</svg>
