<?xml version="1.0" encoding="utf-8"?>
<!-- Generator: Adobe Illustrator 22.0.1, SVG Export Plug-In . SVG Version: 6.00 Build 0)  -->
<svg version="1.0" id="Layer_1" xmlns="http://www.w3.org/2000/svg" xmlns:xlink="http://www.w3.org/1999/xlink" x="0px" y="0px"
	 viewBox="0 0 300 300" enable-background="new 0 0 300 300" xml:space="preserve">
<g id="British">
	<g id="Layer_1_copy_5">
		<circle fill="#48605C" cx="150" cy="150" r="137.5"/>
	</g>
	<g>
		<path fill="#FFFFFF" d="M250,163c-30,0-60,0-90,0c0,17.3,0,34.5,0,51.8c-6.7,0-13.3,0-20,0c0-17.3,0-34.5,0-51.8c-30,0-60,0-90,0
			c0-0.2,0-0.4,0-0.6c0-8.2,0-16.4,0-24.6c0-0.7,0-0.7,0.6-0.7c13.7,0,27.4,0,41,0c15.8,0,31.7,0,47.5,0c0.3,0,0.6,0,0.9,0
			c0-17.3,0-34.5,0-51.8c6.7,0,13.3,0,20,0c0,17.2,0,34.5,0,51.8c30,0,60,0,90,0C250,145.7,250,154.3,250,163z"/>
		<path fill="#FFFFFF" d="M166.7,175.3c20.3,13.2,40.5,26.3,60.8,39.4v0.1c-20.2,0-40.5,0-60.7,0
			C166.7,201.6,166.7,188.5,166.7,175.3z"/>
		<path fill="#FFFFFF" d="M133.3,175.3c0,13.2,0,26.3,0,39.4c-20.3,0-40.5,0-60.7,0v-0.1C92.8,201.6,113,188.5,133.3,175.3z"/>
		<path fill="#FFFFFF" d="M166.7,124.7c0-13.2,0-26.3,0-39.4c20.3,0,40.5,0,60.7,0v0.1C207.2,98.4,187,111.5,166.7,124.7z"/>
		<path fill="#FFFFFF" d="M133.3,85.3c0,13.1,0,26.2,0,39.4C113,111.5,92.8,98.4,72.6,85.3v-0.1C92.8,85.3,113,85.3,133.3,85.3z"/>
		<path fill="#FFFFFF" d="M168.5,128.3c0.4-0.3,0.7-0.4,1-0.6c21.8-14.1,43.5-28.2,65.3-42.3c0.2-0.1,0.4-0.2,0.6-0.2
			c4.7,0,9.5,0,14.2,0c0.1,0,0.1,0,0.3,0c-0.2,0.1-0.2,0.2-0.3,0.2c-22,14.2-44,28.5-65.9,42.7c-0.2,0.1-0.4,0.2-0.6,0.2
			c-4.8,0-9.5,0-14.3,0C168.7,128.4,168.7,128.4,168.5,128.3z"/>
		<path fill="#FFFFFF" d="M50.2,214.7c0.8-0.5,1.6-1,2.3-1.5c21.3-13.8,42.5-27.6,63.8-41.3c0.2-0.1,0.4-0.2,0.6-0.2
			c4.7,0,9.5,0,14.2,0c0.1,0,0.2,0,0.3,0c-1.2,0.8-2.2,1.5-3.3,2.2c-21,13.6-42,27.2-63,40.8c-0.2,0.1-0.4,0.2-0.6,0.2
			c-4.8,0-9.6,0-14.4,0C50.2,214.8,50.2,214.7,50.2,214.7z"/>
		<path fill="#FFFFFF" d="M250,200.3c-14.7-9.5-29.4-19.1-44.1-28.6v-0.1c14.7,0,29.3,0,44.1,0C250,181.2,250,190.7,250,200.3z"/>
		<path fill="#FFFFFF" d="M50,128.3c0-9.5,0-19,0-28.6c14.7,9.5,29.4,19,44.1,28.5v0.1C79.4,128.3,64.7,128.3,50,128.3z"/>
		<path fill="#FFFFFF" d="M50,200.3c0-0.3,0-0.4,0-0.6c0-9.2,0-18.3,0-27.5c0-0.5,0.1-0.7,0.5-0.7c14.5,0,28.9,0,43.4,0
			c0.1,0,0.1,0,0.2,0.1C79.4,181.2,64.7,190.7,50,200.3z"/>
		<path fill="#FFFFFF" d="M206,128.3c14.7-9.5,29.3-19,44.1-28.5c0,9.6,0,19.1,0,28.6C235.3,128.4,220.7,128.4,206,128.3L206,128.3z
			"/>
		<path fill="#FFFFFF" d="M183.6,171.6c0.1,0,0.2,0,0.3,0c4.7,0,9.3,0,14,0c0.2,0,0.5,0.1,0.7,0.2c17,11,34.1,22.1,51.1,33.1
			c0.2,0.1,0.4,0.2,0.4,0.6c0,3,0,6,0,9c0,0.1,0,0.1,0,0.3c-22.2-14.4-44.3-28.7-66.5-43.1C183.6,171.7,183.6,171.6,183.6,171.6z"/>
		<path fill="#FFFFFF" d="M50,85.2c22.2,14.4,44.3,28.7,66.6,43.1c-0.2,0-0.3,0-0.4,0c-4.7,0-9.3,0-14,0c-0.2,0-0.5-0.1-0.7-0.2
			c-17-11-33.9-22-50.9-32.9c-0.5-0.3-0.6-0.6-0.6-1.3c0-2.7,0-5.3,0-8C50,85.7,50,85.5,50,85.2z"/>
	</g>
</g>
</svg>
