<?xml version="1.0" encoding="utf-8"?>
<!-- Generator: Adobe Illustrator 22.0.1, SVG Export Plug-In . SVG Version: 6.00 Build 0)  -->
<svg version="1.0" id="Qaulity" xmlns="http://www.w3.org/2000/svg" xmlns:xlink="http://www.w3.org/1999/xlink" x="0px" y="0px"
	 viewBox="0 0 300 300" enable-background="new 0 0 300 300" xml:space="preserve">
<g id="Layer_1_copy_4">
	<circle fill="#48605C" cx="150" cy="150" r="137.5"/>
</g>
<path fill="#FFFFFF" d="M210.8,77.7c-4.2,9.2,1.7,15.1,10.4,19.7c4.1,2.2,4.6,5.2,2,8.9c-0.1,0.1-0.2,0.3-0.3,0.4
	c-7.9,14.2-7.9,9,0.2,23.2c2.4,4.1,2.2,7.3-2.2,9.3c-9.4,4.4-12.9,11.3-10.3,21.5c1.1,4.4-1.1,7.1-5.7,7
	c-10.7-0.2-16.8,4.9-18.8,15.3c-0.9,4.4-4.1,5.6-7.8,3.7c-9.6-4.9-17.5-3.5-24,5.3c-2.6,3.5-6,3.3-8.6-0.1
	c-6.5-8.4-14-10.4-23.6-5.4c-3.9,2-7.2,0.8-8.2-3.8c-2.1-10.1-8-15.2-18.5-15c-5.3,0.1-7.1-3.1-5.9-7.8c2.5-9.6-1.1-15.8-9.7-20.3
	c-5.9-3.1-5.6-4.5-2.3-10.3c7.9-13.9,8-8.5,0.1-22.7c-3-5.5-2.9-6.3,2.4-10c10.9-7.7,11.1-7.7,9.7-20.7c-0.5-4.8,1-6.9,5.7-7.7
	c16.4-2.8,12.1,0.9,18.5-14.8c1.7-4.1,3.9-6.2,8.2-3.9c9.7,5,17.5,3.1,24-5.6c2.5-3.3,5.7-3.4,8.2,0c6.7,9,14.8,10.4,24.6,5.5
	c3.8-1.9,6.5-0.3,7.4,3.6c2.2,10.5,8.3,15.6,19.3,15.6C210.6,68.7,211.2,70.4,210.8,77.7z M100.4,118c-0.1,27.7,22,50,49.6,50.1
	c27.3,0.1,49.6-22.1,49.8-49.4c0.1-27.6-22.1-50.1-49.6-50.2C122.9,68.5,100.6,90.7,100.4,118z"/>
<path fill="#FFFFFF" d="M190.9,193.8c4.4,17.3,8.6,33.9,13.4,52.4c-6.3-2.1-10.9-3.4-15.3-5.4c-3.2-1.4-5.1-0.4-6.9,2.9
	c-2.7,4.7-5.6,9.1-9.1,14.7c-1.2-3.1-2.1-4.8-2.6-6.6c-3.8-14.5-7.6-29.1-11.1-43.7c-0.5-2-0.1-5.6,0.9-6.6c3-2.6,4.3-9,9.4-7
	c1.3,0.5,2.7,0.9,3.9,1.5C179.4,198.8,185.1,199.5,190.9,193.8z"/>
<path fill="#FFFFFF" d="M109.2,193.3c6.2,6.9,12.7,5.2,18.8,1.6c6.2-3.6,8.4,3,12.1,6.2c3.4,3,0.9,6.3,0.1,9.2
	c-3.3,13.4-6.7,26.7-10.2,40c-0.6,2.1-1.4,4.2-2.6,7.9c-3.6-5.6-6.6-9.8-9.2-14.4c-2-3.5-4.1-4.7-7.4-3.2c-3.4,1.5-6.9,2.5-10.4,3.8
	c-3,1.1-4.5,0.3-3.4-3.9C101,224.9,105,209.4,109.2,193.3z"/>
<path fill="#FFFFFF" d="M150.2,77.7c-20.4,0-37.2,14.8-40.2,34.4c-0.3,2-0.5,4-0.5,6.1c0,0,0,0,0,0c0,0,0,0,0,0
	c0,22.5,18.1,40.8,40.5,40.8c22.4,0.1,40.6-18.1,40.6-40.7C190.7,95.9,172.7,77.7,150.2,77.7z"/>
<g>
	<path fill="#48605C" d="M134.2,107.9l7,23.5H137l-1.3-4.6h-7.1l-1.2,4.6h-4.2l6.4-23.5H134.2z M134.5,122.7l-2.6-9.1l-2.3,9.1
		H134.5z"/>
	<path fill="#48605C" d="M152.3,107.9l7,23.5h-4.2l-1.3-4.6h-7.1l-1.2,4.6h-4.2l6.4-23.5H152.3z M152.6,122.7l-2.6-9.1l-2.3,9.1
		H152.6z"/>
	<path fill="#48605C" d="M170.4,107.9l7,23.5h-4.2l-1.3-4.6h-7.1l-1.2,4.6h-4.2l6.4-23.5H170.4z M170.7,122.7l-2.6-9.1l-2.3,9.1
		H170.7z"/>
</g>
</svg>
