<?xml version="1.0" encoding="utf-8"?>
<!-- Generator: Adobe Illustrator 22.0.1, SVG Export Plug-In . SVG Version: 6.00 Build 0)  -->
<svg version="1.0" id="Layer_1" xmlns="http://www.w3.org/2000/svg" xmlns:xlink="http://www.w3.org/1999/xlink" x="0px" y="0px"
	 viewBox="0 0 300 300" enable-background="new 0 0 300 300" xml:space="preserve">
<g id="Sapphire">
	<g id="Layer_1_copy_7">
		<circle fill="#48605C" cx="150" cy="150" r="137.5"/>
	</g>
	<path fill="#FFFFFF" d="M150,41.7C90.2,41.7,41.7,90.2,41.7,150S90.2,258.3,150,258.3S258.3,209.8,258.3,150S209.8,41.7,150,41.7z
		 M232,181c-2.1-0.9-1.9-2.1-0.5-3.5c5.5-5.1,10.9-10.1,16.4-15.2c0.5,7.5-1.4,14.2-3.7,20.8c-0.6,1.9-1.9,2.3-3.7,1.5
		C237.8,183.4,234.9,182.2,232,181z M235.1,202.6c-1.9,3.3-4.3,6.3-6.4,9.4c-0.4-0.2-0.7-0.4-1.1-0.6c-0.3-7.3-0.7-14.6-1.1-21.9
		c-0.1-2.6,0.6-3.5,3.2-2.3C242.4,193.1,242.6,189.3,235.1,202.6z M247.8,153.9c-6.9,6.3-13.8,12.6-20.6,19c-2.2,2.1-3.2,1.6-4.3-1
		c-2.6-6.5-5.4-12.9-8.1-19.4c-0.6-1.4-0.7-2.6-0.1-4c2.8-6.6,5.5-13.2,8.3-19.8c0.4-0.9,0.6-2.1,2.1-2.3c0.7,0.6,1.4,1.1,2.1,1.8
		c6.8,6.2,13.5,12.5,20.3,18.7C250.3,149.3,250.6,151.4,247.8,153.9z M202.8,221.6c0-0.1,0-0.1,0-0.2c-4.8,0-9.7,0-14.5,0
		c-2.4,0-3.4-1-2.2-3.6c2.9-6.6,5.6-13.2,8.3-19.8c0.7-1.6,1.9-2.3,3.4-3c6.2-2.6,12.4-5.1,18.5-7.8c2.7-1.2,4.1-0.9,4.2,2.3
		c0.3,9.5,0.7,19,1,28.5c0.1,3.4-2,4.6-5.2,4.4C211.8,222.2,207.3,221.9,202.8,221.6z M211.9,228.7c-6.5,5.4-12.6,9.1-19.1,12.1
		c-1.4,0.7-2.4,0.3-3-1.1c-0.8-1.9-1.6-3.7-2.4-5.6c-2.9-6.8-2.9-6.9,4.8-6.5C198.3,227.9,204.3,228.3,211.9,228.7z M109,221.5
		c-8.7,0-17.4,0-26.1,0c-3.4,1.2-5.4-0.2-5.3-3.8c0.3-9,0.7-18,1-27.1c0.1-3.8,1.3-4.9,5.1-3.1c6.6,3.2,14.8,4.4,19.7,9.2
		c4.8,4.8,6,13.1,9.2,19.6C114.6,220.7,112.6,221.5,109,221.5z M112.6,231.2c-5.7,12-1.9,12.3-15,5c-3.5-2-6.9-4.2-10.4-7.6
		c8.2-0.4,15.6-0.7,22.9-1.1C113.4,227.3,114,228.4,112.6,231.2z M61.9,190.1c3.4-1,6.2-4.1,10.2-3.1c0.2,0.1,0.3,0.9,0.3,1.3
		c-0.3,7.7-0.7,15.4-1.1,24.6c-5.5-6.7-9.3-12.8-12.2-19.5C58,190.9,60.6,190.5,61.9,190.1z M57.8,184.9c-1.2,0.5-2.2,0.1-2.7-1.1
		c-2.5-6.8-4.5-13.8-5-22.4c6.6,6.1,12.3,11.4,17.9,16.7c1.3,1.2,0.7,2.2-0.7,2.8C64.1,182.3,61,183.6,57.8,184.9z M71.9,173.1
		c-6.9-6.6-13.9-13-20.9-19.4c-2-1.9-2.7-3.9-0.4-6c7.3-6.8,14.6-13.6,21.9-20.3c0.4-0.4,1-0.7,1.4-0.9c1.2,0.4,1.5,1.3,1.8,2.2
		c2.8,6.6,5.6,13.2,8.4,19.8c0.6,1.4,0.7,2.6,0.1,4c-2.8,6.6-5.6,13.2-8.3,19.8C74.9,174.7,73.9,174.9,71.9,173.1z M68.5,120.9
		c0.5,0.9,0,1.5-0.5,2c-5.6,5.3-11.3,10.5-17.9,16.7c0.6-8.6,2.6-15.4,4.9-22.1c0.2-0.6,0.9-1.3,1.6-1.6
		C57.3,115.5,68,120.1,68.5,120.9z M62.9,100.1c2.3-3.8,4.4-7.8,8.5-11.6c0.4,8.4,0.7,15.9,1.1,23.3c0.1,2.5-0.9,3-3,2
		c-0.8-0.4-1.7-0.7-2.6-1.1C57.6,108.9,57.6,108.9,62.9,100.1z M188.8,79.5c4.8,0,9.7,0,14.5,0c0-0.1,0-0.1,0-0.2
		c4.4-0.3,8.7-0.5,13.1-0.8c3.5-0.2,5.3,1.3,5.2,4.9c-0.3,9-0.7,18.1-0.9,27.1c-0.1,3.6-1.1,4.8-4.8,3c-5.8-2.7-11.7-5.1-17.7-7.5
		c-2-0.8-3.3-2-4.2-4c-2.5-6.2-5.1-12.4-7.8-18.5C184.9,80.5,185.9,79.5,188.8,79.5z M186.1,70.6c0.1-0.3,0.2-0.6,0.4-0.9
		c5.6-11.9,1.8-12.3,14.9-5c3.4,1.9,6.7,4,10.4,7.6c-8.7,0.4-16.2,0.7-23.8,1.1C185.6,73.6,185.2,72.5,186.1,70.6z M89,160.3
		c3.6,8.7,7.2,17.4,11.3,27.5c-7.1-2.9-12.7-5.2-18.3-7.5c-1.1-0.4-2-1.1-1.4-2.5c2.4-5.8,4.8-11.7,7.2-17.5
		C88.1,160.2,88.5,160.3,89,160.3z M80.6,123.3c-0.4-1-0.1-1.9,0.9-2.3c5.8-2.5,11.6-4.9,17.4-7.3c0.3,0.3,0.5,0.6,0.8,0.9
		c-3.6,8.7-7.2,17.3-10.7,26c-0.4,0-0.8,0.1-1.3,0.1C85.3,134.9,82.9,129.1,80.6,123.3z M93.3,153.9c-1-2.3-1.1-4.3-0.1-6.7
		c4.7-11.2,9.3-22.5,13.8-33.8c1.1-2.7,2.6-4.3,5.3-5.4c11.3-4.5,22.6-9.1,33.8-13.8c2.3-1,4.4-1,6.7,0c11.2,4.7,22.5,9.3,33.8,13.9
		c2.1,0.8,3.9,1.8,4.8,4.1c4.8,12,9.8,24,14.7,36c0.3,0.7,0.5,1.5,0.8,2.4c-0.4,1.1-0.7,2.3-1.2,3.4c-4.5,11.1-9.2,22.2-13.6,33.4
		c-1.1,2.8-2.8,4.6-5.6,5.7c-11.2,4.4-22.3,9-33.4,13.7c-2.5,1.1-4.7,1-7.1,0c-11.1-4.7-22.2-9.2-33.4-13.7
		c-2.9-1.1-4.5-2.9-5.6-5.7C102.5,176.1,97.9,165,93.3,153.9z M210.1,160.4c0.4-0.1,0.9-0.2,1.3-0.2c2.4,5.9,4.8,11.8,7.2,17.7
		c0.5,1.1-0.3,1.8-1.2,2.2c-5.7,2.4-11.4,4.7-17.1,7.1c-0.3-0.3-0.6-0.6-0.8-1C202.9,177.6,206.5,169,210.1,160.4z M209.9,140.8
		c-3.6-8.7-7.2-17.4-10.8-26.1c0.3-0.3,0.6-0.6,0.9-0.9c5.7,2.3,11.3,4.7,17,7c1.5,0.6,1.6,1.6,1,3
		C215.7,129.4,213.4,135,209.9,140.8z M186.2,99.7c-0.3,0.3-0.6,0.6-0.8,0.9c-8.7-3.6-17.3-7.2-26-10.7c0-0.4,0-0.8-0.1-1.2
		c5.8-2.4,11.6-4.8,17.5-7.2c1.4-0.6,2.1,0.3,2.5,1.4C181.6,88.5,183.9,94.1,186.2,99.7z M183.2,61.3c-1.5,2.8-2.6,5.9-4.2,9.5
		c-6.1-6.6-11.8-12.7-18-19.3c4.5-0.9,8.1,0.7,11.7,1.4c2.4,0.5,4.8,1.4,7.2,1.9C184,55.6,185.3,57.5,183.2,61.3z M172.2,73
		c1.6,1.7,1.6,2.8-0.7,3.7c-6.8,2.8-13.5,5.6-20.2,8.5c-1.4,0.6-2.7,0.4-4-0.2c-6.4-2.7-12.9-5.5-19.4-8.1c-2.2-0.9-3.1-1.8-1-3.9
		c6.6-7,13.1-14.1,19.7-21.2c0.7-0.8,1.5-1.6,2.8-1.5c1.4-0.2,2.3,0.6,3.2,1.6C159.1,58.9,165.6,66,172.2,73z M119.9,70.9
		c-1.8-4.4-3.4-8.1-4.9-11.8c-0.6-1.5-0.3-2.7,1.4-3.3c6.7-2.4,13.6-4,21.2-4C131.9,58,126.2,64.2,119.9,70.9z M120.4,81.9
		c0.5-1.1,1.6-0.6,2.5-0.2c5.6,2.3,11.2,4.6,16.8,6.9c0,0.4-0.1,0.9-0.1,1.3c-8.6,3.6-17.2,7.1-25.7,10.7c-0.4-0.2-0.8-0.4-1.1-0.7
		C115.3,93.9,117.8,87.9,120.4,81.9z M109.2,79.4c3.6,0,5.3,0.8,3.3,4.9c-3.2,6.6-4.5,14.6-9.1,19.8c-4.7,5.2-13.1,6.1-19.7,9.2
		c-3.8,1.8-5.2,1.2-5.3-3.2c-0.1-8.9-0.6-17.8-0.9-26.6c-0.2-4.3,2.3-5.4,6-4.1C92.1,79.4,100.7,79.4,109.2,79.4z M88.3,71.3
		c5.4-4.4,11.4-8,17.7-11.1c1.6-0.8,2.7-0.5,3.3,1.2c0.1,0.1,0.1,0.3,0.2,0.4c1.2,3.6,5.2,7.7,3.5,10.6c-1.6,2.7-6.9,0.5-10.5,0.5
		c-4.6-0.1-9.2,0-13.9,0C88.5,72.4,88.4,71.9,88.3,71.3z M112.3,199.7c10.1,4.2,18.8,7.8,27.5,11.4c0,0.4,0,0.8,0,1.2
		c-5.7,2.4-11.4,4.7-17.1,7.1c-1.6,0.7-2.3-0.2-2.9-1.4C117.4,212.3,115.2,206.8,112.3,199.7z M115,241.8c1.5-3.7,3.1-7.4,4.9-11.8
		c6.2,6.7,11.8,12.8,17.5,18.9c-7.5,0.4-14.3-1.4-21.1-3.7C114.7,244.6,114.4,243.3,115,241.8z M126.8,227.8c-1-1-2.2-2.3,0-3.2
		c7.3-3.1,14.6-6.2,22-9.2c0.3-0.1,0.6-0.1,1.3-0.2c2.7,1.1,5.7,2.4,8.7,3.6c4.3,1.8,8.6,3.7,12.9,5.4c2,0.8,2.3,1.8,0.8,3.4
		c-6.7,7.2-13.3,14.4-20,21.6c-2,2.2-4,2-6-0.2C139.9,242,133.3,234.9,126.8,227.8z M179.1,230c1.8,4.4,3.4,8.1,4.9,11.9
		c0.6,1.6,0.2,2.7-1.5,3.3c-6.7,2.3-13.5,4.1-22,4.8C167.2,242.9,172.9,236.7,179.1,230z M179,218.6c-0.6,1.3-1.6,1.2-2.8,0.7
		c-5.6-2.3-11.2-4.6-16.8-6.9c0-0.4,0-0.9,0-1.3c8.7-3.6,17.3-7.1,26-10.7c0.3,0.3,0.6,0.6,0.9,0.8
		C183.8,206.9,181.4,212.8,179,218.6z M227.1,89.4c0.5-0.1,1.1-0.2,1.6-0.3c4.3,5.5,8,11.4,11,17.7c0.8,1.7,0.4,2.6-1.3,3.2
		c-0.1,0.1-0.3,0.1-0.4,0.2c-3.6,1.3-7.9,5.2-10.5,3.5c-2.7-1.8-0.5-7.2-0.4-11C227.2,98.3,227.1,93.9,227.1,89.4z M246.7,125.8
		c1,4,2.3,8.1,2,13.5c-6.3-5.8-11.7-10.9-17.2-16c-1.5-1.4-1.5-2.3,0.5-3.5C242.2,113.8,243.9,114.4,246.7,125.8z"/>
</g>
</svg>
