<?xml version="1.0" encoding="utf-8"?>
<!-- Generator: Adobe Illustrator 22.0.1, SVG Export Plug-In . SVG Version: 6.00 Build 0)  -->
<svg version="1.0" id="Layer_1" xmlns="http://www.w3.org/2000/svg" xmlns:xlink="http://www.w3.org/1999/xlink" x="0px" y="0px"
	 viewBox="0 0 300 300" enable-background="new 0 0 300 300" xml:space="preserve">
<g id="Swiss">
	<g id="Layer_1_copy">
		<circle fill="#48605C" cx="150" cy="150" r="137.5"/>
	</g>
	<path fill="#FEFEFE" d="M122.7,209.2c0-8.4-0.3-16.8,0.1-25.1c0.2-5.1-1-7-6.6-6.9c-17.5,0.4-35,0.1-52.6,0.2c-3.6,0-5.1-0.6-5-4.7
		c0.3-15.2,0.2-30.4,0-45.6c0-3.6,1-4.6,4.6-4.5c18.1,0.2,36.2,0,54.3,0.2c4.1,0,5.3-1.1,5.2-5.2c-0.2-17.9,0-35.8-0.2-53.7
		c-0.1-4.1,1.1-5.2,5.2-5.1c14.8,0.2,29.6,0.3,44.4,0c4.7-0.1,5.3,1.5,5.3,5.6c-0.2,17.3,0.1,34.7-0.2,52c-0.1,5,0.9,6.7,6.3,6.6
		c17.5-0.4,35,0,52.6-0.2c3.9,0,5.4,0.7,5.3,5c-0.3,15-0.2,30,0,45c0.1,3.8-1.1,4.9-4.9,4.8c-17.9-0.2-35.8,0.1-53.7-0.2
		c-4.4-0.1-5.6,1.2-5.5,5.5c0.3,17.9,0,35.8,0.2,53.7c0,3.9-1.1,4.9-4.9,4.8c-15-0.2-30-0.3-45,0c-4.3,0.1-5.1-1.5-5-5.3
		C122.9,227.1,122.7,218.1,122.7,209.2z"/>
</g>
</svg>
