<?xml version="1.0" encoding="utf-8"?>
<!-- Generator: Adobe Illustrator 22.0.1, SVG Export Plug-In . SVG Version: 6.00 Build 0)  -->
<svg version="1.1" id="Layer_1" xmlns="http://www.w3.org/2000/svg" xmlns:xlink="http://www.w3.org/1999/xlink" x="0px" y="0px"
	 viewBox="0 0 300 300" style="enable-background:new 0 0 300 300;" xml:space="preserve">
<style type="text/css">
	.st0{fill:#48605C;}
	.st1{fill:#FFFFFF;}
	.st2{enable-background:new    ;}
</style>
<g id="Layer_1_copy_6">
	<circle class="st0" cx="150" cy="150" r="137.5"/>
</g>
<g>
	<path class="st1" d="M107.5,58.4c10.1,8.4,14.3,19.4,14.8,32.2c8.1,2.5,16.2,4.1,24.7,3.3c5.4,0.7,10.7-0.1,15.9-1.2
		c8.4-1.7,8.6-2.2,9.9-10.5c1.3-8.7,4-16.7,10.8-22.8c2.1-1.9,2.9-4.2,2.4-6.9c-4.4-6-10.6-7-17.3-6.4c-2.1,0.2-4.1,0.7-5.3-1.7
		c-0.7-0.6-1.4-1.3-2-1.9c-5.5-2-11-4-16.6-0.5c-2.2,0.2-3.5,2.8-6.1,2c-8.8-2.8-17.3-1-25.6,2.4c-1.5,0.9-3,1.8-4.4,2.8
		C106.4,52,103.5,55.1,107.5,58.4z"/>
	<path class="st1" d="M167.6,95.5c-7,2.8-14.3,3-21.7,3.6l0,0c-8.2-0.4-16.4-1.2-23.8-5.3c-2.9,2.5-1.9,4.8,0.3,7.1
		c8.3,3.2,16.8,4.2,25.6,3.3c7.5,0.7,14.7-0.3,21.6-3.3c2.2-1,3.5-2.5,2.7-4.8C171.3,93.2,169.2,94.9,167.6,95.5z"/>
	<path class="st1" d="M221.4,224.6c-1.5-2.6-1.7-5-1.4-7.8c1-11.4,0.6-22.7-0.8-34c-1.4-11.5-8-34.5-8.1-35
		c-6.7-18.8-21-30.9-36.8-41.7c-1.3-0.9-2.3-1.8-4.2-0.9c-7.6,3.6-15.9,4.1-24.1,4.4c-7.8-0.6-15.6-0.7-22.7-4.5
		c-3.4-0.4-5.8,1.9-8.3,3.6c-10.6,7.3-25.2,18.8-34.5,44.2c-3.1,11.1-4.3,16-5.8,24.1c-2.3,13.9-3.1,27.9-1.4,42
		c0.2,1.8-0.4,3.3-1.3,4.8c-4,7-2.6,10.7,4.8,14c3.8,0.2,7.6,0.1,11.2,1.3c8.4,2.8,36.8,6,40.2,6.1l0,0c8.9,2.1,18,0.3,27,1
		c0.7,0,1.4-0.1,2.1-0.1c19.5-0.7,38.5-4.9,57.6-8.4C222.5,236.3,225.2,231.3,221.4,224.6z"/>
</g>
<g>
	<path class="st1" d="M127.3,171.5c-12.5,0-22.6-10.2-22.6-22.6s10.2-22.6,22.6-22.6s22.6,10.2,22.6,22.6S139.8,171.5,127.3,171.5z"
		/>
	<path class="st0" d="M127.3,128.3c11.4,0,20.6,9.3,20.6,20.6c0,11.4-9.3,20.6-20.6,20.6s-20.6-9.3-20.6-20.6
		C106.7,137.5,115.9,128.3,127.3,128.3 M127.3,124.3c-13.6,0-24.6,11-24.6,24.6s11,24.6,24.6,24.6s24.6-11,24.6-24.6
		S140.9,124.3,127.3,124.3L127.3,124.3z"/>
</g>
<g>
	<path class="st1" d="M130.7,212c-12.5,0-22.6-10.2-22.6-22.6s10.2-22.6,22.6-22.6s22.6,10.2,22.6,22.6S143.2,212,130.7,212z"/>
	<path class="st0" d="M130.7,168.7c11.4,0,20.6,9.3,20.6,20.6c0,11.4-9.3,20.6-20.6,20.6c-11.4,0-20.6-9.3-20.6-20.6
		S119.4,168.7,130.7,168.7 M130.7,164.7c-13.6,0-24.6,11-24.6,24.6s11,24.6,24.6,24.6s24.6-11,24.6-24.6S144.4,164.7,130.7,164.7
		L130.7,164.7z"/>
</g>
<g>
	<path class="st1" d="M163.5,183.7c-12.5,0-22.6-10.2-22.6-22.6s10.2-22.6,22.6-22.6s22.6,10.2,22.6,22.6S176,183.7,163.5,183.7z"/>
	<path class="st0" d="M163.5,140.4c11.4,0,20.6,9.3,20.6,20.6s-9.3,20.6-20.6,20.6c-11.4,0-20.6-9.3-20.6-20.6
		S152.1,140.4,163.5,140.4 M163.5,136.4c-13.6,0-24.6,11-24.6,24.6s11,24.6,24.6,24.6s24.6-11,24.6-24.6S177.1,136.4,163.5,136.4
		L163.5,136.4z"/>
</g>
<g class="st2">
	<path class="st0" d="M119.7,159.2v-1.7c2.3-1.2,4-3.5,4-6.1c0-0.8,0-1.5-0.2-2.4h-3.6v-2.2h3.2c-0.2-1-0.4-2.4-0.4-3.8
		c0-4.1,2.8-6.8,6.7-6.8c1.8,0,3.1,0.4,3.8,0.9l-0.7,2.3c-0.6-0.3-1.6-0.7-3.1-0.7c-2.7,0-3.8,1.9-3.8,4.4c0,1.5,0.2,2.6,0.4,3.7h5
		v2.2h-4.8c0.1,1.3,0.2,2.7-0.1,3.9c-0.4,1.5-1.2,2.8-2.4,3.8v0.1h10.4v2.5H119.7z"/>
</g>
<g class="st2">
	<path class="st0" d="M129.7,203.3v-3.5c-2,0-4.1-0.7-5.3-1.5l0.8-2.3c1.3,0.8,3.1,1.5,5,1.5c2.5,0,4.2-1.4,4.2-3.4
		c0-1.9-1.4-3.1-3.9-4.2c-3.6-1.4-5.8-3-5.8-6c0-2.9,2.1-5.1,5.3-5.6v-3.5h2.2v3.4c2.1,0.1,3.5,0.6,4.5,1.2l-0.9,2.3
		c-0.7-0.4-2.2-1.2-4.4-1.2c-2.7,0-3.7,1.6-3.7,3c0,1.8,1.3,2.7,4.3,4c3.6,1.5,5.4,3.3,5.4,6.4c0,2.8-1.9,5.3-5.5,5.9v3.6H129.7z"/>
</g>
<g class="st2">
	<path class="st0" d="M169,170.3c-1.1,0.7-2.9,1.5-5.2,1.5c-2.8,0-5.3-1.1-7.1-3.1c-1.3-1.5-2.2-3.5-2.5-6h-2.2V161h2
		c0-0.2,0-0.3,0-0.5c0-0.6,0-1.1,0.1-1.6h-2.1v-1.7h2.3c0.4-2.4,1.5-4.5,2.9-5.9c1.8-1.9,4.1-2.9,6.9-2.9c2.1,0,3.7,0.6,4.6,1.1
		l-0.7,2.3c-0.9-0.5-2.3-1-3.9-1c-1.9,0-3.4,0.7-4.6,1.9c-1,1-1.7,2.6-2.1,4.4h9.7v1.7h-10.1c0,0.5-0.1,1-0.1,1.5c0,0.2,0,0.4,0,0.6
		h10.1v1.7h-9.9c0.3,2,1,3.5,1.9,4.6c1.3,1.4,3,2,4.9,2c1.9,0,3.5-0.7,4.3-1.2L169,170.3z"/>
</g>
<g>
	<path class="st1" d="M176.4,224.7c-12.5,0-22.6-10.2-22.6-22.6s10.2-22.6,22.6-22.6S199,189.6,199,202S188.8,224.7,176.4,224.7z"/>
	<path class="st0" d="M176.4,181.4c11.4,0,20.6,9.3,20.6,20.6s-9.3,20.6-20.6,20.6c-11.4,0-20.6-9.3-20.6-20.6
		S165,181.4,176.4,181.4 M176.4,177.4c-13.6,0-24.6,11-24.6,24.6s11,24.6,24.6,24.6s24.6-11,24.6-24.6S190,177.4,176.4,177.4
		L176.4,177.4z"/>
</g>
<g class="st2">
	<path class="st0" d="M174.5,214v-6.1h-5.4v-1.7h5.4v-2.5h-5.4v-1.7h4.5l-5.9-10.6h3.3l3.6,7.2c0.6,1.2,1,2.1,1.4,3.2h0.1
		c0.3-1,0.8-2.1,1.4-3.2l3.8-7.1h3.2l-6.3,10.6h4.5v1.7h-5.4v2.5h5.4v1.7h-5.4v6.1H174.5z"/>
</g>
</svg>
