<?xml version="1.0" encoding="utf-8"?>
<!-- Generator: Adobe Illustrator 23.0.6, SVG Export Plug-In . SVG Version: 6.00 Build 0)  -->
<svg version="1.1" id="Layer_1" xmlns="http://www.w3.org/2000/svg" xmlns:xlink="http://www.w3.org/1999/xlink" x="0px" y="0px"
	 viewBox="0 0 300 300" style="enable-background:new 0 0 300 300;" xml:space="preserve">
<style type="text/css">
	.st0{fill:#48605C;}
	.st1{fill:#CDBAD0;}
	.st2{fill:#E6DDE7;}
	.st3{fill:#F0EAF1;}
	.st4{fill:#1C1C1A;}
	.st5{fill:#7B6A82;}
	.st6{fill:#231F20;}
	.st7{fill:url(#SVGID_1_);}
</style>
<g id="British">
	<g id="Layer_1_copy_5">
		<circle class="st0" cx="150" cy="150" r="137.5"/>
	</g>
</g>
<rect x="30.1" y="102.5" class="st1" width="240" height="29.2"/>
<g>
	<polygon class="st1" points="47.3,116.4 150,236.8 104.3,116.4 	"/>
	<polygon class="st1" points="195.7,116.4 150,236.8 252.7,116.4 	"/>
	<polygon class="st2" points="150,63.2 104.3,116.4 150,116.4 195.7,116.4 	"/>
	<polygon class="st3" points="150,116.4 104.3,116.4 150,236.8 195.7,116.4 	"/>
	<polygon class="st2" points="93.3,63.2 47.3,116.4 104.3,116.4 	"/>
	<polygon class="st3" points="206.7,63.2 195.7,116.4 252.7,116.4 	"/>
	<polygon class="st1" points="150,63.2 195.7,116.4 206.7,63.2 	"/>
	<polygon class="st1" points="93.3,63.2 104.3,116.4 150,63.2 	"/>
</g>
<path class="st4" d="M55.2,105.4v0.8c-2.2,0.1-2.2,0.3-2.2,1.9v12.7c0,2-0.4,3.6-1.2,4.7c-1.4,2-3.9,3-7.9,3c-4.4,0-6.9-0.9-8.2-3
	c-0.8-1.2-1.1-2.8-1.1-4.7v-12.7c0-1.6-0.1-1.8-2.3-1.9v-0.8H42v0.8c-1.9,0.1-2.2,0.3-2.2,1.9v14c0,3.7,1.3,5.5,4,5.5
	c2.7,0,4.1-1.9,4.1-5.5v-14c0-1.6-0.1-1.8-2.3-1.9v-0.8H55.2z"/>
<path class="st4" d="M72.8,106.3l-1.9-0.2v-0.7h8.1v0.7c-1.9,0.2-2.5,0.3-3.6,1.1c-2.3,1.8-4.2,3.7-6.8,6.4
	c1.8,3.1,4.9,8.5,7.9,11.9c0.8,0.9,1.8,1.7,2.7,1.8v0.8l-2.5-0.1c-4.3-0.1-5.6-0.4-7.8-3.6c-1.5-2.2-2.4-4.1-4.2-7.6v-0.3
	c2.8-2.7,7.1-7.5,8.3-9.4C73.3,106.7,73.2,106.3,72.8,106.3 M59.1,108.1c0-1.5-0.3-1.8-2.4-1.9v-0.8h10.1v0.8
	c-2.2,0.1-2.4,0.3-2.4,1.9v17.1c0,1.6,0.1,1.8,2.4,1.9v0.8H56.7v-0.8c2.3-0.1,2.4-0.4,2.4-1.9V108.1z"/>
<path class="st4" d="M93.6,123.1c0,4.1-1,6.4-3.4,7.5c-1.7,0.8-3.2,1-4.8,1l-0.1-0.7c0.9-0.2,1.4-0.4,2.1-1.2
	c0.7-0.9,0.9-2.6,0.9-6.1v-15.6c0-1.5-0.1-1.8-2.5-1.9v-0.8h10.1v0.8c-2.3,0.1-2.3,0.3-2.3,1.9V123.1z"/>
<path class="st4" d="M99.7,108.1c0-1.6-0.4-1.7-2.5-1.9v-0.8h17.3v6.1h-0.8c-1.1-3.2-2.1-5-5.4-5h-2.2c-0.9,0-1.1,0.2-1.1,1.2v8.1
	h2.7c2.4,0,2.8-0.3,3.4-3.1h0.8v7.6h-0.8c-0.6-2.6-0.9-3.3-3.4-3.3H105v7.7c0,2.2,0.3,2.4,3.9,2.4c3.8,0,4.9-2.5,6.1-5.8h0.8
	l-0.7,6.9H97.3v-0.8c2.2-0.1,2.4-0.2,2.4-1.9V108.1z"/>
<path class="st4" d="M147.9,105.4v0.7c-1.7,0.2-2,0.4-2.5,1.8c-2,6.6-3.9,13.5-5.6,20h-4c-0.7-2.6-3.9-14-4.5-15.9h-0.1
	c0.1-0.7-3.6,16.6-3.4,15.9h-3.9c-1.6-6.3-3.3-13.8-5.3-20.3c-0.4-1.1-0.6-1.3-2.2-1.5v-0.7h9.8v0.7l-1.5,0.2
	c-0.8,0.1-0.6,0.6-0.5,1.2c0.2,1.1,2.7,11.6,3.7,15.3h0.1c-0.2,0.9,3.6-17.7,3.5-16.9h3.4c1.2,4.4,3.9,13.5,5.1,17.6h0.1
	c1.4-5.1,2.7-10.9,3.6-15.8c0.1-0.7,0.1-1.1-0.5-1.2l-1.9-0.3v-0.7H147.9z"/>
<path class="st4" d="M150.5,108.1c0-1.6-0.4-1.7-2.5-1.9v-0.8h17.3v6.1h-0.8c-1.1-3.2-2.1-5-5.4-5H157c-0.9,0-1.1,0.2-1.1,1.2v8.1
	h2.7c2.4,0,2.8-0.3,3.4-3.1h0.8v7.6H162c-0.6-2.6-0.9-3.3-3.4-3.3h-2.7v7.7c0,2.2,0.3,2.4,3.9,2.4c3.8,0,4.9-2.5,6.1-5.8h0.8
	l-0.7,6.9h-17.9v-0.8c2.2-0.1,2.4-0.2,2.4-1.9V108.1z"/>
<path class="st4" d="M176.2,124.5c0,2.1,0.8,2.4,3.3,2.4c3.8,0,4.5-2.5,5.8-5.5h0.8l-0.5,6.6h-17.2v-0.8c2.3-0.1,2.4-0.2,2.4-1.9
	v-17.1c0-1.6-0.2-1.8-2.4-1.9v-0.8h10.5v0.8c-2.5,0.1-2.7,0.3-2.7,1.9V124.5z"/>
<path class="st4" d="M195,124.5c0,2.1,0.8,2.4,3.3,2.4c3.8,0,4.5-2.5,5.8-5.5h0.8l-0.5,6.6h-17.2v-0.8c2.3-0.1,2.4-0.2,2.4-1.9
	v-17.1c0-1.6-0.2-1.8-2.4-1.9v-0.8h10.5v0.8c-2.5,0.1-2.7,0.3-2.7,1.9V124.5z"/>
<path class="st4" d="M208.6,108.1c0-1.6-0.4-1.7-2.5-1.9v-0.8h17.3v6.1h-0.8c-1.1-3.2-2.1-5-5.4-5h-2.2c-0.9,0-1.1,0.2-1.1,1.2v8.1
	h2.7c2.4,0,2.8-0.3,3.4-3.1h0.8v7.6h-0.8c-0.6-2.6-0.9-3.3-3.4-3.3h-2.7v7.7c0,2.2,0.3,2.4,3.9,2.4c3.8,0,4.9-2.5,6.1-5.8h0.8
	l-0.7,6.9h-17.9v-0.8c2.2-0.1,2.4-0.2,2.4-1.9V108.1z"/>
<path class="st4" d="M234.2,116.2h1c3.5,0,4.3-1.7,4.3-5c0-3.2-1.2-5-3.4-5c-1.8,0-1.9,0.2-1.9,1V116.2z M234.2,125.2
	c0,1.6,0.2,1.7,2.4,1.9v0.8h-10.1v-0.8c2.2-0.1,2.4-0.2,2.4-1.9v-17.1c0-1.6-0.3-1.8-2.4-1.9v-0.8h11.5c3.7,0,7,0.8,7,5.5
	c0,2.9-1.9,4.9-5.8,5.3v0.3c3.3,0.9,4.5,2.5,5.3,5.8c1.1,4.2,1.3,4.8,3.1,4.9v0.8h-2.5c-3.6,0-4.7-0.9-5.7-3.3
	c-0.4-1.1-0.7-3.1-0.9-4.3c-0.5-2.9-1.5-3.2-3.4-3.2h-1V125.2z"/>
<path class="st4" d="M251.4,127.9v-0.8c2.8-0.1,3.1-0.2,3.1-1.9v-5.7c0-0.9-0.2-1.6-0.6-2.3c-1.2-2.5-3.8-7.2-5.1-9.2
	c-0.9-1.4-1.1-1.7-2.8-1.9v-0.8h10.5v0.8l-1.7,0.2c-0.8,0.1-0.7,0.5-0.4,1.1c1.4,2.9,3.7,7.3,4.8,9.5h0.1c1.4-3,3.5-8.2,3.9-9.3
	c0.2-0.8,0.1-1.2-0.5-1.2l-1.8-0.2v-0.8h6.8v0.8c-1.7,0.2-2.3,0.4-3,1.6c-1.5,2.7-3.2,6.3-4.4,8.9c-0.4,0.8-0.6,1.4-0.6,2.4v6.1
	c0,1.6,0.3,1.8,3.1,1.9v0.8H251.4z"/>
<path class="st5" d="M92.5,137.2h-0.1c-0.4,1.3-2.3,7.5-2.8,9.2h5.8C94.9,144.6,93.2,139.3,92.5,137.2 M95.3,155.8V155l2-0.2
	c0.6,0,0.7-0.4,0.5-1.1c-0.5-1.6-1.5-4.6-2-6.2h-6.6c-0.8,2.5-1.4,4.5-1.8,6.4c-0.1,0.6-0.1,0.9,0.5,1l2,0.1v0.8h-6.8V155
	c1.7-0.1,2-0.3,2.5-1.4c0.9-1.8,5.3-14.3,7.2-20.4h3.7c1.6,5.1,5.2,16.3,6.7,20.4c0.5,1.3,0.9,1.5,2.5,1.5v0.8H95.3z"/>
<path class="st5" d="M135,133.3v0.7c-1.7,0.2-2,0.4-2.5,1.8c-2,6.6-3.9,13.5-5.6,20h-4c-0.7-2.6-3.9-14-4.5-15.9h-0.1
	c0.1-0.7-3.6,16.6-3.4,15.9H111c-1.6-6.3-3.3-13.8-5.3-20.3c-0.4-1.1-0.6-1.3-2.2-1.5v-0.7h9.8v0.7l-1.5,0.2
	c-0.8,0.1-0.6,0.6-0.5,1.2c0.2,1.1,2.7,11.6,3.7,15.3h0.1c-0.2,0.9,3.6-17.7,3.5-16.9h3.4c1.2,4.4,3.9,13.5,5.1,17.6h0.1
	c1.4-5.1,2.7-10.9,3.6-15.8c0.1-0.7,0.1-1.1-0.5-1.2l-1.9-0.3v-0.7H135z"/>
<path class="st5" d="M141.1,137.2H141c-0.4,1.3-2.3,7.5-2.8,9.2h5.8C143.4,144.6,141.8,139.3,141.1,137.2 M143.8,155.8V155l2-0.2
	c0.6,0,0.7-0.4,0.5-1.1c-0.5-1.6-1.5-4.6-2-6.2h-6.6c-0.8,2.5-1.4,4.5-1.8,6.4c-0.1,0.6-0.1,0.9,0.5,1l2,0.1v0.8h-6.8V155
	c1.7-0.1,2-0.3,2.5-1.4c0.9-1.8,5.3-14.3,7.2-20.4h3.7c1.6,5.1,5.2,16.3,6.7,20.4c0.5,1.3,0.9,1.5,2.5,1.5v0.8H143.8z"/>
<path class="st5" d="M162.9,144.1h1c3.5,0,4.3-1.7,4.3-5c0-3.2-1.2-5-3.4-5c-1.8,0-1.9,0.2-1.9,1V144.1z M162.9,153.1
	c0,1.6,0.2,1.7,2.4,1.9v0.8h-10.1V155c2.2-0.1,2.4-0.2,2.4-1.9V136c0-1.6-0.3-1.8-2.4-1.9v-0.8h11.5c3.7,0,7,0.8,7,5.5
	c0,2.9-1.9,4.9-5.8,5.3v0.3c3.3,0.9,4.5,2.5,5.3,5.8c1.1,4.2,1.3,4.8,3.1,4.9v0.8h-2.5c-3.6,0-4.7-0.9-5.7-3.3
	c-0.4-1.1-0.8-3.1-0.9-4.3c-0.5-2.9-1.5-3.2-3.4-3.2h-1V153.1z"/>
<path class="st5" d="M184.6,153.7c0,0.8,0.4,1.2,2.3,1.2c3.5,0,6.2-2,6.2-10.6c0-6.4-2.1-10.2-6.1-10.2c-1.9,0-2.4,0.1-2.4,0.8
	V153.7z M187.6,133.3c4.3,0,6.9,0.8,8.8,2.6c1.9,1.8,2.6,4.5,2.6,8.2c0,11.3-8.1,11.8-12.9,11.8h-9.2V155c2.3-0.1,2.4-0.3,2.4-1.9
	V136c0-1.6-0.4-1.8-2.4-1.9v-0.8H187.6z"/>
<path class="st5" d="M215.2,139.6c-1-3.9-3.2-6-5.3-6c-1.9,0-3.4,1.1-3.4,3.5c0,2.7,2.5,3.9,4.9,5.2c2.7,1.3,5.7,2.7,5.7,7
	c0,3.4-1.8,7.1-8.2,7.1c-2,0-4.7-0.3-6.5-1.9l-0.5-5.9h0.7c1.3,4.1,3.8,6.9,6.3,6.9c3,0,3.6-2,3.6-3.6c0-2.3-1.3-3.5-4.3-5
	c-2.8-1.4-6-2.8-6-7.3c0-4,2.4-6.8,7.9-6.8c1.6,0,4.1,0.4,5.8,1.5v5.4H215.2z"/>
<path class="st6" d="M104.1,94.4h0.6c2,0,2.4-0.9,2.4-2.8c0-1.8-0.7-2.8-1.9-2.8c-1,0-1.1,0.1-1.1,0.6V94.4z M104.1,99.4
	c0,0.9,0.1,1,1.3,1.1v0.5H100v-0.5c1.2,0,1.3-0.1,1.3-1.1v-9.6c0-0.9-0.2-1-1.3-1.1v-0.4h6.3c2.1,0,3.8,0.5,3.8,3.1
	c0,1.6-1,2.7-3.1,3v0.2c1.9,0.5,2.6,1.4,3,3.2c0.6,2.3,0.7,2.7,1.7,2.7v0.5h-1.3c-2,0-2.7-0.5-3.2-1.9c-0.2-0.6-0.4-1.7-0.5-2.4
	c-0.3-1.6-0.9-1.8-2-1.8h-0.5V99.4z"/>
<path class="st6" d="M115.4,96.1c0.3,0,0.5,0,0.5-0.5c0-1.3-0.2-2.6-1.1-2.6c-1,0-1.3,1.6-1.3,3.1H115.4z M113.6,96.6
	c0,2,0.5,3.4,2.2,3.4c1,0,1.8-0.3,2.4-1.6l0.3,0.2c-0.6,1.6-1.6,2.6-3.6,2.6c-3.1,0-4-2-4-4.3c0-2.3,1-4.3,4-4.3
	c3.3,0,3.6,2.1,3.6,3.4c0,0.6-0.3,0.6-0.9,0.6H113.6z"/>
<path class="st6" d="M121.9,93.4v5.2c0,1,0.3,1.5,0.9,1.5c0.4,0,0.6-0.1,0.8-0.2l0.1,0.3c-1,0.7-2,0.9-2.6,0.9
	c-0.9,0-1.9-0.6-1.9-2.2v-5.6h-0.9v-0.7c0,0,0.4-0.1,1-0.8c0.7-0.7,1.5-2.3,1.5-2.3h1v3.1h1.6v0.7H121.9z"/>
<path class="st6" d="M128.5,96.1c-0.4,0.2-1,0.5-1.4,0.8c-0.5,0.3-0.6,0.7-0.6,1.5c0,1,0.4,1.9,1.2,1.9c0.3,0,0.9-0.2,0.9-1.1V96.1z
	 M131,99.1c0,1,0.2,1.1,0.4,1.3c0.2,0.1,0.4,0.1,0.6,0.1l0,0.3c-0.6,0.3-1.3,0.5-2.2,0.5c-0.9,0-1.2-0.5-1.4-1.1
	c-0.6,0.4-1.2,1.1-2.3,1.1c-1.7,0-2.4-1.2-2.4-2.4c0-1,0.4-1.7,1.8-2c1.2-0.3,2.5-0.7,2.9-1.1v-1.1c0-1-0.4-1.5-1-1.5
	c-0.6,0-1.1,0.4-1.5,2c-0.1,0.4-0.4,0.6-0.7,0.6c-0.4,0-1.2-0.3-1.2-1c0-0.9,1.2-2.1,3.7-2.1c3,0,3.3,1.4,3.3,2.5V99.1z"/>
<path class="st6" d="M134.6,89.2c0.8,0,1.3,0.6,1.3,1.3c0,0.7-0.5,1.3-1.3,1.3c-0.8,0-1.3-0.6-1.3-1.3
	C133.2,89.8,133.7,89.2,134.6,89.2L134.6,89.2z M133.3,94.4c0-0.7-0.1-0.8-0.4-0.8l-0.5-0.1v-0.4l3.4-0.5l0.1,0.1v7.1
	c0,0.7,0.2,0.7,1.1,0.8v0.4h-4.6v-0.4c0.8,0,1-0.1,1-0.8V94.4z"/>
<path class="st6" d="M138,89.9c0-0.7-0.1-0.8-0.4-0.8L137,89v-0.4l3.5-0.3l0,0v11.5c0,0.7,0.1,0.7,1,0.8v0.4h-4.7v-0.4
	c0.9-0.1,1.1-0.1,1.1-0.8V89.9z"/>
<path class="st6" d="M154.7,96.1c0.3,0,0.5,0,0.5-0.5c0-1.3-0.2-2.6-1.1-2.6c-1,0-1.3,1.6-1.3,3.1H154.7z M152.8,96.6
	c0,2,0.5,3.4,2.2,3.4c1,0,1.8-0.3,2.4-1.6l0.3,0.2c-0.6,1.6-1.6,2.6-3.6,2.6c-3.1,0-4-2-4-4.3c0-2.3,1-4.3,4-4.3
	c3.2,0,3.6,2.1,3.6,3.4c0,0.6-0.3,0.6-0.9,0.6H152.8z"/>
<path class="st6" d="M161.7,92.8v0.4l-0.5,0.1c-0.3,0-0.4,0.2-0.3,0.5c0.4,1.3,1.1,3.8,1.4,4.9h0.1c-0.1,0.2,1.4-6.2,1.4-5.9h1.6
	c0.5,1.5,1.5,4.5,2,5.9h0.1c0.4-1.6,1-4.1,1.2-4.9c0.1-0.4-0.1-0.4-0.3-0.5l-0.8-0.1v-0.4h3.1v0.4c-0.8,0.1-1,0.1-1.2,0.8
	c-0.4,1.1-1.4,4.4-2.1,6.9h-1.8c-0.3-1-1.5-4.6-1.7-5.3h-0.1c0.1-0.2-1.3,5.5-1.3,5.3h-1.8c-0.7-2.2-1.4-4.8-2.2-7
	c-0.2-0.5-0.3-0.6-1-0.7v-0.4H161.7z"/>
<path class="st6" d="M174,96.1c0.3,0,0.5,0,0.5-0.5c0-1.3-0.2-2.6-1.1-2.6c-1,0-1.3,1.6-1.3,3.1H174z M172.1,96.6
	c0,2,0.5,3.4,2.2,3.4c1,0,1.8-0.3,2.4-1.6l0.3,0.2c-0.6,1.6-1.6,2.6-3.6,2.6c-3.1,0-4-2-4-4.3c0-2.3,1-4.3,4-4.3
	c3.2,0,3.6,2.1,3.6,3.4c0,0.6-0.3,0.6-0.9,0.6H172.1z"/>
<path class="st6" d="M177.7,89.9c0-0.7-0.1-0.8-0.4-0.8l-0.6-0.1v-0.4l3.5-0.3l0,0v11.5c0,0.7,0.1,0.7,1,0.8v0.4h-4.6v-0.4
	c0.9-0.1,1-0.1,1-0.8V89.9z"/>
<path class="st6" d="M182.2,89.9c0-0.7-0.1-0.8-0.4-0.8l-0.6-0.1v-0.4l3.5-0.3l0,0v11.5c0,0.7,0.1,0.7,1,0.8v0.4h-4.6v-0.4
	c0.9-0.1,1-0.1,1-0.8V89.9z"/>
<path class="st6" d="M189.9,96.1c0.3,0,0.5,0,0.5-0.5c0-1.3-0.2-2.6-1.1-2.6c-1,0-1.3,1.6-1.3,3.1H189.9z M188,96.6
	c0,2,0.5,3.4,2.2,3.4c1,0,1.8-0.3,2.4-1.6l0.3,0.2c-0.6,1.6-1.6,2.6-3.6,2.6c-3.1,0-4-2-4-4.3c0-2.3,1-4.3,4-4.3
	c3.3,0,3.6,2.1,3.6,3.4c0,0.6-0.3,0.6-0.9,0.6H188z"/>
<path class="st6" d="M196.4,99.8c0,0.7,0.1,0.7,1.3,0.8v0.4h-4.9v-0.4c0.9-0.1,1-0.1,1-0.8v-5.3c0-0.7-0.1-0.8-0.4-0.8l-0.5-0.1
	v-0.4l3.2-0.5l0.2,1.7c1-1.1,1.5-1.7,2.2-1.7c0.7,0,1.2,0.4,1.2,1.2c0,0.6-0.5,1.5-1.2,1.5c-0.3,0-0.5-0.1-0.8-0.3
	c-0.4-0.3-0.6-0.5-0.9-0.5c-0.4,0-0.5,0.4-0.5,1.2V99.8z"/>
<path class="st6" d="M145.6,88.3v0.4c1.2,0,1.3,0.2,1.3,1v8.7c0,1.8,0,2.7-0.5,3.2c-0.7,0.7-2.2,0.3-2.2,0.3l-0.1,0.2
	c0.4,0.2,1.2,0.4,1.8,0.4c2.6,0,3.7-1.3,3.7-3.4v-9.4c0-0.8,0-0.9,1.2-1v-0.4H145.6z"/>
<g>
	<path class="st5" d="M112.5,186.2l-0.5-0.6c0.1-2.4,1.8-5.3,6.8-9.4c3.9-3.3,4.5-5.9,4.5-8.3c0-2.4-0.8-4.2-2.6-4.2
		c-1.7,0-2.8,1.9-3.4,4.7c-0.2,1-0.8,1.3-1.6,1.3c-1.2,0-3-0.8-3-2.3c0-3.1,3.6-5.4,8.3-5.4c4.5,0,8,1.8,8,6.7
		c0,3.7-2.3,5.6-6.5,7.8c-3.9,2.1-5.1,4.1-5.7,5.3h9c1.5,0,2-0.2,3-2.1l1.2,0.2l-1.4,6.2H112.5z"/>
	<path class="st5" d="M150.3,174.4c0,6.5-2.1,12.3-8.8,12.3c-6.7,0-8.9-5.9-8.9-12.3c0-6.6,2.1-12.3,8.9-12.3
		C148.1,162.1,150.3,167.9,150.3,174.4z M138.2,174.4c0,4,0.3,10.6,3.3,10.6c2.9,0,3.2-6.6,3.2-10.6c0-4-0.3-10.6-3.2-10.6
		C138.5,163.7,138.2,170.3,138.2,174.4z"/>
	<path class="st5" d="M153.6,186.2v-1.3l2.4-0.2c0.9-0.1,1.2-0.3,1.2-1.5v-16.4c0-1.3-0.3-1.6-1.2-1.8l-2.2-0.5v-1.1l8.5-1.4
		l0.3,0.3v20.8c0,1.1,0.4,1.4,1.2,1.5l2.4,0.2v1.3H153.6z"/>
	<path class="st5" d="M178,162.1c3.4,0,5.6,1.2,7,3.2c1.3,2,1.9,4.9,1.9,8.5c0,5.1-1.1,8.5-2.8,10.4c-1.6,1.8-4,2.5-6.8,2.5
		c-5.3,0-7.2-2.9-7.2-4.2c0-1.5,1.6-2.4,2.6-2.4c0.9,0,1.4,0.4,1.6,1.1c1,3.1,2,3.8,3.3,3.8c1.8,0,3.6-1.5,3.8-10h-0.1
		c-1,1.1-2.7,2.2-4.6,2.2c-3.8,0-7.2-2.3-7.2-7.1C169.6,165.6,172.6,162.1,178,162.1z M175.1,169.2c0,3,1.3,5.2,3.6,5.2
		c1.1,0,2-0.7,2.4-1.3c0.4-0.6,0.4-1.3,0.4-2.3c0-4.2-1.1-7.1-3.2-7.1C176.2,163.7,175.1,165.9,175.1,169.2z"/>
</g>
<radialGradient id="SVGID_1_" cx="142.0319" cy="210.6644" r="83.9934" gradientTransform="matrix(0.5832 0 0 1 67.1689 0)" gradientUnits="userSpaceOnUse">
	<stop  offset="0" style="stop-color:#FFFFFF"/>
	<stop  offset="0.5902" style="stop-color:#CEDAF0"/>
	<stop  offset="1" style="stop-color:#B5C9E8"/>
</radialGradient>
<rect x="81.4" y="193.8" class="st7" width="137.1" height="33.7"/>
<g>
	<path class="st6" d="M117.5,200.1v1.1c-1.6,0.2-1.9,0.4-2.3,1.7c-0.4,1.4-1.3,4.3-2.1,7.5l-2.8,10.3h-3.8l-3.7-13.9h-0.1l-3.5,13.9
		h-3.7l-2.6-9.9c-0.8-3.1-1.6-6-2.2-8.2c-0.3-1.1-0.5-1.3-2-1.4v-1.1h8.5v1.1l-1.4,0.2c-0.3,0-0.5,0.1-0.6,0.3
		c-0.1,0.2,0,0.4,0.1,0.8l3.4,13.4h0.1l3.7-15.4h3.3l3.9,15.4h0.1l1.7-6.7c0.9-3.7,1.4-5.9,1.5-6.7c0.1-0.7,0.1-1.1-0.6-1.2
		l-1.7-0.2v-1.1H117.5z"/>
	<path class="st6" d="M124.7,217.9c0,1.5,0.2,1.7,2.4,1.8v1.1h-9.5v-1.1c2.1-0.1,2.4-0.2,2.4-1.8V203c0-1.5-0.2-1.7-2.4-1.8v-1.1
		h9.5v1.1c-2.1,0.1-2.4,0.2-2.4,1.8V217.9z"/>
	<path class="st6" d="M135.9,200.1c3.1,4.7,6.2,9.4,9.4,14.2h0.1v-6.7c0-2.4,0-3.6-0.1-4.6c-0.1-1-0.4-1.5-1.2-1.6l-1.7-0.1v-1.1
		h7.2v1.1l-1,0.1c-0.7,0.1-1,0.5-1.1,1.6c-0.1,1-0.1,2.2-0.1,4.6v13.1h-3.3c-3.5-5.5-7.1-11.1-10.8-16.6H133v9.1
		c0,2.4,0,3.6,0.1,4.6c0.1,1,0.4,1.5,1.2,1.6l1.7,0.1v1.1h-7.2v-1.1l1-0.1c0.7-0.1,1-0.5,1.1-1.6c0.1-1,0.1-2.2,0.1-4.6V203
		c0-1.5-0.2-1.7-2.4-1.8v-1.1H135.9z"/>
	<path class="st6" d="M157.9,200.1c3.1,4.7,6.2,9.4,9.4,14.2h0.1v-6.7c0-2.4,0-3.6-0.1-4.6c-0.1-1-0.4-1.5-1.2-1.6l-1.7-0.1v-1.1
		h7.2v1.1l-1,0.1c-0.7,0.1-1,0.5-1.1,1.6c-0.1,1-0.1,2.2-0.1,4.6v13.1h-3.3c-3.5-5.5-7.1-11.1-10.8-16.6H155v9.1
		c0,2.4,0,3.6,0.1,4.6c0.1,1,0.4,1.5,1.3,1.6l1.7,0.1v1.1h-7.2v-1.1l1-0.1c0.7-0.1,1-0.5,1.1-1.6c0.1-1,0.1-2.2,0.1-4.6V203
		c0-1.5-0.2-1.7-2.4-1.8v-1.1H157.9z"/>
	<path class="st6" d="M175.4,203c0-1.5-0.2-1.7-2.4-1.8v-1.1h16v5.5h-1.1c-0.9-2.9-1.5-4.1-4.5-4.1h-2.2c-0.8,0-1,0.2-1,1.1v6.6h2.8
		c1.9,0,2.3-0.5,2.7-2.7h1.1v6.9h-1.1c-0.5-2.2-0.9-2.7-2.7-2.7h-2.8v6.5c0,1.9,0.9,2.2,3.7,2.2c3.5,0,4-1.6,5.1-4.8h1.1l-0.4,6.2
		H173v-1.1c2.1-0.1,2.4-0.2,2.4-1.8V203z"/>
	<path class="st6" d="M198.9,217.9c0,1.5,0.2,1.7,2.3,1.8v1.1h-9.5v-1.1c2.1-0.1,2.3-0.2,2.3-1.8V203c0-1.5-0.2-1.7-2.3-1.8v-1.1
		h10.3c2.9,0,4.6,0.6,5.7,1.5c1.1,1,1.5,2.3,1.5,3.8c0,2.6-2.1,4.5-5,4.9v0.1c3.1,0.8,3.6,2.7,4,5.1c0.3,1.5,0.7,2.6,1.5,3.4
		c0.4,0.4,0.9,0.6,1.4,0.7v1.1H209c-3.1,0-4.4-0.8-5.1-3c-0.5-1.5-0.7-3.1-1-4.2c-0.4-1.6-1.2-2.3-2.7-2.3h-1.4V217.9z M198.9,209.9
		h1.5c3,0,4-1.8,4-4.3c0-3-1.5-4.1-3.5-4.1c-1.6,0-1.9,0.4-1.9,1.2V209.9z"/>
</g>
</svg>
