<?xml version="1.0" encoding="utf-8"?>
<!-- Generator: Adobe Illustrator 22.0.1, SVG Export Plug-In . SVG Version: 6.00 Build 0)  -->
<svg version="1.1" id="Layer_1" xmlns="http://www.w3.org/2000/svg" xmlns:xlink="http://www.w3.org/1999/xlink" x="0px" y="0px"
	 viewBox="0 0 1050 410" style="enable-background:new 0 0 1050 410;" xml:space="preserve">
<style type="text/css">
	.st0{fill:#FFFFFF;}
	.st1{opacity:0.9;fill:#7D9E98;enable-background:new    ;}
	.st2{opacity:0.9;fill:#617F79;enable-background:new    ;}
	.st3{opacity:0.9;fill:#48605C;enable-background:new    ;}
	.st4{opacity:0.9;fill:#3D4F4C;enable-background:new    ;}
</style>
<g>
	<g>
		<path class="st0" d="M259.5,5l105.4,225.9h-24.4L305,156.6h-97.4l-35.2,74.3h-25.2L254,5H259.5z M256.7,53L218,134.8h77.2
			L256.7,53z"/>
		<path class="st0" d="M396.7,5h22.6v225.9h-22.6V5z"/>
		<path class="st0" d="M471,230.9V5h46.9c33.8,0,58.4,2.8,73.6,8.2c21.9,7.7,39,21,51.4,39.9c12.3,19,18.5,41.5,18.5,67.7
			c0,22.6-4.9,42.5-14.7,59.8c-9.8,17.2-22.5,29.9-38.1,38.1c-15.6,8.2-37.5,12.3-65.7,12.3H471V230.9z M492.7,209.5h26.1
			c31.2,0,52.9-2,65-5.8c17-5.5,30.4-15.5,40.1-29.9c9.8-14.4,14.6-31.9,14.6-52.7c0-21.8-5.3-40.4-15.8-55.8s-25.2-26-44.1-31.8
			c-14.2-4.3-37.4-6.4-69.9-6.4h-16L492.7,209.5L492.7,209.5z"/>
		<path class="st0" d="M797.4,5l105.4,225.9h-24.4l-35.5-74.3h-97.4l-35.2,74.3h-25.2L791.9,5H797.4z M794.6,53l-38.7,81.8h77.2
			L794.6,53z"/>
	</g>
	<g>
		<circle class="st0" cx="234" cy="297.9" r="107.1"/>
		<circle class="st0" cx="428" cy="297.9" r="107.1"/>
		<circle class="st0" cx="622" cy="297.9" r="107.1"/>
		
			<ellipse transform="matrix(0.7071 -0.7071 0.7071 0.7071 28.3296 664.2383)" class="st0" cx="816" cy="297.9" rx="107.1" ry="107.1"/>
	</g>
	<g>
		<path class="st1" d="M264.7,293.4c-1.3,0-2.5,0.5-3.5,1.5c-0.9,1-1.4,2.2-1.4,3.6c0,0.9,0.2,1.7,0.6,2.5s1,1.4,1.8,1.8
			s1.6,0.6,2.4,0.6c0.9,0,1.7-0.2,2.4-0.6c0.8-0.4,1.3-1,1.8-1.8s0.6-1.7,0.6-2.5c0-1.4-0.5-2.6-1.4-3.6
			C267.2,293.9,266,293.4,264.7,293.4z"/>
		<path class="st1" d="M234,190.8c-59.2,0-107.1,48-107.1,107.1S174.8,405,234,405s107.1-48,107.1-107.1S293.1,190.8,234,190.8z
			 M196.1,304.7l-2.7-5.6h-7.3l-2.7,5.6h-1.9l8-16.9h0.5l7.9,16.9H196.1z M206,293.6h-2.6v11.2h-1.7v-11.2h-2.2v-1.4h2.2v-4.6h1.7
			v4.6h2.6V293.6z M214,293.6h-2.6v11.2h-1.7v-11.2h-2.2v-1.4h2.2v-4.6h1.7v4.6h2.6V293.6z M218.8,302.1c0.9,0.9,2,1.4,3.3,1.4
			c0.6,0,1.3-0.1,1.9-0.3c0.6-0.2,1.1-0.6,1.6-0.9c0.4-0.4,0.8-1,1.3-1.8l1.3,0.7c-0.5,0.9-0.9,1.6-1.6,2.1c-0.6,0.6-1.3,0.9-2,1.3
			c-0.7,0.3-1.6,0.4-2.5,0.4c-2,0-3.6-0.7-4.8-2s-1.7-2.8-1.7-4.6c0-1.6,0.5-3,1.5-4.2c1.3-1.6,2.9-2.4,5-2.4s3.9,0.8,5.1,2.4
			c0.9,1.2,1.3,2.6,1.4,4.2h-11.2C217.4,300,217.8,301.2,218.8,302.1z M242.7,304.7H241v-6c0-1.4-0.1-2.4-0.2-2.9
			c-0.2-0.9-0.6-1.4-1.1-1.9c-0.6-0.4-1.3-0.6-2-0.6c-0.9,0-1.9,0.3-2.6,0.9c-0.7,0.6-1.3,1.4-1.5,2.4c-0.2,0.6-0.2,1.7-0.2,3.4v4.6
			h-1.7v-12.3h1.7v2.3c0.6-0.9,1.3-1.5,2.1-2c0.8-0.4,1.7-0.6,2.6-0.6c0.9,0,1.7,0.2,2.5,0.7s1.3,1.1,1.6,1.9s0.6,2,0.6,3.8v6.3
			L242.7,304.7L242.7,304.7z M251.6,293.6H249v11.2h-1.7v-11.2h-2.2v-1.4h2.2v-4.6h1.7v4.6h2.6V293.6z M255.4,304.7h-1.7v-12.5h1.7
			V304.7z M255.5,289.3c-0.2,0.2-0.6,0.4-0.9,0.4c-0.4,0-0.7-0.2-0.9-0.4c-0.2-0.2-0.4-0.6-0.4-0.9s0.2-0.7,0.4-0.9
			c0.2-0.2,0.6-0.4,0.9-0.4c0.4,0,0.7,0.2,0.9,0.4c0.2,0.2,0.4,0.6,0.4,0.9S255.7,289.1,255.5,289.3z M269.4,303.1
			c-1.3,1.3-2.8,2-4.7,2c-1.9,0-3.5-0.6-4.7-2c-1.3-1.3-1.8-2.8-1.8-4.6c0-1.7,0.6-3.2,1.7-4.5c1.3-1.5,2.8-2.2,4.8-2.2
			s3.5,0.7,4.8,2.1c1.2,1.3,1.7,2.8,1.7,4.6C271.2,300.3,270.6,301.8,269.4,303.1z M285.2,304.7h-1.7v-6c0-1.4-0.1-2.4-0.2-2.9
			c-0.2-0.9-0.6-1.4-1.1-1.9c-0.6-0.4-1.3-0.6-2-0.6c-0.9,0-1.9,0.3-2.6,0.9s-1.3,1.4-1.5,2.4c-0.2,0.6-0.2,1.7-0.2,3.4v4.6h-1.7
			v-12.3h1.6v2.3c0.6-0.9,1.3-1.5,2.1-2c0.8-0.4,1.7-0.6,2.6-0.6s1.7,0.2,2.5,0.7s1.3,1.1,1.6,1.9c0.3,0.8,0.6,2,0.6,3.8
			L285.2,304.7L285.2,304.7z"/>
		<polygon class="st1" points="186.9,297.5 192.7,297.5 189.8,291.4 		"/>
		<path class="st1" d="M225.9,295.1c-0.4-0.6-0.9-0.9-1.7-1.3c-0.7-0.3-1.4-0.5-2.1-0.5c-1.3,0-2.3,0.4-3.1,1.2
			c-0.6,0.6-1.1,1.4-1.5,2.6h9.4C226.6,296.3,226.3,295.6,225.9,295.1z"/>
	</g>
	<g>
		<path class="st2" d="M425.8,295.1c-0.4-0.6-0.9-0.9-1.7-1.3c-0.7-0.3-1.4-0.5-2.1-0.5c-1.3,0-2.3,0.4-3.1,1.2
			c-0.6,0.6-1.1,1.4-1.5,2.6h9.4C426.5,296.3,426.1,295.6,425.8,295.1z"/>
		<path class="st2" d="M428,190.8c-59.2,0-107.1,48-107.1,107.1S368.8,405,428,405s107.1-48,107.1-107.1S487.1,190.8,428,190.8z
			 M390.2,304.7h-1.7v-16.9h1.7V304.7z M404.8,304.7h-1.7v-6c0-1.4-0.1-2.4-0.2-2.9c-0.2-0.9-0.6-1.4-1.1-1.9
			c-0.6-0.4-1.3-0.6-2-0.6c-0.9,0-1.9,0.3-2.6,0.9s-1.3,1.4-1.5,2.4c-0.2,0.6-0.2,1.7-0.2,3.4v4.6h-1.7v-12.3h1.7v2.3
			c0.6-0.9,1.3-1.5,2.1-2c0.8-0.4,1.7-0.6,2.6-0.6s1.7,0.2,2.5,0.7s1.3,1.1,1.6,1.9c0.3,0.8,0.6,2,0.6,3.8L404.8,304.7L404.8,304.7z
			 M413.8,293.6h-2.6v11.2h-1.7v-11.2h-2.2v-1.4h2.2v-4.6h1.7v4.6h2.6V293.6z M418.6,302.1c0.9,0.9,2,1.4,3.3,1.4
			c0.6,0,1.3-0.1,1.9-0.3s1.1-0.6,1.6-0.9c0.4-0.4,0.9-1,1.3-1.8l1.3,0.7c-0.5,0.9-0.9,1.6-1.6,2.1c-0.6,0.6-1.3,0.9-2,1.3
			c-0.7,0.3-1.6,0.4-2.5,0.4c-2,0-3.6-0.7-4.8-2c-1.2-1.3-1.7-2.8-1.7-4.6c0-1.6,0.5-3,1.5-4.2c1.3-1.6,2.9-2.4,5-2.4
			s3.9,0.8,5.1,2.4c0.9,1.2,1.3,2.6,1.4,4.2h-11.2C417.2,300,417.7,301.2,418.6,302.1z M436.4,293.5c-0.3-0.2-0.6-0.2-0.9-0.2
			c-0.6,0-1,0.2-1.6,0.6c-0.5,0.5-0.9,1.1-1.2,2c-0.2,0.7-0.3,2.1-0.3,4.3v4.2h-1.7v-12.3h0.1h1.7v1.8c0.5-0.7,1-1.3,1.6-1.7
			s1.1-0.6,1.7-0.6c0.5,0,0.9,0.2,1.4,0.4L436.4,293.5z M441.1,302.1c0.9,0.9,2,1.4,3.3,1.4c0.6,0,1.3-0.1,1.9-0.3
			c0.6-0.2,1.1-0.6,1.6-0.9c0.3-0.4,0.8-1,1.3-1.8l1.3,0.7c-0.5,0.9-0.9,1.6-1.6,2.1c-0.6,0.6-1.3,0.9-2,1.3
			c-0.7,0.3-1.6,0.4-2.5,0.4c-2,0-3.6-0.7-4.8-2c-1.2-1.3-1.7-2.8-1.7-4.6c0-1.6,0.5-3,1.5-4.2c1.3-1.6,2.9-2.4,5-2.4
			s3.9,0.8,5.1,2.4c0.9,1.2,1.3,2.6,1.4,4.2h-11.2C439.7,300,440.1,301.2,441.1,302.1z M459.2,304c-0.7,0.7-1.7,1.1-2.7,1.1
			c-0.7,0-1.4-0.2-2-0.5s-1.2-0.8-1.7-1.3l1-1.2c0.8,0.9,1.7,1.4,2.6,1.4c0.6,0,1.2-0.2,1.7-0.6s0.7-0.9,0.7-1.5
			c0-0.5-0.2-0.9-0.5-1.3c-0.3-0.3-0.9-0.8-2-1.3c-1.1-0.6-1.9-1.2-2.3-1.7c-0.4-0.6-0.6-1.2-0.6-2c0-0.9,0.3-1.7,0.9-2.4
			c0.6-0.6,1.5-0.9,2.4-0.9c1.2,0,2.4,0.6,3.5,1.7l-1,1.1c-0.9-0.9-1.7-1.3-2.5-1.3c-0.6,0-0.9,0.2-1.3,0.6
			c-0.4,0.3-0.6,0.8-0.6,1.2c0,0.4,0.2,0.8,0.5,1.2c0.3,0.4,0.9,0.8,2,1.3c1.2,0.6,2,1.3,2.4,1.8c0.4,0.6,0.6,1.3,0.6,2
			C460.3,302.5,459.9,303.3,459.2,304z M468.8,293.6h-2.6v11.2h-1.7v-11.2h-2.2v-1.4h2.2v-4.6h1.7v4.6h2.6V293.6z"/>
		<path class="st2" d="M448.2,295.1c-0.4-0.6-0.9-0.9-1.7-1.3c-0.7-0.3-1.4-0.5-2.1-0.5c-1.3,0-2.3,0.4-3.1,1.2
			c-0.6,0.6-1.1,1.4-1.5,2.6h9.4C449,296.3,448.6,295.6,448.2,295.1z"/>
	</g>
	<g>
		<path class="st3" d="M616.4,295.1c-0.4-0.6-0.9-0.9-1.7-1.3c-0.7-0.3-1.4-0.5-2.1-0.5c-1.3,0-2.3,0.4-3.1,1.2
			c-0.6,0.6-1.1,1.4-1.5,2.6h9.4C617.1,296.3,616.8,295.6,616.4,295.1z"/>
		<path class="st3" d="M652.7,295.1c-0.4-0.6-0.9-0.9-1.7-1.3c-0.7-0.3-1.4-0.5-2.1-0.5c-1.3,0-2.3,0.4-3.1,1.2
			c-0.6,0.6-1.1,1.4-1.5,2.6h9.4C653.4,296.3,653.1,295.6,652.7,295.1z"/>
		<path class="st3" d="M597.6,289.9c-1-0.3-2.8-0.5-5.3-0.5h-1.2V303h2c2.4,0,3.9-0.2,4.9-0.5c1.3-0.4,2.3-1.2,3-2.2
			c0.7-1.1,1.1-2.4,1.1-3.9c0-1.7-0.4-3.1-1.2-4.2C600.1,291.2,599,290.3,597.6,289.9z"/>
		<path class="st3" d="M622,190.8c-59.2,0-107.1,48-107.1,107.1S562.9,405,622,405s107.1-48,107.1-107.1S681.2,190.8,622,190.8z
			 M602.7,301c-0.7,1.3-1.7,2.3-2.8,2.8c-1.2,0.6-2.8,0.9-5,0.9h-5.4v-0.1v-16.9h3.5c2.5,0,4.4,0.2,5.5,0.6c1.7,0.6,2.9,1.6,3.9,3
			c0.9,1.4,1.4,3.1,1.4,5.1C603.8,298.3,603.4,299.8,602.7,301z M609.2,302.1c0.9,0.9,2,1.4,3.3,1.4c0.6,0,1.3-0.1,1.9-0.3
			c0.6-0.2,1.1-0.6,1.6-0.9c0.4-0.4,0.9-1,1.3-1.8l1.3,0.7c-0.5,0.9-0.9,1.6-1.6,2.1c-0.6,0.6-1.3,0.9-2,1.3
			c-0.7,0.3-1.6,0.4-2.5,0.4c-2,0-3.6-0.7-4.8-2s-1.7-2.8-1.7-4.6c0-1.6,0.5-3,1.5-4.2c1.3-1.6,2.9-2.4,5-2.4s3.9,0.8,5.1,2.4
			c0.9,1.2,1.3,2.6,1.4,4.2h-11.2C607.8,300,608.3,301.2,609.2,302.1z M627.4,304c-0.7,0.7-1.7,1.1-2.7,1.1c-0.7,0-1.4-0.2-2-0.5
			s-1.2-0.8-1.7-1.3l1-1.2c0.8,0.9,1.7,1.4,2.6,1.4c0.6,0,1.2-0.2,1.7-0.6s0.7-0.9,0.7-1.5c0-0.5-0.2-0.9-0.5-1.3
			c-0.3-0.3-0.9-0.8-2-1.3c-1.1-0.6-1.9-1.2-2.3-1.7c-0.4-0.6-0.6-1.2-0.6-2c0-0.9,0.3-1.7,0.9-2.4c0.6-0.6,1.5-0.9,2.4-0.9
			c1.1,0,2.3,0.6,3.5,1.7l-1,1.1c-0.9-0.9-1.7-1.3-2.5-1.3c-0.6,0-0.9,0.2-1.3,0.6c-0.4,0.4-0.6,0.8-0.6,1.2c0,0.4,0.2,0.8,0.5,1.2
			c0.3,0.4,0.9,0.8,2,1.3c1.2,0.6,2,1.3,2.4,1.8c0.4,0.6,0.6,1.3,0.6,2C628.5,302.5,628.1,303.3,627.4,304z M632.7,304.7H631v-12.5
			h1.7V304.7z M632.7,289.3c-0.2,0.2-0.6,0.4-0.9,0.4c-0.4,0-0.7-0.2-0.9-0.4c-0.2-0.2-0.4-0.6-0.4-0.9s0.2-0.7,0.4-0.9
			c0.3-0.3,0.6-0.4,0.9-0.4c0.4,0,0.7,0.2,0.9,0.4c0.2,0.2,0.4,0.6,0.4,0.9S633,289.1,632.7,289.3z M640.9,293.5
			c-0.3-0.2-0.6-0.2-0.9-0.2c-0.6,0-1,0.2-1.6,0.6c-0.5,0.5-0.9,1.1-1.2,2c-0.2,0.7-0.3,2.1-0.3,4.3v4.2h-1.7v-12.3h0.1h1.7v1.8
			c0.5-0.7,1-1.3,1.6-1.7s1.1-0.6,1.7-0.6c0.5,0,0.9,0.2,1.4,0.4L640.9,293.5z M645.6,302.1c0.9,0.9,2,1.4,3.3,1.4
			c0.6,0,1.3-0.1,1.9-0.3c0.6-0.2,1.1-0.6,1.6-0.9c0.4-0.4,0.9-1,1.3-1.8l1.3,0.7c-0.5,0.9-0.9,1.6-1.6,2.1c-0.6,0.6-1.3,0.9-2,1.3
			c-0.7,0.3-1.6,0.4-2.5,0.4c-2,0-3.6-0.7-4.8-2s-1.7-2.8-1.7-4.6c0-1.6,0.5-3,1.5-4.2c1.3-1.6,2.9-2.4,5-2.4s3.9,0.8,5.1,2.4
			c0.9,1.2,1.3,2.6,1.4,4.2h-11.2C644.1,300,644.6,301.2,645.6,302.1z"/>
	</g>
	<g>
		<polygon class="st4" points="784.3,297.5 790.1,297.5 787.2,291.4 		"/>
		<path class="st4" d="M831.6,293.4c-1.3,0-2.5,0.5-3.5,1.5c-0.9,1-1.4,2.2-1.4,3.6c0,0.9,0.2,1.7,0.6,2.5c0.4,0.8,1,1.4,1.8,1.8
			s1.6,0.6,2.4,0.6c0.9,0,1.7-0.2,2.4-0.6c0.8-0.4,1.3-1,1.8-1.8s0.6-1.7,0.6-2.5c0-1.4-0.5-2.6-1.4-3.6
			C834.1,294,833,293.4,831.6,293.4z"/>
		<path class="st4" d="M816,190.8c-59.2,0-107.1,48-107.1,107.1S756.9,405,816,405s107.1-48,107.1-107.1S875.2,190.8,816,190.8z
			 M793.5,304.7l-2.7-5.5h-7.3l-2.7,5.6H779l8-16.9h0.4v-0.1l7.9,16.9H793.5z M807.4,304.4c-1,0.5-2.1,0.7-3.5,0.7
			c-2,0-3.6-0.6-5-1.9c-1.3-1.3-2-2.8-2-4.6c0-1.2,0.3-2.4,0.9-3.4c0.6-1,1.4-1.9,2.5-2.4c1.1-0.6,2.3-0.9,3.6-0.9
			c0.9,0,1.7,0.2,2.4,0.4c0.8,0.2,1.4,0.6,2,1s1,0.8,1.3,1.4l-1.3,0.8c-1.1-1.5-2.6-2.2-4.6-2.2c-1.5,0-2.8,0.5-3.8,1.5
			c-1,0.9-1.5,2.2-1.5,3.6c0,0.9,0.2,1.8,0.7,2.6c0.5,0.8,1.1,1.4,1.9,1.9c0.8,0.5,1.7,0.6,2.8,0.6c1.8,0,3.4-0.7,4.5-2.2l1.3,0.9
			C809.2,303.2,808.4,303.9,807.4,304.4z M818.6,293.6H816v11.2h-1.6v-11.2h-2.2v-1.4h2.2v-4.6h1.7v4.6h2.6v1.4H818.6z M822.3,304.7
			h-1.7v-12.5h1.7V304.7z M822.4,289.3c-0.2,0.2-0.6,0.4-0.9,0.4c-0.4,0-0.7-0.2-0.9-0.4c-0.2-0.2-0.4-0.6-0.4-0.9s0.2-0.7,0.4-0.9
			c0.3-0.3,0.6-0.4,0.9-0.4c0.4,0,0.7,0.2,0.9,0.4c0.2,0.2,0.4,0.6,0.4,0.9S822.7,289.1,822.4,289.3z M836.3,303.1
			c-1.3,1.3-2.8,2-4.7,2s-3.5-0.6-4.7-2c-1.3-1.3-1.8-2.8-1.8-4.6c0-1.7,0.6-3.2,1.7-4.5c1.3-1.5,2.8-2.2,4.8-2.2s3.5,0.7,4.8,2.1
			c1.2,1.3,1.7,2.8,1.7,4.6C838.1,300.3,837.5,301.8,836.3,303.1z M852.1,304.7h-1.7v-6c0-1.4-0.1-2.4-0.2-2.9
			c-0.2-0.9-0.6-1.4-1.1-1.9c-0.6-0.4-1.3-0.6-2-0.6c-0.9,0-1.9,0.3-2.6,0.9c-0.7,0.6-1.3,1.4-1.5,2.4c-0.2,0.6-0.2,1.7-0.2,3.4v4.6
			h-1.7v-12.3h1.7v2.3c0.6-0.9,1.3-1.5,2.1-2c0.8-0.4,1.7-0.6,2.6-0.6c0.9,0,1.7,0.2,2.5,0.7s1.3,1.1,1.6,1.9s0.6,2,0.6,3.8
			L852.1,304.7L852.1,304.7z"/>
	</g>
</g>
</svg>
